<?xml version="1.0" encoding="utf-8"?>
<!-- Generator: Adobe Illustrator 24.1.0, SVG Export Plug-In . SVG Version: 6.00 Build 0)  -->
<svg version="1.1" id="Layer_1" xmlns="http://www.w3.org/2000/svg" xmlns:xlink="http://www.w3.org/1999/xlink" x="0px" y="0px"
	 viewBox="0 0 842.5 500" style="enable-background:new 0 0 842.5 500;" xml:space="preserve">
<style type="text/css">
	.st0{clip-path:url(#SVGID_2_);}
	.st1{opacity:0.2;}
	.st2{fill:#FFFFFF;}
	.st3{fill:#FAFDFE;}
	.st4{fill:#F1F0EE;}
	.st5{fill:#D9D8D6;}
	.st6{fill:#FF787F;}
	.st7{fill:#F56E7C;}
	.st8{fill:#E54C6B;}
	.st9{fill:#4675AB;}
	.st10{fill:#3D699A;}
	.st11{fill:#324575;}
	.st12{fill:#FBFCF7;}
	.st13{fill:#F0F2FF;}
	.st14{fill:#D2D3CE;}
	.st15{fill:#C1C0BF;}
	.st16{fill:#959696;}
	.st17{fill:#C2C2C2;}
</style>
<g>
	<defs>
		<rect id="SVGID_1_" x="0" y="0" width="842.5" height="500"/>
	</defs>
	<clipPath id="SVGID_2_">
		<use xlink:href="#SVGID_1_"  style="overflow:visible;"/>
	</clipPath>
	<g class="st0">
		<path class="st1" d="M805.9,34.6L704.2-7.5c-4.8-2-10.2,0.3-12.2,5.1L678.1,31c-2,4.8,0.3,10.2,5.1,12.2l101.7,42.1
			c4.8,2,10.2-0.3,12.2-5.1l13.8-33.4C812.9,42,810.7,36.5,805.9,34.6z"/>
		<path class="st1" d="M900.8,35.4l-16.9-32c-2.4-4.6-8.1-6.3-12.6-3.9L774,50.9c-4.6,2.4-6.3,8.1-3.9,12.6l16.9,32
			c2.4,4.6,8.1,6.3,12.6,3.9L896.9,48C901.5,45.6,903.2,39.9,900.8,35.4z"/>
		<path class="st1" d="M739.2,129.1l-3.9-9.7l-4-10c-0.7-1.8-2.2-3.1-3.8-3.7c0,0,0,0,0,0c-0.2-0.1-0.4-0.1-0.6-0.2c0,0,0,0,0,0
			c-0.2,0-0.4-0.1-0.6-0.1c0,0,0,0-0.1,0c-0.2,0-0.4,0-0.6-0.1c0,0-0.1,0-0.1,0c-0.2,0-0.4,0-0.5,0c0,0-0.1,0-0.1,0
			c-0.2,0-0.3,0-0.5,0.1c-0.1,0-0.1,0-0.2,0c-0.2,0-0.3,0.1-0.5,0.1c-0.1,0-0.1,0-0.2,0c-0.2,0.1-0.4,0.1-0.7,0.2
			c-3.4,1.4-5,5.2-3.6,8.5l4,10l3.9,9.7c0.1,0.3,0.2,0.5,0.4,0.8c0,0.1,0.1,0.1,0.1,0.2c0.1,0.2,0.3,0.5,0.5,0.7c0,0,0,0,0,0
			c0.2,0.2,0.4,0.4,0.6,0.6c0,0,0.1,0.1,0.1,0.1c0.2,0.2,0.4,0.4,0.6,0.5c0,0,0,0,0,0c0.2,0.2,0.5,0.3,0.8,0.4c0,0,0.1,0,0.1,0.1
			c0.5,0.3,1.1,0.4,1.7,0.5c0,0,0,0,0.1,0c0.3,0.1,0.6,0.1,0.9,0.1l0,0l0,0c0.9,0,1.8-0.1,2.7-0.5
			C738.9,136.2,740.5,132.4,739.2,129.1z"/>
		<path class="st1" d="M784,119.5c1.5-3.3,0-7.2-3.3-8.6l-9.6-4.2l-9.8-4.3c-1.6-0.7-3.2-0.7-4.7-0.2l0,0l0,0
			c-0.2,0.1-0.4,0.2-0.6,0.2c0,0,0,0,0,0c-0.2,0.1-0.4,0.2-0.6,0.3c0,0,0,0,0,0c-0.2,0.1-0.3,0.2-0.5,0.3c0,0,0,0-0.1,0
			c-0.2,0.1-0.3,0.2-0.4,0.4c0,0-0.1,0-0.1,0.1c-0.1,0.1-0.3,0.2-0.4,0.4c0,0-0.1,0.1-0.1,0.1c-0.1,0.1-0.2,0.3-0.3,0.4
			c0,0-0.1,0.1-0.1,0.1c-0.1,0.1-0.2,0.3-0.3,0.4c0,0.1-0.1,0.1-0.1,0.2c-0.1,0.2-0.2,0.4-0.3,0.6c-1.5,3.3,0,7.2,3.3,8.6l9.8,4.3
			l9.6,4.2c0.3,0.1,0.5,0.2,0.8,0.3c0.1,0,0.1,0,0.2,0.1c0.3,0.1,0.5,0.1,0.8,0.2c0,0,0,0,0,0c0.3,0,0.6,0,0.9,0c0.1,0,0.1,0,0.2,0
			c0.3,0,0.5,0,0.8-0.1c0,0,0,0,0,0c0.3,0,0.6-0.1,0.8-0.2c0,0,0.1,0,0.1,0c0.6-0.2,1.1-0.4,1.6-0.8c0,0,0,0,0.1,0
			c0.2-0.2,0.5-0.4,0.7-0.6l0,0l0,0C783.1,121.1,783.7,120.4,784,119.5z"/>
		<path class="st1" d="M95.5,254.6C95.5,254.6,95.5,254.5,95.5,254.6C95.5,254.5,95.5,254.5,95.5,254.6c-0.1-2.8-1.5-5.4-3.9-7
			c-3.8-2.5-9-1.6-11.7,2l0,0c-0.1,0.2-0.2,0.3-0.3,0.5c-0.1,0.1-0.1,0.2-0.1,0.2c0,0,0,0,0,0c0,0,0,0,0,0.1c0,0-0.1,0.1-0.1,0.1
			l0,0c0,0,0,0,0,0c-0.1,0.1-0.2,0.3-0.2,0.4c0,0,0,0.1,0,0.1l0,0c-0.3,0.7-0.6,1.4-0.7,2.2c0,0,0,0,0,0c0,0,0,0,0,0
			c-0.1,0.4-0.1,0.7-0.1,1.1c0,0.1,0,0.2,0,0.3c0,0.4,0,0.7,0,1.1c0,0,0,0,0,0c0,0.4,0.1,0.7,0.2,1.1c0,0.1,0,0.2,0.1,0.3
			c0.1,0.4,0.2,0.7,0.4,1c0,0,0,0,0,0c0.1,0.3,0.3,0.7,0.5,1c0,0.1,0.1,0.2,0.1,0.2c0.2,0.3,0.4,0.6,0.6,0.9c0,0,0,0,0,0
			c0.2,0.3,0.5,0.6,0.8,0.8c0.1,0.1,0.1,0.1,0.2,0.2c0.3,0.3,0.6,0.5,0.9,0.7c3.7,2.4,8.5,1.7,11.3-1.6l0,0c0,0,0,0,0.1-0.1
			c0.1-0.1,0.2-0.2,0.3-0.4c0,0,0,0,0,0l0,0c0,0,0.1-0.1,0.1-0.1c0,0,0,0,0-0.1c0,0,0,0,0,0c0.1-0.1,0.1-0.2,0.2-0.2
			c0.1-0.2,0.2-0.3,0.3-0.5l0,0c0-0.1,0.1-0.1,0.1-0.2c0-0.1,0.1-0.2,0.1-0.2c0.1-0.2,0.2-0.3,0.2-0.5c0-0.1,0.1-0.2,0.1-0.3
			c0.1-0.2,0.1-0.3,0.2-0.5c0-0.1,0.1-0.2,0.1-0.2c0.1-0.2,0.1-0.5,0.2-0.7c0-0.1,0-0.2,0-0.3c0-0.2,0-0.3,0.1-0.5
			c0-0.1,0-0.2,0-0.3c0-0.1,0-0.3,0-0.4C95.5,254.8,95.5,254.7,95.5,254.6z"/>
		<path class="st1" d="M239.4,331.9c0-0.1,0-0.1,0-0.2c0,0,0,0,0-0.1c0,0,0,0,0,0c0-0.1,0-0.2-0.1-0.3c-0.1-0.2-0.1-0.4-0.2-0.5l0,0
			c0-0.1-0.1-0.2-0.1-0.2c0-0.1-0.1-0.2-0.1-0.2c-0.1-0.2-0.1-0.3-0.2-0.5c0-0.1-0.1-0.2-0.1-0.3c-0.1-0.2-0.2-0.3-0.3-0.5
			c0-0.1-0.1-0.1-0.1-0.2c-0.1-0.2-0.3-0.4-0.4-0.6c-0.1-0.1-0.1-0.1-0.2-0.2c-0.1-0.1-0.2-0.2-0.3-0.4c-0.1-0.1-0.2-0.2-0.2-0.2
			c-0.1-0.1-0.2-0.2-0.3-0.3c-0.1-0.1-0.2-0.2-0.3-0.2c0,0,0,0-0.1-0.1c0,0,0,0,0,0c-2.1-1.7-5-2.4-7.8-1.6
			c-4.4,1.2-7.1,5.7-6.1,10.2l0,0c0,0.2,0.1,0.4,0.1,0.6c0,0.1,0.1,0.2,0.1,0.3c0,0,0,0,0,0c0,0,0,0,0,0.1c0,0.1,0,0.1,0,0.2l0,0
			c0,0,0,0,0,0c0.1,0.1,0.1,0.3,0.2,0.4c0,0,0,0.1,0,0.1l0,0c0.3,0.7,0.7,1.4,1.2,2c0,0,0,0,0,0c0,0,0,0,0,0c0,0,0,0.1,0.1,0.1
			c0.1,0.2,0.3,0.3,0.4,0.5c0.1,0.1,0.1,0.1,0.2,0.2c0.1,0.1,0.3,0.2,0.4,0.4c0.1,0.1,0.1,0.1,0.2,0.2c0.2,0.2,0.4,0.3,0.6,0.4
			c0,0,0,0,0.1,0c0.2,0.1,0.4,0.2,0.6,0.4c0.1,0,0.1,0.1,0.2,0.1c0.2,0.1,0.3,0.2,0.5,0.2c0.1,0,0.1,0.1,0.2,0.1
			c0.2,0.1,0.5,0.2,0.7,0.3c0,0,0,0,0.1,0c0.2,0.1,0.4,0.1,0.7,0.2c0.1,0,0.2,0,0.2,0c0.2,0,0.4,0.1,0.5,0.1c0.1,0,0.1,0,0.2,0
			c0.3,0,0.5,0.1,0.8,0.1c0,0,0,0,0,0c0.2,0,0.5,0,0.8,0c0.1,0,0.2,0,0.2,0c0.2,0,0.4,0,0.6-0.1c0.1,0,0.2,0,0.2,0
			c0.3,0,0.5-0.1,0.8-0.2c4.2-1.2,6.8-5.4,6.2-9.6l0,0c0,0,0-0.1,0-0.1C239.5,332.2,239.5,332.1,239.4,331.9
			C239.4,331.9,239.4,331.9,239.4,331.9L239.4,331.9z"/>
		<path class="st1" d="M190.3,351.9c0,0.1,0,0.2,0,0.3c0,0.4,0.1,0.7,0.2,1.1c0,0,0,0,0,0c0.1,0.4,0.2,0.7,0.3,1.1
			c0,0.1,0.1,0.2,0.1,0.2c0.1,0.3,0.3,0.7,0.5,1c0,0,0,0,0,0c0.2,0.3,0.4,0.6,0.6,0.9c0.1,0.1,0.1,0.1,0.2,0.2
			c0.2,0.3,0.5,0.6,0.8,0.8c0,0,0,0,0,0c0.3,0.3,0.6,0.5,0.9,0.7c0.1,0.1,0.2,0.1,0.2,0.2c0.3,0.2,0.7,0.4,1,0.6c4,1.9,8.7,0.6,11-3
			l0,0c0,0,0-0.1,0-0.1c0.1-0.1,0.2-0.3,0.2-0.4c0,0,0,0,0,0l0,0c0,0,0-0.1,0.1-0.1c0,0,0,0,0-0.1c0,0,0,0,0,0
			c0-0.1,0.1-0.2,0.1-0.2c0.1-0.2,0.2-0.3,0.2-0.5l0,0c0-0.1,0.1-0.1,0.1-0.2c0-0.1,0.1-0.2,0.1-0.2c0.1-0.2,0.1-0.3,0.2-0.5
			c0-0.1,0.1-0.2,0.1-0.3c0-0.2,0.1-0.3,0.1-0.5c0-0.1,0-0.2,0-0.3c0-0.2,0.1-0.5,0.1-0.7c0-0.1,0-0.2,0-0.3c0-0.2,0-0.3,0-0.5
			c0-0.1,0-0.2,0-0.3c0-0.1,0-0.3,0-0.4c0-0.1,0-0.2,0-0.4c0,0,0-0.1,0-0.1c0,0,0,0,0,0c-0.4-2.7-2.1-5.1-4.7-6.4
			c-4.1-2-9.1-0.4-11.3,3.5l0,0c-0.1,0.2-0.2,0.3-0.3,0.5c0,0.1-0.1,0.2-0.1,0.3c0,0,0,0,0,0c0,0,0,0,0,0.1c0,0,0,0.1-0.1,0.1l0,0
			c0,0,0,0,0,0c-0.1,0.1-0.1,0.3-0.2,0.4c0,0,0,0.1,0,0.1l0,0c-0.3,0.7-0.4,1.5-0.4,2.3c0,0,0,0,0,0c0,0,0,0,0,0
			C190.2,351.2,190.3,351.6,190.3,351.9z"/>
		<path class="st1" d="M240.9,407.1c0-0.6,0-1.1,0-1.7c0-0.2,0-0.4,0-0.6c0-0.4-0.1-0.7-0.1-1.1c-0.1-0.4-0.1-0.9-0.2-1.3
			c0-0.1,0-0.2-0.1-0.3c0,0,0,0,0,0c-2-8.2-9.2-14.4-18-14.6c-6.8-0.2-12.8,3.3-16.3,8.5c-0.2-0.1-0.4-0.1-0.6-0.2
			c-0.2,0-0.3-0.1-0.5-0.1c-0.8-0.2-1.5-0.4-2.3-0.6c-0.2,0-0.3-0.1-0.5-0.1c-0.7-0.2-1.5-0.3-2.2-0.5c-0.2,0-0.3-0.1-0.5-0.1
			c-0.7-0.1-1.5-0.3-2.2-0.4c-0.1,0-0.3,0-0.4-0.1c-0.8-0.1-1.5-0.2-2.3-0.3c-0.1,0-0.1,0-0.2,0c-5-0.6-9.8-0.7-14.5-0.2
			c-0.1,0-0.1,0-0.2,0c-0.7,0.1-1.4,0.1-2.1,0.2c-0.1,0-0.3,0-0.4,0c-0.6,0.1-1.3,0.2-1.9,0.3c-0.2,0-0.3,0.1-0.5,0.1
			c-0.6,0.1-1.3,0.2-1.9,0.3c-0.2,0-0.4,0.1-0.5,0.1c-0.6,0.1-1.2,0.2-1.9,0.4c-0.2,0-0.4,0.1-0.5,0.1c-0.6,0.1-1.2,0.3-1.9,0.4
			c-0.2,0-0.3,0.1-0.5,0.1c-0.6,0.2-1.3,0.3-1.9,0.5c-0.1,0-0.2,0.1-0.3,0.1c-3.6,1-7.3,2.2-11,3.7c-0.2,0.1-0.4,0.1-0.6,0.2
			c-0.6,0.2-1.1,0.4-1.7,0.7c-0.3,0.1-0.5,0.2-0.8,0.3c-0.5,0.2-1.1,0.4-1.6,0.7c-0.3,0.1-0.6,0.2-0.9,0.4c-0.5,0.2-1,0.4-1.5,0.7
			c-0.3,0.1-0.7,0.3-1,0.4c-0.5,0.2-1,0.4-1.5,0.6c-0.4,0.2-0.7,0.3-1.1,0.5c-0.5,0.2-1,0.4-1.4,0.6c-0.4,0.2-0.8,0.4-1.2,0.5
			c-0.5,0.2-0.9,0.4-1.4,0.6c-0.4,0.2-0.9,0.4-1.3,0.6c-0.4,0.2-0.9,0.4-1.3,0.6c-0.5,0.2-1,0.5-1.6,0.7c-0.4,0.2-0.7,0.3-1.1,0.5
			c-0.9,0.4-1.7,0.8-2.6,1.2l-0.8,0.4c-24.4,11.3-56.1,12.5-80.7,3c-17.7-6.8-30.6-18.7-37.2-34.4c-11.9-28-4.5-62.8,3.3-93.2
			c0.4-1.7,0.9-3.4,1.4-5.2c0.2-0.6,0.3-1.2,0.5-1.9c0.3-1.1,0.6-2.2,0.9-3.3c0.2-0.8,0.4-1.5,0.7-2.3c0.3-0.9,0.5-1.9,0.8-2.8
			c0.3-0.9,0.5-1.7,0.8-2.6c0.3-0.8,0.5-1.7,0.8-2.5c0.3-0.9,0.6-1.9,0.9-2.8c0.2-0.8,0.5-1.5,0.7-2.3c0.3-1,0.6-2,0.9-2.9
			c0.2-0.7,0.5-1.4,0.7-2.1c0.3-1,0.7-2.1,1-3.1c0.2-0.6,0.4-1.3,0.7-1.9c0.4-1.1,0.7-2.2,1.1-3.2c0.2-0.6,0.4-1.2,0.6-1.7
			c0.4-1.1,0.8-2.2,1.2-3.4c0.2-0.5,0.4-1.1,0.6-1.6c0.4-1.2,0.9-2.3,1.3-3.5c0.2-0.5,0.4-0.9,0.5-1.4c0.5-1.2,0.9-2.4,1.4-3.6
			c0.2-0.4,0.3-0.8,0.5-1.2c0.5-1.3,1-2.5,1.5-3.8c0.1-0.3,0.3-0.7,0.4-1c0.5-1.3,1.1-2.6,1.6-4c0.1-0.3,0.2-0.6,0.4-0.8
			c0.6-1.4,1.1-2.7,1.7-4.1c0.1-0.2,0.2-0.4,0.3-0.6c0.6-1.4,1.2-2.9,1.9-4.3c0.1-0.1,0.1-0.2,0.2-0.4c0.6-1.4,1.2-2.7,1.8-4.1
			c6.9,2.1,13.6,3.3,20.1,3.4c9.3,0.2,18.1-1.6,26.4-5.4c16.3-7.6,26.5-21.5,32-31.2l0.2,0.1c0.1-0.3,0.2-0.6,0.2-0.9
			c3.1-5.5,4.5-9.5,4.7-10l-1.9-0.7c0.6-2.1,1.1-4.2,1.7-6.5l0,0c7.6-28.4,18.7-68.9,23.1-79.5c6.7-15.9-0.6-26.2-5.3-29.3l-7.5-3.8
			c0-0.2,0.1-0.3,0.1-0.5c0-0.1,0-0.1,0-0.2c0-0.2,0.1-0.5,0.1-0.7c0,0,0,0,0-0.1c0-0.3,0-0.6,0-0.8c0,0,0,0,0-0.1
			c0-0.3-0.1-0.5-0.1-0.8c0,0,0-0.1,0-0.1c-0.2-0.8-0.5-1.6-1-2.3c0,0,0,0,0,0h0c-0.7-1-1.6-1.9-2.8-2.4l-4.7-2.2
			c-3.4-1.6-7.5-0.1-9.1,3.3l-0.8,1.7c-0.9,2-0.8,4.2,0.2,6c0,0,0,0,0,0.1c0.1,0.2,0.3,0.4,0.4,0.6c0,0,0,0,0,0.1
			c0.2,0.2,0.3,0.4,0.5,0.7c0,0,0,0,0,0c0.2,0.2,0.4,0.4,0.6,0.5c0.1,0,0.1,0.1,0.2,0.1c0.2,0.1,0.3,0.2,0.5,0.4
			c0.1,0,0.1,0.1,0.2,0.1c0.2,0.1,0.5,0.3,0.7,0.4l4.7,2.2c0.2,0.1,0.4,0.2,0.6,0.3c1.3,0.5,2.7,0.5,3.9,0.1
			c0.2-0.1,0.4-0.1,0.6-0.2c0.3-0.1,0.5-0.2,0.8-0.4c0.2-0.1,0.5-0.3,0.7-0.4c0.1-0.1,0.2-0.1,0.3-0.2l7.4,3.7
			c1.2,0.9,9,7.4,2.9,21.7c-4.8,11.5-16.7,54.8-25,86.3l-2.2-0.8c-0.1,0.3-9.4,25.6-31.7,36c-12.6,5.9-27,5.9-43,0.1
			c-22.5-8.2-35.1-23.2-37.4-44.7c-1.8-16.5,3.4-31,3.5-31.1l-1.6-0.6c13.6-31.2,29.7-68.9,33.3-80.5C45.4,23.8,55.7,23.9,57,24
			l8,1.9c0,0.1,0,0.2,0.1,0.3c0,0,0,0,0,0c0.2,0.6,0.4,1.2,0.8,1.8c0,0,0,0.1,0.1,0.1c0.2,0.3,0.3,0.5,0.5,0.7c0,0,0,0,0,0
			c0.2,0.2,0.4,0.5,0.6,0.7c0,0,0.1,0.1,0.1,0.1c0.2,0.2,0.5,0.4,0.7,0.5c0,0,0,0,0,0c0.3,0.2,0.5,0.3,0.8,0.4
			c0.1,0,0.1,0.1,0.2,0.1c0.3,0.1,0.6,0.2,0.9,0.3l1.1,0.3l3.9,1.1c0.7,0.2,1.4,0.3,2,0.2c0.2,0,0.4,0,0.7-0.1
			c0.4-0.1,0.9-0.2,1.3-0.3c0.6-0.2,1.2-0.5,1.7-0.9c1.2-0.9,2.2-2.2,2.6-3.8l0.5-1.8c0.1-0.2,0.1-0.5,0.2-0.7c0-0.1,0-0.1,0-0.2
			c0-0.2,0-0.3,0.1-0.5c0-0.1,0-0.1,0-0.2c0-0.2,0-0.3,0-0.5c0-0.1,0-0.1,0-0.2c0-0.2,0-0.4-0.1-0.5c0-0.1,0-0.1,0-0.2
			c0-0.2-0.1-0.4-0.1-0.6c0,0,0-0.1,0-0.1c-0.1-0.2-0.1-0.4-0.2-0.6c0,0,0,0,0-0.1c-0.1-0.2-0.2-0.4-0.3-0.6c0,0,0,0,0,0
			c-0.1-0.2-0.2-0.4-0.3-0.6c0,0,0,0,0,0l0,0c-0.9-1.3-2.2-2.4-3.9-2.8L74,16c-3.3-0.9-6.6,0.7-8,3.7l-7.8-1.9l-0.4-0.1
			c-5.7-0.6-17.8,2.5-23,19c-3.3,10.8-18.6,46.5-30,72.7c-0.4,0.9-0.8,1.9-1.2,2.8c0,0,0,0.1,0,0.1c-0.3,0.7-0.6,1.4-0.9,2.2
			c-0.1,0.3-0.3,0.6-0.4,0.9c-0.2,0.5-0.4,1-0.7,1.5l-2.6-0.9c-0.4,1.2-10.8,29.8,1.4,56.1c6.4,13.8,17.7,24.2,33.5,31.1
			c-11.5,25.8-20.9,52.6-27.9,79.6c-8.3,32.1-16,68.9-2.8,100c7.8,18.4,22.7,32.2,43.2,40.1c11.4,4.4,24.1,6.7,37,7
			c18,0.4,36.4-3,52-10.3l0.8-0.4c25.6-11.8,42.5-19.7,66.5-13.1c-0.1,6.1,2.7,11.6,7.1,15.2c0,0,0.1,0.1,0.2,0.1
			c0.5,0.4,1,0.7,1.5,1.1c0.1,0.1,0.3,0.2,0.4,0.3c0.2,0.1,0.5,0.3,0.7,0.4c0.3,0.1,0.5,0.3,0.8,0.4c0.2,0.1,0.5,0.2,0.7,0.3
			c0.4,0.2,0.8,0.3,1.2,0.5c0.2,0.1,0.4,0.1,0.5,0.2c0.4,0.1,0.9,0.3,1.4,0.4c0.1,0,0.1,0,0.2,0.1c0.5,0.1,1.1,0.2,1.6,0.3
			c0.1,0,0.3,0,0.4,0.1c0.6,0.1,1.1,0.1,1.7,0.1h0h0l0,0C231.9,425.9,240.7,417.6,240.9,407.1L240.9,407.1L240.9,407.1L240.9,407.1z
			"/>
		<path class="st1" d="M25.9,307.9l1.4-0.4l0,0l0.9-0.3l1.2,4.2l0,0l21,71.5c0.6,2.1,2.8,3.3,5,2.7l28.6-8.4c2.1-0.6,3.3-2.8,2.7-5
			l-1.8-6l0,0l-7.2-24.4l0,0l-8.2-28l0,0l-3.9-13.1l0,0l-1.2-4.2l-6.4,1.9l0,0l2.8-0.8l0.8-0.2l0,0l2.5-0.7l1.2-0.3l0,0l1.4-0.4
			l-2.9-9.7l-2.3,0.7l-0.9,0.3l0,0L40.7,293l0,0l-0.4,0.1l-3.3,1l0,0l-0.4,0.1l-3.2,0.9l0,0l-0.5,0.2l-3.1,0.9l0,0l-0.6,0.2l-3,0.9
			l0,0l-1.7,0.5l0,0l-1.4,0.4L25.9,307.9z M53.8,299.7l0.4-0.1l-3.3,1l0,0L53.8,299.7z M50.2,300.8l0.2-0.1l-3.2,0.9l0,0L50.2,300.8
			z M46.8,301.8L46.8,301.8l-0.4,0.1L46.8,301.8z M58,298.5l-3.5,1l0,0l2.9-0.8L58,298.5z"/>
		<path class="st1" d="M151.8,323.5L151.8,323.5l-1.7-0.3v0l-1.9-0.4l0,0l-1.7-0.3l0,0l-1.9-0.4l0,0l-1.7-0.3l0,0l-1.9-0.4l0,0
			l-1.7-0.3v0l-1.9-0.4l0,0l-1.7-0.3l0,0l-1.9-0.4l0,0l-0.6-0.1l-3-0.6v0l-1.7-0.3l0,0l-1.9-0.4l0,0l-1.7-0.3l0,0l-1.9-0.4l0,0
			l-1.7-0.3l0,0l-1.4-0.3l-1.9,9.5l2.6,0.5l-0.6,3c-4.4,0.3-8.1,3.1-8.9,7l-1.3,6.7l0,0l-0.8,3.9l0,0l-3.5,17.9h0l-1.9,9.4
			c-1,4.9,2.9,9.8,8.6,10.9l28.6,5.6c5.7,1.1,11.1-1.9,12.1-6.8l1.2-6.2l0,0l0.6-3.3h0l4.3-21.9l0,0l1.3-6.7c0.8-4-1.6-7.9-5.6-9.9
			l0.2-1.2l0,0l0.3-1.8l2.5,0.5l1.9-9.5l-1.4-0.3l0,0l-1.7-0.3l0,0L151.8,323.5z"/>
		<path class="st1" d="M848.6,141.4l0.3-1.3l0,0l0.4-2l2.9,0.6l2.1-10.7l-17.6-3.5l0,0l-1.9-0.4l0,0l-10.1-2l0,0l-0.7-0.1l-11.4-2.3
			l0,0l-1.9-0.4l0,0l-1.6-0.3l-2.1,10.7l2.9,0.6l-0.7,3.4c-5,0.3-9.2,3.5-10.1,8l-1.7,8.7l-0.7,3.3l0,0l-4,20.3h0l-2.1,10.6
			c-1.1,5.5,3.3,11.1,9.7,12.3l32.4,6.4c6.5,1.3,12.6-2.2,13.7-7.7l1.4-7v0l0.7-3.7l0,0l4-20.3l2.4-12
			C855.8,148.1,853.1,143.6,848.6,141.4z"/>
		<path class="st1" d="M641.1,104.4c0,0.1,0,0.2,0,0.3c0.1,0.4,0.1,0.7,0.2,1.1c0,0,0,0,0,0c0.1,0.4,0.3,0.7,0.4,1.1
			c0,0.1,0.1,0.2,0.1,0.2c0.2,0.3,0.3,0.7,0.6,1c0,0,0,0,0,0c0.2,0.3,0.4,0.6,0.7,0.9c0.1,0.1,0.1,0.1,0.2,0.2
			c0.3,0.3,0.5,0.6,0.8,0.8c0,0,0,0,0,0c0.3,0.3,0.6,0.5,1,0.7c0.1,0.1,0.2,0.1,0.3,0.2c0.3,0.2,0.7,0.4,1.1,0.6
			c1.7,0.7,3.5,0.9,5.2,0.5c0.6-0.1,1.1-0.3,1.6-0.5c0.8-0.3,1.5-0.8,2.2-1.3c0.8-0.7,1.6-1.5,2.1-2.5l0,0c0,0,0-0.1,0-0.1
			c0,0,0.1-0.1,0.1-0.1c0.1-0.1,0.1-0.2,0.1-0.3c0,0,0,0,0,0l0,0c0,0,0-0.1,0.1-0.2c0,0,0,0,0-0.1c0,0,0,0,0,0
			c0-0.1,0.1-0.2,0.1-0.3c0.1-0.2,0.1-0.4,0.2-0.5l0,0c0-0.1,0.1-0.2,0.1-0.2c0-0.1,0-0.2,0.1-0.3c0.1-0.2,0.1-0.4,0.1-0.5
			c0-0.1,0-0.2,0.1-0.3c0-0.2,0.1-0.4,0.1-0.5c0-0.1,0-0.2,0-0.3c0-0.3,0-0.5,0-0.8c0-0.1,0-0.2,0-0.3c0-0.2,0-0.3,0-0.5
			c0-0.1,0-0.2,0-0.4c0-0.1,0-0.3-0.1-0.4c0-0.1,0-0.2-0.1-0.4c0,0,0-0.1,0-0.1c0,0,0,0,0,0c-0.6-2.7-2.5-5.1-5.3-6.3
			c-4.4-1.8-9.4,0.1-11.5,4.3l0,0c-0.1,0.2-0.2,0.3-0.2,0.5c0,0.1-0.1,0.2-0.1,0.3c0,0,0,0,0,0c0,0,0,0,0,0.1c0,0.1,0,0.1-0.1,0.2
			l0,0c0,0,0,0,0,0c-0.1,0.2-0.1,0.3-0.1,0.5c0,0,0,0.1,0,0.1l0,0c-0.2,0.8-0.3,1.6-0.3,2.4c0,0,0,0,0,0c0,0,0,0,0,0
			C641,103.6,641.1,104,641.1,104.4z"/>
		<path class="st1" d="M699.4,100.1c-3.5-3.2-8.8-3.2-12.2,0.1l0,0c-0.1,0.1-0.3,0.3-0.4,0.4c-0.1,0.1-0.1,0.1-0.2,0.2c0,0,0,0,0,0
			c0,0,0,0,0,0.1c0,0-0.1,0.1-0.1,0.1l0,0c0,0,0,0,0,0c-0.1,0.1-0.2,0.2-0.3,0.4c0,0,0,0-0.1,0.1l0,0c-0.5,0.7-0.8,1.4-1.1,2.1
			c0,0,0,0,0,0c0,0,0,0,0,0c-0.1,0.4-0.2,0.7-0.3,1.1c0,0.1,0,0.2-0.1,0.3c-0.1,0.4-0.1,0.7-0.1,1.1c0,0,0,0,0,0c0,0.4,0,0.8,0,1.1
			c0,0.1,0,0.2,0,0.3c0,0.4,0.1,0.8,0.2,1.1c0,0,0,0,0,0c0.1,0.4,0.2,0.7,0.3,1.1c0,0.1,0.1,0.2,0.1,0.3c0.1,0.4,0.3,0.7,0.5,1
			c0,0,0,0,0,0c0.2,0.3,0.4,0.7,0.7,1c0.1,0.1,0.1,0.2,0.2,0.2c0.3,0.3,0.5,0.6,0.8,0.9c3.3,3.1,8.4,3.2,11.8,0.3l0,0
			c0,0,0,0,0.1-0.1c0.1-0.1,0.2-0.2,0.4-0.3c0,0,0,0,0,0l0,0c0,0,0.1-0.1,0.1-0.1c0,0,0,0,0.1-0.1c0,0,0,0,0,0
			c0.1-0.1,0.1-0.1,0.2-0.2c0.1-0.1,0.3-0.3,0.4-0.4l0,0c0.1-0.2,0.3-0.4,0.4-0.6c0.1-0.1,0.1-0.1,0.2-0.2c0.2-0.3,0.4-0.7,0.6-1.1
			c0,0,0-0.1,0-0.1c0.2-0.4,0.3-0.7,0.4-1.1c0-0.1,0-0.1,0.1-0.2c0.1-0.4,0.2-0.8,0.2-1.2c0,0,0,0,0-0.1c0,0,0,0,0,0
			C702.5,105,701.6,102.1,699.4,100.1z"/>
		<path class="st1" d="M673,129.6c-4.6,1.1-7.5,5.6-6.7,10.2l0,0c0,0.2,0.1,0.4,0.1,0.6c0,0.1,0.1,0.2,0.1,0.3c0,0,0,0,0,0
			c0,0,0,0,0,0.1c0,0.1,0,0.1,0,0.2l0,0c0,0,0,0,0,0c0,0.2,0.1,0.3,0.1,0.5c0,0,0,0.1,0,0.1l0,0c0.3,0.8,0.7,1.5,1.1,2.1l0,0
			c0,0,0,0,0,0c0.2,0.3,0.5,0.6,0.8,0.9c0.1,0.1,0.1,0.1,0.2,0.2c0.3,0.3,0.6,0.5,0.9,0.7c0,0,0,0,0,0c0.3,0.2,0.6,0.4,1,0.6
			c0.1,0,0.2,0.1,0.2,0.1c0.3,0.2,0.7,0.3,1,0.5c0,0,0,0,0,0c0.4,0.1,0.7,0.2,1.1,0.3c0.1,0,0.2,0,0.3,0.1c0.4,0.1,0.8,0.1,1.1,0.2
			c0,0,0,0,0,0c0.4,0,0.8,0,1.2,0c0.1,0,0.2,0,0.3,0c0.4,0,0.8-0.1,1.2-0.2c4.4-1.1,7.3-5.2,6.8-9.6l0,0c0,0,0-0.1,0-0.1
			c0-0.2,0-0.3-0.1-0.5c0,0,0,0,0,0l0,0c0-0.1,0-0.1,0-0.2c0,0,0,0,0-0.1c0,0,0,0,0,0c0-0.1,0-0.2-0.1-0.3c0-0.2-0.1-0.4-0.2-0.6
			l0,0c-0.1-0.2-0.1-0.4-0.2-0.7c0-0.1-0.1-0.2-0.1-0.3c-0.2-0.4-0.3-0.7-0.6-1.1c0,0,0-0.1-0.1-0.1c-0.2-0.3-0.4-0.6-0.7-0.9
			c0,0-0.1-0.1-0.1-0.1c-0.3-0.3-0.6-0.6-0.9-0.9c0,0,0,0,0,0c0,0,0,0,0,0C678.9,129.8,676,128.9,673,129.6z"/>
		<polygon class="st1" points="938.5,264.9 801.3,219.3 801.3,219.3 801.3,219.3 738.1,409 738.1,409 738.1,409 738.1,409 
			875.4,454.7 		"/>
		<g>
			<g>
				
					<rect x="759.2" y="232" transform="matrix(0.9488 0.3158 -0.3158 0.9488 147.4064 -245.6203)" class="st2" width="144.6" height="200"/>
				<polygon class="st3" points="794.5,214.3 731.3,404 931.7,259.9 				"/>
			</g>
			
				<rect x="798.8" y="256.5" transform="matrix(0.9488 0.3158 -0.3158 0.9488 123.38 -244.7928)" class="st1" width="36.4" height="3.6"/>
			
				<rect x="795.8" y="265.4" transform="matrix(0.9488 0.3158 -0.3158 0.9488 126.0585 -243.4802)" class="st1" width="36.8" height="3.6"/>
			
				<rect x="791.3" y="281.9" transform="matrix(0.9488 0.3158 -0.3158 0.9488 132.0047 -247.1412)" class="st1" width="74.4" height="3.6"/>
			
				<rect x="758.7" y="387.7" transform="matrix(0.9488 0.3158 -0.3158 0.9488 164.7621 -237.6123)" class="st1" width="113.5" height="3.6"/>
			
				<rect x="761" y="376.3" transform="matrix(0.9488 0.3158 -0.3158 0.9488 161.2777 -238.9248)" class="st1" width="113.5" height="3.6"/>
			
				<rect x="783.2" y="309.5" transform="matrix(0.9488 0.3158 -0.3158 0.9488 141.3062 -249.3382)" class="st1" width="113.5" height="3.6"/>
			
				<rect x="755.2" y="398.2" transform="matrix(0.9488 0.3158 -0.3158 0.9488 167.8891 -235.9753)" class="st1" width="113.5" height="3.6"/>
			
				<rect x="779.6" y="321.1" transform="matrix(0.9488 0.3158 -0.3158 0.9488 144.8012 -247.6234)" class="st1" width="113.5" height="3.6"/>
			
				<rect x="776.1" y="331.6" transform="matrix(0.9488 0.3158 -0.3158 0.9488 147.9291 -245.9873)" class="st1" width="113.5" height="3.6"/>
			
				<rect x="771.9" y="342.8" transform="matrix(0.9488 0.3158 -0.3158 0.9488 151.2327 -244.0683)" class="st1" width="113.5" height="3.6"/>
			
				<rect x="768.3" y="354.4" transform="matrix(0.9488 0.3158 -0.3158 0.9488 154.7277 -242.3534)" class="st1" width="113.5" height="3.6"/>
			
				<rect x="764.8" y="364.9" transform="matrix(0.9488 0.3158 -0.3158 0.9488 157.8554 -240.7172)" class="st1" width="113.5" height="3.6"/>
			
				<rect x="787.9" y="292.3" transform="matrix(0.9488 0.3158 -0.3158 0.9488 135.0979 -245.5238)" class="st1" width="74.4" height="3.6"/>
		</g>
		<g>
			<path class="st4" d="M798.6,29.2L696.9-12.8c-4.8-2-10.2,0.3-12.2,5.1l-13.8,33.4c-2,4.8,0.3,10.2,5.1,12.2L777.6,80
				c4.8,2,10.2-0.3,12.2-5.1l13.8-33.4C805.7,36.7,803.4,31.2,798.6,29.2z"/>
			<g>
				<path class="st5" d="M704.2,12.5c0.1-0.1,0.3-0.3,0.4-0.4c0.1-0.1,0.1-0.1,0.2-0.2c0.1-0.1,0.2-0.3,0.4-0.4
					c0.1-0.1,0.1-0.1,0.2-0.2c0.2-0.2,0.3-0.4,0.4-0.6c0.1-0.1,0.1-0.2,0.1-0.2c0.1-0.1,0.2-0.3,0.2-0.4c0.1-0.1,0.1-0.2,0.2-0.3
					c0.1-0.1,0.1-0.3,0.2-0.4c0-0.1,0.1-0.2,0.1-0.3c0,0,0-0.1,0-0.1c0,0,0,0,0,0c1-2.6,0.7-5.7-1-8.1c-2.7-3.9-7.9-5-11.9-2.7l0,0
					c-0.2,0.1-0.3,0.2-0.5,0.3c-0.1,0.1-0.2,0.1-0.2,0.2c0,0,0,0,0,0c0,0,0,0-0.1,0c0,0-0.1,0.1-0.1,0.1l0,0c0,0,0,0,0,0
					c-0.1,0.1-0.3,0.2-0.4,0.3c0,0-0.1,0-0.1,0.1l0,0c-0.6,0.5-1.1,1.1-1.6,1.8c0,0,0,0,0,0c0,0,0,0,0,0c0,0,0,0.1-0.1,0.1
					c-0.1,0.2-0.2,0.4-0.3,0.6c0,0.1-0.1,0.2-0.1,0.2c-0.1,0.2-0.2,0.3-0.2,0.5c0,0.1-0.1,0.2-0.1,0.2c-0.1,0.2-0.2,0.5-0.2,0.7
					c0,0,0,0.1,0,0.1c-0.1,0.2-0.1,0.4-0.2,0.7c0,0.1,0,0.2,0,0.2c0,0.2-0.1,0.4-0.1,0.5c0,0.1,0,0.2,0,0.2c0,0.3,0,0.5,0,0.8
					c0,0,0,0,0,0.1c0,0.2,0,0.5,0,0.7c0,0.1,0,0.2,0,0.2c0,0.2,0.1,0.4,0.1,0.6c0,0.1,0,0.2,0,0.2c0.1,0.3,0.1,0.5,0.2,0.8
					c0,0,0,0,0,0c0.1,0.2,0.2,0.5,0.3,0.7c0,0.1,0.1,0.1,0.1,0.2c0.1,0.2,0.2,0.4,0.3,0.5c0,0.1,0.1,0.1,0.1,0.2
					c0.1,0.2,0.3,0.5,0.4,0.7c0.9,1.3,2,2.3,3.3,2.9c0.3,0.1,0.5,0.3,0.8,0.4c0.3,0.1,0.5,0.2,0.8,0.3c0.3,0.1,0.6,0.1,0.8,0.2
					c0.6,0.1,1.1,0.2,1.7,0.2c1.4,0,2.7-0.3,4-1l0,0c0,0,0.1,0,0.1,0c0.1-0.1,0.3-0.2,0.4-0.2c0,0,0,0,0,0l0,0c0,0,0.1-0.1,0.1-0.1
					c0,0,0,0,0.1,0c0,0,0,0,0,0c0.1-0.1,0.2-0.1,0.2-0.2c0.2-0.1,0.3-0.2,0.5-0.3l0,0c0.1-0.1,0.1-0.1,0.2-0.2
					C704.1,12.6,704.1,12.6,704.2,12.5z"/>
				<g>
					<path class="st6" d="M705.7,7.5c-1.9,4.6-7.2,6.7-11.7,4.8c-4.6-1.9-6.7-7.2-4.8-11.7c1.9-4.6,7.2-6.7,11.7-4.8
						C705.4-2.3,707.6,3,705.7,7.5z"/>
					<path class="st7" d="M706.1,2.1c0,1.2-0.2,2.3-0.7,3.5c-1.9,4.6-7.2,6.7-11.7,4.8c-2.8-1.2-4.6-3.6-5.3-6.3
						c0,3.5,2.1,6.8,5.5,8.2c4.6,1.9,9.8-0.2,11.7-4.8C706.4,5.7,706.5,3.9,706.1,2.1z"/>
					<path class="st7" d="M689.1,0.9c-0.1,0.3-0.2,0.5-0.3,0.8l16.3,6.9c0.1-0.2,0.3-0.5,0.4-0.7c0-0.1,0.1-0.2,0.1-0.3l-16.5-6.9
						C689.2,0.7,689.1,0.8,689.1,0.9z"/>
					<path class="st8" d="M689.2,0.6C689.1,0.8,689,1,689,1.2l16.5,6.9c0.1-0.2,0.2-0.3,0.2-0.5c0.1-0.2,0.1-0.4,0.2-0.5l-16.5-6.9
						C689.3,0.3,689.3,0.4,689.2,0.6z"/>
				</g>
			</g>
			<g>
				<path class="st5" d="M726.4,21.7c0.1-0.1,0.3-0.3,0.4-0.4c0.1-0.1,0.1-0.1,0.2-0.2c0.1-0.1,0.2-0.3,0.4-0.4
					c0.1-0.1,0.1-0.1,0.2-0.2c0.2-0.2,0.3-0.4,0.4-0.6c0.1-0.1,0.1-0.2,0.1-0.2c0.1-0.1,0.2-0.3,0.2-0.4c0.1-0.1,0.1-0.2,0.2-0.3
					c0.1-0.1,0.1-0.3,0.2-0.4c0-0.1,0.1-0.2,0.1-0.3c0,0,0-0.1,0-0.1c0,0,0,0,0,0c1-2.6,0.7-5.7-1-8.1c-2.7-3.9-7.9-5-11.9-2.7l0,0
					c-0.2,0.1-0.3,0.2-0.5,0.3c-0.1,0.1-0.2,0.1-0.2,0.2c0,0,0,0,0,0c0,0,0,0-0.1,0c0,0-0.1,0.1-0.1,0.1l0,0c0,0,0,0,0,0
					c-0.1,0.1-0.3,0.2-0.4,0.3c0,0-0.1,0-0.1,0.1l0,0c-0.6,0.5-1.1,1.1-1.6,1.8c0,0,0,0,0,0c0,0,0,0,0,0c0,0,0,0.1-0.1,0.1
					c-0.1,0.2-0.2,0.4-0.3,0.6c0,0.1-0.1,0.2-0.1,0.2c-0.1,0.2-0.2,0.3-0.2,0.5c0,0.1-0.1,0.2-0.1,0.2c-0.1,0.2-0.2,0.5-0.2,0.7
					c0,0,0,0.1,0,0.1c-0.1,0.2-0.1,0.4-0.2,0.7c0,0.1,0,0.2,0,0.2c0,0.2-0.1,0.4-0.1,0.5c0,0.1,0,0.2,0,0.2c0,0.3,0,0.5,0,0.8
					c0,0,0,0,0,0.1c0,0.2,0,0.5,0,0.7c0,0.1,0,0.2,0,0.2c0,0.2,0.1,0.4,0.1,0.6c0,0.1,0,0.2,0,0.2c0.1,0.3,0.1,0.5,0.2,0.8
					c0,0,0,0,0,0c0.1,0.2,0.2,0.5,0.3,0.7c0,0.1,0.1,0.1,0.1,0.2c0.1,0.2,0.2,0.4,0.3,0.5c0,0.1,0.1,0.1,0.1,0.2
					c0.1,0.2,0.3,0.5,0.4,0.7c0.9,1.3,2,2.3,3.3,2.9c0.3,0.1,0.5,0.3,0.8,0.4c0.3,0.1,0.5,0.2,0.8,0.3c0.3,0.1,0.6,0.1,0.8,0.2
					c0.6,0.1,1.1,0.2,1.7,0.2c1.4,0,2.7-0.3,4-1l0,0c0,0,0.1,0,0.1,0c0.1-0.1,0.3-0.2,0.4-0.2c0,0,0,0,0,0l0,0c0,0,0.1-0.1,0.1-0.1
					c0,0,0,0,0.1,0c0,0,0,0,0,0c0.1-0.1,0.2-0.1,0.2-0.2c0.2-0.1,0.3-0.2,0.5-0.3l0,0c0.1-0.1,0.1-0.1,0.2-0.2
					C726.3,21.8,726.4,21.8,726.4,21.7z"/>
				<g>
					<path class="st6" d="M727.9,16.7c-1.9,4.6-7.2,6.7-11.7,4.8c-4.6-1.9-6.7-7.2-4.8-11.7c1.9-4.6,7.2-6.7,11.7-4.8
						C727.7,6.9,729.8,12.2,727.9,16.7z"/>
					<path class="st7" d="M728.4,11.3c0,1.2-0.2,2.3-0.7,3.5c-1.9,4.6-7.2,6.7-11.7,4.8c-2.8-1.2-4.6-3.6-5.3-6.3
						c0,3.5,2.1,6.8,5.5,8.2c4.6,1.9,9.8-0.2,11.7-4.8C728.7,14.9,728.8,13,728.4,11.3z"/>
					<path class="st7" d="M711.3,10.1c-0.1,0.3-0.2,0.5-0.3,0.8l16.3,6.9c0.1-0.2,0.3-0.5,0.4-0.7c0-0.1,0.1-0.2,0.1-0.3l-16.5-6.9
						C711.4,9.9,711.3,10,711.3,10.1z"/>
					<path class="st8" d="M711.4,9.8c-0.1,0.2-0.1,0.4-0.2,0.5l16.5,6.9c0.1-0.2,0.2-0.3,0.2-0.5c0.1-0.2,0.1-0.4,0.2-0.5l-16.4-6.9
						C711.6,9.4,711.5,9.6,711.4,9.8z"/>
				</g>
			</g>
			<g>
				<path class="st5" d="M748.7,30.9c0.1-0.1,0.3-0.3,0.4-0.4c0.1-0.1,0.1-0.1,0.2-0.2c0.1-0.1,0.2-0.3,0.4-0.4
					c0.1-0.1,0.1-0.1,0.2-0.2c0.2-0.2,0.3-0.4,0.4-0.6c0.1-0.1,0.1-0.2,0.1-0.2c0.1-0.1,0.2-0.3,0.2-0.4c0.1-0.1,0.1-0.2,0.2-0.3
					c0.1-0.1,0.1-0.3,0.2-0.4c0-0.1,0.1-0.2,0.1-0.3c0,0,0-0.1,0-0.1c0,0,0,0,0,0c1-2.6,0.7-5.7-1-8.1c-2.7-3.9-7.9-5-11.9-2.7l0,0
					c-0.2,0.1-0.3,0.2-0.5,0.3c-0.1,0.1-0.2,0.1-0.2,0.2c0,0,0,0,0,0c0,0,0,0-0.1,0c0,0-0.1,0.1-0.1,0.1l0,0c0,0,0,0,0,0
					c-0.1,0.1-0.3,0.2-0.4,0.3c0,0-0.1,0-0.1,0.1l0,0c-0.6,0.5-1.1,1.1-1.6,1.8l0,0c0,0,0,0,0,0c0,0,0,0.1-0.1,0.1
					c-0.1,0.2-0.2,0.4-0.3,0.6c0,0.1-0.1,0.2-0.1,0.2c-0.1,0.2-0.2,0.3-0.2,0.5c0,0.1-0.1,0.2-0.1,0.2c-0.1,0.2-0.2,0.5-0.2,0.7
					c0,0,0,0.1,0,0.1c-0.1,0.2-0.1,0.4-0.2,0.7c0,0.1,0,0.2,0,0.2c0,0.2-0.1,0.4-0.1,0.5c0,0.1,0,0.2,0,0.2c0,0.3,0,0.5,0,0.8
					c0,0,0,0,0,0.1c0,0.2,0,0.5,0,0.7c0,0.1,0,0.2,0,0.2c0,0.2,0.1,0.4,0.1,0.6c0,0.1,0,0.2,0,0.2c0.1,0.3,0.1,0.5,0.2,0.8
					c0,0,0,0,0,0c0.1,0.2,0.2,0.5,0.3,0.7c0,0.1,0.1,0.1,0.1,0.2c0.1,0.2,0.2,0.4,0.3,0.5c0,0.1,0.1,0.1,0.1,0.2
					c0.1,0.2,0.3,0.5,0.4,0.7c0.9,1.3,2,2.3,3.3,2.9c0.3,0.1,0.5,0.3,0.8,0.4c0.3,0.1,0.5,0.2,0.8,0.3c0.3,0.1,0.6,0.1,0.8,0.2
					c0.6,0.1,1.1,0.2,1.7,0.2c1.4,0,2.7-0.3,4-1l0,0c0,0,0.1,0,0.1,0c0.1-0.1,0.3-0.2,0.4-0.2c0,0,0,0,0,0l0,0c0,0,0.1-0.1,0.1-0.1
					c0,0,0,0,0.1,0c0,0,0,0,0,0c0.1-0.1,0.2-0.1,0.2-0.2c0.2-0.1,0.3-0.2,0.5-0.3l0,0c0.1-0.1,0.1-0.1,0.2-0.2
					C748.5,31,748.6,30.9,748.7,30.9z"/>
				<g>
					<path class="st6" d="M750.1,25.9c-1.9,4.6-7.2,6.7-11.7,4.8c-4.6-1.9-6.7-7.2-4.8-11.7c1.9-4.6,7.2-6.7,11.7-4.8
						C749.9,16.1,752,21.4,750.1,25.9z"/>
					<path class="st7" d="M750.6,20.5c0,1.2-0.2,2.3-0.7,3.5c-1.9,4.6-7.2,6.7-11.7,4.8c-2.8-1.2-4.6-3.6-5.3-6.3
						c0,3.5,2.1,6.8,5.5,8.2c4.6,1.9,9.8-0.2,11.7-4.8C750.9,24.1,751,22.2,750.6,20.5z"/>
					<path class="st7" d="M733.5,19.3c-0.1,0.3-0.2,0.5-0.3,0.8l16.3,6.9c0.1-0.2,0.3-0.5,0.4-0.7c0-0.1,0.1-0.2,0.1-0.3L733.7,19
						C733.6,19.1,733.6,19.2,733.5,19.3z"/>
					<path class="st8" d="M733.6,19c-0.1,0.2-0.1,0.4-0.2,0.5l16.5,6.9c0.1-0.2,0.2-0.3,0.2-0.5c0.1-0.2,0.1-0.4,0.2-0.5l-16.5-6.9
						C733.8,18.6,733.7,18.8,733.6,19z"/>
				</g>
			</g>
			<g>
				<path class="st5" d="M770.9,40.1c0.1-0.1,0.3-0.3,0.4-0.4c0.1-0.1,0.1-0.1,0.2-0.2c0.1-0.1,0.2-0.3,0.4-0.4
					c0.1-0.1,0.1-0.1,0.2-0.2c0.2-0.2,0.3-0.4,0.4-0.6c0.1-0.1,0.1-0.2,0.1-0.2c0.1-0.1,0.2-0.3,0.2-0.4c0.1-0.1,0.1-0.2,0.2-0.3
					c0.1-0.1,0.1-0.3,0.2-0.4c0-0.1,0.1-0.2,0.1-0.3c0,0,0-0.1,0-0.1c0,0,0,0,0,0c1-2.6,0.7-5.7-1-8.1c-2.7-3.9-7.9-5-11.9-2.7l0,0
					c-0.2,0.1-0.3,0.2-0.5,0.3c-0.1,0.1-0.2,0.1-0.2,0.2c0,0,0,0,0,0c0,0,0,0-0.1,0c0,0-0.1,0.1-0.1,0.1l0,0c0,0,0,0,0,0
					c-0.1,0.1-0.3,0.2-0.4,0.3c0,0-0.1,0-0.1,0.1l0,0c-0.6,0.5-1.1,1.1-1.6,1.8c0,0,0,0,0,0c0,0,0,0,0,0c0,0,0,0.1-0.1,0.1
					c-0.1,0.2-0.2,0.4-0.3,0.6c0,0.1-0.1,0.2-0.1,0.2c-0.1,0.2-0.2,0.3-0.2,0.5c0,0.1-0.1,0.2-0.1,0.2c-0.1,0.2-0.2,0.5-0.2,0.7
					c0,0,0,0.1,0,0.1c-0.1,0.2-0.1,0.4-0.2,0.7c0,0.1,0,0.2,0,0.2c0,0.2-0.1,0.4-0.1,0.5c0,0.1,0,0.2,0,0.2c0,0.3,0,0.5,0,0.8
					c0,0,0,0,0,0.1c0,0.2,0,0.5,0,0.7c0,0.1,0,0.2,0,0.2c0,0.2,0.1,0.4,0.1,0.6c0,0.1,0,0.2,0,0.2c0.1,0.3,0.1,0.5,0.2,0.8
					c0,0,0,0,0,0c0.1,0.2,0.2,0.5,0.3,0.7c0,0.1,0.1,0.1,0.1,0.2c0.1,0.2,0.2,0.4,0.3,0.5c0,0.1,0.1,0.1,0.1,0.2
					c0.1,0.2,0.3,0.5,0.4,0.7c0.9,1.3,2,2.3,3.3,2.9c0.3,0.1,0.5,0.3,0.8,0.4c0.3,0.1,0.5,0.2,0.8,0.3c0.3,0.1,0.6,0.1,0.8,0.2
					c0.6,0.1,1.1,0.2,1.7,0.2c1.4,0,2.7-0.3,4-1l0,0c0,0,0.1,0,0.1,0c0.1-0.1,0.3-0.2,0.4-0.2c0,0,0,0,0,0l0,0c0,0,0.1-0.1,0.1-0.1
					c0,0,0,0,0.1,0c0,0,0,0,0,0c0.1-0.1,0.2-0.1,0.2-0.2c0.2-0.1,0.3-0.2,0.5-0.3l0,0c0.1-0.1,0.1-0.1,0.2-0.2
					C770.8,40.2,770.8,40.1,770.9,40.1z"/>
				<g>
					<circle class="st6" cx="764.1" cy="31.7" r="8.9"/>
					<path class="st7" d="M772.8,29.7c0,1.2-0.2,2.3-0.7,3.5c-1.9,4.6-7.2,6.7-11.7,4.8c-2.8-1.2-4.6-3.6-5.3-6.3
						c0,3.5,2.1,6.8,5.5,8.2c4.6,1.9,9.8-0.2,11.7-4.8C773.1,33.3,773.2,31.4,772.8,29.7z"/>
					<path class="st7" d="M755.7,28.5c-0.1,0.3-0.2,0.5-0.3,0.8l16.3,6.9c0.1-0.2,0.3-0.5,0.4-0.7c0-0.1,0.1-0.2,0.1-0.3l-16.5-6.9
						C755.8,28.3,755.8,28.4,755.7,28.5z"/>
					<path class="st8" d="M755.9,28.2c-0.1,0.2-0.1,0.4-0.2,0.5l16.5,6.9c0.1-0.2,0.2-0.3,0.2-0.5c0.1-0.2,0.1-0.4,0.2-0.5
						l-16.5-6.9C756,27.8,756,28,755.9,28.2z"/>
				</g>
			</g>
			<g>
				<path class="st5" d="M793.1,49.3c0.1-0.1,0.3-0.3,0.4-0.4c0.1-0.1,0.1-0.1,0.2-0.2c0.1-0.1,0.2-0.3,0.4-0.4
					c0.1-0.1,0.1-0.1,0.2-0.2c0.2-0.2,0.3-0.4,0.4-0.6c0.1-0.1,0.1-0.2,0.1-0.2c0.1-0.1,0.2-0.3,0.2-0.4c0.1-0.1,0.1-0.2,0.2-0.3
					c0.1-0.1,0.1-0.3,0.2-0.4c0-0.1,0.1-0.2,0.1-0.3c0,0,0-0.1,0-0.1c0,0,0,0,0,0c1-2.6,0.7-5.7-1-8.1c-2.7-3.9-7.9-5-11.9-2.7l0,0
					c-0.2,0.1-0.3,0.2-0.5,0.3c-0.1,0.1-0.2,0.1-0.2,0.2c0,0,0,0,0,0c0,0,0,0-0.1,0c0,0-0.1,0.1-0.1,0.1l0,0c0,0,0,0,0,0
					c-0.1,0.1-0.3,0.2-0.4,0.3c0,0-0.1,0-0.1,0.1l0,0c-0.6,0.5-1.1,1.1-1.6,1.8c0,0,0,0,0,0c0,0,0,0,0,0c0,0,0,0.1-0.1,0.1
					c-0.1,0.2-0.2,0.4-0.3,0.6c0,0.1-0.1,0.2-0.1,0.2c-0.1,0.2-0.2,0.3-0.2,0.5c0,0.1-0.1,0.2-0.1,0.2c-0.1,0.2-0.2,0.5-0.2,0.7
					c0,0,0,0.1,0,0.1c-0.1,0.2-0.1,0.4-0.2,0.7c0,0.1,0,0.2,0,0.2c0,0.2-0.1,0.4-0.1,0.5c0,0.1,0,0.2,0,0.2c0,0.3,0,0.5,0,0.8
					c0,0,0,0,0,0.1c0,0.2,0,0.5,0,0.7c0,0.1,0,0.2,0,0.2c0,0.2,0.1,0.4,0.1,0.6c0,0.1,0,0.2,0,0.2c0.1,0.3,0.1,0.5,0.2,0.8
					c0,0,0,0,0,0c0.1,0.2,0.2,0.5,0.3,0.7c0,0.1,0.1,0.1,0.1,0.2c0.1,0.2,0.2,0.4,0.3,0.5c0,0.1,0.1,0.1,0.1,0.2
					c0.1,0.2,0.3,0.5,0.4,0.7c0.9,1.3,2,2.3,3.3,2.9c0.3,0.1,0.5,0.3,0.8,0.4c0.3,0.1,0.5,0.2,0.8,0.3c0.3,0.1,0.6,0.1,0.8,0.2
					c0.6,0.1,1.1,0.2,1.7,0.2c1.4,0,2.7-0.3,4-1l0,0c0,0,0.1,0,0.1,0c0.1-0.1,0.3-0.2,0.4-0.2c0,0,0,0,0,0l0,0c0,0,0.1-0.1,0.1-0.1
					c0,0,0,0,0.1,0c0,0,0,0,0,0c0.1-0.1,0.2-0.1,0.2-0.2c0.2-0.1,0.3-0.2,0.5-0.3l0,0c0.1-0.1,0.1-0.1,0.2-0.2
					C793,49.4,793.1,49.3,793.1,49.3z"/>
				<g>
					
						<ellipse transform="matrix(0.925 -0.3799 0.3799 0.925 43.449 301.8369)" class="st6" cx="786.3" cy="40.9" rx="8.9" ry="8.9"/>
					<path class="st7" d="M795.1,38.9c0,1.2-0.2,2.3-0.7,3.5c-1.9,4.6-7.2,6.7-11.7,4.8c-2.8-1.2-4.6-3.6-5.3-6.3
						c0,3.5,2.1,6.8,5.5,8.2c4.6,1.9,9.8-0.2,11.7-4.8C795.3,42.5,795.5,40.6,795.1,38.9z"/>
					<path class="st7" d="M778,37.7c-0.1,0.3-0.2,0.5-0.3,0.8l16.3,6.9c0.1-0.2,0.3-0.5,0.4-0.7c0-0.1,0.1-0.2,0.1-0.3l-16.5-6.9
						C778.1,37.5,778,37.6,778,37.7z"/>
					<path class="st8" d="M778.1,37.4c-0.1,0.2-0.1,0.4-0.2,0.5l16.5,6.9c0.1-0.2,0.2-0.3,0.2-0.5c0.1-0.2,0.1-0.4,0.2-0.5
						l-16.5-6.9C778.3,37,778.2,37.2,778.1,37.4z"/>
				</g>
			</g>
			<g>
				<path class="st5" d="M695.7,33c0.1-0.1,0.3-0.3,0.4-0.4c0.1-0.1,0.1-0.1,0.2-0.2c0.1-0.1,0.2-0.3,0.4-0.4
					c0.1-0.1,0.1-0.1,0.2-0.2c0.2-0.2,0.3-0.4,0.4-0.6c0.1-0.1,0.1-0.2,0.1-0.2c0.1-0.1,0.2-0.3,0.2-0.4c0.1-0.1,0.1-0.2,0.2-0.3
					c0.1-0.1,0.1-0.3,0.2-0.4c0-0.1,0.1-0.2,0.1-0.3c0,0,0-0.1,0-0.1c0,0,0,0,0,0c1-2.6,0.7-5.7-1-8.1c-2.7-3.9-7.9-5-11.9-2.7l0,0
					c-0.2,0.1-0.3,0.2-0.5,0.3c-0.1,0.1-0.2,0.1-0.2,0.2c0,0,0,0,0,0c0,0,0,0-0.1,0c0,0-0.1,0.1-0.1,0.1l0,0c0,0,0,0,0,0
					c-0.1,0.1-0.3,0.2-0.4,0.3c0,0-0.1,0-0.1,0.1l0,0c-0.6,0.5-1.1,1.1-1.6,1.8c0,0,0,0,0,0c0,0,0,0,0,0c0,0,0,0.1-0.1,0.1
					c-0.1,0.2-0.2,0.4-0.3,0.6c0,0.1-0.1,0.2-0.1,0.2c-0.1,0.2-0.2,0.3-0.2,0.5c0,0.1-0.1,0.2-0.1,0.2c-0.1,0.2-0.2,0.5-0.2,0.7
					c0,0,0,0.1,0,0.1c-0.1,0.2-0.1,0.4-0.2,0.7c0,0.1,0,0.2,0,0.2c0,0.2-0.1,0.4-0.1,0.5c0,0.1,0,0.2,0,0.2c0,0.3,0,0.5,0,0.8
					c0,0,0,0,0,0.1c0,0.2,0,0.5,0,0.7c0,0.1,0,0.2,0,0.2c0,0.2,0.1,0.4,0.1,0.6c0,0.1,0,0.2,0,0.2c0.1,0.3,0.1,0.5,0.2,0.8
					c0,0,0,0,0,0c0.1,0.2,0.2,0.5,0.3,0.7c0,0.1,0.1,0.1,0.1,0.2c0.1,0.2,0.2,0.4,0.3,0.5c0,0.1,0.1,0.1,0.1,0.2
					c0.1,0.2,0.3,0.5,0.4,0.7c0.9,1.3,2,2.3,3.3,2.9c0.3,0.1,0.5,0.3,0.8,0.4c0.3,0.1,0.5,0.2,0.8,0.3c0.3,0.1,0.6,0.1,0.8,0.2
					c0.6,0.1,1.1,0.2,1.7,0.2c1.4,0,2.7-0.3,4-1l0,0c0,0,0.1,0,0.1,0c0.1-0.1,0.3-0.2,0.4-0.2c0,0,0,0,0,0l0,0c0,0,0.1-0.1,0.1-0.1
					c0,0,0,0,0.1,0c0,0,0,0,0,0c0.1-0.1,0.2-0.1,0.2-0.2c0.2-0.1,0.3-0.2,0.5-0.3l0,0c0.1-0.1,0.1-0.1,0.2-0.2
					C695.6,33.1,695.7,33.1,695.7,33z"/>
				<g>
					<circle class="st6" cx="688.9" cy="24.6" r="8.9"/>
					<path class="st7" d="M697.7,22.6c0,1.2-0.2,2.3-0.7,3.5c-1.9,4.6-7.2,6.7-11.7,4.8c-2.8-1.2-4.6-3.6-5.3-6.3
						c0,3.5,2.1,6.8,5.5,8.2c4.6,1.9,9.8-0.2,11.7-4.8C697.9,26.3,698.1,24.4,697.7,22.6z"/>
					<path class="st7" d="M680.6,21.4c-0.1,0.3-0.2,0.5-0.3,0.8l16.3,6.9c0.1-0.2,0.3-0.5,0.4-0.7c0-0.1,0.1-0.2,0.1-0.3l-16.5-6.9
						C680.7,21.2,680.6,21.3,680.6,21.4z"/>
					<path class="st8" d="M680.7,21.1c-0.1,0.2-0.1,0.4-0.2,0.5l16.5,6.9c0.1-0.2,0.2-0.3,0.2-0.5c0.1-0.2,0.1-0.4,0.2-0.5
						l-16.5-6.9C680.9,20.8,680.8,20.9,680.7,21.1z"/>
				</g>
			</g>
			<g>
				<path class="st5" d="M718,42.2c0.1-0.1,0.3-0.3,0.4-0.4c0.1-0.1,0.1-0.1,0.2-0.2c0.1-0.1,0.2-0.3,0.4-0.4
					c0.1-0.1,0.1-0.1,0.2-0.2c0.2-0.2,0.3-0.4,0.4-0.6c0.1-0.1,0.1-0.2,0.1-0.2c0.1-0.1,0.2-0.3,0.2-0.4c0.1-0.1,0.1-0.2,0.2-0.3
					c0.1-0.1,0.1-0.3,0.2-0.4c0-0.1,0.1-0.2,0.1-0.3c0,0,0-0.1,0-0.1c0,0,0,0,0,0c1-2.6,0.7-5.7-1-8.1c-2.7-3.9-7.9-5-11.9-2.7l0,0
					c-0.2,0.1-0.3,0.2-0.5,0.3c-0.1,0.1-0.2,0.1-0.2,0.2c0,0,0,0,0,0c0,0,0,0-0.1,0c0,0-0.1,0.1-0.1,0.1l0,0c0,0,0,0,0,0
					c-0.1,0.1-0.3,0.2-0.4,0.3c0,0-0.1,0-0.1,0.1l0,0c-0.6,0.5-1.1,1.1-1.6,1.8l0,0c0,0,0,0,0,0c0,0,0,0.1-0.1,0.1
					c-0.1,0.2-0.2,0.4-0.3,0.6c0,0.1-0.1,0.2-0.1,0.2c-0.1,0.2-0.2,0.3-0.2,0.5c0,0.1-0.1,0.2-0.1,0.2c-0.1,0.2-0.2,0.5-0.2,0.7
					c0,0,0,0.1,0,0.1c-0.1,0.2-0.1,0.4-0.2,0.7c0,0.1,0,0.2,0,0.2c0,0.2-0.1,0.4-0.1,0.5c0,0.1,0,0.2,0,0.2c0,0.3,0,0.5,0,0.8
					c0,0,0,0,0,0.1c0,0.2,0,0.5,0,0.7c0,0.1,0,0.2,0,0.2c0,0.2,0.1,0.4,0.1,0.6c0,0.1,0,0.2,0,0.2c0.1,0.3,0.1,0.5,0.2,0.8
					c0,0,0,0,0,0c0.1,0.2,0.2,0.5,0.3,0.7c0,0.1,0.1,0.1,0.1,0.2c0.1,0.2,0.2,0.4,0.3,0.5c0,0.1,0.1,0.1,0.1,0.2
					c0.1,0.2,0.3,0.5,0.4,0.7c0.9,1.3,2,2.3,3.3,2.9c0.3,0.1,0.5,0.3,0.8,0.4c0.3,0.1,0.5,0.2,0.8,0.3c0.3,0.1,0.6,0.1,0.8,0.2
					c0.6,0.1,1.1,0.2,1.7,0.2c1.4,0,2.7-0.3,4-1l0,0c0,0,0.1,0,0.1,0c0.1-0.1,0.3-0.2,0.4-0.2c0,0,0,0,0,0l0,0c0,0,0.1-0.1,0.1-0.1
					c0,0,0,0,0.1,0c0,0,0,0,0,0c0.1-0.1,0.2-0.1,0.2-0.2c0.2-0.1,0.3-0.2,0.5-0.3l0,0c0.1-0.1,0.1-0.1,0.2-0.2
					C717.8,42.3,717.9,42.3,718,42.2z"/>
				<g>
					
						<ellipse transform="matrix(0.9128 -0.4085 0.4085 0.9128 48.2466 293.4571)" class="st6" cx="711.2" cy="33.8" rx="8.9" ry="8.9"/>
					<path class="st7" d="M719.9,31.8c0,1.2-0.2,2.3-0.7,3.5c-1.9,4.6-7.2,6.7-11.7,4.8c-2.8-1.2-4.6-3.6-5.3-6.3
						c0,3.5,2.1,6.8,5.5,8.2c4.6,1.9,9.8-0.2,11.7-4.8C720.2,35.4,720.3,33.6,719.9,31.8z"/>
					<path class="st7" d="M702.8,30.6c-0.1,0.3-0.2,0.5-0.3,0.8l16.3,6.9c0.1-0.2,0.3-0.5,0.4-0.7c0-0.1,0.1-0.2,0.1-0.3l-16.5-6.9
						C702.9,30.4,702.9,30.5,702.8,30.6z"/>
					<path class="st8" d="M702.9,30.3c-0.1,0.2-0.1,0.4-0.2,0.5l16.5,6.9c0.1-0.2,0.2-0.3,0.2-0.5c0.1-0.2,0.1-0.4,0.2-0.5
						l-16.5-6.9C703.1,30,703,30.1,702.9,30.3z"/>
				</g>
			</g>
			<g>
				<path class="st5" d="M740.2,51.4c0.1-0.1,0.3-0.3,0.4-0.4c0.1-0.1,0.1-0.1,0.2-0.2c0.1-0.1,0.2-0.3,0.4-0.4
					c0.1-0.1,0.1-0.1,0.2-0.2c0.2-0.2,0.3-0.4,0.4-0.6c0.1-0.1,0.1-0.2,0.1-0.2c0.1-0.1,0.2-0.3,0.2-0.4c0.1-0.1,0.1-0.2,0.2-0.3
					c0.1-0.1,0.1-0.3,0.2-0.4c0-0.1,0.1-0.2,0.1-0.3c0,0,0-0.1,0-0.1c0,0,0,0,0,0c1-2.6,0.7-5.7-1-8.1c-2.7-3.9-7.9-5-11.9-2.7l0,0
					c-0.2,0.1-0.3,0.2-0.5,0.3c-0.1,0.1-0.2,0.1-0.2,0.2c0,0,0,0,0,0c0,0,0,0-0.1,0c0,0-0.1,0.1-0.1,0.1l0,0c0,0,0,0,0,0
					c-0.1,0.1-0.3,0.2-0.4,0.3c0,0-0.1,0-0.1,0.1l0,0c-0.6,0.5-1.1,1.1-1.6,1.8c0,0,0,0,0,0c0,0,0,0,0,0c0,0,0,0.1-0.1,0.1
					c-0.1,0.2-0.2,0.4-0.3,0.6c0,0.1-0.1,0.2-0.1,0.2c-0.1,0.2-0.2,0.3-0.2,0.5c0,0.1-0.1,0.2-0.1,0.2c-0.1,0.2-0.2,0.5-0.2,0.7
					c0,0,0,0.1,0,0.1c-0.1,0.2-0.1,0.4-0.2,0.7c0,0.1,0,0.2,0,0.2c0,0.2-0.1,0.4-0.1,0.5c0,0.1,0,0.2,0,0.2c0,0.3,0,0.5,0,0.8
					c0,0,0,0,0,0.1c0,0.2,0,0.5,0,0.7c0,0.1,0,0.2,0,0.2c0,0.2,0.1,0.4,0.1,0.6c0,0.1,0,0.2,0,0.2c0.1,0.3,0.1,0.5,0.2,0.8
					c0,0,0,0,0,0c0.1,0.2,0.2,0.5,0.3,0.7c0,0.1,0.1,0.1,0.1,0.2c0.1,0.2,0.2,0.4,0.3,0.5c0,0.1,0.1,0.1,0.1,0.2
					c0.1,0.2,0.3,0.5,0.4,0.7c0.9,1.3,2,2.3,3.3,2.9c0.3,0.1,0.5,0.3,0.8,0.4c0.3,0.1,0.5,0.2,0.8,0.3c0.3,0.1,0.6,0.1,0.8,0.2
					c0.6,0.1,1.1,0.2,1.7,0.2c1.4,0,2.7-0.3,4-1l0,0c0,0,0.1,0,0.1,0c0.1-0.1,0.3-0.2,0.4-0.2c0,0,0,0,0,0l0,0c0,0,0.1-0.1,0.1-0.1
					c0,0,0,0,0.1,0c0,0,0,0,0,0c0.1-0.1,0.2-0.1,0.2-0.2c0.2-0.1,0.3-0.2,0.5-0.3l0,0c0.1-0.1,0.1-0.1,0.2-0.2
					C740.1,51.5,740.1,51.5,740.2,51.4z"/>
				<g>
					<path class="st6" d="M741.6,46.4c-1.9,4.6-7.2,6.7-11.7,4.8c-4.6-1.9-6.7-7.2-4.8-11.7c1.9-4.6,7.2-6.7,11.7-4.8
						C741.4,36.6,743.6,41.9,741.6,46.4z"/>
					<path class="st7" d="M742.1,41c0,1.2-0.2,2.3-0.7,3.5c-1.9,4.6-7.2,6.7-11.7,4.8c-2.8-1.2-4.6-3.6-5.3-6.3
						c0,3.5,2.1,6.8,5.5,8.2c4.6,1.9,9.8-0.2,11.7-4.8C742.4,44.6,742.5,42.7,742.1,41z"/>
					<path class="st7" d="M725,39.8c-0.1,0.3-0.2,0.5-0.3,0.8l16.3,6.9c0.1-0.2,0.3-0.5,0.4-0.7c0-0.1,0.1-0.2,0.1-0.3l-16.5-6.9
						C725.1,39.6,725.1,39.7,725,39.8z"/>
					<path class="st8" d="M725.2,39.5c-0.1,0.2-0.1,0.4-0.2,0.5l16.5,6.9c0.1-0.2,0.2-0.3,0.2-0.5c0.1-0.2,0.1-0.4,0.2-0.5L725.4,39
						C725.3,39.1,725.2,39.3,725.2,39.5z"/>
				</g>
			</g>
			<g>
				<path class="st5" d="M762.4,60.6c0.1-0.1,0.3-0.3,0.4-0.4c0.1-0.1,0.1-0.1,0.2-0.2c0.1-0.1,0.2-0.3,0.4-0.4
					c0.1-0.1,0.1-0.1,0.2-0.2c0.2-0.2,0.3-0.4,0.4-0.6c0.1-0.1,0.1-0.2,0.1-0.2c0.1-0.1,0.2-0.3,0.2-0.4c0.1-0.1,0.1-0.2,0.2-0.3
					c0.1-0.1,0.1-0.3,0.2-0.4c0-0.1,0.1-0.2,0.1-0.3c0,0,0-0.1,0-0.1c0,0,0,0,0,0c1-2.6,0.7-5.7-1-8.1c-2.7-3.9-7.9-5-11.9-2.7l0,0
					c-0.2,0.1-0.3,0.2-0.5,0.3c-0.1,0.1-0.2,0.1-0.2,0.2c0,0,0,0,0,0c0,0,0,0-0.1,0c0,0-0.1,0.1-0.1,0.1l0,0c0,0,0,0,0,0
					c-0.1,0.1-0.3,0.2-0.4,0.3c0,0-0.1,0-0.1,0.1l0,0c-0.6,0.5-1.1,1.1-1.6,1.8c0,0,0,0,0,0c0,0,0,0,0,0c0,0,0,0.1-0.1,0.1
					c-0.1,0.2-0.2,0.4-0.3,0.6c0,0.1-0.1,0.2-0.1,0.2c-0.1,0.2-0.2,0.3-0.2,0.5c0,0.1-0.1,0.2-0.1,0.2c-0.1,0.2-0.2,0.5-0.2,0.7
					c0,0,0,0.1,0,0.1c-0.1,0.2-0.1,0.4-0.2,0.7c0,0.1,0,0.2,0,0.2c0,0.2-0.1,0.4-0.1,0.5c0,0.1,0,0.2,0,0.2c0,0.3,0,0.5,0,0.8
					c0,0,0,0,0,0.1c0,0.2,0,0.5,0,0.7c0,0.1,0,0.2,0,0.2c0,0.2,0.1,0.4,0.1,0.6c0,0.1,0,0.2,0,0.2c0.1,0.3,0.1,0.5,0.2,0.8
					c0,0,0,0,0,0c0.1,0.2,0.2,0.5,0.3,0.7c0,0.1,0.1,0.1,0.1,0.2c0.1,0.2,0.2,0.4,0.3,0.5c0,0.1,0.1,0.1,0.1,0.2
					c0.1,0.2,0.3,0.5,0.4,0.7c0.9,1.3,2,2.3,3.3,2.9c0.3,0.1,0.5,0.3,0.8,0.4c0.3,0.1,0.5,0.2,0.8,0.3c0.3,0.1,0.6,0.1,0.8,0.2
					c0.6,0.1,1.1,0.2,1.7,0.2c1.4,0,2.7-0.3,4-1l0,0c0,0,0.1,0,0.1,0c0.1-0.1,0.3-0.2,0.4-0.2c0,0,0,0,0,0l0,0c0,0,0.1-0.1,0.1-0.1
					c0,0,0,0,0.1,0c0,0,0,0,0,0c0.1-0.1,0.2-0.1,0.2-0.2c0.2-0.1,0.3-0.2,0.5-0.3l0,0c0.1-0.1,0.1-0.1,0.2-0.2
					C762.3,60.7,762.4,60.7,762.4,60.6z"/>
				<g>
					<circle class="st6" cx="755.6" cy="52.2" r="8.9"/>
					<path class="st7" d="M764.4,50.2c0,1.2-0.2,2.3-0.7,3.5c-1.9,4.6-7.2,6.7-11.7,4.8c-2.8-1.2-4.6-3.6-5.3-6.3
						c0,3.5,2.1,6.8,5.5,8.2c4.6,1.9,9.8-0.2,11.7-4.8C764.6,53.8,764.8,51.9,764.4,50.2z"/>
					<path class="st7" d="M747.3,49c-0.1,0.3-0.2,0.5-0.3,0.8l16.3,6.9c0.1-0.2,0.3-0.5,0.4-0.7c0-0.1,0.1-0.2,0.1-0.3l-16.5-6.9
						C747.4,48.8,747.3,48.9,747.3,49z"/>
					<path class="st8" d="M747.4,48.7c-0.1,0.2-0.1,0.4-0.2,0.5l16.4,6.9c0.1-0.2,0.2-0.3,0.2-0.5c0.1-0.2,0.1-0.4,0.2-0.5
						l-16.5-6.9C747.6,48.3,747.5,48.5,747.4,48.7z"/>
				</g>
			</g>
			<g>
				<path class="st5" d="M784.7,69.8c0.1-0.1,0.3-0.3,0.4-0.4c0.1-0.1,0.1-0.1,0.2-0.2c0.1-0.1,0.2-0.3,0.4-0.4
					c0.1-0.1,0.1-0.1,0.2-0.2c0.2-0.2,0.3-0.4,0.4-0.6c0.1-0.1,0.1-0.2,0.1-0.2c0.1-0.1,0.2-0.3,0.2-0.4c0.1-0.1,0.1-0.2,0.2-0.3
					c0.1-0.1,0.1-0.3,0.2-0.4c0-0.1,0.1-0.2,0.1-0.3c0,0,0-0.1,0-0.1c0,0,0,0,0,0c1-2.6,0.7-5.7-1-8.1c-2.7-3.9-7.9-5-11.9-2.7l0,0
					c-0.2,0.1-0.3,0.2-0.5,0.3c-0.1,0.1-0.2,0.1-0.2,0.2c0,0,0,0,0,0c0,0,0,0-0.1,0c0,0-0.1,0.1-0.1,0.1l0,0c0,0,0,0,0,0
					c-0.1,0.1-0.3,0.2-0.4,0.3c0,0-0.1,0-0.1,0.1l0,0c-0.6,0.5-1.1,1.1-1.6,1.8c0,0,0,0,0,0c0,0,0,0,0,0c0,0,0,0.1-0.1,0.1
					c-0.1,0.2-0.2,0.4-0.3,0.6c0,0.1-0.1,0.2-0.1,0.2c-0.1,0.2-0.2,0.3-0.2,0.5c0,0.1-0.1,0.2-0.1,0.2c-0.1,0.2-0.2,0.5-0.2,0.7
					c0,0,0,0.1,0,0.1c-0.1,0.2-0.1,0.4-0.2,0.7c0,0.1,0,0.2,0,0.2c0,0.2-0.1,0.4-0.1,0.5c0,0.1,0,0.2,0,0.2c0,0.3,0,0.5,0,0.8
					c0,0,0,0,0,0.1c0,0.2,0,0.5,0,0.7c0,0.1,0,0.2,0,0.2c0,0.2,0.1,0.4,0.1,0.6c0,0.1,0,0.2,0,0.2c0.1,0.3,0.1,0.5,0.2,0.8
					c0,0,0,0,0,0c0.1,0.2,0.2,0.5,0.3,0.7c0,0.1,0.1,0.1,0.1,0.2c0.1,0.2,0.2,0.4,0.3,0.5c0,0.1,0.1,0.1,0.1,0.2
					c0.1,0.2,0.3,0.5,0.4,0.7c0.9,1.3,2,2.3,3.3,2.9c0.3,0.1,0.5,0.3,0.8,0.4c0.3,0.1,0.5,0.2,0.8,0.3c0.3,0.1,0.6,0.1,0.8,0.2
					c0.6,0.1,1.1,0.2,1.7,0.2c1.4,0,2.7-0.3,4-1l0,0c0,0,0.1,0,0.1,0c0.1-0.1,0.3-0.2,0.4-0.2c0,0,0,0,0,0l0,0c0,0,0.1-0.1,0.1-0.1
					c0,0,0,0,0.1,0c0,0,0,0,0,0c0.1-0.1,0.2-0.1,0.2-0.2c0.2-0.1,0.3-0.2,0.5-0.3l0,0c0.1-0.1,0.1-0.1,0.2-0.2
					C784.5,69.9,784.6,69.8,784.7,69.8z"/>
				<g>
					
						<ellipse transform="matrix(0.9631 -0.2691 0.2691 0.9631 12.1809 211.5801)" class="st6" cx="777.9" cy="61.4" rx="8.9" ry="8.9"/>
					<path class="st7" d="M786.6,59.4c0,1.2-0.2,2.3-0.7,3.5c-1.9,4.6-7.2,6.7-11.7,4.8c-2.8-1.2-4.6-3.6-5.3-6.3
						c0,3.5,2.1,6.8,5.5,8.2c4.6,1.9,9.8-0.2,11.7-4.8C786.9,63,787,61.1,786.6,59.4z"/>
					<path class="st7" d="M769.5,58.2c-0.1,0.3-0.2,0.5-0.3,0.8l16.3,6.9c0.1-0.2,0.3-0.5,0.4-0.7c0-0.1,0.1-0.2,0.1-0.3l-16.5-6.9
						C769.6,58,769.5,58.1,769.5,58.2z"/>
					<path class="st8" d="M769.6,57.9c-0.1,0.2-0.1,0.4-0.2,0.5l16.5,6.9c0.1-0.2,0.2-0.3,0.2-0.5c0.1-0.2,0.1-0.4,0.2-0.5
						l-16.5-6.9C769.8,57.5,769.7,57.7,769.6,57.9z"/>
				</g>
			</g>
		</g>
		<g>
			<path class="st4" d="M864-5.9l-97.3,51.4c-4.6,2.4-6.3,8.1-3.9,12.6l16.9,32c2.4,4.6,8.1,6.3,12.6,3.9l97.3-51.4
				c4.6-2.4,6.3-8.1,3.9-12.6L876.6-2C874.2-6.5,868.6-8.3,864-5.9z"/>
			<g>
				<path class="st5" d="M790.8,56.1c0-0.2,0-0.4,0-0.6c0-0.1,0-0.2,0-0.3c0-0.2-0.1-0.4-0.1-0.5c0-0.1,0-0.2,0-0.3
					c-0.1-0.2-0.1-0.5-0.2-0.7c0-0.1-0.1-0.2-0.1-0.3c-0.1-0.2-0.1-0.3-0.2-0.5c0-0.1-0.1-0.2-0.1-0.3c-0.1-0.1-0.1-0.3-0.2-0.4
					c-0.1-0.1-0.1-0.2-0.2-0.3c0,0,0-0.1,0-0.1c0,0,0,0,0,0c-1.4-2.4-3.9-4.2-6.9-4.4c-4.7-0.4-8.9,2.9-9.7,7.5l0,0
					c0,0.2-0.1,0.4-0.1,0.6c0,0.1,0,0.2,0,0.3c0,0,0,0,0,0.1c0,0,0,0.1,0,0.1c0,0.1,0,0.1,0,0.2l0,0c0,0,0,0,0,0c0,0.2,0,0.3,0,0.5
					c0,0,0,0.1,0,0.1l0,0c0,0.8,0.2,1.6,0.4,2.3c0,0,0,0,0,0c0,0,0,0,0,0c0,0,0,0.1,0,0.1c0.1,0.2,0.1,0.4,0.2,0.6
					c0,0.1,0.1,0.2,0.1,0.2c0.1,0.2,0.2,0.3,0.2,0.5c0,0.1,0.1,0.1,0.1,0.2c0.1,0.2,0.3,0.4,0.4,0.6c0,0,0,0,0.1,0.1
					c0.1,0.2,0.3,0.4,0.4,0.5c0.1,0.1,0.1,0.1,0.2,0.2c0.1,0.1,0.2,0.3,0.4,0.4c0.1,0.1,0.1,0.1,0.2,0.2c0.2,0.2,0.4,0.4,0.6,0.5
					c0,0,0,0,0,0c0.2,0.2,0.4,0.3,0.6,0.4c0.1,0,0.1,0.1,0.2,0.1c0.2,0.1,0.3,0.2,0.5,0.3c0.1,0,0.1,0.1,0.2,0.1
					c0.2,0.1,0.5,0.2,0.7,0.3c0,0,0,0,0,0c0.2,0.1,0.5,0.2,0.7,0.3c0.1,0,0.2,0,0.2,0.1c0.2,0.1,0.4,0.1,0.6,0.1
					c0.1,0,0.2,0,0.2,0.1c0.3,0.1,0.5,0.1,0.8,0.1c1.5,0.1,3-0.1,4.3-0.7c0.3-0.1,0.5-0.2,0.8-0.4c0.3-0.1,0.5-0.3,0.7-0.4
					c0.2-0.2,0.5-0.3,0.7-0.5c0.4-0.4,0.8-0.8,1.2-1.2c0.9-1,1.5-2.3,1.8-3.7l0,0c0,0,0-0.1,0-0.1c0-0.2,0.1-0.3,0.1-0.5
					c0,0,0,0,0,0l0,0c0-0.1,0-0.1,0-0.2c0,0,0,0,0-0.1c0,0,0,0,0-0.1c0-0.1,0-0.2,0-0.3c0-0.2,0-0.4,0-0.6l0,0c0-0.1,0-0.2,0-0.2
					C790.9,56.3,790.8,56.2,790.8,56.1z"/>
				<g>
					<path class="st9" d="M788,51.8c2.3,4.4,0.6,9.8-3.8,12.1c-4.4,2.3-9.8,0.6-12.1-3.8c-2.3-4.4-0.6-9.8,3.8-12.1
						C780.3,45.7,785.7,47.4,788,51.8z"/>
					<path class="st10" d="M784.1,48c0.9,0.7,1.6,1.7,2.2,2.7c2.3,4.4,0.6,9.8-3.8,12.1c-2.7,1.4-5.7,1.3-8.2,0
						c2.7,2.2,6.6,2.8,9.8,1c4.4-2.3,6.1-7.7,3.8-12.1C787.1,50.1,785.7,48.8,784.1,48z"/>
					<path class="st10" d="M772.3,60.4c0.1,0.2,0.3,0.5,0.4,0.7l15.7-8.2c-0.1-0.3-0.2-0.5-0.3-0.8c-0.1-0.1-0.1-0.2-0.2-0.3
						l-15.8,8.3C772.2,60.2,772.2,60.3,772.3,60.4z"/>
					<path class="st11" d="M772.1,60.1c0.1,0.2,0.2,0.3,0.3,0.5l15.8-8.3c-0.1-0.2-0.2-0.4-0.3-0.5c-0.1-0.2-0.2-0.3-0.3-0.5
						l-15.8,8.3C771.9,59.7,772,59.9,772.1,60.1z"/>
				</g>
			</g>
			<g>
				<path class="st5" d="M812.1,44.9c0-0.2,0-0.4,0-0.6c0-0.1,0-0.2,0-0.3c0-0.2-0.1-0.4-0.1-0.5c0-0.1,0-0.2,0-0.3
					c-0.1-0.2-0.1-0.5-0.2-0.7c0-0.1-0.1-0.2-0.1-0.3c-0.1-0.2-0.1-0.3-0.2-0.5c0-0.1-0.1-0.2-0.1-0.3c-0.1-0.1-0.1-0.3-0.2-0.4
					c-0.1-0.1-0.1-0.2-0.2-0.3c0,0,0-0.1,0-0.1c0,0,0,0,0,0c-1.4-2.4-3.9-4.2-6.9-4.4c-4.7-0.4-8.9,2.9-9.7,7.5l0,0
					c0,0.2-0.1,0.4-0.1,0.6c0,0.1,0,0.2,0,0.3c0,0,0,0,0,0.1c0,0,0,0.1,0,0.1c0,0.1,0,0.1,0,0.2l0,0c0,0,0,0,0,0c0,0.2,0,0.3,0,0.5
					c0,0,0,0.1,0,0.1l0,0c0,0.8,0.2,1.6,0.4,2.3c0,0,0,0,0,0c0,0,0,0,0,0c0,0,0,0.1,0,0.1c0.1,0.2,0.1,0.4,0.2,0.6
					c0,0.1,0.1,0.2,0.1,0.2c0.1,0.2,0.2,0.3,0.2,0.5c0,0.1,0.1,0.1,0.1,0.2c0.1,0.2,0.3,0.4,0.4,0.6c0,0,0,0,0.1,0.1
					c0.1,0.2,0.3,0.4,0.4,0.5c0.1,0.1,0.1,0.1,0.2,0.2c0.1,0.1,0.2,0.3,0.4,0.4c0.1,0.1,0.1,0.1,0.2,0.2c0.2,0.2,0.4,0.4,0.6,0.5
					c0,0,0,0,0,0c0.2,0.2,0.4,0.3,0.6,0.4c0.1,0,0.1,0.1,0.2,0.1c0.2,0.1,0.3,0.2,0.5,0.3c0.1,0,0.1,0.1,0.2,0.1
					c0.2,0.1,0.5,0.2,0.7,0.3c0,0,0,0,0,0c0.2,0.1,0.5,0.2,0.7,0.3c0.1,0,0.2,0,0.2,0.1c0.2,0.1,0.4,0.1,0.6,0.1
					c0.1,0,0.2,0,0.2,0.1c0.3,0.1,0.5,0.1,0.8,0.1c1.5,0.1,3-0.1,4.3-0.7c0.3-0.1,0.5-0.2,0.8-0.4c0.3-0.1,0.5-0.3,0.7-0.4
					c0.2-0.2,0.5-0.3,0.7-0.5c0.4-0.4,0.8-0.8,1.2-1.2c0.9-1,1.5-2.3,1.8-3.7l0,0c0,0,0-0.1,0-0.1c0-0.2,0.1-0.3,0.1-0.5
					c0,0,0,0,0,0l0,0c0-0.1,0-0.1,0-0.2c0,0,0,0,0-0.1c0,0,0,0,0-0.1c0-0.1,0-0.2,0-0.3c0-0.2,0-0.4,0-0.6l0,0c0-0.1,0-0.2,0-0.2
					C812.1,45.1,812.1,45,812.1,44.9z"/>
				<g>
					
						<ellipse transform="matrix(0.5729 -0.8196 0.8196 0.5729 305.596 675.8694)" class="st9" cx="801.3" cy="44.7" rx="8.9" ry="8.9"/>
					<path class="st10" d="M805.3,36.7c0.9,0.7,1.6,1.7,2.2,2.7c2.3,4.4,0.6,9.8-3.8,12.1c-2.7,1.4-5.7,1.3-8.2,0
						c2.7,2.2,6.6,2.8,9.8,1c4.4-2.3,6.1-7.7,3.8-12.1C808.3,38.9,806.9,37.6,805.3,36.7z"/>
					<path class="st10" d="M793.5,49.2c0.1,0.2,0.3,0.5,0.4,0.7l15.7-8.2c-0.1-0.3-0.2-0.5-0.3-0.8c-0.1-0.1-0.1-0.2-0.2-0.3
						l-15.8,8.3C793.4,48.9,793.5,49,793.5,49.2z"/>
					<path class="st11" d="M793.4,48.9c0.1,0.2,0.2,0.3,0.3,0.5l15.8-8.3c-0.1-0.2-0.2-0.4-0.3-0.5c-0.1-0.2-0.2-0.3-0.3-0.5
						l-15.8,8.3C793.2,48.5,793.3,48.7,793.4,48.9z"/>
				</g>
			</g>
			<g>
				<path class="st5" d="M833.4,33.6c0-0.2,0-0.4,0-0.6c0-0.1,0-0.2,0-0.3c0-0.2-0.1-0.4-0.1-0.5c0-0.1,0-0.2,0-0.3
					c-0.1-0.2-0.1-0.5-0.2-0.7c0-0.1-0.1-0.2-0.1-0.3c-0.1-0.2-0.1-0.3-0.2-0.5c0-0.1-0.1-0.2-0.1-0.3c-0.1-0.1-0.1-0.3-0.2-0.4
					c-0.1-0.1-0.1-0.2-0.2-0.3c0,0,0-0.1,0-0.1c0,0,0,0,0,0c-1.4-2.4-3.9-4.2-6.9-4.4c-4.7-0.4-8.9,2.9-9.7,7.5l0,0
					c0,0.2-0.1,0.4-0.1,0.6c0,0.1,0,0.2,0,0.3c0,0,0,0,0,0.1c0,0,0,0.1,0,0.1c0,0.1,0,0.1,0,0.2l0,0c0,0,0,0,0,0c0,0.2,0,0.3,0,0.5
					c0,0,0,0.1,0,0.1l0,0c0,0.8,0.2,1.6,0.4,2.3c0,0,0,0,0,0c0,0,0,0,0,0c0,0,0,0.1,0,0.1c0.1,0.2,0.1,0.4,0.2,0.6
					c0,0.1,0.1,0.2,0.1,0.2c0.1,0.2,0.2,0.3,0.2,0.5c0,0.1,0.1,0.1,0.1,0.2c0.1,0.2,0.3,0.4,0.4,0.6c0,0,0,0,0.1,0.1
					c0.1,0.2,0.3,0.4,0.4,0.5c0.1,0.1,0.1,0.1,0.2,0.2c0.1,0.1,0.2,0.3,0.4,0.4c0.1,0.1,0.1,0.1,0.2,0.2c0.2,0.2,0.4,0.4,0.6,0.5
					c0,0,0,0,0,0c0.2,0.2,0.4,0.3,0.6,0.4c0.1,0,0.1,0.1,0.2,0.1c0.2,0.1,0.3,0.2,0.5,0.3c0.1,0,0.1,0.1,0.2,0.1
					c0.2,0.1,0.5,0.2,0.7,0.3c0,0,0,0,0,0c0.2,0.1,0.5,0.2,0.7,0.3c0.1,0,0.2,0,0.2,0.1c0.2,0.1,0.4,0.1,0.6,0.1
					c0.1,0,0.2,0,0.2,0.1c0.3,0.1,0.5,0.1,0.8,0.1c1.5,0.1,3-0.1,4.3-0.7c0.3-0.1,0.5-0.2,0.8-0.4c0.3-0.1,0.5-0.3,0.7-0.4
					c0.2-0.2,0.5-0.3,0.7-0.5c0.4-0.4,0.8-0.8,1.2-1.2c0.9-1,1.5-2.3,1.8-3.7l0,0c0,0,0-0.1,0-0.1c0-0.2,0.1-0.3,0.1-0.5
					c0,0,0,0,0,0l0,0c0-0.1,0-0.1,0-0.2c0,0,0,0,0-0.1c0,0,0,0,0-0.1c0-0.1,0-0.2,0-0.3c0-0.2,0-0.4,0-0.6l0,0c0-0.1,0-0.2,0-0.2
					C833.4,33.8,833.4,33.7,833.4,33.6z"/>
				<g>
					<path class="st9" d="M830.5,29.3c2.3,4.4,0.6,9.8-3.8,12.1c-4.4,2.3-9.8,0.6-12.1-3.8c-2.3-4.4-0.6-9.8,3.8-12.1
						C822.8,23.3,828.2,25,830.5,29.3z"/>
					<path class="st10" d="M826.6,25.5c0.9,0.7,1.6,1.7,2.2,2.7c2.3,4.4,0.6,9.8-3.8,12.1c-2.7,1.4-5.7,1.3-8.2,0
						c2.7,2.2,6.6,2.8,9.8,1c4.4-2.3,6.1-7.7,3.8-12.1C829.6,27.6,828.2,26.3,826.6,25.5z"/>
					<path class="st10" d="M814.8,37.9c0.1,0.2,0.3,0.5,0.4,0.7l15.7-8.2c-0.1-0.3-0.2-0.5-0.3-0.8c-0.1-0.1-0.1-0.2-0.2-0.3
						l-15.8,8.3C814.7,37.7,814.8,37.8,814.8,37.9z"/>
					<path class="st11" d="M814.6,37.6c0.1,0.2,0.2,0.3,0.3,0.5l15.8-8.3c-0.1-0.2-0.2-0.4-0.3-0.5c-0.1-0.2-0.2-0.3-0.3-0.5
						l-15.8,8.3C814.5,37.3,814.5,37.4,814.6,37.6z"/>
				</g>
			</g>
			<g>
				<path class="st5" d="M854.7,22.4c0-0.2,0-0.4,0-0.6c0-0.1,0-0.2,0-0.3c0-0.2-0.1-0.4-0.1-0.5c0-0.1,0-0.2,0-0.3
					c-0.1-0.2-0.1-0.5-0.2-0.7c0-0.1-0.1-0.2-0.1-0.3c-0.1-0.2-0.1-0.3-0.2-0.5c0-0.1-0.1-0.2-0.1-0.3c-0.1-0.1-0.1-0.3-0.2-0.4
					c-0.1-0.1-0.1-0.2-0.2-0.3c0,0,0-0.1,0-0.1c0,0,0,0,0,0c-1.4-2.4-3.9-4.2-6.9-4.4c-4.7-0.4-8.9,2.9-9.7,7.5l0,0
					c0,0.2-0.1,0.4-0.1,0.6c0,0.1,0,0.2,0,0.3c0,0,0,0,0,0.1c0,0,0,0.1,0,0.1c0,0.1,0,0.1,0,0.2l0,0c0,0,0,0,0,0c0,0.2,0,0.3,0,0.5
					c0,0,0,0.1,0,0.1l0,0c0,0.8,0.2,1.6,0.4,2.3c0,0,0,0,0,0c0,0,0,0,0,0c0,0,0,0.1,0,0.1c0.1,0.2,0.1,0.4,0.2,0.6
					c0,0.1,0.1,0.2,0.1,0.2c0.1,0.2,0.2,0.3,0.2,0.5c0,0.1,0.1,0.1,0.1,0.2c0.1,0.2,0.3,0.4,0.4,0.6c0,0,0,0,0.1,0.1
					c0.1,0.2,0.3,0.4,0.4,0.5c0.1,0.1,0.1,0.1,0.2,0.2c0.1,0.1,0.2,0.3,0.4,0.4c0.1,0.1,0.1,0.1,0.2,0.2c0.2,0.2,0.4,0.4,0.6,0.5
					c0,0,0,0,0,0c0.2,0.2,0.4,0.3,0.6,0.4c0.1,0,0.1,0.1,0.2,0.1c0.2,0.1,0.3,0.2,0.5,0.3c0.1,0,0.1,0.1,0.2,0.1
					c0.2,0.1,0.5,0.2,0.7,0.3c0,0,0,0,0,0c0.2,0.1,0.5,0.2,0.7,0.3c0.1,0,0.2,0,0.2,0.1c0.2,0.1,0.4,0.1,0.6,0.1
					c0.1,0,0.2,0,0.2,0.1c0.3,0.1,0.5,0.1,0.8,0.1c1.5,0.1,3-0.1,4.3-0.7c0.3-0.1,0.5-0.2,0.8-0.4c0.3-0.1,0.5-0.3,0.7-0.4
					c0.2-0.2,0.5-0.3,0.7-0.5c0.4-0.4,0.8-0.8,1.2-1.2c0.9-1,1.5-2.3,1.8-3.7l0,0c0,0,0-0.1,0-0.1c0-0.2,0.1-0.3,0.1-0.5
					c0,0,0,0,0,0l0,0c0-0.1,0-0.1,0-0.2c0,0,0,0,0-0.1c0,0,0,0,0-0.1c0-0.1,0-0.2,0-0.3c0-0.2,0-0.4,0-0.6l0,0c0-0.1,0-0.2,0-0.2
					C854.7,22.6,854.7,22.5,854.7,22.4z"/>
				<g>
					<path class="st9" d="M851.8,18.1c2.3,4.4,0.6,9.8-3.8,12.1c-4.4,2.3-9.8,0.6-12.1-3.8c-2.3-4.4-0.6-9.8,3.8-12.1
						C844.1,12,849.5,13.7,851.8,18.1z"/>
					<path class="st10" d="M847.9,14.3c0.9,0.7,1.6,1.7,2.2,2.7c2.3,4.4,0.6,9.8-3.8,12.1c-2.7,1.4-5.7,1.3-8.2,0
						c2.7,2.2,6.6,2.8,9.8,1c4.4-2.3,6.1-7.7,3.8-12.1C850.9,16.4,849.5,15.1,847.9,14.3z"/>
					<path class="st10" d="M836.1,26.7c0.1,0.2,0.3,0.5,0.4,0.7l15.7-8.2c-0.1-0.3-0.2-0.5-0.3-0.8c-0.1-0.1-0.1-0.2-0.2-0.3
						l-15.8,8.3C836,26.5,836,26.6,836.1,26.7z"/>
					<path class="st11" d="M835.9,26.4c0.1,0.2,0.2,0.3,0.3,0.5l15.8-8.3c-0.1-0.2-0.2-0.4-0.3-0.5c-0.1-0.2-0.2-0.3-0.3-0.5
						l-15.8,8.3C835.7,26,835.8,26.2,835.9,26.4z"/>
				</g>
			</g>
			<g>
				<path class="st5" d="M875.9,11.2c0-0.2,0-0.4,0-0.6c0-0.1,0-0.2,0-0.3c0-0.2-0.1-0.4-0.1-0.5c0-0.1,0-0.2,0-0.3
					c-0.1-0.2-0.1-0.5-0.2-0.7c0-0.1-0.1-0.2-0.1-0.3c-0.1-0.2-0.1-0.3-0.2-0.5c0-0.1-0.1-0.2-0.1-0.3c-0.1-0.1-0.1-0.3-0.2-0.4
					c-0.1-0.1-0.1-0.2-0.2-0.3c0,0,0-0.1,0-0.1c0,0,0,0,0,0c-1.4-2.4-3.9-4.2-6.9-4.4c-4.7-0.4-8.9,2.9-9.7,7.5l0,0
					c0,0.2-0.1,0.4-0.1,0.6c0,0.1,0,0.2,0,0.3c0,0,0,0,0,0.1c0,0,0,0.1,0,0.1c0,0.1,0,0.1,0,0.2l0,0c0,0,0,0,0,0c0,0.2,0,0.3,0,0.5
					c0,0,0,0.1,0,0.1l0,0c0,0.8,0.2,1.6,0.4,2.3c0,0,0,0,0,0c0,0,0,0,0,0c0,0,0,0.1,0,0.1c0.1,0.2,0.1,0.4,0.2,0.6
					c0,0.1,0.1,0.2,0.1,0.2c0.1,0.2,0.2,0.3,0.2,0.5c0,0.1,0.1,0.1,0.1,0.2c0.1,0.2,0.3,0.4,0.4,0.6c0,0,0,0,0.1,0.1
					c0.1,0.2,0.3,0.4,0.4,0.5c0.1,0.1,0.1,0.1,0.2,0.2c0.1,0.1,0.2,0.3,0.4,0.4c0.1,0.1,0.1,0.1,0.2,0.2c0.2,0.2,0.4,0.4,0.6,0.5
					c0,0,0,0,0,0c0.2,0.2,0.4,0.3,0.6,0.4c0.1,0,0.1,0.1,0.2,0.1c0.2,0.1,0.3,0.2,0.5,0.3c0.1,0,0.1,0.1,0.2,0.1
					c0.2,0.1,0.5,0.2,0.7,0.3c0,0,0,0,0,0c0.2,0.1,0.5,0.2,0.7,0.3c0.1,0,0.2,0,0.2,0.1c0.2,0.1,0.4,0.1,0.6,0.1
					c0.1,0,0.2,0,0.2,0.1c0.3,0.1,0.5,0.1,0.8,0.1c1.5,0.1,3-0.1,4.3-0.7c0.3-0.1,0.5-0.2,0.8-0.4c0.3-0.1,0.5-0.3,0.7-0.4
					c0.2-0.2,0.5-0.3,0.7-0.5c0.4-0.4,0.8-0.8,1.2-1.2c0.9-1,1.5-2.3,1.8-3.7l0,0c0,0,0-0.1,0-0.1c0-0.2,0.1-0.3,0.1-0.5
					c0,0,0,0,0,0l0,0c0-0.1,0-0.1,0-0.2c0,0,0,0,0-0.1c0,0,0,0,0-0.1c0-0.1,0-0.2,0-0.3c0-0.2,0-0.4,0-0.6l0,0c0-0.1,0-0.2,0-0.2
					C875.9,11.3,875.9,11.2,875.9,11.2z"/>
				<g>
					<path class="st9" d="M873,6.9c2.3,4.4,0.6,9.8-3.8,12.1c-4.4,2.3-9.8,0.6-12.1-3.8c-2.3-4.4-0.6-9.8,3.8-12.1
						C865.3,0.8,870.7,2.5,873,6.9z"/>
					<path class="st10" d="M869.2,3c0.9,0.7,1.6,1.7,2.2,2.7c2.3,4.4,0.6,9.8-3.8,12.1c-2.7,1.4-5.7,1.3-8.2,0
						c2.7,2.2,6.6,2.8,9.8,1c4.4-2.3,6.1-7.7,3.8-12.1C872.1,5.1,870.8,3.8,869.2,3z"/>
					<path class="st10" d="M857.3,15.4c0.1,0.2,0.3,0.5,0.4,0.7l15.7-8.2c-0.1-0.3-0.2-0.5-0.3-0.8c-0.1-0.1-0.1-0.2-0.2-0.3
						l-15.8,8.3C857.2,15.2,857.3,15.3,857.3,15.4z"/>
					<path class="st11" d="M857.2,15.1c0.1,0.2,0.2,0.3,0.3,0.5l15.8-8.3c-0.1-0.2-0.2-0.4-0.3-0.5c-0.1-0.2-0.2-0.3-0.3-0.5
						l-15.8,8.3C857,14.8,857.1,15,857.2,15.1z"/>
				</g>
			</g>
			<g>
				<path class="st5" d="M801.2,75.7c0-0.2,0-0.4,0-0.6c0-0.1,0-0.2,0-0.3c0-0.2-0.1-0.4-0.1-0.5c0-0.1,0-0.2,0-0.3
					c-0.1-0.2-0.1-0.5-0.2-0.7c0-0.1-0.1-0.2-0.1-0.3c-0.1-0.2-0.1-0.3-0.2-0.5c0-0.1-0.1-0.2-0.1-0.3c-0.1-0.1-0.1-0.3-0.2-0.4
					c-0.1-0.1-0.1-0.2-0.2-0.3c0,0,0-0.1,0-0.1c0,0,0,0,0,0c-1.4-2.4-3.9-4.2-6.9-4.4c-4.7-0.4-8.9,2.9-9.7,7.5l0,0
					c0,0.2-0.1,0.4-0.1,0.6c0,0.1,0,0.2,0,0.3c0,0,0,0,0,0.1c0,0,0,0.1,0,0.1c0,0.1,0,0.1,0,0.2l0,0c0,0,0,0,0,0c0,0.2,0,0.3,0,0.5
					c0,0,0,0.1,0,0.1l0,0c0,0.8,0.2,1.6,0.4,2.3c0,0,0,0,0,0c0,0,0,0,0,0c0,0,0,0.1,0,0.1c0.1,0.2,0.1,0.4,0.2,0.6
					c0,0.1,0.1,0.2,0.1,0.2c0.1,0.2,0.2,0.3,0.2,0.5c0,0.1,0.1,0.1,0.1,0.2c0.1,0.2,0.3,0.4,0.4,0.6c0,0,0,0,0.1,0.1
					c0.1,0.2,0.3,0.4,0.4,0.5c0.1,0.1,0.1,0.1,0.2,0.2c0.1,0.1,0.2,0.3,0.4,0.4c0.1,0.1,0.1,0.1,0.2,0.2c0.2,0.2,0.4,0.4,0.6,0.5
					c0,0,0,0,0,0c0.2,0.2,0.4,0.3,0.6,0.4c0.1,0,0.1,0.1,0.2,0.1c0.2,0.1,0.3,0.2,0.5,0.3c0.1,0,0.1,0.1,0.2,0.1
					c0.2,0.1,0.5,0.2,0.7,0.3c0,0,0,0,0,0c0.2,0.1,0.5,0.2,0.7,0.3c0.1,0,0.2,0,0.2,0.1c0.2,0.1,0.4,0.1,0.6,0.1
					c0.1,0,0.2,0,0.2,0.1c0.3,0.1,0.5,0.1,0.8,0.1c1.5,0.1,3-0.1,4.3-0.7c0.3-0.1,0.5-0.2,0.8-0.4s0.5-0.3,0.7-0.4
					c0.2-0.2,0.5-0.3,0.7-0.5c0.4-0.4,0.8-0.8,1.2-1.2c0.9-1,1.5-2.3,1.8-3.7l0,0c0,0,0-0.1,0-0.1c0-0.2,0.1-0.3,0.1-0.5
					c0,0,0,0,0,0l0,0c0-0.1,0-0.1,0-0.2c0,0,0,0,0-0.1c0,0,0,0,0-0.1c0-0.1,0-0.2,0-0.3c0-0.2,0-0.4,0-0.6l0,0c0-0.1,0-0.2,0-0.2
					C801.2,75.9,801.2,75.8,801.2,75.7z"/>
				<g>
					<path class="st9" d="M798.3,71.4c2.3,4.4,0.6,9.8-3.8,12.1c-4.4,2.3-9.8,0.6-12.1-3.8c-2.3-4.4-0.6-9.8,3.8-12.1
						C790.6,65.4,796,67.1,798.3,71.4z"/>
					<path class="st10" d="M794.4,67.6c0.9,0.7,1.6,1.7,2.2,2.7c2.3,4.4,0.6,9.8-3.8,12.1c-2.7,1.4-5.7,1.3-8.2,0
						c2.7,2.2,6.6,2.8,9.8,1c4.4-2.3,6.1-7.7,3.8-12.1C797.4,69.7,796,68.4,794.4,67.6z"/>
					<path class="st10" d="M782.6,80c0.1,0.2,0.3,0.5,0.4,0.7l15.7-8.2c-0.1-0.3-0.2-0.5-0.3-0.8c-0.1-0.1-0.1-0.2-0.2-0.3
						l-15.8,8.3C782.5,79.8,782.6,79.9,782.6,80z"/>
					<path class="st11" d="M782.5,79.7c0.1,0.2,0.2,0.3,0.3,0.5l15.8-8.3c-0.1-0.2-0.2-0.4-0.3-0.5c-0.1-0.2-0.2-0.3-0.3-0.5
						l-15.8,8.3C782.3,79.4,782.4,79.5,782.5,79.7z"/>
				</g>
			</g>
			<g>
				<path class="st5" d="M822.5,64.5c0-0.2,0-0.4,0-0.6c0-0.1,0-0.2,0-0.3c0-0.2-0.1-0.4-0.1-0.5c0-0.1,0-0.2,0-0.3
					c-0.1-0.2-0.1-0.5-0.2-0.7c0-0.1-0.1-0.2-0.1-0.3c-0.1-0.2-0.1-0.3-0.2-0.5c0-0.1-0.1-0.2-0.1-0.3c-0.1-0.1-0.1-0.3-0.2-0.4
					c-0.1-0.1-0.1-0.2-0.2-0.3c0,0,0-0.1,0-0.1c0,0,0,0,0,0c-1.4-2.4-3.9-4.2-6.9-4.4c-4.7-0.4-8.9,2.9-9.7,7.5l0,0
					c0,0.2-0.1,0.4-0.1,0.6c0,0.1,0,0.2,0,0.3c0,0,0,0,0,0.1c0,0,0,0.1,0,0.1c0,0.1,0,0.1,0,0.2l0,0c0,0,0,0,0,0c0,0.2,0,0.3,0,0.5
					c0,0,0,0.1,0,0.1l0,0c0,0.8,0.2,1.6,0.4,2.3c0,0,0,0,0,0c0,0,0,0,0,0c0,0,0,0.1,0,0.1c0.1,0.2,0.1,0.4,0.2,0.6
					c0,0.1,0.1,0.2,0.1,0.2c0.1,0.2,0.2,0.3,0.2,0.5c0,0.1,0.1,0.1,0.1,0.2c0.1,0.2,0.3,0.4,0.4,0.6c0,0,0,0,0.1,0.1
					c0.1,0.2,0.3,0.4,0.4,0.5c0.1,0.1,0.1,0.1,0.2,0.2c0.1,0.1,0.2,0.3,0.4,0.4c0.1,0.1,0.1,0.1,0.2,0.2c0.2,0.2,0.4,0.4,0.6,0.5
					c0,0,0,0,0,0c0.2,0.2,0.4,0.3,0.6,0.4c0.1,0,0.1,0.1,0.2,0.1c0.2,0.1,0.3,0.2,0.5,0.3c0.1,0,0.1,0.1,0.2,0.1
					c0.2,0.1,0.5,0.2,0.7,0.3c0,0,0,0,0,0c0.2,0.1,0.5,0.2,0.7,0.3c0.1,0,0.2,0,0.2,0.1c0.2,0.1,0.4,0.1,0.6,0.1
					c0.1,0,0.2,0,0.2,0.1c0.3,0.1,0.5,0.1,0.8,0.1c1.5,0.1,3-0.1,4.3-0.7c0.3-0.1,0.5-0.2,0.8-0.4c0.3-0.1,0.5-0.3,0.7-0.4
					c0.2-0.2,0.5-0.3,0.7-0.5c0.4-0.4,0.8-0.8,1.2-1.2c0.9-1,1.5-2.3,1.8-3.7l0,0c0,0,0-0.1,0-0.1c0-0.2,0.1-0.3,0.1-0.5
					c0,0,0,0,0,0l0,0c0-0.1,0-0.1,0-0.2c0,0,0,0,0-0.1c0,0,0,0,0-0.1c0-0.1,0-0.2,0-0.3c0-0.2,0-0.4,0-0.6l0,0c0-0.1,0-0.2,0-0.2
					C822.5,64.7,822.5,64.6,822.5,64.5z"/>
				<g>
					<path class="st9" d="M819.6,60.2c2.3,4.4,0.6,9.8-3.8,12.1c-4.4,2.3-9.8,0.6-12.1-3.8c-2.3-4.4-0.6-9.8,3.8-12.1
						C811.9,54.1,817.3,55.8,819.6,60.2z"/>
					<path class="st10" d="M815.7,56.4c0.9,0.7,1.6,1.7,2.2,2.7c2.3,4.4,0.6,9.8-3.8,12.1c-2.7,1.4-5.7,1.3-8.2,0
						c2.7,2.2,6.6,2.8,9.8,1c4.4-2.3,6.1-7.7,3.8-12.1C818.7,58.5,817.3,57.2,815.7,56.4z"/>
					<path class="st10" d="M803.9,68.8c0.1,0.2,0.3,0.5,0.4,0.7l15.7-8.2c-0.1-0.3-0.2-0.5-0.3-0.8c-0.1-0.1-0.1-0.2-0.2-0.3
						l-15.8,8.3C803.8,68.6,803.9,68.7,803.9,68.8z"/>
					<path class="st11" d="M803.7,68.5c0.1,0.2,0.2,0.3,0.3,0.5l15.8-8.3c-0.1-0.2-0.2-0.4-0.3-0.5c-0.1-0.2-0.2-0.3-0.3-0.5
						l-15.8,8.3C803.6,68.1,803.6,68.3,803.7,68.5z"/>
				</g>
			</g>
			<g>
				<path class="st5" d="M843.8,53.3c0-0.2,0-0.4,0-0.6c0-0.1,0-0.2,0-0.3c0-0.2-0.1-0.4-0.1-0.5c0-0.1,0-0.2,0-0.3
					c-0.1-0.2-0.1-0.5-0.2-0.7c0-0.1-0.1-0.2-0.1-0.3c-0.1-0.2-0.1-0.3-0.2-0.5c0-0.1-0.1-0.2-0.1-0.3c-0.1-0.1-0.1-0.3-0.2-0.4
					c-0.1-0.1-0.1-0.2-0.2-0.3c0,0,0-0.1,0-0.1c0,0,0,0,0,0c-1.4-2.4-3.9-4.2-6.9-4.4c-4.7-0.4-8.9,2.9-9.7,7.5l0,0
					c0,0.2-0.1,0.4-0.1,0.6c0,0.1,0,0.2,0,0.3c0,0,0,0,0,0.1c0,0,0,0.1,0,0.1c0,0.1,0,0.1,0,0.2l0,0c0,0,0,0,0,0c0,0.2,0,0.3,0,0.5
					c0,0,0,0.1,0,0.1l0,0c0,0.8,0.2,1.6,0.4,2.3c0,0,0,0,0,0c0,0,0,0,0,0c0,0,0,0.1,0,0.1c0.1,0.2,0.1,0.4,0.2,0.6
					c0,0.1,0.1,0.2,0.1,0.2c0.1,0.2,0.2,0.3,0.2,0.5c0,0.1,0.1,0.1,0.1,0.2c0.1,0.2,0.3,0.4,0.4,0.6c0,0,0,0,0.1,0.1
					c0.1,0.2,0.3,0.4,0.4,0.5c0.1,0.1,0.1,0.1,0.2,0.2c0.1,0.1,0.2,0.3,0.4,0.4c0.1,0.1,0.1,0.1,0.2,0.2c0.2,0.2,0.4,0.4,0.6,0.5
					c0,0,0,0,0,0c0.2,0.2,0.4,0.3,0.6,0.4c0.1,0,0.1,0.1,0.2,0.1c0.2,0.1,0.3,0.2,0.5,0.3c0.1,0,0.1,0.1,0.2,0.1
					c0.2,0.1,0.5,0.2,0.7,0.3c0,0,0,0,0,0c0.2,0.1,0.5,0.2,0.7,0.3c0.1,0,0.2,0,0.2,0.1c0.2,0.1,0.4,0.1,0.6,0.1
					c0.1,0,0.2,0,0.2,0.1c0.3,0.1,0.5,0.1,0.8,0.1c1.5,0.1,3-0.1,4.3-0.7c0.3-0.1,0.5-0.2,0.8-0.4c0.3-0.1,0.5-0.3,0.7-0.4
					c0.2-0.2,0.5-0.3,0.7-0.5c0.4-0.4,0.8-0.8,1.2-1.2c0.9-1,1.5-2.3,1.8-3.7l0,0c0,0,0-0.1,0-0.1c0-0.2,0.1-0.3,0.1-0.5
					c0,0,0,0,0,0l0,0c0-0.1,0-0.1,0-0.2c0,0,0,0,0-0.1c0,0,0,0,0-0.1c0-0.1,0-0.2,0-0.3c0-0.2,0-0.4,0-0.6l0,0c0-0.1,0-0.2,0-0.2
					C843.8,53.4,843.8,53.3,843.8,53.3z"/>
				<g>
					<path class="st9" d="M840.9,49c2.3,4.4,0.6,9.8-3.8,12.1c-4.4,2.3-9.8,0.6-12.1-3.8c-2.3-4.4-0.6-9.8,3.8-12.1
						C833.2,42.9,838.6,44.6,840.9,49z"/>
					<path class="st10" d="M837,45.1c0.9,0.7,1.6,1.7,2.2,2.7c2.3,4.4,0.6,9.8-3.8,12.1c-2.7,1.4-5.7,1.3-8.2,0
						c2.7,2.2,6.6,2.8,9.8,1c4.4-2.3,6.1-7.7,3.8-12.1C840,47.2,838.6,45.9,837,45.1z"/>
					<path class="st10" d="M825.2,57.5c0.1,0.2,0.3,0.5,0.4,0.7l15.7-8.2c-0.1-0.3-0.2-0.5-0.3-0.8c-0.1-0.1-0.1-0.2-0.2-0.3
						L825,57.2C825.1,57.3,825.1,57.4,825.2,57.5z"/>
					<path class="st11" d="M825,57.2c0.1,0.2,0.2,0.3,0.3,0.5l15.8-8.3c-0.1-0.2-0.2-0.4-0.3-0.5c-0.1-0.2-0.2-0.3-0.3-0.5
						l-15.8,8.3C824.8,56.9,824.9,57.1,825,57.2z"/>
				</g>
			</g>
			<g>
				<path class="st5" d="M865,42c0-0.2,0-0.4,0-0.6c0-0.1,0-0.2,0-0.3c0-0.2-0.1-0.4-0.1-0.5c0-0.1,0-0.2,0-0.3
					c-0.1-0.2-0.1-0.5-0.2-0.7c0-0.1-0.1-0.2-0.1-0.3c-0.1-0.2-0.1-0.3-0.2-0.5c0-0.1-0.1-0.2-0.1-0.3c-0.1-0.1-0.1-0.3-0.2-0.4
					c-0.1-0.1-0.1-0.2-0.2-0.3c0,0,0-0.1,0-0.1c0,0,0,0,0,0c-1.4-2.4-3.9-4.2-6.9-4.4c-4.7-0.4-8.9,2.9-9.7,7.5l0,0
					c0,0.2-0.1,0.4-0.1,0.6c0,0.1,0,0.2,0,0.3c0,0,0,0,0,0.1c0,0,0,0.1,0,0.1c0,0.1,0,0.1,0,0.2l0,0c0,0,0,0,0,0c0,0.2,0,0.3,0,0.5
					c0,0,0,0.1,0,0.1l0,0c0,0.8,0.2,1.6,0.4,2.3c0,0,0,0,0,0c0,0,0,0,0,0c0,0,0,0.1,0,0.1c0.1,0.2,0.1,0.4,0.2,0.6
					c0,0.1,0.1,0.2,0.1,0.2c0.1,0.2,0.2,0.3,0.2,0.5c0,0.1,0.1,0.1,0.1,0.2c0.1,0.2,0.3,0.4,0.4,0.6c0,0,0,0,0.1,0.1
					c0.1,0.2,0.3,0.4,0.4,0.5c0.1,0.1,0.1,0.1,0.2,0.2c0.1,0.1,0.2,0.3,0.4,0.4c0.1,0.1,0.1,0.1,0.2,0.2c0.2,0.2,0.4,0.4,0.6,0.5
					c0,0,0,0,0,0c0.2,0.2,0.4,0.3,0.6,0.4c0.1,0,0.1,0.1,0.2,0.1c0.2,0.1,0.3,0.2,0.5,0.3c0.1,0,0.1,0.1,0.2,0.1
					c0.2,0.1,0.5,0.2,0.7,0.3c0,0,0,0,0,0c0.2,0.1,0.5,0.2,0.7,0.3c0.1,0,0.2,0,0.2,0.1c0.2,0.1,0.4,0.1,0.6,0.1
					c0.1,0,0.2,0,0.2,0.1c0.3,0.1,0.5,0.1,0.8,0.1c1.5,0.1,3-0.1,4.3-0.7c0.3-0.1,0.5-0.2,0.8-0.4c0.3-0.1,0.5-0.3,0.7-0.4
					s0.5-0.3,0.7-0.5c0.4-0.4,0.8-0.8,1.2-1.2c0.9-1,1.5-2.3,1.8-3.7l0,0c0,0,0-0.1,0-0.1c0-0.2,0.1-0.3,0.1-0.5c0,0,0,0,0,0l0,0
					c0-0.1,0-0.1,0-0.2c0,0,0,0,0-0.1c0,0,0,0,0-0.1c0-0.1,0-0.2,0-0.3c0-0.2,0-0.4,0-0.6l0,0c0-0.1,0-0.2,0-0.2
					C865,42.2,865,42.1,865,42z"/>
				<g>
					<path class="st9" d="M862.1,37.7c2.3,4.4,0.6,9.8-3.8,12.1c-4.4,2.3-9.8,0.6-12.1-3.8c-2.3-4.4-0.6-9.8,3.8-12.1
						C854.4,31.6,859.8,33.3,862.1,37.7z"/>
					<path class="st10" d="M858.3,33.9c0.9,0.7,1.6,1.7,2.2,2.7c2.3,4.4,0.6,9.8-3.8,12.1c-2.7,1.4-5.7,1.3-8.2,0
						c2.7,2.2,6.6,2.8,9.8,1c4.4-2.3,6.1-7.7,3.8-12.1C861.2,36,859.9,34.7,858.3,33.9z"/>
					<path class="st10" d="M846.4,46.3c0.1,0.2,0.3,0.5,0.4,0.7l15.7-8.2c-0.1-0.3-0.2-0.5-0.3-0.8c-0.1-0.1-0.1-0.2-0.2-0.3
						L846.3,46C846.3,46.1,846.4,46.2,846.4,46.3z"/>
					<path class="st11" d="M846.3,46c0.1,0.2,0.2,0.3,0.3,0.5l15.8-8.3c-0.1-0.2-0.2-0.4-0.3-0.5c-0.1-0.2-0.2-0.3-0.3-0.5L846,45.5
						C846.1,45.6,846.2,45.8,846.3,46z"/>
				</g>
			</g>
			<g>
				<path class="st5" d="M886.3,30.8c0-0.2,0-0.4,0-0.6c0-0.1,0-0.2,0-0.3c0-0.2-0.1-0.4-0.1-0.5c0-0.1,0-0.2,0-0.3
					c-0.1-0.2-0.1-0.5-0.2-0.7c0-0.1-0.1-0.2-0.1-0.3c-0.1-0.2-0.1-0.3-0.2-0.5c0-0.1-0.1-0.2-0.1-0.3c-0.1-0.1-0.1-0.3-0.2-0.4
					c-0.1-0.1-0.1-0.2-0.2-0.3c0,0,0-0.1,0-0.1c0,0,0,0,0,0c-1.4-2.4-3.9-4.2-6.9-4.4c-4.7-0.4-8.9,2.9-9.7,7.5l0,0
					c0,0.2-0.1,0.4-0.1,0.6c0,0.1,0,0.2,0,0.3c0,0,0,0,0,0.1c0,0,0,0.1,0,0.1c0,0.1,0,0.1,0,0.2l0,0c0,0,0,0,0,0c0,0.2,0,0.3,0,0.5
					c0,0,0,0.1,0,0.1l0,0c0,0.8,0.2,1.6,0.4,2.3c0,0,0,0,0,0c0,0,0,0,0,0c0,0,0,0.1,0,0.1c0.1,0.2,0.1,0.4,0.2,0.6
					c0,0.1,0.1,0.2,0.1,0.2c0.1,0.2,0.2,0.3,0.2,0.5c0,0.1,0.1,0.1,0.1,0.2c0.1,0.2,0.3,0.4,0.4,0.6c0,0,0,0,0.1,0.1
					c0.1,0.2,0.3,0.4,0.4,0.5c0.1,0.1,0.1,0.1,0.2,0.2c0.1,0.1,0.2,0.3,0.4,0.4c0.1,0.1,0.1,0.1,0.2,0.2c0.2,0.2,0.4,0.4,0.6,0.5
					c0,0,0,0,0,0c0.2,0.2,0.4,0.3,0.6,0.4c0.1,0,0.1,0.1,0.2,0.1c0.2,0.1,0.3,0.2,0.5,0.3c0.1,0,0.1,0.1,0.2,0.1
					c0.2,0.1,0.5,0.2,0.7,0.3c0,0,0,0,0,0c0.2,0.1,0.5,0.2,0.7,0.3c0.1,0,0.2,0,0.2,0.1c0.2,0.1,0.4,0.1,0.6,0.1
					c0.1,0,0.2,0,0.2,0.1c0.3,0.1,0.5,0.1,0.8,0.1c1.5,0.1,3-0.1,4.3-0.7c0.3-0.1,0.5-0.2,0.8-0.4c0.3-0.1,0.5-0.3,0.7-0.4
					c0.2-0.2,0.5-0.3,0.7-0.5c0.4-0.4,0.8-0.8,1.2-1.2c0.9-1,1.5-2.3,1.8-3.7l0,0c0,0,0-0.1,0-0.1c0-0.2,0.1-0.3,0.1-0.5
					c0,0,0,0,0,0l0,0c0-0.1,0-0.1,0-0.2c0,0,0,0,0-0.1c0,0,0,0,0-0.1c0-0.1,0-0.2,0-0.3c0-0.2,0-0.4,0-0.6l0,0c0-0.1,0-0.2,0-0.2
					C886.3,30.9,886.3,30.9,886.3,30.8z"/>
				<g>
					
						<ellipse transform="matrix(0.9594 -0.282 0.282 0.9594 26.8945 248.1088)" class="st9" cx="875.5" cy="30.6" rx="8.9" ry="8.9"/>
					<path class="st10" d="M879.5,22.6c0.9,0.7,1.6,1.7,2.2,2.7c2.3,4.4,0.6,9.8-3.8,12.1c-2.7,1.4-5.7,1.3-8.2,0
						c2.7,2.2,6.6,2.8,9.8,1c4.4-2.3,6.1-7.7,3.8-12.1C882.5,24.8,881.1,23.5,879.5,22.6z"/>
					<path class="st10" d="M867.7,35c0.1,0.2,0.3,0.5,0.4,0.7l15.7-8.2c-0.1-0.3-0.2-0.5-0.3-0.8c-0.1-0.1-0.1-0.2-0.2-0.3
						l-15.8,8.3C867.6,34.8,867.7,34.9,867.7,35z"/>
					<path class="st11" d="M867.5,34.7c0.1,0.2,0.2,0.3,0.3,0.5l15.8-8.3c-0.1-0.2-0.2-0.4-0.3-0.5c-0.1-0.2-0.2-0.3-0.3-0.5
						l-15.8,8.3C867.4,34.4,867.5,34.6,867.5,34.7z"/>
				</g>
			</g>
		</g>
		<g>
			<path class="st9" d="M728,114l-4-10c-1.4-3.4-5.2-5-8.5-3.6c-3.4,1.4-5,5.2-3.6,8.5l4,10L728,114z"/>
			<path class="st6" d="M715.9,118.9l3.9,9.7c1.4,3.4,5.2,5,8.5,3.6c3.4-1.4,5-5.2,3.6-8.5L728,114L715.9,118.9z"/>
			<path class="st10" d="M717.9,118.1l-3.4-8.5c-1.4-3.4,0.3-7.2,3.6-8.5c0.9-0.4,1.8-0.5,2.7-0.5c-1.6-0.8-3.5-0.9-5.3-0.2
				c-3.4,1.4-5,5.2-3.6,8.5l4,10L717.9,118.1z"/>
			<path class="st7" d="M725.6,132.7c-1.4-0.7-2.6-1.9-3.2-3.4l-4.5-11.2l-2,0.8l3.9,9.7C720.8,131.1,723.1,132.6,725.6,132.7z"/>
		</g>
		<g>
			<path class="st9" d="M763.9,101.3L754,97c-3.3-1.5-7.2,0-8.6,3.3c-1.5,3.3,0,7.2,3.3,8.6l9.8,4.3L763.9,101.3z"/>
			<path class="st6" d="M758.6,113.3l9.6,4.2c3.3,1.5,7.2,0,8.6-3.3c1.5-3.3,0-7.2-3.3-8.6l-9.6-4.2L758.6,113.3z"/>
			<path class="st10" d="M759.5,111.3l-8.4-3.7c-3.3-1.5-4.8-5.3-3.3-8.6c0.4-0.9,0.9-1.6,1.6-2.2c-1.7,0.6-3.1,1.8-3.9,3.6
				c-1.5,3.3,0,7.2,3.3,8.6l9.8,4.3L759.5,111.3z"/>
			<path class="st7" d="M775.2,116.4c-1.5,0.5-3.2,0.5-4.7-0.2l-11-4.9l-0.9,2l9.6,4.2C770.6,118.6,773.3,118.1,775.2,116.4z"/>
		</g>
		<g>
			
				<ellipse transform="matrix(0.3603 -0.9328 0.9328 0.3603 -181.8553 235.0511)" class="st12" cx="80.5" cy="250.1" rx="8.7" ry="8.7"/>
			<path class="st13" d="M89.1,249.8c-0.2,1.1-0.6,2.2-1.3,3.2c-2.6,4-8,5.1-12,2.5c-2.4-1.6-3.8-4.2-3.9-6.9
				c-0.6,3.3,0.8,6.9,3.8,8.8c4,2.6,9.4,1.5,12-2.5C88.7,253.3,89.2,251.5,89.1,249.8z"/>
			<path class="st13" d="M73,245.6c-0.1,0.2-0.3,0.5-0.4,0.7l14.4,9.4c0.2-0.2,0.3-0.4,0.5-0.6c0.1-0.1,0.1-0.2,0.2-0.3l-14.5-9.5
				C73.1,245.5,73.1,245.6,73,245.6z"/>
			<path class="st14" d="M73.2,245.4c-0.1,0.2-0.2,0.3-0.3,0.5l14.5,9.5c0.1-0.2,0.2-0.3,0.3-0.5c0.1-0.2,0.2-0.3,0.3-0.5l-14.5-9.5
				C73.4,245,73.3,245.2,73.2,245.4z"/>
		</g>
		<g>
			
				<ellipse transform="matrix(8.129409e-02 -0.9967 0.9967 8.129409e-02 -121.6234 526.0349)" class="st12" cx="224.5" cy="329" rx="8.7" ry="8.7"/>
			<path class="st13" d="M230,322.2c0.7,0.9,1.2,1.9,1.6,3.1c1.3,4.6-1.4,9.4-6,10.7c-2.8,0.8-5.7,0.1-7.8-1.6
				c2.1,2.7,5.7,3.9,9.2,3c4.6-1.3,7.3-6.1,6-10.7C232.4,324.8,231.3,323.3,230,322.2z"/>
			<path class="st13" d="M216.3,331.7c0.1,0.3,0.2,0.5,0.3,0.8l16.6-4.7c0-0.3-0.1-0.5-0.2-0.8c0-0.1-0.1-0.2-0.1-0.3l-16.7,4.7
				C216.2,331.4,216.2,331.6,216.3,331.7z"/>
			<path class="st14" d="M216.2,331.3c0.1,0.2,0.1,0.4,0.2,0.5l16.7-4.7c0-0.2-0.1-0.4-0.1-0.6c-0.1-0.2-0.1-0.4-0.2-0.5l-16.7,4.7
				C216.1,331,216.1,331.2,216.2,331.3z"/>
		</g>
		<g>
			<path class="st12" d="M200.3,350.4c-2.1,4.3-7.3,6.1-11.6,4c-4.3-2.1-6.1-7.3-4-11.6c2.1-4.3,7.3-6.1,11.6-4
				C200.6,340.9,202.4,346.1,200.3,350.4z"/>
			<path class="st13" d="M201.1,345.2c-0.1,1.1-0.3,2.2-0.9,3.3c-2.1,4.3-7.3,6.1-11.6,4c-2.6-1.3-4.3-3.7-4.7-6.4
				c-0.2,3.4,1.6,6.7,4.9,8.3c4.3,2.1,9.5,0.3,11.6-4C201.2,348.7,201.4,346.9,201.1,345.2z"/>
			<path class="st13" d="M184.6,343.1c-0.1,0.2-0.2,0.5-0.3,0.7l15.5,7.6c0.1-0.2,0.3-0.5,0.4-0.7c0-0.1,0.1-0.2,0.1-0.3l-15.6-7.6
				C184.7,342.9,184.6,343,184.6,343.1z"/>
			<path class="st14" d="M184.7,342.8c-0.1,0.2-0.2,0.3-0.2,0.5l15.6,7.6c0.1-0.2,0.2-0.3,0.3-0.5c0.1-0.2,0.2-0.3,0.2-0.5
				l-15.6-7.6C184.9,342.4,184.8,342.6,184.7,342.8z"/>
		</g>
		<g>
			<path class="st4" d="M-0.7,118.4l-5.7-2.5C5,90,24.6,44.5,28.5,32.1c5.1-16.5,17.3-19.7,23-19l0.4,0.1l15.7,3.7l-1.4,6l-15.4-3.7
				c-1.4-0.1-11.6-0.1-16.2,14.7C30.7,46,13.3,86.5-0.7,118.4z"/>
			<path class="st4" d="M118.1,163l-6-1.6c8.2-31.2,20.9-79.2,26.4-92.3c6-14.3-1.8-20.8-2.9-21.7l-14.2-7.1l2.8-5.5l14.7,7.4
				c4.8,3.2,12,13.4,5.3,29.3C138.7,84.7,124.7,138,118.1,163z"/>
			<path class="st15" d="M115.2,149.9c-1.7,6.4-2.1,8.8-3.5,14.1l6,1.6c1.3-4.9,2-7.6,3.7-14.5L115.2,149.9z"/>
			<path class="st15" d="M-1.5,104.7c-1.7,4-3.4,7.8-4.9,11.2l5.7,2.5c1.6-3.8,3.3-7.7,5.1-11.6L-1.5,104.7z"/>
			<path class="st16" d="M77.1,425.3c-12.9-0.3-25.6-2.6-37-7c-20.4-7.9-35.4-21.7-43.2-40.1c-13.2-31.1-5.5-67.9,2.8-100
				c7.5-28.8,17.6-57.3,30.2-84.7l9.6,4.4c-12.3,26.8-22.3,54.7-29.6,82.9C2.2,311.2-5.2,346,6.7,374c6.7,15.7,19.5,27.5,37.2,34.4
				c24.6,9.5,56.3,8.3,80.7-3l0.8-0.4c30.3-14,52.3-24.2,87.9-8.7l-4.2,9.7c-31.3-13.6-49.3-5.2-79.2,8.6l-0.8,0.4
				C113.5,422.3,95.1,425.7,77.1,425.3z"/>
			<path class="st14" d="M203.1,395.7l1.3-2.9c-30.5-10.2-51.2-0.6-78.8,12.2l-0.8,0.4c-24.4,11.3-56.1,12.5-80.7,3
				c-17.7-6.8-30.6-18.7-37.2-34.4c-11.9-28-4.5-62.8,3.3-93.2c6.9-26.8,16.3-53.4,27.8-79l-2.2-1c-11.8,25.8-21.4,53.9-28.4,81
				C-0.5,312-8,344.7,4.4,374c7.3,17.3,19.8,28.7,39,36.1c10.7,4.1,21.4,6,33.6,6.3c16.9,0.4,33.4-2.5,48.1-9.3l0.8-0.4
				C154,393.7,173.3,384.6,203.1,395.7z"/>
			<path class="st9" d="M72.6,12.7l-5-1.4c-3.6-1-7.4,1.2-8.4,4.8l-0.5,1.8c-1,3.6,1.2,7.4,4.8,8.4l5,1.4c3.6,1,7.4-1.2,8.4-4.8
				l0.5-1.8C78.4,17.4,76.2,13.7,72.6,12.7z"/>
			<path class="st9" d="M123.1,28.3l4.7,2.2c3.4,1.6,4.9,5.6,3.3,9.1l-0.8,1.7c-1.6,3.4-5.6,4.9-9.1,3.3l-4.7-2.2
				c-3.4-1.6-4.9-5.6-3.3-9.1l0.8-1.7C115.6,28.2,119.6,26.7,123.1,28.3z"/>
			<path class="st16" d="M57.7,205.7c-7.9-0.2-16.2-1.9-24.8-5c-18.7-6.8-31.8-18-38.8-33.3c-12.2-26.3-1.9-54.9-1.4-56.1l10,3.7
				c0,0.1-5.2,14.6-3.5,31.1c2.3,21.4,14.9,36.4,37.4,44.7c16,5.8,30.4,5.8,43-0.1c22.3-10.4,31.6-35.8,31.7-36l10,3.6
				c-0.4,1.2-11,29.8-37.2,42C75.9,204.1,67.1,205.9,57.7,205.7z"/>
			<path class="st14" d="M115.2,156l-3.8-1.4c-0.1,0.3-9.4,25.6-31.7,36c-12.6,5.9-27,5.9-43,0.1c-22.5-8.2-35.1-23.2-37.4-44.7
				c-1.8-16.5,3.4-31,3.5-31.1l-3.3-1.2c-1.8,5.7-8,28.3,1.7,49.2c6.4,13.7,18.1,23.8,35,30c7.7,2.8,15.2,4.3,22.3,4.5
				c8.4,0.2,16.3-1.4,23.7-4.9C103,182.8,112.9,161.6,115.2,156z"/>
			<path class="st10" d="M76.5,15.5c0.1,0.8,0,1.7-0.2,2.6l-0.5,1.8c-1,3.6-4.7,5.8-8.4,4.8l-5-1.4c-1.7-0.5-3-1.5-3.9-2.8
				c0.3,2.7,2.2,5.1,5,5.8l5,1.4c3.6,1,7.4-1.2,8.4-4.8l0.5-1.8C77.9,19.1,77.5,17.1,76.5,15.5z"/>
			<path class="st10" d="M130.6,32.9c0.1,1.2,0,2.5-0.6,3.6l-0.8,1.7c-1.6,3.4-5.6,4.9-9.1,3.3l-4.7-2.2c-1.2-0.6-2.1-1.4-2.8-2.4
				c0.3,2.3,1.7,4.4,3.9,5.4l4.7,2.2c3.4,1.6,7.5,0.1,9.1-3.3l0.8-1.7C132.1,37.3,131.8,34.8,130.6,32.9z"/>
			
				<ellipse transform="matrix(0.5163 -0.8564 0.8564 0.5163 -239.9624 378.9349)" class="st4" cx="215.5" cy="401.9" rx="19" ry="19"/>
			
				<ellipse transform="matrix(0.9979 -6.482567e-02 6.482567e-02 0.9979 -25.6003 14.8141)" class="st14" cx="215.5" cy="401.9" rx="9.2" ry="9.2"/>
			<path class="st16" d="M222.1,395.5c0.3,0.9,0.5,2,0.4,3c-0.1,5.1-4.3,9.1-9.4,8.9c-2.5-0.1-4.7-1.1-6.3-2.8
				c1.2,3.6,4.5,6.3,8.5,6.4c5.1,0.1,9.3-3.9,9.4-8.9C224.7,399.6,223.7,397.2,222.1,395.5z"/>
			<path class="st15" d="M234,397.4c-0.5,11.2-9.8,20-21.1,19.7c-5.4-0.1-10.3-2.4-13.9-5.9c3.2,5.6,9.1,9.5,16,9.6
				c10.5,0.3,19.2-8,19.5-18.5C234.5,400.7,234.3,399,234,397.4z"/>
		</g>
		<g>
			<path class="st6" d="M21.8,302.5l22.2,75.7c0.6,2.1,2.8,3.3,5,2.7l28.6-8.4c2.1-0.6,3.3-2.8,2.7-5l-22.2-75.7L21.8,302.5z"/>
			
				<rect x="30.3" y="313.9" transform="matrix(0.9595 -0.2818 0.2818 0.9595 -90.5842 27.1645)" class="st12" width="37.8" height="29.2"/>
			<g>
				
					<rect x="17.2" y="287.3" transform="matrix(0.9595 -0.2818 0.2818 0.9595 -80.8266 22.7069)" class="st12" width="42.6" height="10.1"/>
				<g>
					
						<rect x="19.5" y="292.6" transform="matrix(0.9595 -0.2818 0.2818 0.9595 -83.0729 17.8061)" class="st14" width="1.8" height="10.1"/>
					
						<rect x="23.1" y="291.6" transform="matrix(0.9595 -0.2818 0.2818 0.9595 -82.621 18.7852)" class="st14" width="1.8" height="10.1"/>
					
						<rect x="26.7" y="290.5" transform="matrix(0.9595 -0.2818 0.2818 0.9595 -82.1769 19.7674)" class="st14" width="1.8" height="10.1"/>
					
						<rect x="30.4" y="289.4" transform="matrix(0.9595 -0.2818 0.2818 0.9595 -81.7251 20.7465)" class="st14" width="1.8" height="10.1"/>
					
						<rect x="34" y="288.4" transform="matrix(0.9595 -0.2818 0.2818 0.9595 -81.2681 21.7232)" class="st14" width="1.8" height="10.1"/>
					
						<rect x="37.6" y="287.3" transform="matrix(0.9595 -0.2818 0.2818 0.9595 -80.8165 22.7021)" class="st14" width="1.8" height="10.1"/>
					
						<rect x="41.3" y="286.2" transform="matrix(0.9595 -0.2818 0.2818 0.9595 -80.3728 23.6845)" class="st14" width="1.8" height="10.1"/>
					
						<rect x="44.9" y="285.2" transform="matrix(0.9595 -0.2818 0.2818 0.9595 -79.9331 24.6689)" class="st14" width="1.8" height="10.1"/>
					
						<rect x="48.5" y="284.1" transform="matrix(0.9595 -0.2818 0.2818 0.9595 -79.4888 25.6513)" class="st14" width="1.8" height="10.1"/>
					
						<rect x="52.2" y="283" transform="matrix(0.9595 -0.2818 0.2818 0.9595 -79.0372 26.6301)" class="st14" width="1.8" height="10.1"/>
					
						<rect x="55.8" y="282" transform="matrix(0.9595 -0.2818 0.2818 0.9595 -78.5928 27.6126)" class="st14" width="1.8" height="10.1"/>
				</g>
			</g>
			
				<rect x="21.7" y="297.1" transform="matrix(0.9595 -0.2818 0.2818 0.9595 -82.7018 23.5636)" class="st7" width="37.8" height="4.3"/>
			
				<rect x="55.4" y="329.7" transform="matrix(0.9595 -0.2818 0.2818 0.9595 -90.696 30.4882)" class="st14" width="10.5" height="1.8"/>
			
				<rect x="54.4" y="326.3" transform="matrix(0.9595 -0.2818 0.2818 0.9595 -89.7817 30.0704)" class="st14" width="10.5" height="1.8"/>
			
				<rect x="53.4" y="322.9" transform="matrix(0.9595 -0.2818 0.2818 0.9595 -88.8681 29.6531)" class="st14" width="10.5" height="1.8"/>
			<path class="st9" d="M41,324.2c0.7,2.4-0.7,4.9-3.1,5.7s-4.9-0.7-5.7-3.1c-0.7-2.4,0.7-4.9,3.1-5.7
				C37.7,320.4,40.3,321.8,41,324.2z"/>
			<path class="st7" d="M75.8,366.5l-28.6,8.4c-2.1,0.6-4.3-0.6-5-2.7l1.8,6c0.6,2.1,2.8,3.3,5,2.7l28.6-8.4c2.1-0.6,3.3-2.8,2.7-5
				l-1.8-6C79.2,363.7,77.9,365.9,75.8,366.5z"/>
		</g>
		<g>
			<path class="st9" d="M148.9,332.4l0.6-3.1l-34.9-6.9l-0.6,3.1c-4.4,0.3-8.1,3.1-8.9,7l-7.5,38c-1,4.9,2.9,9.8,8.6,10.9l28.6,5.6
				c5.7,1.1,11.1-1.9,12.1-6.8l7.5-38C155.2,338.3,152.8,334.4,148.9,332.4z"/>
			
				<rect x="114.1" y="325.9" transform="matrix(0.9812 0.1932 -0.1932 0.9812 65.6323 -19.3156)" class="st10" width="35.5" height="2"/>
			<g>
				
					<rect x="112.6" y="316.4" transform="matrix(0.9805 0.1963 -0.1963 0.9805 65.6563 -19.8497)" class="st12" width="40.7" height="9.7"/>
				<g>
					
						<rect x="114.4" y="312.9" transform="matrix(0.9805 0.1963 -0.1963 0.9805 64.6016 -16.4346)" class="st14" width="1.7" height="9.7"/>
					
						<rect x="117.9" y="313.6" transform="matrix(0.9805 0.1963 -0.1963 0.9805 64.8302 -17.1203)" class="st14" width="1.7" height="9.7"/>
					
						<rect x="121.5" y="314.3" transform="matrix(0.9805 0.1963 -0.1963 0.9805 65.0218 -17.8001)" class="st14" width="1.7" height="9.7"/>
					
						<rect x="125" y="315" transform="matrix(0.9805 0.1963 -0.1963 0.9805 65.2432 -18.4849)" class="st14" width="1.7" height="9.7"/>
					
						<rect x="128.5" y="315.7" transform="matrix(0.9805 0.1963 -0.1963 0.9805 65.4523 -19.1677)" class="st14" width="1.7" height="9.7"/>
					
						<rect x="132.1" y="316.4" transform="matrix(0.9805 0.1963 -0.1963 0.9805 65.6642 -19.851)" class="st14" width="1.7" height="9.7"/>
					
						<rect x="135.6" y="317.1" transform="matrix(0.9805 0.1963 -0.1963 0.9805 65.8693 -20.533)" class="st14" width="1.7" height="9.7"/>
					
						<rect x="139.2" y="317.9" transform="matrix(0.9805 0.1963 -0.1963 0.9805 66.0605 -21.212)" class="st14" width="1.7" height="9.7"/>
					
						<rect x="142.7" y="318.6" transform="matrix(0.9805 0.1963 -0.1963 0.9805 66.2897 -21.8991)" class="st14" width="1.7" height="9.7"/>
					
						<rect x="146.3" y="319.3" transform="matrix(0.9805 0.1963 -0.1963 0.9805 66.4808 -22.5777)" class="st14" width="1.7" height="9.7"/>
					
						<rect x="149.8" y="320" transform="matrix(0.9805 0.1963 -0.1963 0.9805 66.7032 -23.2636)" class="st14" width="1.7" height="9.7"/>
				</g>
			</g>
			
				<rect x="101.2" y="344" transform="matrix(0.9812 0.1932 -0.1932 0.9812 70.9866 -17.7084)" class="st12" width="50.3" height="22.3"/>
			<path class="st10" d="M136.1,381l-28.6-5.6c-5.7-1.1-9.6-6-8.6-10.9l-1.2,6.2c-1,4.9,2.9,9.8,8.6,10.9l28.6,5.6
				c5.7,1.1,11.1-1.9,12.1-6.8l1.2-6.2C147.2,379.1,141.8,382.1,136.1,381z"/>
			
				<rect x="102.9" y="344.1" transform="matrix(0.9812 0.1932 -0.1932 0.9812 69.2864 -18.2185)" class="st6" width="50.3" height="4"/>
			<polygon class="st6" points="117,352.6 113.8,352 114.5,348.8 110.1,347.9 109.4,351.1 106.3,350.5 105.4,354.9 108.6,355.5 
				108,358.7 112.3,359.5 113,356.3 116.1,357 			"/>
			
				<rect x="129.1" y="354.7" transform="matrix(0.9812 0.1932 -0.1932 0.9812 71.3133 -19.9538)" class="st14" width="17.6" height="1.9"/>
			
				<rect x="128.2" y="359.4" transform="matrix(0.9812 0.1932 -0.1932 0.9812 72.2006 -19.6866)" class="st14" width="17.6" height="1.9"/>
		</g>
		<g>
			<path class="st6" d="M841.3,136l0.7-3.5l-39.4-7.8l-0.7,3.5c-5,0.3-9.2,3.5-10.1,8l-8.5,43c-1.1,5.5,3.3,11.1,9.7,12.3l32.4,6.4
				c6.5,1.3,12.6-2.2,13.7-7.7l8.5-43C848.5,142.7,845.8,138.3,841.3,136z"/>
			
				<rect x="802" y="128.6" transform="matrix(0.9812 0.1932 -0.1932 0.9812 40.5528 -156.3728)" class="st7" width="40.2" height="2.2"/>
			<g>
				
					<rect x="800.3" y="117.9" transform="matrix(0.9805 0.1963 -0.1963 0.9805 40.2484 -159.2246)" class="st12" width="46.1" height="10.9"/>
				<g>
					
						<rect x="802.3" y="113.9" transform="matrix(0.9805 0.1963 -0.1963 0.9805 39.0761 -155.3824)" class="st14" width="2" height="10.9"/>
					
						<rect x="806.3" y="114.7" transform="matrix(0.9805 0.1963 -0.1963 0.9805 39.3117 -156.1541)" class="st14" width="2" height="10.9"/>
					
						<rect x="810.3" y="115.5" transform="matrix(0.9805 0.1963 -0.1963 0.9805 39.532 -156.8831)" class="st14" width="2" height="10.9"/>
					
						<rect x="814.3" y="116.3" transform="matrix(0.9805 0.1963 -0.1963 0.9805 39.7805 -157.6904)" class="st14" width="2" height="10.9"/>
					
						<rect x="818.3" y="117.1" transform="matrix(0.9805 0.1963 -0.1963 0.9805 40.005 -158.4312)" class="st14" width="2" height="10.9"/>
					
						<rect x="822.3" y="117.9" transform="matrix(0.9805 0.1963 -0.1963 0.9805 40.2549 -159.2424)" class="st14" width="2" height="10.9"/>
					
						<rect x="826.4" y="118.8" transform="matrix(0.9805 0.1963 -0.1963 0.9805 40.4878 -160.0065)" class="st14" width="2" height="10.9"/>
					
						<rect x="830.4" y="119.6" transform="matrix(0.9805 0.1963 -0.1963 0.9805 40.7264 -160.7865)" class="st14" width="2" height="10.9"/>
					
						<rect x="834.4" y="120.4" transform="matrix(0.9805 0.1963 -0.1963 0.9805 40.9622 -161.5586)" class="st14" width="2" height="10.9"/>
					
						<rect x="838.4" y="121.2" transform="matrix(0.9806 0.1963 -0.1963 0.9806 41.1792 -162.2786)" class="st14" width="2" height="10.9"/>
					
						<rect x="842.4" y="122" transform="matrix(0.9805 0.1963 -0.1963 0.9805 41.4309 -163.0947)" class="st14" width="2" height="10.9"/>
				</g>
			</g>
			
				<rect x="787.3" y="149.1" transform="matrix(0.9812 0.1932 -0.1932 0.9812 46.6076 -154.5543)" class="st12" width="56.9" height="25.2"/>
			<path class="st7" d="M826.8,191l-32.4-6.4c-6.5-1.3-10.8-6.8-9.7-12.3l-1.4,7c-1.1,5.5,3.3,11.1,9.7,12.3l32.4,6.4
				c6.5,1.3,12.6-2.2,13.7-7.7l1.4-7C839.4,188.8,833.3,192.2,826.8,191z"/>
			
				<rect x="789.3" y="149.3" transform="matrix(0.9812 0.1932 -0.1932 0.9812 44.6861 -155.1326)" class="st10" width="56.9" height="4.5"/>
			<polygon class="st10" points="805.3,158.8 801.7,158.1 802.4,154.5 797.4,153.5 796.7,157.2 793.1,156.4 792.1,161.4 
				795.8,162.1 795,165.7 800,166.7 800.7,163.1 804.3,163.8 			"/>
			
				<rect x="819" y="161.2" transform="matrix(0.9812 0.1932 -0.1932 0.9812 46.9769 -157.0963)" class="st14" width="20" height="2.2"/>
			
				<rect x="818" y="166.5" transform="matrix(0.9812 0.1932 -0.1932 0.9812 47.9808 -156.7906)" class="st14" width="20" height="2.2"/>
		</g>
		<g>
			<g>
				<path class="st6" d="M651,101.4c-1.9,4.6-7.2,6.7-11.7,4.8c-4.6-1.9-6.7-7.2-4.8-11.7c1.9-4.6,7.2-6.7,11.7-4.8
					C650.7,91.6,652.9,96.8,651,101.4z"/>
				<path class="st7" d="M651.4,95.9c0,1.2-0.2,2.3-0.7,3.5c-1.9,4.6-7.2,6.7-11.7,4.8c-2.8-1.2-4.6-3.6-5.3-6.3
					c0,3.5,2.1,6.8,5.5,8.2c4.6,1.9,9.8-0.2,11.7-4.8C651.7,99.6,651.8,97.7,651.4,95.9z"/>
				<path class="st7" d="M634.3,94.8c-0.1,0.3-0.2,0.5-0.3,0.8l16.3,6.9c0.1-0.2,0.3-0.5,0.4-0.7c0-0.1,0.1-0.2,0.1-0.3l-16.5-6.9
					C634.4,94.6,634.4,94.7,634.3,94.8z"/>
				<path class="st8" d="M634.5,94.5c-0.1,0.2-0.1,0.4-0.2,0.5l16.5,6.9c0.1-0.2,0.2-0.3,0.2-0.5c0.1-0.2,0.1-0.4,0.2-0.5l-16.5-6.9
					C634.6,94.1,634.5,94.3,634.5,94.5z"/>
			</g>
		</g>
		<g>
			<g>
				<path class="st6" d="M692.6,107.4c-3.4,3.6-9,3.8-12.6,0.5c-3.6-3.4-3.8-9-0.5-12.6c3.4-3.6,9-3.8,12.6-0.5
					C695.8,98.1,696,103.8,692.6,107.4z"/>
				<path class="st7" d="M694.9,102.5c-0.4,1.1-1,2.1-1.8,3c-3.4,3.6-9,3.8-12.6,0.5c-2.2-2-3.1-4.9-2.8-7.7
					c-1.2,3.3-0.4,7.1,2.3,9.6c3.6,3.4,9.3,3.1,12.6-0.5C693.9,106,694.7,104.2,694.9,102.5z"/>
				<path class="st7" d="M679.3,95.5c-0.2,0.2-0.4,0.4-0.5,0.7l13,12.1c0.2-0.2,0.4-0.4,0.6-0.6c0.1-0.1,0.2-0.2,0.2-0.3l-13.1-12.1
					C679.4,95.3,679.4,95.4,679.3,95.5z"/>
				<path class="st8" d="M679.5,95.2c-0.1,0.1-0.3,0.3-0.4,0.4l13.1,12.1c0.1-0.1,0.3-0.3,0.4-0.4c0.1-0.1,0.3-0.3,0.4-0.4
					l-13.1-12.1C679.8,94.9,679.6,95.1,679.5,95.2z"/>
			</g>
		</g>
		<g>
			<g>
				<path class="st6" d="M676.6,130.9c1.1,4.8-1.8,9.6-6.6,10.8c-4.8,1.1-9.6-1.8-10.8-6.6c-1.1-4.8,1.8-9.6,6.6-10.8
					C670.6,123.1,675.4,126.1,676.6,130.9z"/>
				<path class="st7" d="M673.7,126.2c0.7,0.9,1.2,2,1.5,3.2c1.1,4.8-1.8,9.6-6.6,10.8c-2.9,0.7-5.8-0.1-7.9-2
					c2.1,2.8,5.7,4.3,9.3,3.4c4.8-1.1,7.8-6,6.6-10.8C676.1,129,675.1,127.4,673.7,126.2z"/>
				<path class="st7" d="M659.2,135.4c0.1,0.3,0.2,0.5,0.3,0.8l17.2-4.1c0-0.3-0.1-0.5-0.1-0.8c0-0.1-0.1-0.2-0.1-0.3l-17.4,4.1
					C659.2,135.2,659.2,135.3,659.2,135.4z"/>
				<path class="st8" d="M659.2,135.1c0,0.2,0.1,0.4,0.2,0.6l17.4-4.1c0-0.2-0.1-0.4-0.1-0.6c0-0.2-0.1-0.4-0.2-0.6l-17.4,4.1
					C659.1,134.7,659.1,134.9,659.2,135.1z"/>
			</g>
		</g>
		<path class="st1" d="M882.5,465.3l-66.9-190.9c-2-5.7-8.2-8.6-13.8-6.7l-19.2,6.7c-0.6,0-1.2,0.1-1.8,0.3l-0.9,0.3l-1.8-5.1
			l-88.9,31.2l1.8,5.1l-1.8,0.6c-0.6,0.2-1.1,0.5-1.6,0.8l-18.3,6.4c-5.7,2-8.6,8.2-6.7,13.8l66.9,190.9c2,5.7,8.2,8.6,13.8,6.7
			l132.4-46.4C881.5,477.1,884.5,470.9,882.5,465.3z"/>
		<g>
			<g>
				<path class="st16" d="M794.9,262.7l-132.4,46.4c-5.7,2-8.6,8.2-6.7,13.8l66.9,190.9c2,5.7,8.2,8.6,13.8,6.7L869,474.1
					c5.7-2,8.6-8.2,6.7-13.8l-66.9-190.9C806.8,263.7,800.6,260.7,794.9,262.7z"/>
				<g>
					
						<rect x="693.4" y="291.6" transform="matrix(0.9437 -0.3309 0.3309 0.9437 -86.4339 275.407)" class="st2" width="144.6" height="200"/>
					<polygon class="st3" points="664.4,321.2 730.6,509.9 800.9,273.3 					"/>
				</g>
				<path class="st17" d="M783.1,296l-91.5,32.1c-3,1.1-6.4-0.5-7.4-3.6l-5.3-15.3c-1.1-3,0.5-6.4,3.6-7.4l91.5-32.1
					c3-1.1,6.4,0.5,7.4,3.6l5.3,15.3C787.7,291.6,786.1,294.9,783.1,296z M683.4,304.6c-1.5,0.5-2.3,2.1-1.7,3.6l5.3,15.3
					c0.5,1.5,2.1,2.3,3.6,1.7l91.5-32.1c1.5-0.5,2.3-2.1,1.7-3.6l-5.3-15.3c-0.5-1.5-2.1-2.3-3.6-1.7L683.4,304.6z"/>
				
					<rect x="681.8" y="280.2" transform="matrix(0.9437 -0.3309 0.3309 0.9437 -53.7031 257.2782)" class="st9" width="94.2" height="12.4"/>
				
					<rect x="682.8" y="286.2" transform="matrix(0.9437 -0.3309 0.3309 0.9437 -54.6119 257.7816)" class="st10" width="94.2" height="6.2"/>
			</g>
			<g>
				<path class="st6" d="M754,450.5l-17.2-31.6l0.6,16.2l-12.8,4.5c-0.8,0.3-1.6-0.1-1.9-0.9c-0.3-0.8,0.1-1.6,0.9-1.9l10.8-3.8
					l-1-26.6l17.3,31.7l-0.9-25.6l7.6,9.6l1.3-23.9l19.9,30.2l-0.5-11.6l9.2-3.2c0.8-0.3,1.6,0.1,1.9,0.9s-0.1,1.6-0.9,1.9l-7.1,2.5
					l0.9,20.2l-20.9-31.7l-1.3,22.7l-6.9-8.7L754,450.5z"/>
				<path class="st1" d="M728.3,382.6l-20.1,7c-3.2,1.1-6.8-0.6-8-3.8l-9.8-28.1c-1.1-3.2,0.6-6.8,3.8-8l20.1-7
					c3.2-1.1,6.8,0.6,8,3.8l9.8,28.1C733.2,377.9,731.5,381.5,728.3,382.6z M694.8,351.5c-2.3,0.8-3.5,3.3-2.7,5.6l9.8,28.1
					c0.8,2.3,3.3,3.5,5.6,2.7l20.1-7c2.3-0.8,3.5-3.3,2.7-5.6l-9.8-28.1c-0.8-2.3-3.3-3.5-5.6-2.7L694.8,351.5z"/>
				<path class="st9" d="M716.3,380.7c9.5-3.3,10.5-9.9,10.5-9.9c-0.6-0.4-1.3-0.7-2.2-0.9c-3.1-0.8-5.3-0.8-6.4-1.1
					c-1.1-0.4-1.9-1.2-1.9-1.2l-0.4,0.5c0,0-0.7-1-1.1-2.7c0,0,0.7-0.5,0.4-3.2c0.9-0.1,1.2-2.7,0.4-3.4c-0.5-0.4-0.9-0.2-1.1,0
					c-0.1-1.2-1.1-7.9-7.8-5.5c-6.7,2.4-3.3,8.1-2.6,9.2c-0.3,0-0.7,0.1-0.8,0.7c-0.2,1,1.6,2.9,2.5,2.4c1.4,2.3,2.2,2.2,2.2,2.2
					c0.8,1.6,0.8,2.8,0.8,2.8l-0.6-0.1c0,0-0.1,1.2-0.7,2.1c-0.6,1-2.4,2.4-4.3,4.9c-0.6,0.7-0.9,1.4-1.2,2.1
					C701.9,379.6,706.8,384.1,716.3,380.7z"/>
				
					<rect x="731.1" y="336.4" transform="matrix(0.9437 -0.3309 0.3309 0.9437 -69.7044 266.9384)" class="st1" width="36.4" height="3.6"/>
				
					<rect x="801.2" y="387.7" transform="matrix(0.9437 -0.3309 0.3309 0.9437 -83.0551 290.9969)" class="st1" width="24.1" height="3.6"/>
				
					<rect x="804.7" y="397.6" transform="matrix(0.9437 -0.3309 0.3309 0.9437 -86.1397 292.7044)" class="st1" width="24.1" height="3.6"/>
				
					<rect x="808.1" y="407.5" transform="matrix(0.9437 -0.3309 0.3309 0.9437 -89.2243 294.4129)" class="st1" width="24.1" height="3.6"/>
				
					<rect x="734.1" y="345.1" transform="matrix(0.9437 -0.3309 0.3309 0.9437 -72.4003 268.5259)" class="st1" width="36.8" height="3.6"/>
				
					<rect x="736.8" y="349.5" transform="matrix(0.9437 -0.3309 0.3309 0.9437 -72.6282 275.8474)" class="st1" width="74.4" height="3.6"/>
				
					<rect x="732" y="455" transform="matrix(0.9437 -0.3309 0.3309 0.9437 -106.7094 286.6804)" class="st1" width="113.5" height="3.6"/>
				
					<rect x="705" y="378" transform="matrix(0.9437 -0.3309 0.3309 0.9437 -82.7735 273.4229)" class="st1" width="113.5" height="3.6"/>
				
					<rect x="735.6" y="465.4" transform="matrix(0.9437 -0.3309 0.3309 0.9437 -109.9483 288.4737)" class="st1" width="113.5" height="3.6"/>
				
					<rect x="740.4" y="359.8" transform="matrix(0.9437 -0.3309 0.3309 0.9437 -75.831 277.6217)" class="st1" width="74.4" height="3.6"/>
			</g>
		</g>
	</g>
</g>
</svg>
