<svg xmlns="http://www.w3.org/2000/svg" viewBox="0 0 300.81 104.38"><defs><style>.cls-1{opacity:0.5;}.cls-2{fill:#fff;}.cls-3{fill:#2ac5f4;}</style></defs><g id="Layer_2" data-name="Layer 2"><g id="Layer_1-2" data-name="Layer 1"><g class="cls-1"><path class="cls-2" d="M5.92,100.1a5.11,5.11,0,0,1-2-2.17,7.12,7.12,0,0,1-.72-3.29,7,7,0,0,1,.72-3.27,5,5,0,0,1,2.05-2.16A6.15,6.15,0,0,1,9,88.45a7,7,0,0,1,2.31.38,4.88,4.88,0,0,1,1.79,1.07l-.71,1.59a5.94,5.94,0,0,0-1.63-1,5.09,5.09,0,0,0-1.72-.29,3.37,3.37,0,0,0-2.71,1.13,4.94,4.94,0,0,0-1,3.27,5,5,0,0,0,.95,3.29,3.34,3.34,0,0,0,2.72,1.15,4.86,4.86,0,0,0,1.72-.3,5.94,5.94,0,0,0,1.63-1l.71,1.6a5,5,0,0,1-1.79,1.06,7,7,0,0,1-2.31.38A6.15,6.15,0,0,1,5.92,100.1Z"/><path class="cls-2" d="M15,100.71V88.2h2.1v12.51Z"/><path class="cls-2" d="M27.68,92.12v8.59H25.59V99.33a2.66,2.66,0,0,1-1.12,1.11,3.37,3.37,0,0,1-1.66.4,3.66,3.66,0,0,1-2-.54,3.6,3.6,0,0,1-1.35-1.55,6,6,0,0,1,0-4.68,3.81,3.81,0,0,1,1.35-1.6,3.53,3.53,0,0,1,2-.57,3.48,3.48,0,0,1,1.66.4,2.78,2.78,0,0,1,1.12,1.11V92.12ZM25,98.45a3.3,3.3,0,0,0,.57-2.06A3.33,3.33,0,0,0,25,94.3a2,2,0,0,0-1.65-.73,2,2,0,0,0-1.64.75,3.32,3.32,0,0,0-.59,2.1,3.06,3.06,0,0,0,.59,2,2.23,2.23,0,0,0,3.29,0Z"/><path class="cls-2" d="M29.86,88.23h2.36v2.09H29.86ZM30,100.71V92.12h2.1v8.59Z"/><path class="cls-2" d="M46.74,92.78a4.12,4.12,0,0,1,.71,2.66v5.27H45.33v-5.2A2.53,2.53,0,0,0,45,94a1.28,1.28,0,0,0-1.1-.46,1.66,1.66,0,0,0-1.38.63,2.59,2.59,0,0,0-.51,1.7v4.8H39.89v-5.2A2.48,2.48,0,0,0,39.54,94a1.31,1.31,0,0,0-1.1-.46,1.69,1.69,0,0,0-1.39.63,2.59,2.59,0,0,0-.51,1.7v4.8H34.43V94.55a19.8,19.8,0,0,0-.13-2.43h2l.16,1.36a2.67,2.67,0,0,1,1.08-1.17,3.2,3.2,0,0,1,1.62-.41,2.46,2.46,0,0,1,2.57,1.63,2.89,2.89,0,0,1,1.16-1.19,3.35,3.35,0,0,1,1.69-.44A2.63,2.63,0,0,1,46.74,92.78Z"/><path class="cls-2" d="M49.15,99.76l.6-1.5a5.15,5.15,0,0,0,3.14,1A2.31,2.31,0,0,0,54.08,99a.79.79,0,0,0,.41-.71.73.73,0,0,0-.29-.62,2.64,2.64,0,0,0-1-.4L51.79,97c-1.56-.34-2.35-1.14-2.35-2.4a2.24,2.24,0,0,1,.45-1.38,2.81,2.81,0,0,1,1.24-1A4.81,4.81,0,0,1,53,91.9a5.85,5.85,0,0,1,1.77.28,4.77,4.77,0,0,1,1.49.81l-.63,1.44a4.44,4.44,0,0,0-2.65-1,2.09,2.09,0,0,0-1.14.27.87.87,0,0,0-.4.75.78.78,0,0,0,.24.6,2.07,2.07,0,0,0,.84.37l1.47.32a3.81,3.81,0,0,1,1.86.9,2.14,2.14,0,0,1,.58,1.57,2.22,2.22,0,0,1-.95,1.89,4.34,4.34,0,0,1-2.6.69A5.87,5.87,0,0,1,49.15,99.76Z"/><path class="cls-2" d="M63,88.6H67.5a6.38,6.38,0,0,1,4.61,1.58,6.91,6.91,0,0,1,0,8.94,6.34,6.34,0,0,1-4.61,1.59H63Zm4.32,10.32q4.19,0,4.18-4.28t-4.18-4.25H65.24v8.53Z"/><path class="cls-2" d="M84.05,92.12v8.59H82V99.33a2.66,2.66,0,0,1-1.12,1.11,3.37,3.37,0,0,1-1.66.4,3.66,3.66,0,0,1-2-.54,3.6,3.6,0,0,1-1.35-1.55,6,6,0,0,1,0-4.68,3.81,3.81,0,0,1,1.35-1.6,3.53,3.53,0,0,1,2-.57,3.48,3.48,0,0,1,1.66.4A2.78,2.78,0,0,1,82,93.41V92.12Zm-2.66,6.33A3.3,3.3,0,0,0,82,96.39a3.33,3.33,0,0,0-.57-2.09,2,2,0,0,0-1.65-.73,2,2,0,0,0-1.64.75,3.32,3.32,0,0,0-.59,2.1,3.06,3.06,0,0,0,.59,2,2.23,2.23,0,0,0,3.29,0Z"/><path class="cls-2" d="M89.07,93.72v3.84c0,1,.47,1.52,1.41,1.52a3.07,3.07,0,0,0,.85-.14v1.68a3.89,3.89,0,0,1-1.36.21,2.94,2.94,0,0,1-2.24-.82,3.23,3.23,0,0,1-.79-2.35V93.72H85.3v-1.6h1.64V90l2.13-.71v2.8h2.28v1.6Z"/><path class="cls-2" d="M101,92.12v8.59H98.93V99.33a2.72,2.72,0,0,1-1.12,1.11,3.41,3.41,0,0,1-1.67.4,3.69,3.69,0,0,1-2-.54,3.58,3.58,0,0,1-1.34-1.55,5.89,5.89,0,0,1,0-4.68,3.74,3.74,0,0,1,1.35-1.6,3.69,3.69,0,0,1,3.64-.17,2.85,2.85,0,0,1,1.12,1.11V92.12Zm-2.67,6.33a3.24,3.24,0,0,0,.58-2.06,3.27,3.27,0,0,0-.58-2.09,2.2,2.2,0,0,0-3.29,0,3.38,3.38,0,0,0-.58,2.1,3.12,3.12,0,0,0,.58,2,2,2,0,0,0,1.66.72A2,2,0,0,0,98.35,98.45Z"/><path class="cls-2" d="M110.69,93.72v3.84c0,1,.47,1.52,1.41,1.52a3,3,0,0,0,.85-.14v1.68a3.85,3.85,0,0,1-1.36.21,2.94,2.94,0,0,1-2.24-.82,3.27,3.27,0,0,1-.78-2.35V93.72h-1.65v-1.6h1.65V90l2.12-.71v2.8H113v1.6Z"/><path class="cls-2" d="M116,100.3a3.71,3.71,0,0,1-1.53-1.56,5.05,5.05,0,0,1-.53-2.37,5.11,5.11,0,0,1,.53-2.37A3.75,3.75,0,0,1,116,92.45a4.67,4.67,0,0,1,2.31-.55,4.52,4.52,0,0,1,2.27.55A3.75,3.75,0,0,1,122.13,94a5.11,5.11,0,0,1,.53,2.37,5.05,5.05,0,0,1-.53,2.37,3.71,3.71,0,0,1-1.53,1.56,4.62,4.62,0,0,1-2.27.54A4.78,4.78,0,0,1,116,100.3Zm4-1.83a3.29,3.29,0,0,0,.57-2.1,3.34,3.34,0,0,0-.58-2.1,2.23,2.23,0,0,0-3.28,0,4.12,4.12,0,0,0,0,4.2,2,2,0,0,0,1.64.71A2,2,0,0,0,120,98.47Z"/><path class="cls-2" d="M129.31,88.6h5.25a4.48,4.48,0,0,1,3,1,3.22,3.22,0,0,1,1.09,2.57,3.26,3.26,0,0,1-1.09,2.59,4.54,4.54,0,0,1-3,1H131.5v5h-2.19Zm5,5.36a2.73,2.73,0,0,0,1.72-.47,1.63,1.63,0,0,0,.59-1.35,1.68,1.68,0,0,0-.58-1.37,2.72,2.72,0,0,0-1.73-.47H131.5V94Z"/><path class="cls-2" d="M148.36,92.12v8.59h-2.09V99.33a2.66,2.66,0,0,1-1.12,1.11,3.37,3.37,0,0,1-1.66.4,3.66,3.66,0,0,1-2-.54,3.6,3.6,0,0,1-1.35-1.55,6,6,0,0,1,0-4.68,3.81,3.81,0,0,1,1.35-1.6,3.53,3.53,0,0,1,2-.57,3.48,3.48,0,0,1,1.66.4,2.78,2.78,0,0,1,1.12,1.11V92.12Zm-2.66,6.33a3.3,3.3,0,0,0,.57-2.06,3.33,3.33,0,0,0-.57-2.09,2,2,0,0,0-1.65-.73,2,2,0,0,0-1.64.75,3.38,3.38,0,0,0-.59,2.1,3.12,3.12,0,0,0,.59,2,2.23,2.23,0,0,0,3.29,0Z"/><path class="cls-2" d="M156.15,92.06l0,1.93a3.06,3.06,0,0,0-1.12-.22,2.13,2.13,0,0,0-1.66.63,2.4,2.4,0,0,0-.57,1.67v4.64h-2.1V94.55a19.67,19.67,0,0,0-.14-2.43h2l.17,1.52a2.51,2.51,0,0,1,1-1.28,2.91,2.91,0,0,1,1.58-.44A2.2,2.2,0,0,1,156.15,92.06Z"/><path class="cls-2" d="M160.83,93.72v3.84c0,1,.47,1.52,1.41,1.52a3.07,3.07,0,0,0,.85-.14v1.68a3.93,3.93,0,0,1-1.36.21,3,3,0,0,1-2.25-.82,3.27,3.27,0,0,1-.78-2.35V93.72h-1.65v-1.6h1.65V90l2.13-.71v2.8h2.27v1.6Z"/><path class="cls-2" d="M169.38,88.6h4.45a6.42,6.42,0,0,1,4.62,1.58,6.91,6.91,0,0,1,0,8.94,6.38,6.38,0,0,1-4.62,1.59h-4.45Zm4.31,10.32q4.19,0,4.19-4.28t-4.19-4.25h-2.12v8.53Z"/><path class="cls-2" d="M188.48,100.49a6.05,6.05,0,0,1-2.07-1.07l.75-1.6a6.43,6.43,0,0,0,1.84,1,6.7,6.7,0,0,0,2.1.31,3.66,3.66,0,0,0,2-.44,1.4,1.4,0,0,0,.69-1.24,1.16,1.16,0,0,0-.64-1.05,8.46,8.46,0,0,0-2.1-.69,8.85,8.85,0,0,1-3.32-1.27,2.67,2.67,0,0,1-1-2.28,3.21,3.21,0,0,1,.58-1.9,3.73,3.73,0,0,1,1.64-1.31,5.85,5.85,0,0,1,2.45-.48,7.71,7.71,0,0,1,2.42.38,5,5,0,0,1,1.88,1.07l-.73,1.59a5.58,5.58,0,0,0-3.57-1.29,3.08,3.08,0,0,0-1.85.49,1.53,1.53,0,0,0-.68,1.31,1.21,1.21,0,0,0,.6,1.09,7.22,7.22,0,0,0,2.07.7,15.44,15.44,0,0,1,2.46.77,3.74,3.74,0,0,1,1.47,1.07,2.6,2.6,0,0,1,.5,1.64,3.21,3.21,0,0,1-.57,1.9,3.73,3.73,0,0,1-1.67,1.25,6.87,6.87,0,0,1-2.57.44A8.69,8.69,0,0,1,188.48,100.49Z"/><path class="cls-2" d="M204.64,92.47a3.79,3.79,0,0,1,1.34,1.6,5.89,5.89,0,0,1,0,4.68,3.56,3.56,0,0,1-1.33,1.55,3.63,3.63,0,0,1-2,.54,3.41,3.41,0,0,1-1.67-.4,2.66,2.66,0,0,1-1.12-1.11v5h-2.11V94.55a19.8,19.8,0,0,0-.13-2.43h2l.17,1.48a2.57,2.57,0,0,1,1.1-1.25,3.68,3.68,0,0,1,3.73.12Zm-.89,6a3.18,3.18,0,0,0,.58-2,3.45,3.45,0,0,0-.58-2.1,2,2,0,0,0-1.63-.75,2,2,0,0,0-1.67.73,3.33,3.33,0,0,0-.58,2.09,3.29,3.29,0,0,0,.58,2.07,2.25,2.25,0,0,0,3.3,0Z"/><path class="cls-2" d="M209.91,100.3a3.71,3.71,0,0,1-1.53-1.56,4.93,4.93,0,0,1-.53-2.37,5,5,0,0,1,.53-2.37,3.75,3.75,0,0,1,1.53-1.55,4.64,4.64,0,0,1,2.31-.55,4.52,4.52,0,0,1,2.27.55A3.75,3.75,0,0,1,216,94a5.11,5.11,0,0,1,.53,2.37,5.05,5.05,0,0,1-.53,2.37,3.71,3.71,0,0,1-1.53,1.56,4.62,4.62,0,0,1-2.27.54A4.75,4.75,0,0,1,209.91,100.3Zm4-1.83a3.29,3.29,0,0,0,.57-2.1,3.34,3.34,0,0,0-.58-2.1,2.23,2.23,0,0,0-3.28,0,4.12,4.12,0,0,0,0,4.2,2,2,0,0,0,1.64.71A2,2,0,0,0,213.86,98.47Z"/><path class="cls-2" d="M226.38,95.44v5.27h-2.13V95.54a2.31,2.31,0,0,0-.39-1.49,1.49,1.49,0,0,0-1.21-.47,2.06,2.06,0,0,0-1.56.63,2.25,2.25,0,0,0-.6,1.64v4.86h-2.1V94.55a19.67,19.67,0,0,0-.14-2.43h2l.15,1.41a3.14,3.14,0,0,1,1.2-1.2,3.34,3.34,0,0,1,1.71-.43Q226.38,91.9,226.38,95.44Z"/><path class="cls-2" d="M228.08,99.76l.59-1.5a5.16,5.16,0,0,0,3.15,1A2.27,2.27,0,0,0,233,99a.79.79,0,0,0,.41-.71.73.73,0,0,0-.29-.62,2.64,2.64,0,0,0-1-.4L230.71,97c-1.56-.34-2.35-1.14-2.35-2.4a2.24,2.24,0,0,1,.45-1.38,2.87,2.87,0,0,1,1.24-1,4.81,4.81,0,0,1,1.85-.34,5.85,5.85,0,0,1,1.77.28,4.66,4.66,0,0,1,1.49.81l-.62,1.44a4.49,4.49,0,0,0-2.66-1,2.09,2.09,0,0,0-1.14.27.87.87,0,0,0-.4.75.78.78,0,0,0,.24.6,2.06,2.06,0,0,0,.85.37l1.46.32a3.76,3.76,0,0,1,1.86.9,2.14,2.14,0,0,1,.58,1.57,2.22,2.22,0,0,1-1,1.89,4.34,4.34,0,0,1-2.6.69A5.82,5.82,0,0,1,228.08,99.76Z"/><path class="cls-2" d="M238.74,100.3a3.71,3.71,0,0,1-1.53-1.56,5.05,5.05,0,0,1-.53-2.37,5.11,5.11,0,0,1,.53-2.37,3.75,3.75,0,0,1,1.53-1.55,4.67,4.67,0,0,1,2.31-.55,4.52,4.52,0,0,1,2.27.55A3.75,3.75,0,0,1,244.85,94a5.11,5.11,0,0,1,.53,2.37,5.05,5.05,0,0,1-.53,2.37,3.71,3.71,0,0,1-1.53,1.56,4.62,4.62,0,0,1-2.27.54A4.78,4.78,0,0,1,238.74,100.3Zm3.95-1.83a3.29,3.29,0,0,0,.57-2.1,3.34,3.34,0,0,0-.58-2.1,2.23,2.23,0,0,0-3.28,0,4.12,4.12,0,0,0,0,4.2,2,2,0,0,0,1.64.71A2,2,0,0,0,242.69,98.47Z"/><path class="cls-2" d="M252.69,92.06V94a3.15,3.15,0,0,0-1.13-.22,2.1,2.1,0,0,0-1.65.63,2.4,2.4,0,0,0-.57,1.67v4.64h-2.11V94.55a19.67,19.67,0,0,0-.14-2.43h2l.17,1.52a2.62,2.62,0,0,1,1-1.28,2.94,2.94,0,0,1,1.58-.44A2.2,2.2,0,0,1,252.69,92.06Z"/><path class="cls-2" d="M253.24,99.76l.59-1.5a5.16,5.16,0,0,0,3.15,1,2.27,2.27,0,0,0,1.18-.26.78.78,0,0,0,.41-.71.73.73,0,0,0-.29-.62,2.64,2.64,0,0,0-1-.4L255.87,97c-1.56-.34-2.35-1.14-2.35-2.4a2.24,2.24,0,0,1,.45-1.38,2.87,2.87,0,0,1,1.24-1,4.81,4.81,0,0,1,1.85-.34,5.85,5.85,0,0,1,1.77.28,4.66,4.66,0,0,1,1.49.81l-.62,1.44a4.49,4.49,0,0,0-2.66-1,2.09,2.09,0,0,0-1.14.27.87.87,0,0,0-.4.75.78.78,0,0,0,.24.6,2.06,2.06,0,0,0,.85.37l1.46.32a3.76,3.76,0,0,1,1.86.9,2.14,2.14,0,0,1,.58,1.57,2.22,2.22,0,0,1-.95,1.89,4.34,4.34,0,0,1-2.6.69A5.82,5.82,0,0,1,253.24,99.76Z"/><path class="cls-2" d="M276.37,100.71l-1.2-2.84h-5.92L268,100.71h-2.21l5.47-12.11h1.78l5.5,12.11ZM270,96.17h4.46L272.21,91Z"/><path class="cls-2" d="M279.87,88.6h5.26a4.48,4.48,0,0,1,3,1,3.22,3.22,0,0,1,1.09,2.57,3.27,3.27,0,0,1-1.1,2.59,4.49,4.49,0,0,1-3,1h-3.06v5h-2.2Zm5,5.36a2.74,2.74,0,0,0,1.73-.47,1.63,1.63,0,0,0,.59-1.35,1.68,1.68,0,0,0-.58-1.37,2.76,2.76,0,0,0-1.74-.47h-2.8V94Z"/><path class="cls-2" d="M291.2,100.71V88.6h2.19v12.11Z"/></g><path class="cls-3" d="M43.94,0a4.14,4.14,0,0,1,3.13,1.13,6.62,6.62,0,0,1,1.48,2.25L70.88,67.91a4.74,4.74,0,0,1,.41,1.54A2.29,2.29,0,0,1,69,71.7H56.13a4,4,0,0,1-2.92-.87,3.7,3.7,0,0,1-1.07-1.69l-2.87-8.5H22l-2.87,8.5a3.7,3.7,0,0,1-1.07,1.69,4,4,0,0,1-2.92.87H2.25A2.13,2.13,0,0,1,.67,71,2.13,2.13,0,0,1,0,69.45a4.74,4.74,0,0,1,.41-1.54L22.74,3.38a6.62,6.62,0,0,1,1.48-2.25A4.14,4.14,0,0,1,27.35,0ZM27.35,44.76H43.94L35.65,20.18Z"/><path class="cls-3" d="M80.35,71.7a2.8,2.8,0,0,1-2.76-2.76V2.77A2.66,2.66,0,0,1,78.41.82,2.62,2.62,0,0,1,80.35,0h33a31,31,0,0,1,11.58,1.9,20.65,20.65,0,0,1,7.53,4.91,18.14,18.14,0,0,1,4,6.86,25,25,0,0,1,1.23,7.64,18.09,18.09,0,0,1-.66,5.17,18.39,18.39,0,0,1-1.59,3.79,12.6,12.6,0,0,1-1.9,2.56c-.65.65-1.17,1.14-1.58,1.48a15.42,15.42,0,0,1,5.58,6.41,21.75,21.75,0,0,1,1.59,8.75,27.76,27.76,0,0,1-1.23,8.2,18.81,18.81,0,0,1-4,7.12,20.39,20.39,0,0,1-7.32,5,28.68,28.68,0,0,1-11.06,1.89Zm38.31-50a5.76,5.76,0,0,0-1.59-4.26,6.35,6.35,0,0,0-4.66-1.58H96.54V27.55h15.87A6.31,6.31,0,0,0,117.07,26,5.75,5.75,0,0,0,118.66,21.72ZM96.54,55.82h16.9A6.71,6.71,0,0,0,118.35,54a6.29,6.29,0,0,0,0-8.91,6.75,6.75,0,0,0-4.91-1.79H96.54Z"/><path class="cls-3" d="M268.34,0a37.86,37.86,0,0,1,12.9,2.1A30.3,30.3,0,0,1,291.33,8,27,27,0,0,1,298,17.05a31.41,31.41,0,0,1,2.72,11.53c.06,1.43.1,2.75.1,3.94v6.81c0,1.17,0,2.43-.1,3.79A31.77,31.77,0,0,1,298,54.7a27.23,27.23,0,0,1-6.5,9,29.46,29.46,0,0,1-9.89,5.89,37,37,0,0,1-12.8,2.1H241.19a2.8,2.8,0,0,1-2.76-2.76V2.77a2.66,2.66,0,0,1,.82-1.95A2.62,2.62,0,0,1,241.19,0Zm13.42,28.17q-.61-11.78-13.93-11.78H257.38V55.31h11q12.9,0,13.42-11.78c.06-1.43.1-2.78.1-4V32.16C281.86,30.93,281.82,29.6,281.76,28.17Z"/><path class="cls-2" d="M184.89,71.7,152.64,41.61a39.87,39.87,0,0,1-4.44-4.55,23.64,23.64,0,0,1-3-4.59,19.75,19.75,0,0,1-1.67-5,31.7,31.7,0,0,1-.5-5.86,24,24,0,0,1,1.46-8.38,19.76,19.76,0,0,1,4.29-6.87,20.19,20.19,0,0,1,7.07-4.64A25.9,25.9,0,0,1,165.67,0a23.76,23.76,0,0,1,10.05,2,24.45,24.45,0,0,1,7.42,5.15,22.42,22.42,0,0,1,4.64,7,20.89,20.89,0,0,1,1.72,7.57,2.17,2.17,0,0,1-.65,1.57,2.13,2.13,0,0,1-1.57.65h-4.65a2.49,2.49,0,0,1-1.56-.6A3.19,3.19,0,0,1,180,21.61a33.23,33.23,0,0,0-1.57-4.7,13.4,13.4,0,0,0-2.62-4,11.57,11.57,0,0,0-4.14-2.78,16,16,0,0,0-6-1q-6.76,0-9.9,3.58a13.14,13.14,0,0,0-3.13,8.94A15.56,15.56,0,0,0,154.16,29a20.86,20.86,0,0,0,4.54,5.56l29.59,27A10.08,10.08,0,0,1,190,63.42a3.61,3.61,0,0,1,.5,1.92V69a2.77,2.77,0,0,1-2.73,2.73Z"/><path class="cls-3" d="M211,34.54A20.91,20.91,0,0,0,215.57,29a15.56,15.56,0,0,0,1.51-7.37A13.09,13.09,0,0,0,214,12.67q-3.13-3.59-9.9-3.58a16,16,0,0,0-6,1,11.57,11.57,0,0,0-4.14,2.78,13.4,13.4,0,0,0-2.62,4,33.23,33.23,0,0,0-1.57,4.7,3.19,3.19,0,0,1-1.06,1.72,2.49,2.49,0,0,1-1.56.6h-4.65a2.11,2.11,0,0,1-1.56-.65,2.14,2.14,0,0,1-.66-1.57,20.89,20.89,0,0,1,1.72-7.57,22.42,22.42,0,0,1,4.64-7A24.45,24.45,0,0,1,194,2a23.76,23.76,0,0,1,10.05-2,25.9,25.9,0,0,1,9.8,1.72,20.19,20.19,0,0,1,7.07,4.64,19.76,19.76,0,0,1,4.29,6.87,23.74,23.74,0,0,1,1.46,8.38,30.86,30.86,0,0,1-.5,5.86,19.75,19.75,0,0,1-1.67,5,23.18,23.18,0,0,1-3,4.59,39.87,39.87,0,0,1-4.44,4.55l-22.52,21h30.9a2.77,2.77,0,0,1,2.73,2.73V69a2.77,2.77,0,0,1-2.73,2.73H181.94A2.77,2.77,0,0,1,179.21,69V65.34a3.53,3.53,0,0,1,.51-1.92,9.64,9.64,0,0,1,1.71-1.92Z"/></g></g></svg>