<?xml version="1.0" encoding="UTF-8"?>
<svg width="265px" height="40px" viewBox="0 0 265 40" version="1.1" xmlns="http://www.w3.org/2000/svg" xmlns:xlink="http://www.w3.org/1999/xlink">
    <!-- Generator: Sketch 64 (93537) - https://sketch.com -->
    <title>Group 5</title>
    <desc>Created with Sketch.</desc>
    <defs>
        <polygon id="path-1" points="0 0.375178082 39.606 0.375178082 39.606 39.6633973 0 39.6633973"></polygon>
    </defs>
    <g id="Page-1" stroke="none" stroke-width="1" fill="none" fill-rule="evenodd">
        <g id="AB2D-homepage-v1---middle" transform="translate(-171.000000, -15.000000)">
            <g id="Group-5" transform="translate(171.000000, 15.000000)">
                <rect id="Rectangle" fill-opacity="0.5" fill="#FFFFFF" x="179" y="0" width="1" height="40"></rect>
                <path d="M194.475976,11.2833973 C193.877375,10.9436712 193.418189,10.4620274 193.097865,9.8390137 C192.777542,9.21545205 192.617103,8.4850411 192.617103,7.64613699 C192.617103,6.81545205 192.777542,6.08832877 193.097865,5.46476712 C193.418189,4.84175342 193.877375,4.36230137 194.475976,4.02586301 C195.07513,3.6899726 195.774974,3.52175342 196.575506,3.52175342 C197.12487,3.52175342 197.641592,3.60668493 198.125673,3.77654795 C198.610308,3.94641096 199.011957,4.18312329 199.332281,4.4850411 L198.852072,5.55024658 C198.48583,5.25545205 198.121801,5.04230137 197.759984,4.90969863 C197.397062,4.77764384 197.01035,4.71134247 196.598189,4.71134247 C195.812594,4.71134247 195.204034,4.96449315 194.773617,5.47079452 C194.342646,5.97654795 194.127437,6.7020274 194.127437,7.64613699 C194.127437,8.59791781 194.340986,9.32887671 194.767531,9.8390137 C195.195183,10.3486027 195.804849,10.6033973 196.598189,10.6033973 C197.01035,10.6033973 197.397062,10.5376438 197.759984,10.4050411 C198.121801,10.2735342 198.48583,10.0598356 198.852072,9.7650411 L199.332281,10.8302466 C199.011957,11.1327123 198.610308,11.3683288 198.125673,11.5381918 C197.641592,11.7086027 197.12487,11.7935342 196.575506,11.7935342 C195.774974,11.7935342 195.07513,11.6236712 194.475976,11.2833973" id="Fill-4" fill="#FEFEFE"></path>
                <polygon id="Fill-6" fill="#FEFEFE" points="200.613852 11.6915068 202.032349 11.6915068 202.032349 3.35178082 200.613852 3.35178082"></polygon>
                <path d="M207.329029,10.184274 C207.588497,9.85989041 207.717954,9.40235616 207.717954,8.81331507 C207.717954,8.20893151 207.588497,7.74427397 207.329029,7.41989041 C207.069562,7.0949589 206.699447,6.93221918 206.219238,6.93221918 C205.746775,6.93221918 205.378873,7.10043836 205.115532,7.43632877 C204.852192,7.77276712 204.720522,8.23961644 204.720522,8.83632877 C204.720522,9.42536986 204.852192,9.87852055 205.115532,10.1957808 C205.378873,10.5130411 205.750094,10.6713973 206.230856,10.6713973 C206.703319,10.6713973 207.069562,10.5092055 207.329029,10.184274 L207.329029,10.184274 Z M209.125386,5.96947945 L209.125386,11.6911233 L207.717954,11.6911233 L207.717954,10.773863 C207.542578,11.0905753 207.290856,11.3382466 206.962787,11.5157808 C206.634718,11.6933151 206.260731,11.7820822 205.841931,11.7820822 C205.338486,11.7820822 204.892578,11.6615342 204.503653,11.4193425 C204.114175,11.1776986 203.813215,10.834137 203.599666,10.3886575 C203.386117,9.94263014 203.279342,9.42536986 203.279342,8.83632877 C203.279342,8.24673973 203.387777,7.724 203.605752,7.26646575 C203.82262,6.80947945 204.125793,6.45441096 204.514718,6.20126027 C204.903643,5.94865753 205.345678,5.82208219 205.841931,5.82208219 C206.260731,5.82208219 206.634718,5.91084932 206.962787,6.08838356 C207.290856,6.26591781 207.542578,6.5130411 207.717954,6.83030137 L207.717954,5.96947945 L209.125386,5.96947945 Z" id="Fill-8" fill="#FEFEFE"></path>
                <path d="M210.681639,11.6915068 L212.100136,11.6915068 L212.100136,5.96931507 L210.681639,5.96931507 L210.681639,11.6915068 Z M210.589802,4.76821918 L212.179802,4.76821918 L212.179802,3.37479452 L210.589802,3.37479452 L210.589802,4.76821918 Z" id="Fill-9" fill="#FEFEFE"></path>
                <path d="M221.949782,6.40536986 C222.270105,6.79441096 222.429991,7.38564384 222.429991,8.17852055 L222.429991,11.6913973 L220.999876,11.6913973 L220.999876,8.224 C220.999876,7.77084932 220.925742,7.44427397 220.776922,7.24372603 C220.628101,7.04427397 220.382465,6.94345205 220.039458,6.94345205 C219.642235,6.94345205 219.33187,7.08153425 219.106703,7.35715068 C218.881535,7.63331507 218.769229,8.0130411 218.769229,8.49578082 L218.769229,11.6913973 L217.339114,11.6913973 L217.339114,8.224 C217.339114,7.77852055 217.260554,7.45358904 217.104542,7.24975342 C216.948529,7.04536986 216.702339,6.94345205 216.366525,6.94345205 C215.969855,6.94345205 215.657277,7.08153425 215.42879,7.35715068 C215.199751,7.63331507 215.085784,8.0130411 215.085784,8.49578082 L215.085784,11.6913973 L213.666734,11.6913973 L213.666734,7.58947945 C213.666734,6.98564384 213.636306,6.44536986 213.57545,5.96920548 L214.913728,5.96920548 L215.017183,6.87550685 C215.18426,6.53578082 215.426577,6.2749589 215.743028,6.09413699 C216.060032,5.91276712 216.424062,5.82180822 216.835669,5.82180822 C217.720293,5.82180822 218.296212,6.18454795 218.563425,6.90947945 C218.746546,6.56975342 219.007673,6.30345205 219.346807,6.11057534 C219.685941,5.91824658 220.066014,5.82180822 220.485366,5.82180822 C221.140951,5.82180822 221.629458,6.01687671 221.949782,6.40536986" id="Fill-10" fill="#FEFEFE"></path>
                <path d="M223.573806,11.0567671 L223.974349,10.0600548 C224.592313,10.5132055 225.297136,10.7395068 226.091029,10.7395068 C226.434035,10.7395068 226.698482,10.6830685 226.885476,10.5696438 C227.07247,10.4562192 227.165967,10.297863 227.165967,10.0940274 C227.165967,9.91978082 227.101238,9.78224658 226.971781,9.68032877 C226.84177,9.57841096 226.621029,9.48964384 226.307898,9.4140274 L225.346927,9.19868493 C224.294672,8.97183562 223.768545,8.43923288 223.768545,7.60087671 C223.768545,7.25347945 223.867021,6.94553425 224.066186,6.67758904 C224.264244,6.40964384 224.542522,6.19978082 224.900466,6.04854795 C225.259516,5.89731507 225.674996,5.82169863 226.148013,5.82169863 C226.55962,5.82169863 226.95629,5.88416438 227.338023,6.00909589 C227.719203,6.13347945 228.055017,6.31320548 228.344359,6.54717808 L227.921134,7.51046575 C227.341896,7.08745205 226.746614,6.87594521 226.136395,6.87594521 C225.808326,6.87594521 225.552731,6.93621918 225.370163,7.05731507 C225.187042,7.17786301 225.095205,7.34443836 225.095205,7.55539726 C225.095205,7.7219726 225.151081,7.8540274 225.261175,7.95210959 C225.371823,8.05073973 225.560476,8.13347945 225.827689,8.20142466 L226.811896,8.41676712 C227.383942,8.54553425 227.801081,8.74334247 228.063868,9.01183562 C228.327209,9.27978082 228.458879,9.62936986 228.458879,10.0600548 C228.458879,10.5888219 228.24533,11.008 227.818232,11.317589 C227.39058,11.6271781 226.80747,11.7822466 226.067793,11.7822466 C225.022731,11.7822466 224.19177,11.5406027 223.573806,11.0567671" id="Fill-11" fill="#FEFEFE"></path>
                <path d="M235.826598,10.501589 C237.703174,10.501589 238.640909,9.54980822 238.640909,7.64624658 C238.640909,5.7580274 237.703174,4.81336986 235.826598,4.81336986 L234.396483,4.81336986 L234.396483,10.501589 L235.826598,10.501589 Z M232.92045,3.62378082 L235.917882,3.62378082 C237.25284,3.62378082 238.287945,3.9750137 239.024302,4.67747945 C239.760105,5.37994521 240.128007,6.36953425 240.128007,7.64624658 C240.128007,8.93063014 239.760105,9.92569863 239.024302,10.632 C238.287945,11.3383014 237.25284,11.6911781 235.917882,11.6911781 L232.92045,11.6911781 L232.92045,3.62378082 Z" id="Fill-12" fill="#FEFEFE"></path>
                <path d="M245.264581,10.184274 C245.524049,9.85989041 245.653506,9.40235616 245.653506,8.81331507 C245.653506,8.20893151 245.524049,7.74427397 245.264581,7.41989041 C245.005114,7.0949589 244.634999,6.93221918 244.15479,6.93221918 C243.682327,6.93221918 243.314425,7.10043836 243.051085,7.43632877 C242.787744,7.77276712 242.656074,8.23961644 242.656074,8.83632877 C242.656074,9.42536986 242.787744,9.87852055 243.051085,10.1957808 C243.314425,10.5130411 243.685646,10.6713973 244.166408,10.6713973 C244.638872,10.6713973 245.005114,10.5092055 245.264581,10.184274 L245.264581,10.184274 Z M247.060938,5.96947945 L247.060938,11.6911233 L245.653506,11.6911233 L245.653506,10.773863 C245.47813,11.0905753 245.226408,11.3382466 244.898339,11.5157808 C244.57027,11.6933151 244.196283,11.7820822 243.777483,11.7820822 C243.274039,11.7820822 242.82813,11.6615342 242.439206,11.4193425 C242.049728,11.1776986 241.748767,10.834137 241.535218,10.3886575 C241.321669,9.94263014 241.214895,9.42536986 241.214895,8.83632877 C241.214895,8.24673973 241.323329,7.724 241.541304,7.26646575 C241.758172,6.80947945 242.061346,6.45441096 242.45027,6.20126027 C242.839195,5.94865753 243.281231,5.82208219 243.777483,5.82208219 C244.196283,5.82208219 244.57027,5.91084932 244.898339,6.08838356 C245.226408,6.26591781 245.47813,6.5130411 245.653506,6.83030137 L245.653506,5.96947945 L247.060938,5.96947945 Z" id="Fill-13" fill="#FEFEFE"></path>
                <path d="M250.435511,7.03441096 L250.435511,9.5949589 C250.435511,10.2672877 250.751409,10.603726 251.384864,10.603726 C251.56024,10.603726 251.751106,10.573589 251.95691,10.5133151 L251.95691,11.6349589 C251.705188,11.7253699 251.399802,11.7708493 251.041858,11.7708493 C250.38572,11.7708493 249.882276,11.5894795 249.531524,11.2267397 C249.180219,10.864 249.005397,10.3429041 249.005397,9.66290411 L249.005397,7.03441096 L247.895605,7.03441096 L247.895605,5.96920548 L249.005397,5.96920548 L249.005397,4.57578082 L250.435511,4.09961644 L250.435511,5.96920548 L251.968528,5.96920548 L251.968528,7.03441096 L250.435511,7.03441096 Z" id="Fill-14" fill="#FEFEFE"></path>
                <path d="M256.682098,10.184274 C256.941566,9.85989041 257.071023,9.40235616 257.071023,8.81331507 C257.071023,8.20893151 256.941566,7.74427397 256.682098,7.41989041 C256.42263,7.0949589 256.052516,6.93221918 255.572307,6.93221918 C255.099843,6.93221918 254.731942,7.10043836 254.468601,7.43632877 C254.205261,7.77276712 254.073591,8.23961644 254.073591,8.83632877 C254.073591,9.42536986 254.205261,9.87852055 254.468601,10.1957808 C254.731942,10.5130411 255.103163,10.6713973 255.583925,10.6713973 C256.056388,10.6713973 256.42263,10.5092055 256.682098,10.184274 L256.682098,10.184274 Z M258.478455,5.96947945 L258.478455,11.6911233 L257.071023,11.6911233 L257.071023,10.773863 C256.895647,11.0905753 256.643925,11.3382466 256.315856,11.5157808 C255.987787,11.6933151 255.6138,11.7820822 255.195,11.7820822 C254.691555,11.7820822 254.245647,11.6615342 253.856722,11.4193425 C253.467244,11.1776986 253.166284,10.834137 252.952735,10.3886575 C252.739186,9.94263014 252.632411,9.42536986 252.632411,8.83632877 C252.632411,8.24673973 252.740846,7.724 252.95882,7.26646575 C253.175689,6.80947945 253.478862,6.45441096 253.867787,6.20126027 C254.256712,5.94865753 254.698747,5.82208219 255.195,5.82208219 C255.6138,5.82208219 255.987787,5.91084932 256.315856,6.08838356 C256.643925,6.26591781 256.895647,6.5130411 257.071023,6.83030137 L257.071023,5.96947945 L258.478455,5.96947945 Z" id="Fill-15" fill="#FEFEFE"></path>
                <path d="M194.596471,19.2751781 L194.596471,21.835726 C194.596471,22.5080548 194.912368,22.8444932 195.545824,22.8444932 C195.721199,22.8444932 195.912066,22.8143562 196.11787,22.7540822 L196.11787,23.875726 C195.866147,23.966137 195.560761,24.0116164 195.202817,24.0116164 C194.54668,24.0116164 194.043235,23.8302466 193.692483,23.4675068 C193.341178,23.1047671 193.166356,22.5836712 193.166356,21.9036712 L193.166356,19.2751781 L192.056565,19.2751781 L192.056565,18.2099726 L193.166356,18.2099726 L193.166356,16.8165479 L194.596471,16.3403836 L194.596471,18.2099726 L196.129487,18.2099726 L196.129487,19.2751781 L194.596471,19.2751781 Z" id="Fill-16" fill="#FEFEFE"></path>
                <path d="M200.836585,22.442137 C201.09218,22.1287123 201.219977,21.662411 201.219977,21.0426849 C201.219977,20.4311781 201.09052,19.9648767 200.831052,19.6432329 C200.571585,19.3226849 200.205342,19.161589 199.732879,19.161589 C199.25267,19.161589 198.882555,19.3226849 198.623088,19.6432329 C198.36362,19.9648767 198.234163,20.4311781 198.234163,21.0426849 C198.234163,21.662411 198.361407,22.1287123 198.617002,22.442137 C198.872597,22.7555616 199.241052,22.912274 199.721261,22.912274 C200.209215,22.912274 200.58099,22.7555616 200.836585,22.442137 M198.182712,23.6602192 C197.736251,23.4185753 197.393244,23.0728219 197.15314,22.6235068 C196.912482,22.1741918 196.79243,21.6470685 196.79243,21.0426849 C196.79243,20.4383014 196.912482,19.911726 197.15314,19.462411 C197.393244,19.0125479 197.736251,18.6673425 198.182712,18.4251507 C198.629173,18.1835068 199.145342,18.062411 199.732879,18.062411 C200.31267,18.062411 200.82386,18.1835068 201.265896,18.4251507 C201.707931,18.6673425 202.049278,19.0125479 202.289935,19.462411 C202.53004,19.911726 202.650092,20.4383014 202.650092,21.0426849 C202.650092,21.6470685 202.53004,22.1741918 202.289935,22.6235068 C202.049278,23.0728219 201.707931,23.4185753 201.265896,23.6602192 C200.82386,23.902411 200.31267,24.0229589 199.732879,24.0229589 C199.145342,24.0229589 198.629173,23.902411 198.182712,23.6602192" id="Fill-17" fill="#FEFEFE"></path>
                <path d="M210.4869,19.4338082 C210.99809,19.4338082 211.384802,19.3302466 211.648142,19.1220274 C211.910929,18.9143562 212.043152,18.6140822 212.043152,18.2212055 C212.043152,17.8212055 211.913142,17.5170959 211.653674,17.3094247 C211.39476,17.1017534 211.005282,16.9976438 210.4869,16.9976438 L208.599259,16.9976438 L208.599259,19.4338082 L210.4869,19.4338082 Z M207.123225,15.8644932 L210.658956,15.8644932 C211.535835,15.8644932 212.217975,16.0743562 212.706482,16.4935342 C213.194436,16.9127123 213.438413,17.4847671 213.438413,18.2102466 C213.438413,18.9351781 213.192777,19.5094247 212.700397,19.9324384 C212.20857,20.3554521 211.52809,20.5669589 210.658956,20.5669589 L208.599259,20.5669589 L208.599259,23.9318904 L207.123225,23.9318904 L207.123225,15.8644932 Z" id="Fill-18" fill="#FEFEFE"></path>
                <path d="M218.151707,22.4250411 C218.411174,22.1006575 218.540632,21.6431233 218.540632,21.0540822 C218.540632,20.4496986 218.411174,19.9850411 218.151707,19.6606575 C217.892239,19.335726 217.522124,19.1729863 217.041915,19.1729863 C216.569452,19.1729863 216.20155,19.3412055 215.93821,19.6770959 C215.67487,20.0135342 215.543199,20.4803836 215.543199,21.0770959 C215.543199,21.666137 215.67487,22.1192877 215.93821,22.4365479 C216.20155,22.7538082 216.572771,22.9121644 217.053533,22.9121644 C217.525997,22.9121644 217.892239,22.7499726 218.151707,22.4250411 L218.151707,22.4250411 Z M219.948064,18.2102466 L219.948064,23.9318904 L218.540632,23.9318904 L218.540632,23.0146301 C218.365256,23.3313425 218.113533,23.5790137 217.785465,23.7565479 C217.457396,23.9340822 217.083408,24.0228493 216.664609,24.0228493 C216.161164,24.0228493 215.715256,23.9023014 215.326331,23.6601096 C214.936853,23.4184658 214.635892,23.0749041 214.422343,22.6294247 C214.208794,22.1833973 214.10202,21.666137 214.10202,21.0770959 C214.10202,20.4875068 214.210454,19.9647671 214.428429,19.5072329 C214.645297,19.0502466 214.948471,18.6951781 215.337396,18.4420274 C215.72632,18.1894247 216.168356,18.0628493 216.664609,18.0628493 C217.083408,18.0628493 217.457396,18.1516164 217.785465,18.3291507 C218.113533,18.5066849 218.365256,18.7538082 218.540632,19.0710685 L218.540632,18.2102466 L219.948064,18.2102466 Z" id="Fill-19" fill="#FEFEFE"></path>
                <path d="M225.187097,18.1648219 L225.175479,19.4563288 C224.931502,19.3582466 224.67978,19.3089315 224.420865,19.3089315 C223.932358,19.3089315 223.561137,19.4492055 223.305542,19.7286575 C223.049947,20.0081096 222.922149,20.3779726 222.922149,20.8387945 L222.922149,23.9319452 L221.503652,23.9319452 L221.503652,19.8305753 C221.503652,19.2261918 221.472671,18.6859178 221.412368,18.2103014 L222.750646,18.2103014 L222.865166,19.2185205 C223.009561,18.8486575 223.2386,18.5648219 223.551178,18.3686575 C223.863757,18.1724932 224.218381,18.073863 224.615604,18.073863 C224.836346,18.073863 225.027212,18.1045479 225.187097,18.1648219" id="Fill-20" fill="#FEFEFE"></path>
                <path d="M228.333626,19.2751781 L228.333626,21.835726 C228.333626,22.5080548 228.649524,22.8444932 229.282979,22.8444932 C229.458355,22.8444932 229.649221,22.8143562 229.855025,22.7540822 L229.855025,23.875726 C229.603303,23.966137 229.297916,24.0116164 228.939973,24.0116164 C228.283835,24.0116164 227.78039,23.8302466 227.429639,23.4675068 C227.078334,23.1047671 226.903511,22.5836712 226.903511,21.9036712 L226.903511,19.2751781 L225.79372,19.2751781 L225.79372,18.2099726 L226.903511,18.2099726 L226.903511,16.8165479 L228.333626,16.3403836 L228.333626,18.2099726 L229.866643,18.2099726 L229.866643,19.2751781 L228.333626,19.2751781 Z" id="Fill-21" fill="#FEFEFE"></path>
                <path d="M236.993594,22.7423562 C238.87017,22.7423562 239.807905,21.7905753 239.807905,19.8870137 C239.807905,17.9987945 238.87017,17.054137 236.993594,17.054137 L235.563479,17.054137 L235.563479,22.7423562 L236.993594,22.7423562 Z M234.087446,15.8645479 L237.084878,15.8645479 C238.419836,15.8645479 239.454941,16.2157808 240.191297,16.9182466 C240.927101,17.6207123 241.295003,18.6103014 241.295003,19.8870137 C241.295003,21.1713973 240.927101,22.1664658 240.191297,22.8727671 C239.454941,23.5790685 238.419836,23.9319452 237.084878,23.9319452 L234.087446,23.9319452 L234.087446,15.8645479 Z" id="Fill-22" fill="#FEFEFE"></path>
                <path d="M193.881137,36.0252055 C193.336199,35.8591781 192.872588,35.6213699 192.491408,35.3112329 L192.9943,34.2460274 C193.39097,34.5413699 193.80479,34.7578082 194.236314,34.8980822 C194.666732,35.0378082 195.137535,35.1073973 195.648725,35.1073973 C196.213026,35.1073973 196.650082,35.0093151 196.958235,34.8131507 C197.267494,34.6164384 197.421847,34.3408219 197.421847,33.9857534 C197.421847,33.6838356 197.279112,33.4515068 196.993089,33.2887671 C196.707066,33.1265753 196.236262,32.9736986 195.580124,32.830137 C194.558297,32.6109589 193.814748,32.3276712 193.349477,31.980274 C192.883652,31.6328767 192.651293,31.1265753 192.651293,30.4619178 C192.651293,29.9863014 192.781304,29.5632877 193.040218,29.1928767 C193.299686,28.8224658 193.667588,28.5320548 194.144477,28.32 C194.620813,28.1090411 195.171836,28.0027397 195.797546,28.0027397 C196.369592,28.0027397 196.91287,28.0882192 197.427932,28.2580822 C197.942995,28.4279452 198.364007,28.6641096 198.692076,28.9660274 L198.200249,30.0312329 C197.47551,29.4575342 196.674425,29.169863 195.797546,29.169863 C195.271419,29.169863 194.855938,29.2778082 194.550552,29.4931507 C194.245166,29.7084932 194.093026,30.0010959 194.093026,30.3715068 C194.093026,30.6882192 194.228569,30.930411 194.499101,31.0964384 C194.769634,31.2624658 195.232692,31.4175342 195.889383,31.5610959 C196.56765,31.7194521 197.120333,31.8915068 197.547984,32.0761644 C197.974529,32.2613699 198.303151,32.499726 198.531638,32.790137 C198.760677,33.0810959 198.874644,33.4454795 198.874644,33.8838356 C198.874644,34.3671233 198.745187,34.7884932 198.485719,35.1468493 C198.226252,35.5063014 197.852817,35.7835616 197.364863,35.979726 C196.876909,36.1764384 196.300991,36.2745205 195.637661,36.2745205 C195.011951,36.2745205 194.426074,36.1912329 193.881137,36.0252055" id="Fill-23" fill="#FEFEFE"></path>
                <path d="M204.160315,34.6770411 C204.419783,34.3597808 204.54924,33.9066301 204.54924,33.317589 C204.54924,32.7208767 204.419783,32.2540274 204.160315,31.917589 C203.900848,31.5816986 203.535159,31.4134795 203.062695,31.4134795 C202.574188,31.4134795 202.2002,31.5762192 201.940733,31.9011507 C201.681818,32.2255342 201.551808,32.6901918 201.551808,33.2945753 C201.551808,33.8912877 201.681818,34.3504658 201.940733,34.6715616 C202.2002,34.9926575 202.570315,35.1526575 203.050524,35.1526575 C203.531286,35.1526575 203.900848,34.9943014 204.160315,34.6770411 M204.761129,30.6825205 C205.146182,30.9356712 205.447695,31.2907397 205.665117,31.747726 C205.881985,32.2052603 205.990973,32.728 205.990973,33.317589 C205.990973,33.9066301 205.884198,34.4238904 205.670649,34.8699178 C205.4571,35.3153973 205.1578,35.6589589 204.772194,35.9006027 C204.387142,36.1427945 203.942894,36.2633425 203.439449,36.2633425 C203.020096,36.2633425 202.646662,36.1745753 202.318593,35.9970411 C201.990524,35.8195068 201.738802,35.5718356 201.563979,35.2551233 L201.563979,38.6200548 L200.144929,38.6200548 L200.144929,32.0710137 C200.144929,31.4666301 200.114501,30.9263562 200.053645,30.4507397 L201.391923,30.4507397 L201.506443,31.4359452 C201.659136,31.0814247 201.906985,30.8036164 202.249992,30.6036164 C202.592998,30.4036164 202.989668,30.3033425 203.439449,30.3033425 C203.935701,30.3033425 204.376077,30.4299178 204.761129,30.6825205" id="Fill-24" fill="#FEFEFE"></path>
                <path d="M210.961244,34.6826301 C211.216839,34.3692055 211.344637,33.9029041 211.344637,33.2831781 C211.344637,32.6716712 211.21518,32.2053699 210.955712,31.883726 C210.696244,31.5631781 210.330002,31.4020822 209.857539,31.4020822 C209.37733,31.4020822 209.007215,31.5631781 208.747747,31.883726 C208.48828,32.2053699 208.358823,32.6716712 208.358823,33.2831781 C208.358823,33.9029041 208.486067,34.3692055 208.741662,34.6826301 C208.997257,34.9960548 209.365712,35.1527671 209.845921,35.1527671 C210.333875,35.1527671 210.705649,34.9960548 210.961244,34.6826301 M208.307372,35.9007123 C207.86091,35.6590685 207.517904,35.3133151 207.2778,34.864 C207.037142,34.4146849 206.91709,33.8875616 206.91709,33.2831781 C206.91709,32.6787945 207.037142,32.1522192 207.2778,31.7029041 C207.517904,31.2530411 207.86091,30.9078356 208.307372,30.6656438 C208.753833,30.424 209.270002,30.3029041 209.857539,30.3029041 C210.43733,30.3029041 210.94852,30.424 211.390555,30.6656438 C211.832591,30.9078356 212.173937,31.2530411 212.414595,31.7029041 C212.654699,32.1522192 212.774752,32.6787945 212.774752,33.2831781 C212.774752,33.8875616 212.654699,34.4146849 212.414595,34.864 C212.173937,35.3133151 211.832591,35.6590685 211.390555,35.9007123 C210.94852,36.1429041 210.43733,36.2634521 209.857539,36.2634521 C209.270002,36.2634521 208.753833,36.1429041 208.307372,35.9007123" id="Fill-25" fill="#FEFEFE"></path>
                <path d="M219.387304,32.6599452 L219.387304,36.1728219 L217.957189,36.1728219 L217.957189,32.7278904 C217.957189,32.2747397 217.869778,31.9443288 217.693849,31.7366575 C217.518473,31.5289863 217.248494,31.4248767 216.882252,31.4248767 C216.447408,31.4248767 216.096657,31.5629589 215.829444,31.8385753 C215.562231,32.1141918 215.429454,32.4785753 215.429454,32.932274 L215.429454,36.1728219 L214.010404,36.1728219 L214.010404,32.0709041 C214.010404,31.4665205 213.979976,30.9262466 213.91912,30.4506301 L215.257398,30.4506301 L215.360853,31.3909041 C215.558911,31.0435068 215.827231,30.7755616 216.166918,30.5865205 C216.506051,30.3980274 216.889444,30.3032329 217.317095,30.3032329 C218.697419,30.3032329 219.387304,31.0889863 219.387304,32.6599452" id="Fill-26" fill="#FEFEFE"></path>
                <path d="M220.531562,35.5379726 L220.932104,34.5412603 C221.550069,34.994411 222.254891,35.2207123 223.048785,35.2207123 C223.391791,35.2207123 223.656238,35.164274 223.843232,35.0508493 C224.030225,34.9374247 224.123722,34.7790685 224.123722,34.5752329 C224.123722,34.4009863 224.058994,34.2634521 223.929537,34.1615342 C223.799526,34.0596164 223.578785,33.9708493 223.265653,33.8952329 L222.304683,33.6798904 C221.252428,33.4530411 220.726301,32.9204384 220.726301,32.0820822 C220.726301,31.7346849 220.824777,31.4267397 221.023942,31.1587945 C221.222,30.8908493 221.500278,30.6809863 221.858221,30.5297534 C222.217271,30.3785205 222.632752,30.3029041 223.105768,30.3029041 C223.517376,30.3029041 223.914046,30.3653699 224.295779,30.4903014 C224.676958,30.6146849 225.012772,30.794411 225.302115,31.0283836 L224.878889,31.9916712 C224.299651,31.5686575 223.70437,31.3571507 223.09415,31.3571507 C222.766081,31.3571507 222.510486,31.4174247 222.327919,31.5385205 C222.144797,31.6590685 222.05296,31.8256438 222.05296,32.0366027 C222.05296,32.2031781 222.108837,32.3352329 222.218931,32.4333151 C222.329578,32.5319452 222.518232,32.6146849 222.785445,32.6826301 L223.769651,32.8979726 C224.341697,33.0267397 224.758837,33.2245479 225.021624,33.4930411 C225.284965,33.7609863 225.416635,34.1105753 225.416635,34.5412603 C225.416635,35.0700274 225.203086,35.4892055 224.775987,35.7987945 C224.348336,36.1083836 223.765225,36.2634521 223.025549,36.2634521 C221.980486,36.2634521 221.149526,36.0218082 220.531562,35.5379726" id="Fill-27" fill="#FEFEFE"></path>
                <path d="M230.363947,34.6826301 C230.619542,34.3692055 230.747339,33.9029041 230.747339,33.2831781 C230.747339,32.6716712 230.617882,32.2053699 230.358414,31.883726 C230.098947,31.5631781 229.732705,31.4020822 229.260241,31.4020822 C228.780032,31.4020822 228.409918,31.5631781 228.15045,31.883726 C227.890982,32.2053699 227.761525,32.6716712 227.761525,33.2831781 C227.761525,33.9029041 227.888769,34.3692055 228.144364,34.6826301 C228.399959,34.9960548 228.768414,35.1527671 229.248623,35.1527671 C229.736577,35.1527671 230.108352,34.9960548 230.363947,34.6826301 M227.710074,35.9007123 C227.263613,35.6590685 226.920606,35.3133151 226.680502,34.864 C226.439844,34.4146849 226.319792,33.8875616 226.319792,33.2831781 C226.319792,32.6787945 226.439844,32.1522192 226.680502,31.7029041 C226.920606,31.2530411 227.263613,30.9078356 227.710074,30.6656438 C228.156535,30.424 228.672705,30.3029041 229.260241,30.3029041 C229.840032,30.3029041 230.351222,30.424 230.793258,30.6656438 C231.235293,30.9078356 231.57664,31.2530411 231.817297,31.7029041 C232.057402,32.1522192 232.177454,32.6787945 232.177454,33.2831781 C232.177454,33.8875616 232.057402,34.4146849 231.817297,34.864 C231.57664,35.3133151 231.235293,35.6590685 230.793258,35.9007123 C230.351222,36.1429041 229.840032,36.2634521 229.260241,36.2634521 C228.672705,36.2634521 228.156535,36.1429041 227.710074,35.9007123" id="Fill-28" fill="#FEFEFE"></path>
                <path d="M237.096772,30.4053151 L237.085154,31.6968219 C236.841177,31.5987397 236.589455,31.5494247 236.330541,31.5494247 C235.842033,31.5494247 235.470812,31.6896986 235.215217,31.9691507 C234.959622,32.2486027 234.831825,32.6184658 234.831825,33.0792877 L234.831825,36.1724384 L233.413328,36.1724384 L233.413328,32.0710685 C233.413328,31.4666849 233.382347,30.926411 233.322044,30.4507945 L234.660322,30.4507945 L234.774841,31.4590137 C234.919236,31.0891507 235.148276,30.8053151 235.460854,30.6091507 C235.773432,30.4129863 236.128056,30.3143562 236.52528,30.3143562 C236.746021,30.3143562 236.936887,30.3450411 237.096772,30.4053151" id="Fill-29" fill="#FEFEFE"></path>
                <path d="M237.46307,35.5379726 L237.863613,34.5412603 C238.481577,34.994411 239.1864,35.2207123 239.980293,35.2207123 C240.3233,35.2207123 240.587746,35.164274 240.77474,35.0508493 C240.961734,34.9374247 241.055231,34.7790685 241.055231,34.5752329 C241.055231,34.4009863 240.990502,34.2634521 240.861045,34.1615342 C240.731034,34.0596164 240.510293,33.9708493 240.197162,33.8952329 L239.236191,33.6798904 C238.183936,33.4530411 237.657809,32.9204384 237.657809,32.0820822 C237.657809,31.7346849 237.756285,31.4267397 237.95545,31.1587945 C238.153508,30.8908493 238.431786,30.6809863 238.78973,30.5297534 C239.14878,30.3785205 239.56426,30.3029041 240.037277,30.3029041 C240.448884,30.3029041 240.845554,30.3653699 241.227287,30.4903014 C241.608467,30.6146849 241.944281,30.794411 242.233623,31.0283836 L241.810398,31.9916712 C241.23116,31.5686575 240.635878,31.3571507 240.025659,31.3571507 C239.69759,31.3571507 239.441995,31.4174247 239.259427,31.5385205 C239.076306,31.6590685 238.984469,31.8256438 238.984469,32.0366027 C238.984469,32.2031781 239.040346,32.3352329 239.150439,32.4333151 C239.261087,32.5319452 239.44974,32.6146849 239.716953,32.6826301 L240.70116,32.8979726 C241.273206,33.0267397 241.690346,33.2245479 241.953133,33.4930411 C242.216473,33.7609863 242.348143,34.1105753 242.348143,34.5412603 C242.348143,35.0700274 242.134594,35.4892055 241.707496,35.7987945 C241.279844,36.1083836 240.696734,36.2634521 239.957057,36.2634521 C238.911995,36.2634521 238.081034,36.0218082 237.46307,35.5379726" id="Fill-30" fill="#FEFEFE"></path>
                <path d="M248.73149,33.1471781 L251.728922,33.1471781 L250.230206,29.6912877 L248.73149,33.1471781 Z M253.032899,36.1723836 L252.220748,34.2803288 L248.23911,34.2803288 L247.415895,36.1723836 L245.928796,36.1723836 L249.612241,28.1049863 L250.81387,28.1049863 L254.508379,36.1723836 L253.032899,36.1723836 Z" id="Fill-31" fill="#FEFEFE"></path>
                <path d="M258.753469,31.6743014 C259.264659,31.6743014 259.651371,31.5707397 259.914711,31.3625205 C260.177498,31.1548493 260.309721,30.8545753 260.309721,30.4616986 C260.309721,30.0616986 260.179711,29.757589 259.920243,29.5499178 C259.661329,29.3422466 259.271851,29.238137 258.753469,29.238137 L256.865828,29.238137 L256.865828,31.6743014 L258.753469,31.6743014 Z M255.389794,28.1049863 L258.925525,28.1049863 C259.802404,28.1049863 260.484544,28.3148493 260.973051,28.7340274 C261.461005,29.1532055 261.704982,29.7252603 261.704982,30.4507397 C261.704982,31.1756712 261.459346,31.7499178 260.966966,32.1729315 C260.475139,32.5959452 259.794659,32.8074521 258.925525,32.8074521 L256.865828,32.8074521 L256.865828,36.1723836 L255.389794,36.1723836 L255.389794,28.1049863 Z" id="Fill-32" fill="#FEFEFE"></path>
                <polygon id="Fill-33" fill="#FEFEFE" points="263.008904 36.1726027 264.484937 36.1726027 264.484937 28.1046575 263.008904 28.1046575"></polygon>
                <g id="Group-37">
                    <mask id="mask-2" fill="white">
                        <use xlink:href="#path-1"></use>
                    </mask>
                    <g id="Clip-36"></g>
                    <path d="M15.1937778,24.9023014 L24.4126667,24.9023014 L19.8032222,11.4321644 L15.1937778,24.9023014 Z M24.4126667,0.375178082 C25.171,0.375178082 25.7493333,0.581753425 26.1482222,0.992712329 C26.5465556,1.40476712 26.821,1.81627397 26.9732222,2.22778082 L39.3782222,37.5866849 C39.5298889,37.9614795 39.606,38.2420274 39.606,38.4288767 C39.606,38.7653151 39.4826667,39.055726 39.236,39.2984658 C38.9887778,39.5423014 38.6954444,39.6633973 38.3537778,39.6633973 L31.1837778,39.6633973 C30.4248889,39.6633973 29.8837778,39.5044932 29.5621111,39.186137 C29.2393333,38.8688767 29.0404444,38.5603836 28.9648889,38.2601096 L27.3715556,33.6014795 L12.2348889,33.6014795 L10.6415556,38.2601096 C10.5648889,38.5603836 10.366,38.8688767 10.0432222,39.186137 C9.721,39.5044932 9.18044444,39.6633973 8.42211111,39.6633973 L1.25155556,39.6633973 C0.910444444,39.6633973 0.616555556,39.5423014 0.369888889,39.2984658 C0.122666667,39.055726 -0.000111111111,38.7653151 -0.000111111111,38.4288767 C-0.000111111111,38.2420274 0.0754444444,37.9614795 0.227666667,37.5866849 L12.6332222,2.22778082 C12.7837778,1.81627397 13.0593333,1.40476712 13.4582222,0.992712329 C13.8565556,0.581753425 14.4343333,0.375178082 15.1937778,0.375178082 L24.4126667,0.375178082 Z" id="Fill-35" fill="#2AC4F3" mask="url(#mask-2)"></path>
                </g>
                <path d="M53.4656595,31.1430962 L62.8001949,31.1430962 C63.9318713,31.1430962 64.837102,30.8100418 65.5153346,30.1433752 C66.1946719,29.4772664 66.5337882,28.6482566 66.5337882,27.6574616 C66.5337882,26.6672245 66.1946719,25.8387727 65.5153346,25.1715481 C64.837102,24.5054393 63.9318713,24.1712692 62.8001949,24.1712692 L53.4656595,24.1712692 L53.4656595,31.1430962 Z M65.6854451,12.1143654 C65.6854451,11.1241283 65.3932749,10.3341702 64.8083821,9.74281729 C64.2234893,9.1525802 63.3663093,8.85690377 62.2346329,8.85690377 L53.4656595,8.85690377 L53.4656595,15.3712692 L62.2346329,15.3712692 C63.3663093,15.3712692 64.2234893,15.0767085 64.8083821,14.4859135 C65.3932749,13.8956764 65.6854451,13.1051604 65.6854451,12.1143654 L65.6854451,12.1143654 Z M44.527128,40 C44.1117934,40 43.7538986,39.8482566 43.4523392,39.5430962 C43.1502274,39.2384937 43,38.8769874 43,38.4574616 L43,1.54253835 C43,1.12412831 43.1502274,0.762064156 43.4523392,0.456903766 C43.7538986,0.152859135 44.1117934,0 44.527128,0 L62.7438596,0 C65.2701105,0 67.4009097,0.352580195 69.1362573,1.05718271 C70.8710526,1.7623431 72.2562378,2.67670851 73.2940221,3.79972106 C74.3312541,4.92384937 75.0763158,6.20027894 75.5292073,7.62845188 C75.9820988,9.05718271 76.2079922,10.4769874 76.2079922,11.8856346 C76.2079922,12.990795 76.0848278,13.9525802 75.8401559,14.7715481 C75.5943795,15.5910739 75.3027615,16.2956764 74.9636452,16.8859135 C74.6239766,17.4767085 74.2749188,17.9525802 73.9164717,18.3140865 C73.5580247,18.6767085 73.2664068,18.9528591 73.039961,19.1430962 C74.5107537,20.1712692 75.5380442,21.3623431 76.122937,22.7146444 C76.7072775,24.0669456 77,25.6953975 77,27.6 C77,29.162622 76.7735543,30.6861925 76.3212151,32.1718271 C75.8688759,33.6574616 75.1232619,34.981311 74.0865822,36.1428173 C73.0487979,37.3054393 71.7011696,38.2387727 70.041488,38.9428173 C68.3818064,39.6485356 66.3448993,40 63.9318713,40 L44.527128,40 Z" id="Fill-38" fill="#2AC4F3"></path>
                <path d="M156.310356,15.7141462 C156.080314,11.3337331 153.47411,9.14296872 148.493988,9.14296872 L142.631853,9.14296872 L142.631853,30.8570313 L148.78126,30.8570313 C153.60933,30.8570313 156.117906,28.6668247 156.310356,24.2858538 C156.347387,23.4858649 156.368147,22.7338531 156.368147,22.0287025 L156.368147,19.9712696 L156.368147,17.942846 C156.368147,17.257221 156.347387,16.5141351 156.310356,15.7141462 L156.310356,15.7141462 Z M148.78126,0 C151.425056,0 153.838811,0.391068465 156.022523,1.17153178 C158.206797,1.95311084 160.093139,3.04821411 161.683793,4.45739948 C163.272764,5.86714272 164.518916,7.55303273 165.418884,9.51451165 C166.318852,11.4765484 166.827188,13.6198937 166.942209,15.9428739 C166.980362,16.7428627 167,17.4770226 167,18.1431221 L167,20.0571819 L167,21.9427902 C167,22.5910378 166.980362,23.2956305 166.942209,24.0571261 C166.827188,26.4197152 166.328952,28.5714286 165.44806,30.5139398 C164.566047,32.457009 163.350192,34.133973 161.798253,35.5426005 C160.246874,36.9523438 158.398124,38.0480049 156.252565,38.8284682 C154.106444,39.6094894 151.712889,40 149.069093,40 L133.551379,40 C133.13001,40 132.76587,39.8482587 132.459522,39.5425447 C132.152613,39.2379465 132,38.8770031 132,38.4569253 L132,1.54307471 C132,1.12411263 132.152613,0.7626114 132.459522,0.456897393 C132.76587,0.152857003 133.13001,0 133.551379,0 L148.78126,0 Z" id="Fill-40" fill="#2AC4F3"></path>
                <path d="M101.919813,40 L84.2548879,23.2108339 C83.2968144,22.3478055 82.4849992,21.502629 81.8210855,20.6758623 C81.1577195,19.8502113 80.6132227,18.995551 80.1892382,18.1124392 C79.7658014,17.2304431 79.4612338,16.3010279 79.2760829,15.3236357 C79.0925754,14.347917 79,13.2583925 79,12.0561777 C79,10.4037601 79.2673184,8.84506492 79.8019552,7.38009233 C80.3371397,5.91511973 81.1204703,4.63926584 82.1530423,3.54918341 C83.1861621,2.46021673 84.4761925,1.59718832 86.0258722,0.957866696 C87.5750042,0.319660814 89.3635176,0 91.3908647,0 C93.4576521,0 95.290536,0.376005913 96.8960897,1.126902 C98.5,1.87835595 99.8546688,2.83566477 100.961739,3.99994421 C102.067714,5.16478152 102.916779,6.46016095 103.506194,7.88719823 C104.096705,9.31535125 104.410585,10.7234209 104.446191,12.1125228 C104.446191,12.4505934 104.327322,12.7418028 104.087393,12.9855929 C103.848011,13.2304989 103.56152,13.352115 103.230111,13.352115 L100.685109,13.352115 C100.390401,13.352115 100.10391,13.2394248 99.8272796,13.0134866 C99.5517445,12.788664 99.3572813,12.470119 99.2471768,12.0561777 C99.0258722,11.1546561 98.740477,10.281586 98.3893477,9.43640953 C98.039314,8.59123304 97.5589078,7.84033695 96.9514158,7.18260554 C96.3422805,6.52654775 95.5868869,6.00940015 94.683044,5.63395211 C93.7792011,5.25850407 92.6825383,5.07050111 91.3908647,5.07050111 C88.9214563,5.07050111 87.1137704,5.73771635 85.9705461,7.06991534 C84.8278695,8.40378795 84.2548879,10.0662473 84.2548879,12.0561777 C84.2548879,13.7465307 84.5315186,15.1177808 85.0853278,16.16937 C85.6380415,17.2204014 86.4679336,18.2535808 87.5750042,19.2672348 L103.782825,34.3097028 C104.225982,34.723644 104.539314,35.0801244 104.722822,35.3802597 C104.90852,35.6809528 105,36.0374332 105,36.4508166 L105,38.4786823 C105,38.8926235 104.852646,39.2491039 104.556843,39.5492392 C104.262683,39.8504902 103.91265,40 103.506194,40 L101.919813,40 Z" id="Fill-42" fill="#FEFEFE"></path>
                <path d="M116.536026,19.2672348 C117.650115,18.2535808 118.484718,17.2204014 119.041487,16.1688122 C119.598808,15.1177808 119.877192,13.7465307 119.877192,12.0561777 C119.877192,10.0656895 119.300578,8.40378795 118.150656,7.06991534 C117.000184,5.73771635 115.181037,5.06994324 112.69542,5.06994324 C111.396109,5.06994324 110.292493,5.25850407 109.382368,5.63395211 C108.472794,6.00940015 107.712612,6.52598987 107.100165,7.18260554 C106.48827,7.84033695 106.004818,8.59123304 105.653117,9.43585166 C105.29921,10.281586 105.012556,11.1546561 104.789297,12.0561777 C104.678495,12.4695611 104.48335,12.7881062 104.206068,13.0134866 C103.927683,13.238867 103.638825,13.3515572 103.342249,13.3515572 L100.781662,13.3515572 C100.4476,13.3515572 100.159844,13.229941 99.9183936,12.9855929 C99.6774944,12.7418028 99.5573205,12.4505934 99.5573205,12.1125228 C99.5937034,10.7234209 99.9095735,9.31479338 100.503277,7.88719823 C101.096429,6.46016095 101.951428,5.16422365 103.064415,3.99938634 C104.177954,2.83566477 105.541763,1.87835595 107.155291,1.12634412 C108.771024,0.375448041 110.61608,0 112.69542,0 C114.735621,0 116.536026,0.319102941 118.094428,0.957308824 C119.653933,1.59663045 120.952694,2.46021673 121.991813,3.54862554 C123.030932,4.63870797 123.81978,5.91511973 124.357806,7.37953446 C124.895833,8.84450705 125.164846,10.4037601 125.164846,12.0561777 C125.164846,13.2583925 125.071684,14.3473592 124.887013,15.3236357 C124.701239,16.3010279 124.394741,17.2304431 123.968068,18.1124392 C123.541395,18.995551 122.993997,19.8502113 122.326426,20.6758623 C121.658303,21.502629 120.84134,22.3472476 119.877192,23.2108339 L107.46179,34.928941 L124.497274,34.928941 C124.905204,34.928941 125.257457,35.0795665 125.554585,35.3797018 C125.851712,35.6809528 126,36.0374332 126,36.4502587 L126,38.4786823 C126,38.8920657 125.851712,39.248546 125.554585,39.5486813 C125.257457,39.8504902 124.905204,40 124.497274,40 L100.503277,40 C100.094796,40 99.7419915,39.8504902 99.4459666,39.5486813 C99.148288,39.248546 99,38.8920657 99,38.4786823 L99,36.4502587 C99,36.0374332 99.0920599,35.6809528 99.2789359,35.3797018 C99.4636069,35.0795665 99.7794769,34.723644 100.224892,34.3097028 L116.536026,19.2672348 Z" id="Fill-44" fill="#2AC4F3"></path>
            </g>
        </g>
    </g>
</svg>