<?xml version="1.0" encoding="UTF-8"?>
<svg width="489px" height="369px" viewBox="0 0 489 369" version="1.1" xmlns="http://www.w3.org/2000/svg" xmlns:xlink="http://www.w3.org/1999/xlink">
    <title>AdobeStock_304403701</title>
    <defs>
        <linearGradient x1="50.0698413%" y1="5.91304348%" x2="50.0698413%" y2="53.3445652%" id="linearGradient-1">
            <stop stop-color="#EB8517" offset="0.561798%"></stop>
            <stop stop-color="#FFB038" offset="100%"></stop>
        </linearGradient>
        <linearGradient x1="50.060274%" y1="149.122857%" x2="50.060274%" y2="30.24%" id="linearGradient-2">
            <stop stop-color="#EB8517" offset="0.561798%"></stop>
            <stop stop-color="#FFB038" offset="100%"></stop>
        </linearGradient>
        <linearGradient x1="-0.710414968%" y1="50.0714286%" x2="99.4736834%" y2="50.0714286%" id="linearGradient-3">
            <stop stop-color="#3D342B" offset="0%"></stop>
            <stop stop-color="#291C17" offset="100%"></stop>
        </linearGradient>
        <linearGradient x1="0.0462077013%" y1="48.421875%" x2="100.095916%" y2="48.421875%" id="linearGradient-4">
            <stop stop-color="#E8D68C" offset="0%"></stop>
            <stop stop-color="#E8CC47" offset="100%"></stop>
        </linearGradient>
        <linearGradient x1="-0.0264573991%" y1="48.421875%" x2="100.082511%" y2="48.421875%" id="linearGradient-5">
            <stop stop-color="#E8D68C" offset="0%"></stop>
            <stop stop-color="#E8CC47" offset="100%"></stop>
        </linearGradient>
        <linearGradient x1="-0.448634437%" y1="50.0714286%" x2="99.734775%" y2="50.0714286%" id="linearGradient-6">
            <stop stop-color="#3D342B" offset="0%"></stop>
            <stop stop-color="#291C17" offset="100%"></stop>
        </linearGradient>
        <linearGradient x1="49.5489575%" y1="80.9329513%" x2="49.5489575%" y2="37.4206304%" id="linearGradient-7">
            <stop stop-color="#444199" offset="0.561798%"></stop>
            <stop stop-color="#2B2B7D" offset="100%"></stop>
        </linearGradient>
        <linearGradient x1="36.5627769%" y1="72.4144309%" x2="55.1170741%" y2="7.06799285%" id="linearGradient-8">
            <stop stop-color="#444199" offset="0.561798%"></stop>
            <stop stop-color="#2B2B7D" offset="100%"></stop>
        </linearGradient>
        <linearGradient x1="71.0694385%" y1="91.0838368%" x2="26.8289346%" y2="35.2355123%" id="linearGradient-9">
            <stop stop-color="#F4A079" offset="0.561798%"></stop>
            <stop stop-color="#F4B594" offset="100%"></stop>
        </linearGradient>
        <linearGradient x1="58.8854311%" y1="90.8335586%" x2="43.2938893%" y2="24.4011261%" id="linearGradient-10">
            <stop stop-color="#C73669" offset="0.561798%"></stop>
            <stop stop-color="#F2577E" offset="100%"></stop>
        </linearGradient>
        <linearGradient x1="67.0729797%" y1="58.963421%" x2="53.0429816%" y2="52.3284521%" id="linearGradient-11">
            <stop stop-color="#F4A079" offset="0.561798%"></stop>
            <stop stop-color="#F4B594" offset="100%"></stop>
        </linearGradient>
        <linearGradient x1="52.1559211%" y1="47.8987326%" x2="48.7412281%" y2="77.5543629%" id="linearGradient-12">
            <stop stop-color="#F8981C" offset="0.561798%"></stop>
            <stop stop-color="#D4731C" offset="100%"></stop>
        </linearGradient>
        <linearGradient x1="99.4984987%" y1="38.2702951%" x2="35.6985597%" y2="63.1716087%" id="linearGradient-13">
            <stop stop-color="#E6426B" offset="0.561798%"></stop>
            <stop stop-color="#F2577E" offset="100%"></stop>
        </linearGradient>
    </defs>
    <g id="Page-1" stroke="none" stroke-width="1" fill="none" fill-rule="evenodd">
        <g id="AB2D-Overview-page" transform="translate(-745.000000, -1392.000000)" fill-rule="nonzero">
            <g id="AdobeStock_304403701" transform="translate(745.738159, 1392.278182)">
                <g id="Group" opacity="0.5" transform="translate(24.261841, 23.721818)" fill="#E8DBE0">
                    <path d="M51.4695733,335.295105 L177.078328,335.295105 C183.652244,332.005594 190.22616,328.716084 198.443556,326.366434 C227.556613,317.672727 251.974016,327.306294 266.295762,335.295105 L409.982786,335.295105 C433.930623,310.623776 444.261063,274.204196 433.695841,238.959441 C424.539315,208.413986 406.226262,197.135664 398.478433,171.524476 C393.07843,152.962238 393.313213,134.4 398.24365,117.012587 C398.24365,117.012587 398.24365,117.012587 398.008867,116.777622 C400.82626,101.974825 400.356694,86.2321678 395.66104,70.4895105 C380.400163,18.5622378 325.69579,-11.2783217 273.808809,4.22937063 C220.278349,19.972028 209.008778,65.3202797 209.008778,65.3202797 C201.026166,91.6363636 180.365286,113.488112 152.19136,121.711888 C123.547868,130.170629 105.234816,123.121678 81.7565441,130.170629 C21.4173852,148.027972 -13.0956746,211.468531 4.74781209,271.854545 C12.4956418,299.11049 29.6347804,320.962238 51.4695733,335.295105 Z" id="Path"></path>
                    <path d="M160.643538,99.8601399 C178.487025,89.0517483 185.060941,66.965035 175.200066,50.7524476 C165.339192,34.3048951 141.626138,31.9552448 123.782651,42.7636364 C105.939164,53.572028 100.539162,73.3090909 110.400036,89.7566434 C120.26091,105.969231 142.800051,110.668531 160.643538,99.8601399 Z" id="Path"></path>
                    <path d="M413.739309,164.71049 C418.434964,179.513287 432.991492,187.972028 446.374107,183.742657 C459.756722,179.513287 465.62629,163.065734 461.165419,148.262937 C456.469764,133.46014 443.321932,126.176224 429.939317,130.405594 C416.321919,134.634965 409.043655,149.907692 413.739309,164.71049 Z" id="Path"></path>
                </g>
                <g id="Group" transform="translate(116.261841, 174.721818)">
                    <path d="M35.3450135,22.9923077 L40.222372,22.7576923 C42.5449236,19.4730769 44.6352201,15.25 45.796496,10.0884615 L42.0804133,9.85384615 L46.2610063,8.44615385 C46.7255166,6.1 46.9577718,3.51923077 46.9577718,0.703846154 C46.9577718,0.703846154 40.222372,1.17307692 33.254717,4.92692308 L33.0224618,8.21153846 L32.3256963,5.39615385 C28.1451033,7.74230769 23.9645103,11.2615385 21.4097035,16.4230769 L22.5709793,21.8192308 L20.4806828,18.5346154 C19.5516622,20.6461538 19.0871518,22.9923077 18.6226415,25.8076923 C18.3903863,30.9692308 18.6226415,34.2538462 18.6226415,34.2538462 L26.5193172,34.2538462 C26.5193172,34.2538462 33.4869721,31.6730769 39.2933513,24.4 L35.3450135,22.9923077 Z" id="Path" fill="#2599A0"></path>
                    <path d="M20.0161725,28.1538462 C19.7839173,25.1038462 18.8548967,22.5230769 17.4613657,20.4115385 L16.3000898,22.9923077 L16.7646002,19.4730769 C14.2097934,16.1884615 10.958221,13.8423077 7.93890386,12.6692308 L7.7066487,15.0153846 L7.0098832,12.4346154 C3.29380054,11.0269231 0.042228212,10.7923077 0.042228212,10.7923077 C0.042228212,14.7807692 0.738993711,18.0653846 1.66801438,20.8807692 L3.75831087,21.1153846 L2.13252471,21.35 C3.75831087,25.3384615 6.08086253,28.1538462 8.17115903,30.0307692 L12.1194969,30.2653846 L9.56469003,31.2038462 C12.351752,33.3153846 14.4420485,34.0192308 14.4420485,34.0192308 L20.0161725,34.0192308 C20.0161725,34.0192308 20.2484277,31.9076923 20.0161725,28.1538462 Z" id="Path" fill="#78E3B0"></path>
                    <path d="M6.08086253,16.4230769 C4.9195867,15.25 2.36477987,12.4346154 2.36477987,12.4346154 C2.36477987,12.4346154 5.38409704,14.5461538 6.54537287,15.7192308 C16.7646002,25.5730769 19.0871518,33.55 19.0871518,34.0192308 L18.6226415,34.0192308 L18.1581312,34.0192308 C17.925876,33.0807692 15.3710692,25.5730769 6.08086253,16.4230769 Z" id="Path" fill="#FFFFFF" opacity="0.42"></path>
                    <path d="M21.4097035,34.0192308 L20.4806828,34.0192308 C21.1774483,31.4384615 26.0548068,17.1269231 40.4546271,5.39615385 C41.615903,4.45769231 44.6352201,2.81538462 44.6352201,2.81538462 C44.6352201,2.81538462 42.3126685,4.92692308 41.1513926,5.86538462 C27.2160827,17.3615385 22.3387242,30.9692308 21.4097035,34.0192308 Z" id="Path" fill="#FFFFFF" opacity="0.21"></path>
                    <polygon id="Path" fill="url(#linearGradient-1)" points="29.5386343 61 11.1904762 61 5.6163522 39.4153846 34.8805031 39.4153846"></polygon>
                    <rect id="Rectangle" fill="url(#linearGradient-2)" x="3.29380054" y="33.55" width="33.9092543" height="8.21153846"></rect>
                </g>
                <g id="Group" transform="translate(231.261841, 344.721818)">
                    <polygon id="Path" fill="#FFAD97" points="32.3675214 0.711111111 32.3675214 10.4888889 22.3162393 10.4888889 22.3162393 0.222222222"></polygon>
                    <path d="M32.3675214,7.31111111 C32.3675214,7.31111111 34.7606838,8.77777778 34.7606838,12.2 C34.7606838,15.6222222 34.7606838,19.2888889 34.7606838,19.2888889 L0.0598290598,19.2888889 C0.0598290598,19.2888889 -0.658119658,15.1333333 4.12820513,15.1333333 C8.91452991,15.1333333 17.2905983,11.7111111 18.7264957,10.2444444 C20.6410256,8.04444444 22.0769231,7.31111111 23.7521368,7.31111111 C25.1880342,7.31111111 32.3675214,7.31111111 32.3675214,7.31111111 Z" id="Path" fill="url(#linearGradient-3)"></path>
                </g>
                <polygon id="Path" fill="#B2B2B2" points="191.261841 362.721818 185.187075 362.721818 165.261841 241.721818 171.579598 241.721818"></polygon>
                <polygon id="Path" fill="#8C8C8C" points="172.261841 241.721818 190.750971 362.721818 193.261841 362.721818 174.77271 241.721818"></polygon>
                <g id="Group" transform="translate(347.261841, 241.721818)">
                    <polygon id="Path" fill="#B2B2B2" points="25.3493797 120.765597 19.1893797 120.765597 -0.00138957816 0.0479072398 6.15861042 0.0479072398"></polygon>
                    <polygon id="Path" fill="#8C8C8C" points="6.15861042 0.0479072398 25.3493797 120.765597 27.9555335 120.765597 8.76476427 0.0479072398"></polygon>
                </g>
                <g id="Group" transform="translate(280.261841, 241.721818)">
                    <polygon id="Path" fill="#B2B2B2" points="6.15384615 119.952137 0.669230769 119.952137 19.9846154 0.0478632479 25.4692308 0.0478632479"></polygon>
                    <polygon id="Path" fill="#8C8C8C" points="25.4692308 0.0478632479 6.15384615 119.952137 8.53846154 119.952137 27.8538462 0.0478632479"></polygon>
                </g>
                <polygon id="Path" fill="#B2B2B2" points="102.922218 362.721818 97.2618409 362.721818 116.365615 241.721818 122.261841 241.721818"></polygon>
                <polygon id="Path" fill="#8C8C8C" points="122.77797 241.721818 104.261841 362.721818 106.745712 362.721818 125.261841 241.721818"></polygon>
                <rect id="Rectangle" fill="url(#linearGradient-4)" x="110.261841" y="234.721818" width="201" height="8"></rect>
                <rect id="Rectangle" fill="url(#linearGradient-5)" opacity="0.5" x="110.261841" y="234.721818" width="52" height="8"></rect>
                <rect id="Rectangle" fill="#97A2D0" x="230.261841" y="214.721818" width="15" height="18"></rect>
                <rect id="Rectangle" fill="#747EC1" x="226.261841" y="214.721818" width="3" height="18"></rect>
                <g id="Group" transform="translate(276.261841, 264.721818)">
                    <g transform="translate(0.000000, 80.825353)" id="Path">
                        <polygon fill="#FFAD97" points="32.4158824 0.663474692 32.4158824 10.0569995 22.7748529 10.0569995 22.7748529 0.19379845"></polygon>
                        <path d="M32.4158824,7.00410397 C32.4158824,7.00410397 34.7673529,8.41313269 34.7673529,11.7008664 C34.7673529,14.9886001 34.7673529,18.5111719 34.7673529,18.5111719 L0.671029412,18.5111719 C0.671029412,18.5111719 -0.0344117647,14.5189238 4.66852941,14.5189238 C9.37147059,14.5189238 17.6016176,11.2311902 19.0125,9.82216142 C20.8936765,7.70861833 22.3045588,7.00410397 23.9505882,7.00410397 C25.3614706,7.00410397 32.4158824,7.00410397 32.4158824,7.00410397 Z" fill="url(#linearGradient-6)"></path>
                    </g>
                    <path d="M25.3614706,0 C9.37147059,7.98449612 16.6610294,67.6333789 21.1288235,81.9585043 C28.1832353,81.9585043 34.7673529,81.9585043 34.7673529,81.9585043 C34.7673529,81.9585043 39,39.6876425 39,29.8244414 C38.7648529,13.3857729 25.3614706,0 25.3614706,0 Z" id="Path" fill="url(#linearGradient-7)"></path>
                </g>
                <path d="M310.925794,259.298601 C310.925794,259.298601 273.075602,256.226975 257.089186,264.26046 C241.102769,272.293944 248.390694,332.308801 252.857487,346.721818 C259.910318,346.721818 266.49296,346.721818 266.49296,346.721818 C266.49296,346.721818 270.724659,304.191605 270.724659,294.267888 C270.724659,284.344172 279.188056,287.652077 280.598622,286.234403 C282.244282,284.580451 313.982021,289.30603 319.154097,281.981382 C324.091079,274.656734 310.925794,259.298601 310.925794,259.298601 Z" id="Path" fill="url(#linearGradient-8)"></path>
                <g id="Group" transform="translate(307.261841, 127.721818)">
                    <path d="M7.71052632,11.8950437 C7.71052632,11.8950437 7.47368421,20.058309 7.47368421,21.2244898 C7.47368421,22.3906706 5.34210526,26.122449 4.15789474,27.0553936 C3.21052632,27.9883382 4.39473684,29.8542274 5.81578947,29.8542274 C7.23684211,29.8542274 7,31.7201166 7,33.3527697 C7,36.851312 6.76315789,47.5801749 18.1315789,40.8163265 C18.1315789,40.8163265 20.2631579,45.2478134 19.5526316,47.5801749 L37.3157895,45.7142857 C37.3157895,45.7142857 35.4210526,41.7492711 35.6578947,37.7842566 C36.1315789,33.819242 21.9210526,7.46355685 7.71052632,11.8950437 Z" id="Path" fill="url(#linearGradient-9)"></path>
                    <path d="M5.34210526,3.96501458 C12.2105263,0.466472303 32.1052632,-4.19825073 36.8421053,7.93002915 C36.8421053,7.93002915 42.0526316,8.86297376 41.8157895,15.8600583 C41.5789474,22.1574344 40.1578947,39.4169096 31.8684211,39.1836735 C23.1052632,38.9504373 19.7894737,35.6851312 19.7894737,35.6851312 C19.7894737,35.6851312 25.9473684,27.2886297 21.9210526,24.2565598 C20.7368421,23.3236152 19.3157895,24.0233236 19.3157895,26.3556851 C19.3157895,28.4548105 19.5526316,38.7172012 18.1315789,41.516035 C16,45.9475219 12.2105263,45.2478134 10.7894737,44.7813411 C6.05263158,43.3819242 6.05263158,32.8862974 7.23684211,36.1516035 C8.42105263,39.1836735 12.2105263,39.1836735 14.1052632,37.3177843 C16,35.451895 17.6578947,24.0233236 17.6578947,24.0233236 C17.6578947,18.6588921 16,11.1953353 7.71052632,12.1282799 C7.71052632,12.1282799 5.57894737,12.8279883 2.73684211,13.0612245 C-0.105263158,13.0612245 -1.76315789,7.46355685 5.34210526,3.96501458 Z" id="Path" fill="#3F3F5C"></path>
                </g>
                <path d="M345.409301,172.721818 C345.409301,172.721818 371.261841,173.190287 371.261841,205.514611 C371.261841,237.838935 366.091333,276.721818 366.091333,276.721818 L320.966899,276.721818 C320.966899,276.721818 310.39086,275.082179 310.39086,259.856953 C310.39086,244.397494 312.036022,217.929025 310.155837,205.280377 C308.275652,192.631728 303.340167,180.920016 324.022199,176.7038 C341.178885,172.956052 345.409301,172.721818 345.409301,172.721818 Z" id="Path" fill="url(#linearGradient-10)"></path>
                <rect id="Rectangle" fill="#3F3F3F" x="213.261841" y="231.721818" width="40" height="3"></rect>
                <path d="M298.261841,212.941883 C298.261841,215.068096 296.610631,216.721818 294.487647,216.721818 L185.036034,216.721818 C182.913051,216.721818 181.261841,215.068096 181.261841,212.941883 L181.261841,147.501753 C181.261841,145.37554 182.913051,143.721818 185.036034,143.721818 L294.487647,143.721818 C296.610631,143.721818 298.261841,145.37554 298.261841,147.501753 L298.261841,212.941883 L298.261841,212.941883 Z" id="Path" fill="#999BC5"></path>
                <path d="M185.261841,147.721818 C185.261841,153.604171 185.261841,202.074759 185.261841,207.721818 C192.074341,207.721818 287.684255,207.721818 294.261841,207.721818 C294.261841,201.839465 294.261841,153.368877 294.261841,147.721818 C287.684255,147.721818 192.074341,147.721818 185.261841,147.721818 Z" id="Path" fill="#2E3545"></path>
                <g id="Group" opacity="0.3" transform="translate(275.261841, 203.721818)" fill="#000000">
                    <path d="M4.28981751,82.0189125 C5.93758773,80.3878546 37.7160134,85.0480201 42.8947198,77.8247636 C45.0132815,75.0286643 44.0716985,70.8345154 42.4239283,67.106383 C39.1283879,74.0966312 35.3620559,78.7567967 30.654141,78.7567967 L5.46679624,78.7567967 C1.93586006,78.7567967 0.288089839,80.8538712 0.0526940935,82.9509456 C1.93586006,82.4849291 3.58363028,82.7179374 4.28981751,82.0189125 Z" id="Path"></path>
                    <path d="M95.8587626,2.33008274 C95.8587626,1.63105792 95.8587626,0.932033097 95.8587626,0.232380695 C84.5597668,0.232380695 64.7865241,-0.233008274 56.7830688,24.2328605 C51.3689666,40.776448 46.6610517,60.1161348 40.5407623,70.8345154 C43.1301155,72.9315898 45.484073,73.1645981 45.484073,73.1645981 L90.6800561,73.1645981 C90.6800561,73.1645981 95.8587626,34.7182329 95.8587626,2.33008274 Z" id="Path"></path>
                </g>
                <g id="Group" transform="translate(222.261841, 222.721818)">
                    <path d="M27.9711905,1.16 C27.9711905,1.16 17.4897619,-0.28 14.0719048,0.2 C10.6540476,0.44 7.69190476,1.64 4.95761905,4.28 C2.22333333,6.92 -0.738809524,9.56 1.08404762,10.28 C2.90690476,11 4.04619048,10.28 5.86904762,8.36 C7.69190476,6.68 10.6540476,7.16 12.0211905,8.6 C13.1604762,10.04 17.9454762,10.04 20.907619,10.04 C23.8697619,10.04 25.4647619,8.12 27.9711905,9.8 C30.2497619,11 27.9711905,1.16 27.9711905,1.16 Z" id="Path" fill="url(#linearGradient-11)"></path>
                    <path d="M4.27404762,9.08 C4.27404762,9.08 5.18547619,10.52 6.78047619,10.04 C8.14761905,9.56 10.1983333,6.92 11.5654762,7.4 C12.932619,7.64 12.0211905,6.44 12.0211905,6.44 C12.0211905,6.44 8.14761905,6.44 7.9197619,6.44 C7.69190476,6.68 4.27404762,7.64 4.27404762,9.08 Z" id="Path" fill="#FFAD97"></path>
                    <path d="M8.60333333,8.84 C8.60333333,8.84 8.83119048,10.04 9.97047619,10.04 C11.1097619,10.04 11.7933333,8.36 12.7047619,8.6 C13.6161905,8.84 13.8440476,7.88 13.8440476,7.88 L11.5654762,6.92 C11.337619,6.92 9.28690476,7.88 8.60333333,8.84 Z" id="Path" fill="#FFAD97"></path>
                </g>
                <g id="Group" transform="translate(350.261841, 292.721818)">
                    <g id="Path">
                        <polygon fill="#D59758" points="21.7454545 71.9130345 15.1272727 71.9130345 0.709090909 0.200452303 7.32727273 0.200452303"></polygon>
                        <polygon fill="#7D62BF" opacity="0.3" points="20.3272727 71.9130345 18.9090909 71.9130345 4.49090909 0.200452303 5.90909091 0.200452303"></polygon>
                    </g>
                    <path d="M18.6727273,70.963199 L18.6727273,70.963199 C13.4727273,70.963199 11.8181818,73.5752467 11.8181818,74.0501645 C11.8181818,74.5250822 12.2909091,74.7625411 12.7636364,74.7625411 L24.5818182,74.7625411 C25.0545455,74.7625411 25.5272727,74.5250822 25.5272727,74.0501645 C25.5272727,73.5752467 23.8727273,70.963199 18.6727273,70.963199 Z" id="Path" fill="#D59758"></path>
                </g>
                <g id="Group" transform="translate(310.261841, 292.721818)">
                    <g transform="translate(3.848077, 0.000000)" id="Path">
                        <polygon fill="#D59758" points="0.242596154 71.9130345 7.27788462 71.9130345 22.07625 0.200452303 15.0409615 0.200452303"></polygon>
                        <polygon fill="#7D62BF" opacity="0.3" points="1.94076923 71.9130345 3.39634615 71.9130345 18.1947115 0.200452303 16.7391346 0.200452303"></polygon>
                    </g>
                    <path d="M7.24442308,70.963199 L7.24442308,70.963199 C12.5815385,70.963199 14.2797115,73.5752467 14.2797115,74.0501645 C14.2797115,74.5250822 13.7945192,74.7625411 13.3093269,74.7625411 L1.17951923,74.7625411 C0.694326923,74.7625411 0.209134615,74.5250822 0.209134615,74.0501645 C0.209134615,73.5752467 1.90730769,70.963199 7.24442308,70.963199 Z" id="Path" fill="#D59758"></path>
                </g>
                <g id="Group" transform="translate(273.261841, 292.721818)">
                    <g transform="translate(3.436147, 0.000000)" id="Path">
                        <polygon fill="#D59758" points="0.126262626 71.9130345 6.92640693 71.9130345 21.2301587 0.200452303 14.4300144 0.200452303"></polygon>
                        <polygon fill="#7D62BF" opacity="0.3" points="1.76767677 71.9130345 3.17460317 71.9130345 17.478355 0.200452303 16.0714286 0.200452303"></polygon>
                    </g>
                    <path d="M6.8452381,70.963199 L6.8452381,70.963199 C12.0039683,70.963199 13.6453824,73.5752467 13.6453824,74.0501645 C13.6453824,74.5250822 13.1764069,74.7625411 12.7074315,74.7625411 L0.983044733,74.7625411 C0.514069264,74.7625411 0.0450937951,74.5250822 0.0450937951,74.0501645 C0.0450937951,73.5752467 1.68650794,70.963199 6.8452381,70.963199 Z" id="Path" fill="#D59758"></path>
                </g>
                <g id="Group" transform="translate(311.261841, 292.721818)">
                    <g id="Path">
                        <polygon fill="#D59758" points="21.1850649 71.9130345 14.3587662 71.9130345 0 0.200452303 6.8262987 0.200452303"></polygon>
                        <polygon fill="#7D62BF" opacity="0.3" points="19.5373377 71.9130345 18.125 71.9130345 3.76623377 0.200452303 5.17857143 0.200452303"></polygon>
                    </g>
                    <path d="M18.125,70.963199 L18.125,70.963199 C12.9464286,70.963199 11.2987013,73.5752467 11.2987013,74.0501645 C11.2987013,74.5250822 11.7694805,74.7625411 12.2402597,74.7625411 L24.0097403,74.7625411 C24.4805195,74.7625411 24.9512987,74.5250822 24.9512987,74.0501645 C24.9512987,73.5752467 23.3035714,70.963199 18.125,70.963199 Z" id="Path" fill="#D59758"></path>
                </g>
                <path d="M352.761841,295.721818 L352.761841,295.721818 C360.695174,295.721818 363.261841,291.401818 363.261841,290.681818 C363.261841,289.961818 362.561841,289.721818 361.628508,289.721818 L343.895174,289.721818 C342.961841,289.721818 342.261841,289.961818 342.261841,290.681818 C342.495174,291.401818 345.061841,295.721818 352.761841,295.721818 Z" id="Path" fill="#7A3D1C"></path>
                <path d="M331.761841,295.721818 L331.761841,295.721818 C339.695174,295.721818 342.261841,291.401818 342.261841,290.681818 C342.261841,289.961818 341.561841,289.721818 340.628508,289.721818 L322.895174,289.721818 C321.961841,289.721818 321.261841,289.961818 321.261841,290.681818 C321.495174,291.401818 324.061841,295.721818 331.761841,295.721818 Z" id="Path" fill="#7A3D1C"></path>
                <path d="M294.761841,295.721818 L294.761841,295.721818 C302.695174,295.721818 305.261841,291.401818 305.261841,290.681818 C305.261841,289.961818 304.561841,289.721818 303.628508,289.721818 L285.895174,289.721818 C284.961841,289.721818 284.261841,289.961818 284.261841,290.681818 C284.261841,291.401818 286.828508,295.721818 294.761841,295.721818 Z" id="Path" fill="#7A3D1C"></path>
                <path d="M314.761841,295.721818 L314.761841,295.721818 C322.695174,295.721818 325.261841,291.401818 325.261841,290.681818 C325.261841,289.961818 324.561841,289.721818 323.628508,289.721818 L305.895174,289.721818 C304.961841,289.721818 304.261841,289.961818 304.261841,290.681818 C304.261841,291.401818 306.828508,295.721818 314.761841,295.721818 Z" id="Path" fill="#7A3D1C"></path>
                <path d="M382.088595,258.22072 C382.088595,243.121633 383.261841,226.607007 383.261841,220.23708 C383.261841,213.867152 383.027192,203.721818 371.764034,203.721818 C360.500876,203.721818 340.79035,203.250607 332.57763,228.022546 C324.59956,252.558562 318.498683,282.992659 306.766227,282.992659 C294.799122,282.992659 285.413157,282.992659 281.658771,282.992659 C278.139034,282.992659 276.261841,285.351891 276.261841,287.4752 C276.261841,289.598509 277.904385,291.721818 282.597367,291.721818 C287.29035,291.721818 332.57763,291.721818 347.360525,291.721818 C362.378069,291.721818 382.088595,289.126663 382.088595,258.22072 Z" id="Path" fill="url(#linearGradient-12)"></path>
                <path d="M287.127613,287.020415 L308.738351,287.020415 C323.537009,287.020415 329.879291,256.86008 338.100767,232.544772 C346.087344,208.229464 365.818888,208.463265 377.328955,208.463265 C379.443049,208.463265 381.087344,208.697066 382.261841,209.398469 C380.617546,206.826657 377.798754,204.721818 372.865868,204.721818 C361.5907,204.721818 341.859156,204.254846 333.63768,228.803955 C325.651103,253.119264 319.54372,283.279598 307.798754,283.279598 L282.664525,283.279598 C279.141036,283.279598 277.261841,285.617609 277.261841,287.721818 C278.906136,286.786614 278.201438,287.020415 287.127613,287.020415 Z" id="Path" fill="#F8981C" opacity="0.3"></path>
                <g id="Group" transform="translate(186.261841, 148.721818)">
                    <rect id="Rectangle" fill="#334D5C" x="0.696612063" y="0.708828671" width="76.1629188" height="49.618007"></rect>
                    <rect id="Rectangle" fill="#A6A6A6" x="0.696612063" y="0.708828671" width="76.1629188" height="6.14318182"></rect>
                    <rect id="Rectangle" fill="#FFFFFF" x="2.08983619" y="1.89020979" width="3.71526433" height="3.78041958"></rect>
                    <rect id="Rectangle" fill="#FFFFFF" x="12.7712211" y="1.89020979" width="46.4408042" height="3.78041958"></rect>
                    <polygon id="Path" fill="#000000" points="4.17967238 4.72552448 3.01865227 3.78041958 4.17967238 2.83531469"></polygon>
                    <g transform="translate(6.966121, 1.860080)">
                        <rect id="Rectangle" fill="#FFFFFF" x="0.232204021" y="0.0301302146" width="3.71526433" height="3.78041958"></rect>
                        <polygon id="Path" fill="#000000" points="1.62542815 2.8654449 2.78644825 1.92034 1.62542815 0.97523511"></polygon>
                    </g>
                    <g transform="translate(61.347729, 1.961538)" id="Path">
                        <path d="M3.90160089,1.81888112 C3.90160089,2.76398601 3.20498883,3.47281469 2.27617275,3.47281469 C1.34735666,3.47281469 0.650744602,2.76398601 0.650744602,1.81888112 C0.650744602,0.873776224 1.34735666,0.164947552 2.27617275,0.164947552 C3.20498883,0.164947552 3.90160089,0.873776224 3.90160089,1.81888112 Z" fill="#FB392E"></path>
                        <path d="M8.77788533,1.81888112 C8.77788533,2.76398601 8.08127327,3.47281469 7.15245719,3.47281469 C6.2236411,3.47281469 5.52702904,2.76398601 5.52702904,1.81888112 C5.52702904,0.873776224 6.2236411,0.164947552 7.15245719,0.164947552 C8.08127327,0.164947552 8.77788533,0.873776224 8.77788533,1.81888112 Z" fill="#FECB15"></path>
                        <path d="M13.6541698,1.81888112 C13.6541698,2.76398601 12.9575577,3.47281469 12.0287416,3.47281469 C11.0999255,3.47281469 10.4033135,2.76398601 10.4033135,1.81888112 C10.4033135,0.873776224 11.0999255,0.164947552 12.0287416,0.164947552 C12.9575577,0.164947552 13.6541698,0.873776224 13.6541698,1.81888112 Z" fill="#26A659"></path>
                    </g>
                    <g transform="translate(4.644080, 9.451049)" fill="#E0E0E0" id="Rectangle">
                        <rect x="4.17967238" y="0.236276224" width="1" height="37.5679196"></rect>
                        <rect x="0.696612063" y="1.41765734" width="1.39322413" height="1.41765734"></rect>
                        <rect x="0.696612063" y="4.48924825" width="1.39322413" height="1.41765734"></rect>
                        <rect x="0.696612063" y="7.79711538" width="1.39322413" height="1.41765734"></rect>
                        <rect x="0.696612063" y="10.8687063" width="1.39322413" height="1.41765734"></rect>
                        <rect x="0.696612063" y="14.1765734" width="1.39322413" height="1.41765734"></rect>
                        <rect x="0.696612063" y="17.2481643" width="1.39322413" height="1.41765734"></rect>
                        <rect x="0.696612063" y="20.5560315" width="1.39322413" height="1.41765734"></rect>
                        <rect x="0.696612063" y="23.6276224" width="1.39322413" height="1.41765734"></rect>
                        <rect x="0.696612063" y="26.9354895" width="1.39322413" height="1.41765734"></rect>
                        <rect x="0.696612063" y="30.0070804" width="1.39322413" height="1.41765734"></rect>
                        <rect x="0.696612063" y="33.3149476" width="1.39322413" height="1.41765734"></rect>
                    </g>
                    <g transform="translate(11.237528, 9.451049)" fill="#FFFFFF" id="Path">
                        <path d="M1.76589724,0.945104895 L0.837081162,2.12648601 C0.837081162,2.12648601 0.837081162,2.36276224 0.837081162,2.36276224 L1.76589724,3.30786713 C1.76589724,3.30786713 1.99810127,3.30786713 1.99810127,3.30786713 C1.99810127,3.30786713 1.99810127,3.30786713 1.99810127,3.07159091 C1.99810127,3.07159091 1.99810127,3.07159091 1.99810127,2.83531469 C1.99810127,2.83531469 1.3014892,2.12648601 1.06928518,1.89020979 C1.3014892,1.65393357 1.99810127,0.945104895 1.99810127,0.945104895 C1.99810127,0.945104895 1.99810127,0.945104895 1.99810127,0.708828671 C1.99810127,0.708828671 1.99810127,0.708828671 1.99810127,0.472552448 C1.99810127,0.945104895 1.99810127,0.945104895 1.76589724,0.945104895 Z"></path>
                        <path d="M6.64218168,0.945104895 C6.64218168,0.945104895 6.64218168,1.18138112 6.64218168,0.945104895 C6.64218168,1.18138112 6.64218168,1.18138112 6.64218168,1.18138112 C6.64218168,1.18138112 7.33879375,1.89020979 7.57099777,2.12648601 C7.33879375,2.36276224 6.64218168,3.07159091 6.64218168,3.07159091 C6.64218168,3.07159091 6.64218168,3.07159091 6.64218168,3.30786713 C6.64218168,3.30786713 6.64218168,3.30786713 6.64218168,3.54414336 C6.64218168,3.54414336 6.8743857,3.54414336 6.8743857,3.54414336 L7.80320179,2.59903846 C7.80320179,2.59903846 7.80320179,2.36276224 7.80320179,2.36276224 L6.8743857,1.18138112 C6.8743857,0.945104895 6.8743857,0.945104895 6.64218168,0.945104895 Z"></path>
                        <path d="M5.01675354,1.18138112 L3.15912137,3.07159091 C3.15912137,3.07159091 3.15912137,3.30786713 3.15912137,3.30786713 C3.15912137,3.30786713 3.39132539,3.30786713 3.39132539,3.30786713 L5.24895756,1.41765734 C5.24895756,1.41765734 5.24895756,1.18138112 5.24895756,1.18138112 C5.24895756,0.945104895 5.24895756,0.945104895 5.01675354,1.18138112 Z"></path>
                    </g>
                    <g transform="translate(11.237528, 44.389800)" fill="#FFFFFF" id="Path">
                        <path d="M1.76589724,0.502682662 L0.837081162,1.68406378 C0.837081162,1.68406378 0.837081162,1.92034 0.837081162,1.92034 L1.76589724,2.8654449 C1.76589724,2.8654449 1.99810127,2.8654449 1.99810127,2.8654449 C1.99810127,2.8654449 1.99810127,2.8654449 1.99810127,2.62916868 C1.99810127,2.62916868 1.99810127,2.62916868 1.99810127,2.39289245 C1.99810127,2.39289245 1.3014892,1.68406378 1.06928518,1.44778756 C1.3014892,1.21151133 1.99810127,0.502682662 1.99810127,0.502682662 C1.99810127,0.502682662 1.99810127,0.502682662 1.99810127,0.266406438 C1.99810127,0.266406438 1.99810127,0.266406438 1.99810127,0.0301302146 C1.99810127,0.502682662 1.99810127,0.502682662 1.76589724,0.502682662 Z"></path>
                        <path d="M6.64218168,0.502682662 C6.64218168,0.502682662 6.64218168,0.738958886 6.64218168,0.502682662 C6.64218168,0.738958886 6.64218168,0.738958886 6.64218168,0.738958886 C6.64218168,0.738958886 7.33879375,1.44778756 7.57099777,1.68406378 C7.33879375,1.92034 6.64218168,2.62916868 6.64218168,2.62916868 C6.64218168,2.62916868 6.64218168,2.62916868 6.64218168,2.8654449 C6.64218168,2.8654449 6.64218168,2.8654449 6.64218168,3.10172112 C6.64218168,3.10172112 6.8743857,3.10172112 6.8743857,3.10172112 L7.80320179,2.15661623 C7.80320179,2.15661623 7.80320179,1.92034 7.80320179,1.92034 L7.10658972,0.502682662 C6.8743857,0.502682662 6.8743857,0.502682662 6.64218168,0.502682662 Z"></path>
                        <path d="M5.01675354,0.738958886 L3.15912137,2.62916868 C3.15912137,2.62916868 3.15912137,2.8654449 3.15912137,2.8654449 C3.15912137,2.8654449 3.39132539,2.8654449 3.39132539,2.8654449 L5.24895756,0.97523511 C5.24895756,0.97523511 5.24895756,0.738958886 5.24895756,0.738958886 C5.24895756,0.502682662 5.24895756,0.502682662 5.01675354,0.738958886 Z"></path>
                    </g>
                    <rect id="Rectangle" fill="#E29616" x="10.4491809" y="13.704021" width="6.50171258" height="1.41765734"></rect>
                    <rect id="Rectangle" fill="#F19B0F" x="10.4491809" y="31.1884615" width="7.43052867" height="1.41765734"></rect>
                    <rect id="Rectangle" fill="#F19B0F" x="10.4491809" y="42.7659965" width="4.87628444" height="1.41765734"></rect>
                    <rect id="Rectangle" fill="#17BB99" x="12.0746091" y="16.7756119" width="10.4491809" height="1.41765734"></rect>
                    <rect id="Rectangle" fill="#FBDD82" x="12.0746091" y="34.2600524" width="9.52036485" height="1.41765734"></rect>
                    <rect id="Rectangle" fill="#89C0C8" x="12.0746091" y="36.8590909" width="9.28816083" height="1.41765734"></rect>
                    <rect id="Rectangle" fill="#17BB99" x="12.0746091" y="39.9306818" width="5.10848846" height="1.41765734"></rect>
                    <rect id="Rectangle" fill="#FBDD82" x="18.3441176" y="39.9306818" width="21.3627699" height="1.41765734"></rect>
                    <rect id="Rectangle" fill="#FBDD82" x="22.52379" y="36.8590909" width="15.5576694" height="1.41765734"></rect>
                    <rect id="Rectangle" fill="#E29616" x="39.2424795" y="36.8590909" width="5.10848846" height="1.41765734"></rect>
                    <rect id="Rectangle" fill="#89C0C8" x="46.4408042" y="34.2600524" width="9.9847729" height="1.41765734"></rect>
                    <rect id="Rectangle" fill="#17BB99" x="22.52379" y="34.2600524" width="22.52379" height="1.41765734"></rect>
                    <rect id="Rectangle" fill="#FBDD82" x="23.4526061" y="16.7756119" width="6.03730454" height="1.41765734"></rect>
                    <rect id="Rectangle" fill="#FBDD82" x="12.0746091" y="22.6825175" width="6.96612063" height="1.41765734"></rect>
                    <rect id="Rectangle" fill="#17BB99" x="19.9695458" y="22.6825175" width="11.145793" height="1.41765734"></rect>
                    <rect id="Rectangle" fill="#89C0C8" x="30.6509308" y="16.7756119" width="10.681385" height="1.41765734"></rect>
                    <rect id="Rectangle" fill="#89C0C8" x="12.0746091" y="19.6109266" width="11.8424051" height="1.41765734"></rect>
                    <rect id="Rectangle" fill="#E29616" x="25.0780343" y="19.6109266" width="11.610201" height="1.41765734"></rect>
                    <rect id="Rectangle" fill="#17BB99" x="37.8492554" y="19.6109266" width="8.12714073" height="1.41765734"></rect>
                    <rect id="Rectangle" fill="#89C0C8" x="12.0746091" y="25.5178322" width="14.1644453" height="1.41765734"></rect>
                    <rect id="Rectangle" fill="#FBDD82" x="27.1678704" y="25.5178322" width="7.43052867" height="1.41765734"></rect>
                    <rect id="Rectangle" fill="#17BB99" x="12.0746091" y="28.3531469" width="14.1644453" height="1.41765734"></rect>
                    <rect id="Rectangle" fill="#89C0C8" x="27.1678704" y="28.3531469" width="13.0034252" height="1.41765734"></rect>
                    <rect id="Rectangle" fill="#17BB99" x="35.9916232" y="25.5178322" width="14.6288533" height="1.41765734"></rect>
                    <rect id="Rectangle" fill="#17BB99" x="18.3441176" y="13.704021" width="3.25085629" height="1.41765734"></rect>
                </g>
                <g id="Group" transform="translate(238.261841, 167.721818)">
                    <rect id="Rectangle" fill="#38424D" x="0.650454545" y="0" width="52.6990909" height="34.56"></rect>
                    <rect id="Rectangle" fill="#474E5E" x="0.650454545" y="0" width="52.6990909" height="4.32"></rect>
                    <path d="M4.84772727,2.16 C4.84772727,2.88 4.38136364,3.36 3.68181818,3.36 C2.98227273,3.36 2.51590909,2.88 2.51590909,2.16 C2.51590909,1.44 2.98227273,0.96 3.68181818,0.96 C4.14818182,0.96 4.84772727,1.44 4.84772727,2.16 Z" id="Path" fill="#FB392E"></path>
                    <path d="M8.11227273,2.16 C8.11227273,2.88 7.64590909,3.36 6.94636364,3.36 C6.24681818,3.36 5.78045455,2.88 5.78045455,2.16 C5.78045455,1.44 6.24681818,0.96 6.94636364,0.96 C7.64590909,0.96 8.11227273,1.44 8.11227273,2.16 Z" id="Path" fill="#FECB15"></path>
                    <path d="M11.3768182,2.16 C11.3768182,2.88 10.9104545,3.36 10.2109091,3.36 C9.51136364,3.36 9.045,2.88 9.045,2.16 C9.045,1.44 9.51136364,0.96 10.2109091,0.96 C10.9104545,0.96 11.3768182,1.44 11.3768182,2.16 Z" id="Path" fill="#25B2C9"></path>
                    <rect id="Rectangle" fill="#E29616" x="4.14818182" y="9.12" width="4.43045455" height="1"></rect>
                    <rect id="Rectangle" fill="#F19B0F" x="4.14818182" y="21.36" width="5.13" height="1"></rect>
                    <rect id="Rectangle" fill="#F19B0F" x="4.14818182" y="27.12" width="3.49772727" height="1"></rect>
                    <rect id="Rectangle" fill="#0298AE" x="5.31409091" y="11.28" width="7.22863636" height="1"></rect>
                    <rect id="Rectangle" fill="#DFB815" x="5.31409091" y="23.28" width="6.52909091" height="1"></rect>
                    <rect id="Rectangle" fill="#FFFFFF" x="5.31409091" y="25.44" width="6.52909091" height="1"></rect>
                    <rect id="Rectangle" fill="#DFB815" x="12.3095455" y="25.44" width="10.7263636" height="1"></rect>
                    <rect id="Rectangle" fill="#F9392A" x="23.9686364" y="25.44" width="3.49772727" height="1"></rect>
                    <rect id="Rectangle" fill="#FFFFFF" x="28.8654545" y="23.28" width="6.76227273" height="1"></rect>
                    <rect id="Rectangle" fill="#0298AE" x="12.5427273" y="23.28" width="15.6231818" height="1"></rect>
                    <rect id="Rectangle" fill="#DFB815" x="13.2422727" y="11.28" width="4.19727273" height="1"></rect>
                    <rect id="Rectangle" fill="#DFB815" x="5.31409091" y="15.36" width="4.66363636" height="1"></rect>
                    <rect id="Rectangle" fill="#0298AE" x="10.6772727" y="15.36" width="7.695" height="1"></rect>
                    <rect id="Rectangle" fill="#FFFFFF" x="17.9059091" y="11.28" width="7.46181818" height="1"></rect>
                    <rect id="Rectangle" fill="#F83A2A" x="5.31409091" y="13.2" width="8.16136364" height="1"></rect>
                    <rect id="Rectangle" fill="#E29616" x="14.175" y="13.2" width="7.92818182" height="1"></rect>
                    <rect id="Rectangle" fill="#0298AE" x="23.0359091" y="13.2" width="5.59636364" height="1"></rect>
                    <rect id="Rectangle" fill="#F83A2A" x="5.31409091" y="17.28" width="9.79363636" height="1"></rect>
                    <rect id="Rectangle" fill="#DFB815" x="15.5740909" y="17.28" width="5.13" height="1"></rect>
                    <rect id="Rectangle" fill="#0298AE" x="5.31409091" y="19.2" width="9.79363636" height="1"></rect>
                    <rect id="Rectangle" fill="#FFFFFF" x="15.5740909" y="19.2" width="9.09409091" height="1"></rect>
                    <rect id="Rectangle" fill="#0298AE" x="21.6368182" y="17.28" width="10.0268182" height="1"></rect>
                    <rect id="Rectangle" fill="#DFB815" x="9.51136364" y="9.12" width="2.33181818" height="1"></rect>
                </g>
                <path d="M318.694889,206.424582 C318.694889,206.424582 330.073549,191.69131 322.874805,184.441605 C315.676061,177.1919 309.173969,180.699822 301.743008,193.562202 C295.240916,204.55369 287.809954,215.77904 283.862256,218.351516 C279.68234,220.923992 252.512887,221.859438 252.512887,221.859438 C252.512887,221.859438 249.261841,223.028745 249.261841,227.705975 C249.261841,232.383204 250.887364,234.721818 256.692803,234.721818 C262.498241,234.721818 273.412466,234.721818 282.701168,234.721818 C292.222088,234.721818 300.117485,230.980035 305.226271,224.198053 C310.102839,217.41607 318.694889,206.424582 318.694889,206.424582 Z" id="Path" fill="url(#linearGradient-13)"></path>
                <g id="Group" transform="translate(171.261841, 202.721818)">
                    <g transform="translate(2.416667, 14.097888)">
                        <path d="M17.6416667,15.2727118 C17.6416667,16.9174654 16.1916667,18.0922893 14.7416667,18.0922893 L3.14166667,18.0922893 C1.45,18.0922893 0.241666667,16.6825006 0.241666667,15.2727118 L0.241666667,0.70489439 L17.6416667,0.70489439 L17.6416667,15.2727118 Z" id="Path" fill="#F8981C"></path>
                        <path d="M22.475,3.28950715 C21.2666667,2.34964797 19.575,1.87971837 17.6416667,1.87971837 L17.6416667,4.22936634 C19.0916667,4.22936634 20.0583333,4.46433114 20.7833333,4.93426073 C21.5083333,5.63915512 21.75,6.57901431 21.75,7.98880309 C21.5083333,9.63355667 20.7833333,11.7482398 19.3333333,12.688099 C18.85,12.9230638 18.3666667,13.1580286 17.8833333,13.1580286 L17.8833333,15.2727118 C17.8833333,15.2727118 17.8833333,15.5076766 17.8833333,15.5076766 C19.0916667,15.5076766 20.0583333,15.2727118 21.025,14.8027822 C23.4416667,13.3929934 24.65,10.5734159 24.65,8.22376789 C24.4083333,6.10908471 23.925,4.22936634 22.475,3.28950715 Z" id="Path" fill="#F8851C"></path>
                        <path d="M17.6416667,1.87971837 L17.6416667,4.22936634 C17.8916667,4.22936634 18.1416667,4.22936634 18.6416667,4.22936634 L18.6416667,1.87971837 C18.1416667,1.87971837 17.8916667,1.87971837 17.6416667,1.87971837 Z M17.6416667,15.2727118 C17.6416667,15.2727118 17.6416667,15.5076766 17.6416667,15.5076766 C17.8916667,15.5076766 18.1416667,15.5076766 18.6416667,15.5076766 C18.6416667,15.5076766 18.6416667,15.2727118 18.6416667,15.2727118 L18.6416667,13.1580286 C18.3916667,13.1580286 18.1416667,13.3929934 17.6416667,13.1580286 L17.6416667,15.2727118 Z" id="Shape" fill="#F8851C" opacity="0.3"></path>
                        <path d="M2.41666667,18.0922893 C2.65833333,18.0922893 2.9,18.0922893 3.14166667,18.0922893 L5.8,18.0922893 L5.8,0.70489439 L2.41666667,0.70489439 L2.41666667,18.0922893 Z" id="Path" fill="#F8981C" opacity="0.3"></path>
                    </g>
                    <path d="M10.15,0.234964797 C9.90833333,0.234964797 9.66666667,0.469929593 9.66666667,0.70489439 C9.66666667,0.939859187 9.90833333,1.17482398 10.15,1.17482398 L21.5083333,1.17482398 C22.475,1.17482398 23.4416667,1.87971837 23.4416667,3.05454236 L23.4416667,3.52447195 C23.4416667,3.99440154 23.2,4.46433114 22.9583333,4.69929593 C22.7166667,4.93426073 22.2333333,5.16922553 21.75,5.16922553 L2.9,5.16922553 C1.20833333,5.16922553 0,6.10908471 0,7.2839087 C0,8.45873268 1.20833333,9.39859187 2.9,9.39859187 L8.21666667,9.39859187 C8.7,9.39859187 9.18333333,9.63355667 9.425,9.86852146 C9.66666667,10.1034863 9.90833333,10.3384511 9.90833333,10.8083806 L9.90833333,12.688099 C9.90833333,12.9230638 10.15,13.1580286 10.3916667,13.1580286 C10.6333333,13.1580286 10.875,12.9230638 10.875,12.688099 L10.875,10.8083806 C10.875,10.1034863 10.6333333,9.39859187 9.90833333,8.92866228 C9.425,8.45873268 8.7,8.22376789 7.73333333,8.22376789 L2.41666667,8.22376789 C1.45,8.22376789 0.483333333,7.75383829 0.483333333,7.2839087 C0.483333333,6.81397911 1.20833333,6.34404951 2.41666667,6.34404951 L21.2666667,6.34404951 C21.9916667,6.34404951 22.7166667,6.10908471 23.4416667,5.40419032 C23.925,4.93426073 24.4083333,4.22936634 24.4083333,3.28950715 L24.4083333,2.81957756 C24.4083333,1.17482398 22.9583333,0 21.5083333,0 L10.15,0 L10.15,0.234964797 Z" id="Path" fill="#FFFFFF"></path>
                </g>
                <g id="Group" transform="translate(307.261841, 37.721818)">
                    <path d="M52.5836288,26.524537 C52.5836288,41.2099537 40.7170492,52.8650463 26.2910114,52.8650463 C11.6322955,52.8650463 -0.00160606061,40.9768519 -0.00160606061,26.524537 C-0.00160606061,11.8391204 11.8649735,0.184027778 26.2910114,0.184027778 C40.9497273,0.184027778 52.5836288,11.8391204 52.5836288,26.524537 Z" id="Path" fill="#E3CCE3"></path>
                    <path d="M47.2320341,26.524537 C47.2320341,37.9465278 37.9249129,47.2706019 26.5236894,47.2706019 C15.1224659,47.2706019 5.8153447,37.9465278 5.8153447,26.524537 C5.8153447,15.1025463 15.1224659,5.77847222 26.5236894,5.77847222 C37.6922348,5.54537037 47.2320341,15.1025463 47.2320341,26.524537 Z" id="Path" fill="#D1BDD1" opacity="0.4"></path>
                    <path d="M44.9052538,26.524537 C44.9052538,36.7810185 36.5288447,45.1726852 26.2910114,45.1726852 C16.053178,45.1726852 7.67676894,36.7810185 7.67676894,26.524537 C7.67676894,16.2680556 16.053178,7.87638889 26.2910114,7.87638889 C36.5288447,7.87638889 44.9052538,16.2680556 44.9052538,26.524537 Z" id="Path" fill="#FAFAFA"></path>
                    <g opacity="0.6" transform="translate(9.403485, 2.331019)" fill="#D1BDD1" id="Path">
                        <path d="M9.67450758,1.81574074 C9.90718561,2.74814815 9.20915152,3.68055556 8.27843939,3.91365741 C6.41701515,4.61296296 4.78826894,5.54537037 3.39220076,6.71087963 C2.69416667,7.41018519 1.53077652,7.41018519 0.832742424,6.71087963 L0.832742424,6.71087963 C0.134708333,6.01157407 0.134708333,4.84606481 1.06542045,4.14675926 C2.9268447,2.5150463 4.78826894,1.34953704 7.11504924,0.650231481 C8.27843939,0.41712963 9.44182955,1.11643519 9.67450758,1.81574074 L9.67450758,1.81574074 Z" opacity="0.3"></path>
                    </g>
                    <g transform="translate(22.384470, 15.335648)" id="Path">
                        <g opacity="0.4" transform="translate(2.326780, 3.312500)" fill="#D1BDD1">
                            <g>
                                <path d="M15.0750871,0.184027778 L1.34708333,7.17708333 C0.881727273,7.41018519 0.649049242,7.87638889 0.881727273,8.34259259 C1.1144053,8.8087963 1.57976136,9.04189815 2.04511742,8.8087963 L15.7731212,1.81574074 C16.2384773,1.58263889 16.4711553,1.11643519 16.2384773,0.650231481 C16.0057992,0.184027778 15.3077652,-0.0490740741 15.0750871,0.184027778 Z"></path>
                            </g>
                        </g>
                        <g opacity="0.4" transform="translate(2.326780, 0.000000)" fill="#D1BDD1">
                            <g>
                                <path d="M0.881727273,0.932407407 L0.881727273,10.7226852 C0.881727273,11.1888889 1.34708333,11.6550926 1.81243939,11.6550926 C2.27779545,11.6550926 2.74315152,11.1888889 2.74315152,10.7226852 L2.74315152,0.932407407 C2.74315152,0.466203704 2.27779545,0 1.81243939,0 C1.1144053,0 0.881727273,0.466203704 0.881727273,0.932407407 Z"></path>
                            </g>
                        </g>
                        <path d="M2.51047348,8.62476852 C1.1144053,9.32407407 0.416371212,11.1888889 1.1144053,12.5875 C1.81243939,13.9861111 3.67386364,14.6854167 5.06993182,13.9861111 C6.466,13.2868056 7.16403409,11.4219907 6.466,10.0233796 C5.76796591,8.39166667 4.1392197,7.92546296 2.51047348,8.62476852 Z" fill="#D9B3D1"></path>
                        <path d="M3.20850758,9.79027778 C3.90654167,9.32407407 4.83725379,9.79027778 5.30260985,10.4895833 C5.76796591,11.1888889 5.30260985,12.1212963 4.60457576,12.5875 C3.90654167,13.0537037 2.97582955,12.5875 2.51047348,11.8881944 C2.04511742,11.1888889 2.51047348,10.2564815 3.20850758,9.79027778 Z" fill="#E3CCE3"></path>
                    </g>
                </g>
                <g id="Group" transform="translate(73.261841, 114.721818)">
                    <rect id="Rectangle" fill="#DEBFDE" x="18.4095136" y="4.48752228" width="7.80623684" height="38.2620321"></rect>
                    <rect id="Rectangle" fill="#E3CCE3" x="9.42051359" y="0.70855615" width="8.989" height="41.8048128"></rect>
                    <rect id="Rectangle" fill="#DEBFDE" x="34.7316452" y="10.8645276" width="7.80623684" height="31.6488414"></rect>
                    <rect id="Rectangle" fill="#E3CCE3" x="25.9791978" y="0.70855615" width="8.989" height="41.8048128"></rect>
                    <rect id="Rectangle" fill="#DEBFDE" x="49.8710136" y="4.48752228" width="7.80623684" height="38.2620321"></rect>
                    <rect id="Rectangle" fill="#E3CCE3" x="40.8820136" y="0.70855615" width="8.989" height="41.8048128"></rect>
                    <polygon id="Rectangle" fill="#DEBFDE" transform="translate(70.099634, 24.682518) rotate(-8.939565) translate(-70.099634, -24.682518) " points="66.1922194 6.84806975 73.9985366 6.8499302 74.0070495 42.5169663 66.2007323 42.5151059"></polygon>
                    <polygon id="Rectangle" fill="#E3CCE3" transform="translate(61.693547, 21.620020) rotate(-8.933905) translate(-61.693547, -21.620020) " points="57.1940846 0.715085426 66.1830379 0.717226412 66.1930104 42.5249551 57.204057 42.5228141"></polygon>
                    <rect id="Rectangle" fill="#E3CCE3" x="0.668066223" y="40.8600713" width="88.2341316" height="8.97504456"></rect>
                    <rect id="Rectangle" fill="#D9B3D1" x="73.7628294" y="40.8600713" width="14.9028158" height="8.97504456"></rect>
                    <polygon id="Path" fill="#D9B3D1" points="9.42051359 35.4278075 18.4095136 35.4278075 18.4095136 32.1212121 9.42051359 32.1212121"></polygon>
                    <path d="M25.9791978,17.9500891 L34.9681978,17.9500891 L34.9681978,13.9349376 L25.9791978,13.9349376 L25.9791978,17.9500891 Z M25.9791978,11.100713 L25.9791978,13.2263815 L34.9681978,13.2263815 L34.9681978,11.100713 L25.9791978,11.100713 Z" id="Shape" fill="#D9B3D1"></path>
                    <path d="M40.8820136,30.7040998 L49.8710136,30.7040998 L49.8710136,26.6889483 L40.8820136,26.6889483 L40.8820136,30.7040998 Z M40.8820136,23.6185383 L40.8820136,25.9803922 L49.8710136,25.9803922 L49.8710136,23.6185383 L40.8820136,23.6185383 Z" id="Shape" fill="#D9B3D1"></path>
                </g>
                <g id="Group" transform="translate(209.261841, 0.721818)" fill="#E3CCE3">
                    <g transform="translate(0.000000, 66.526407)" id="Path">
                        <path d="M63.570989,27.8122294 C63.570989,27.8122294 63.570989,27.8122294 63.570989,27.8122294 C63.570989,12.5963203 49.4347253,0.423593074 32,0.423593074 C14.5652747,0.423593074 0.429010989,12.5963203 0.429010989,27.5781385 C0.429010989,27.5781385 0.429010989,27.8122294 0.429010989,27.8122294 L63.570989,27.8122294 Z"></path>
                        <path d="M24.6962637,28.982684 C24.6962637,28.982684 24.6962637,28.982684 24.6962637,28.982684 C24.6962637,33.1963203 27.9947253,36.2395022 32,36.2395022 C36.0052747,36.2395022 39.3037363,32.9622294 39.3037363,28.982684 C39.3037363,28.982684 39.3037363,28.982684 39.3037363,28.982684 L24.6962637,28.982684 Z"></path>
                    </g>
                    <rect id="Rectangle" x="31.2931868" y="0" width="1.17802198" height="69.525"></rect>
                </g>
                <path d="M426.967723,102.721818 L381.555959,102.721818 C377.555959,102.721818 374.497135,106.036104 374.497135,109.823859 L374.497135,151.015696 L371.438312,154.566716 L370.261841,160.721818 L374.967723,160.721818 L374.967723,160.721818 C376.379488,160.248349 382.967723,146.991206 390.497135,146.991206 L427.203017,146.991206 C431.203017,146.991206 434.261841,143.913655 434.261841,139.889165 L434.261841,109.823859 C434.026547,106.036104 430.732429,102.721818 426.967723,102.721818 Z" id="Path" fill="#178C80"></path>
                <path d="M428.261841,139.840683 C428.261841,143.859924 425.190975,146.93346 421.175227,146.93346 L384.324833,146.93346 C375.584676,146.93346 368.261841,163.956124 368.261841,160.17331 L368.261841,109.814595 C368.261841,106.031781 371.332707,102.721818 375.348455,102.721818 L420.939006,102.721818 C424.954754,102.721818 428.02562,106.031781 428.02562,109.814595 L428.02562,139.840683 L428.261841,139.840683 Z" id="Path" fill="#17BB99"></path>
                <g id="Group" transform="translate(379.261841, 115.721818)" fill="#FFFFFF">
                    <polygon id="Path" points="12.0683333 13.775 12.0683333 16.625 0.655416667 10.6875 0.655416667 8.075 12.0683333 2.1375 12.0683333 4.9875 3.91625 9.2625"></polygon>
                    <polygon id="Path" points="15.3291667 17.8125 21.8508333 0.2375 24.18 0.2375 17.6583333 17.8125"></polygon>
                    <polygon id="Path" points="27.2079167 4.9875 27.2079167 2.1375 38.6208333 8.075 38.6208333 10.6875 27.2079167 16.625 27.2079167 13.775 35.36 9.5"></polygon>
                </g>
                <path d="M463.261841,243.346818 C463.261841,244.034318 462.573316,244.721818 461.884792,244.721818 L436.63889,244.721818 C435.950366,244.721818 435.261841,244.034318 435.261841,243.346818 L435.261841,235.096818 C435.261841,234.409318 435.950366,233.721818 436.63889,233.721818 L461.884792,233.721818 C462.573316,233.721818 463.261841,234.409318 463.261841,235.096818 L463.261841,243.346818 Z" id="Path" fill="#E8DBE0"></path>
                <path d="M42.2618409,219.346818 C42.2618409,220.034318 41.5733163,220.721818 40.8847917,220.721818 L15.6388901,220.721818 C14.9503655,220.721818 14.2618409,220.034318 14.2618409,219.346818 L14.2618409,211.096818 C14.2618409,210.409318 14.9503655,209.721818 15.6388901,209.721818 L40.8847917,209.721818 C41.5733163,209.721818 42.2618409,210.409318 42.2618409,211.096818 L42.2618409,219.346818 Z" id="Path" fill="#E8DBE0"></path>
                <path d="M73.2618409,219.346818 C73.2618409,220.034318 72.5733163,220.721818 71.8847917,220.721818 L46.6388901,220.721818 C45.9503655,220.721818 45.2618409,220.034318 45.2618409,219.346818 L45.2618409,211.096818 C45.2618409,210.409318 45.9503655,209.721818 46.6388901,209.721818 L71.8847917,209.721818 C72.5733163,209.721818 73.2618409,210.409318 73.2618409,211.096818 L73.2618409,219.346818 Z" id="Path" fill="#E8DBE0"></path>
                <path d="M106.261841,219.346818 C106.261841,220.034318 105.573316,220.721818 104.884792,220.721818 L79.6388901,220.721818 C78.9503655,220.721818 78.2618409,220.034318 78.2618409,219.346818 L78.2618409,211.096818 C78.2618409,210.409318 78.9503655,209.721818 79.6388901,209.721818 L104.884792,209.721818 C105.573316,209.721818 106.261841,210.409318 106.261841,211.096818 L106.261841,219.346818 Z" id="Path" fill="#E8DBE0"></path>
                <path d="M57.2618409,233.346818 C57.2618409,234.034318 56.5733163,234.721818 55.8847917,234.721818 L30.6388901,234.721818 C29.9503655,234.721818 29.2618409,234.034318 29.2618409,233.346818 L29.2618409,225.096818 C29.2618409,224.409318 29.9503655,223.721818 30.6388901,223.721818 L55.8847917,223.721818 C56.5733163,223.721818 57.2618409,224.409318 57.2618409,225.096818 L57.2618409,233.346818 Z" id="Path" fill="#E8DBE0"></path>
                <path d="M89.2618409,233.346818 C89.2618409,234.034318 88.5733163,234.721818 87.8847917,234.721818 L62.6388901,234.721818 C61.9503655,234.721818 61.2618409,234.034318 61.2618409,233.346818 L61.2618409,225.096818 C61.2618409,224.409318 61.9503655,223.721818 62.6388901,223.721818 L87.8847917,223.721818 C88.5733163,223.721818 89.2618409,224.409318 89.2618409,225.096818 L89.2618409,233.346818 Z" id="Path" fill="#E8DBE0"></path>
                <path d="M433.261841,258.346818 C433.261841,259.034318 432.573316,259.721818 431.884792,259.721818 L406.63889,259.721818 C405.950366,259.721818 405.261841,259.034318 405.261841,258.346818 L405.261841,250.096818 C405.261841,249.409318 405.950366,248.721818 406.63889,248.721818 L431.884792,248.721818 C432.573316,248.721818 433.261841,249.409318 433.261841,250.096818 L433.261841,258.346818 Z" id="Path" fill="#E8DBE0"></path>
                <path d="M293.261841,118.346818 C293.261841,119.034318 292.573316,119.721818 291.884792,119.721818 L266.63889,119.721818 C265.950366,119.721818 265.261841,119.034318 265.261841,118.346818 L265.261841,110.096818 C265.261841,109.409318 265.950366,108.721818 266.63889,108.721818 L291.884792,108.721818 C292.573316,108.721818 293.261841,109.409318 293.261841,110.096818 L293.261841,118.346818 Z" id="Path" fill="#E8DBE0"></path>
                <path d="M324.261841,118.346818 C324.261841,119.034318 323.573316,119.721818 322.884792,119.721818 L297.63889,119.721818 C296.950366,119.721818 296.261841,119.034318 296.261841,118.346818 L296.261841,110.096818 C296.261841,109.409318 296.950366,108.721818 297.63889,108.721818 L322.884792,108.721818 C323.573316,108.721818 324.261841,109.409318 324.261841,110.096818 L324.261841,118.346818 Z" id="Path" fill="#E8DBE0"></path>
                <g id="Group" transform="translate(0.261841, 269.721818)">
                    <path d="M30.4990704,59.1576087 L17.5771246,58.9217391 C11.2336239,50.1945652 5.82990113,39.1086957 2.77562303,25.1923913 L12.8782352,24.4847826 L1.83584515,20.7108696 C0.661122808,14.3423913 -0.0437105989,7.50217391 0.19123387,0.190217391 C0.19123387,0.190217391 18.281958,1.60543478 36.842571,11.276087 L37.7823489,20.0032609 L39.4269602,12.6913043 C50.4693503,18.823913 61.5117403,28.2586957 68.3251299,41.9391304 L65.0359073,55.8554348 L70.6745746,46.8923913 C73.0240193,52.5532609 74.6686306,58.9217391 75.373464,66.2336957 C75.8433529,80.15 75.373464,88.4054348 75.373464,88.4054348 L54.2284618,88.4054348 C54.2284618,88.4054348 35.6678487,81.5652174 20.3964582,62.4597826 L30.4990704,59.1576087 Z" id="Path" fill="#52C7A3"></path>
                    <path d="M71.379408,72.8380435 C72.3191859,64.5826087 74.6686306,57.9782609 78.1927976,52.3173913 L81.2470757,58.9217391 L80.3072978,49.4869565 C86.885743,40.523913 95.8136328,34.8630435 104.036689,31.325 L104.741523,37.2217391 L106.386134,30.3815217 C116.488746,26.6076087 124.946747,25.9 124.946747,25.9 C124.946747,36.2782609 123.302136,45.0054348 120.482802,52.5532609 L115.079079,54.2043478 L119.543024,54.676087 C115.314024,65.0543478 109.205468,72.6021739 103.331856,77.7913043 L92.7593547,78.2630435 L99.5727443,80.8576087 C92.2894657,86.5184783 86.415854,88.6413043 86.415854,88.6413043 L71.379408,88.6413043 C71.379408,88.6413043 70.9095191,82.5086957 71.379408,72.8380435 Z" id="Path" fill="#78C7C7"></path>
                    <path d="M108.970523,41.9391304 C112.259746,38.8728261 119.073135,31.5608696 119.073135,31.5608696 C119.073135,31.5608696 110.850079,36.9858696 107.560856,40.0521739 C80.0723534,65.9978261 74.4336861,87.4619565 74.1987416,88.4054348 L75.373464,88.6413043 L76.5481863,88.6413043 C77.4879642,86.0467391 84.0664093,65.7619565 108.970523,41.9391304 Z" id="Path" fill="#FFFFFF" opacity="0.25"></path>
                    <path d="M67.855241,88.6413043 L70.2046857,88.6413043 C68.0901854,81.801087 55.4031841,43.826087 16.8722912,12.9271739 C13.5830686,10.3326087 6.0648456,6.32282609 6.0648456,6.32282609 C6.0648456,6.32282609 11.9384573,11.9836957 15.2276799,14.5782609 C52.348906,43.826087 65.2708518,80.15 67.855241,88.6413043 Z" id="Path" fill="#FFFFFF" opacity="0.21"></path>
                    <path d="M95.5786883,89.5847826 C95.5786883,90.0565217 95.1087994,90.5282609 94.6389104,90.5282609 L46.7102387,90.5282609 C46.2403498,90.5282609 45.7704609,90.0565217 45.7704609,89.5847826 L45.7704609,89.5847826 C45.7704609,89.1130435 46.2403498,88.6413043 46.7102387,88.6413043 L94.6389104,88.6413043 C95.1087994,88.6413043 95.5786883,88.8771739 95.5786883,89.5847826 L95.5786883,89.5847826 Z" id="Path" fill="#E8DBE0"></path>
                </g>
            </g>
        </g>
    </g>
</svg>