<?xml version="1.0" encoding="UTF-8"?>
<svg width="1442px" height="809px" viewBox="0 0 1442 809" version="1.1" xmlns="http://www.w3.org/2000/svg" xmlns:xlink="http://www.w3.org/1999/xlink">
    <title>Group 2</title>
    <defs>
        <polygon id="path-1" points="0.566907921 0.136324 102.67115 0.136324 102.67115 172.402903 0.566907921 172.402903"></polygon>
        <polygon id="path-3" points="0.405391531 0.217802985 99.8931946 0.217802985 99.8931946 115.255522 0.405391531 115.255522"></polygon>
        <polygon id="path-5" points="0.56145283 0.298081184 90.6694461 0.298081184 90.6694461 153.895551 0.56145283 153.895551"></polygon>
        <polygon id="path-7" points="0.564818182 0.099125641 75.5218909 0.099125641 75.5218909 66.4772282 0.564818182 66.4772282"></polygon>
        <polygon id="path-9" points="0.564818182 0.632241762 56.5809636 0.632241762 56.5809636 38.443188 0.564818182 38.443188"></polygon>
        <polygon id="path-11" points="0.545 0.548236364 3.78666667 0.548236364 3.78666667 18.2044182 0.545 18.2044182"></polygon>
        <polygon id="path-13" points="0.56203125 0.28503125 54.390875 0.28503125 54.390875 25.2853437 0.56203125 25.2853437"></polygon>
        <polygon id="path-15" points="0.404941144 0.589535484 99.8927442 0.589535484 99.8927442 106.257903 0.404941144 106.257903"></polygon>
        <polygon id="path-17" points="0.389327676 0.592725 87.1737337 0.592725 87.1737337 34.2475 0.389327676 34.2475"></polygon>
    </defs>
    <g id="Page-1" stroke="none" stroke-width="1" fill="none" fill-rule="evenodd">
        <g id="AB2D-Overview-page" transform="translate(1.000000, 3.000000)">
            <g id="Group-2" transform="translate(-0.577258, -3.000000)">
                <polygon id="Fill-3" points="0.57725793 809 1440.57726 809 1440.57726 0 0.57725793 0"></polygon>
                <g id="Group-212" transform="translate(0.000000, 53.000000)">
                    <path d="M1346.73055,81.3275395 L1339.81697,64.4345025 L1332.7226,47.1029564 C1331.44484,43.98293 1328.92794,41.7416618 1325.97049,40.6819318 C1325.96523,40.6801916 1325.95996,40.6784515 1325.95645,40.6767114 C1325.60191,40.549683 1325.2421,40.4417959 1324.87703,40.3495698 C1324.85597,40.3443494 1324.83666,40.3391291 1324.81911,40.3339087 C1324.47158,40.2503832 1324.12231,40.1807786 1323.76777,40.1285752 C1323.72915,40.1216147 1323.68703,40.1146542 1323.64666,40.1094339 C1323.31669,40.0624508 1322.98496,40.034609 1322.64797,40.0172078 C1322.58479,40.0137276 1322.5216,40.0085072 1322.45841,40.005027 C1322.14775,39.9945863 1321.83533,40.0015468 1321.52467,40.0154677 C1321.43691,40.020688 1321.35091,40.0189479 1321.26315,40.0259084 C1320.97004,40.0450496 1320.67692,40.0833322 1320.38381,40.1268351 C1320.28201,40.1424961 1320.17846,40.1494565 1320.07666,40.1685978 C1319.78881,40.2190612 1319.50272,40.2886658 1319.21663,40.3617506 C1319.11308,40.3895924 1319.00601,40.4052535 1318.90246,40.4365755 C1318.51632,40.5462028 1318.13194,40.6767114 1317.75107,40.8298415 C1311.87128,43.196398 1309.03669,49.8401574 1311.42371,55.671283 L1318.51983,73.0045692 L1325.43341,89.8958661 C1325.62999,90.3761379 1325.86518,90.8268277 1326.11793,91.2653367 C1326.18111,91.374964 1326.24605,91.4845912 1326.31275,91.5924783 C1326.56549,91.9979251 1326.83403,92.3859708 1327.1289,92.751395 C1327.1447,92.7705362 1327.15874,92.7914176 1327.17278,92.8105589 C1327.49046,93.1968644 1327.83799,93.553588 1328.2013,93.8929105 C1328.27678,93.9642552 1328.354,94.0321197 1328.43123,94.0999841 C1328.79104,94.4166851 1329.16313,94.7159849 1329.55804,94.9874428 C1329.56858,94.9944033 1329.57911,95.0013638 1329.58788,95.0083242 C1330.01263,95.2954432 1330.45669,95.5477599 1330.91303,95.775715 C1330.9727,95.8052969 1331.03589,95.8331388 1331.09732,95.8644608 C1332.0258,96.3064501 1333.0122,96.6283713 1334.03195,96.8128235 C1334.06881,96.8180439 1334.10567,96.8232642 1334.14253,96.8302247 C1334.65854,96.9189706 1335.17983,96.9763944 1335.70638,96.9937955 C1337.26672,97.0442588 1338.86391,96.7884619 1340.40495,96.168981 C1346.28474,93.8024245 1349.11757,87.1586651 1346.73055,81.3275395" id="Fill-1" fill="#000000" opacity="0.299827939"></path>
                    <path d="M1423.61585,64.1521306 C1426.1283,58.3447813 1423.54697,51.561643 1417.84703,49.001074 L1401.33958,41.5843748 L1384.40335,33.9728687 C1381.73247,32.7724375 1378.85495,32.725052 1376.28911,33.5990502 L1376.28739,33.6008052 C1375.92748,33.7219013 1375.57274,33.8640576 1375.22317,34.0237641 C1375.21973,34.0255192 1375.21628,34.0272742 1375.21284,34.0290292 C1374.8736,34.1852256 1374.54641,34.3554622 1374.22439,34.545004 C1374.20889,34.5537791 1374.19167,34.5643092 1374.17445,34.5730843 C1373.87137,34.753851 1373.5769,34.9469028 1373.28932,35.1575047 C1373.26005,35.1785649 1373.22561,35.2013801 1373.19461,35.2259504 C1372.92942,35.4225122 1372.67628,35.6331142 1372.42658,35.8542462 C1372.38009,35.8946116 1372.33187,35.934977 1372.28365,35.9770974 C1372.05979,36.1859443 1371.84454,36.4070764 1371.63272,36.6369835 C1371.57418,36.6984091 1371.5139,36.7598347 1371.45708,36.8230153 C1371.26593,37.0423923 1371.08512,37.2740545 1370.90947,37.5092267 C1370.84575,37.5917125 1370.77859,37.6689332 1370.72005,37.753174 C1370.55129,37.9918562 1370.39802,38.2428235 1370.24476,38.4973009 C1370.19138,38.5885618 1370.12939,38.6710475 1370.07773,38.7640634 C1369.88141,39.1133117 1369.69888,39.4748451 1369.53873,39.8504186 C1367.02628,45.6577678 1369.60761,52.4409062 1375.30411,55.0014751 L1392.24206,62.6129812 L1408.7495,70.0314355 C1409.21962,70.2420374 1409.69663,70.405254 1410.17535,70.5474103 C1410.29762,70.5825106 1410.41816,70.6158559 1410.53698,70.6456912 C1410.99504,70.7650323 1411.45482,70.8598032 1411.91461,70.9177187 C1411.93872,70.9212288 1411.95938,70.9264938 1411.98177,70.9300039 C1412.47255,70.9896744 1412.96333,71.0054696 1413.45411,70.9984495 C1413.55571,70.9966945 1413.65731,70.9914294 1413.75719,70.9879194 C1414.23075,70.9686142 1414.69742,70.9247388 1415.16065,70.8457631 C1415.17442,70.8440081 1415.18648,70.8440081 1415.19853,70.842253 C1415.69448,70.7545022 1416.18182,70.626386 1416.66054,70.4754546 C1416.72426,70.4543944 1416.78625,70.4315792 1416.84824,70.408764 C1417.81086,70.084086 1418.72526,69.6312917 1419.57078,69.0538913 C1419.60178,69.0328311 1419.63278,69.0117709 1419.66205,68.9907107 C1420.08567,68.695868 1420.4938,68.3747 1420.87437,68.0201867 L1420.87609,68.0201867 C1422.01091,66.9689319 1422.95803,65.6737298 1423.61585,64.1521306" id="Fill-3" fill="#000000" opacity="0.299827939"></path>
                    <path d="M1428.36441,147.79477 L1428.80998,145.544673 L1429.49135,142.094525 L1434.46376,143.085947 L1438.18614,124.593773 L1407.64081,118.512478 L1404.3224,117.85038 L1386.77331,114.355402 L1385.63596,114.131255 L1365.90581,110.201776 L1362.58566,109.539678 L1359.86887,109 L1356.14649,127.492174 L1361.17612,128.493941 L1360.0041,134.407988 C1351.34052,135.011462 1344.08128,140.391004 1342.54863,148.127543 L1339.56137,163.21095 L1338.42923,168.938782 L1331.50287,203.917871 L1331.5046,203.917871 L1327.86718,222.27728 C1325.97565,231.832863 1333.5383,241.360859 1344.75744,243.557505 L1400.86529,254.544184 C1412.08443,256.742554 1422.71409,250.77678 1424.60562,241.221198 L1426.98607,229.199991 L1428.24131,222.860064 L1435.17634,187.839594 L1439.28708,167.07146 C1440.81972,159.333197 1436.15071,151.619072 1428.36441,147.79477" id="Fill-5" fill="#000000" opacity="0.299827939"></path>
                    <path d="M1193.71984,141.950037 C1193.73996,142.102668 1193.76345,142.253622 1193.78861,142.404575 C1193.89093,143.033548 1194.02009,143.65749 1194.20124,144.268013 C1194.2046,144.2764 1194.20628,144.284786 1194.20795,144.291495 C1194.39247,144.910405 1194.62898,145.509187 1194.89233,146.097906 C1194.95439,146.238796 1195.01981,146.378009 1195.0869,146.517222 C1195.36367,147.089168 1195.66392,147.649374 1196.01114,148.186098 C1196.01617,148.192807 1196.01953,148.201193 1196.02456,148.206225 C1196.37513,148.746303 1196.77435,149.254514 1197.19537,149.745951 C1197.29937,149.868392 1197.40505,149.987477 1197.5124,150.103208 C1197.94684,150.581228 1198.40309,151.040798 1198.8996,151.460113 C1198.9063,151.465145 1198.91134,151.470177 1198.91637,151.475209 C1199.41791,151.897879 1199.96138,152.275263 1200.52498,152.634197 C1200.66588,152.724769 1200.80678,152.810309 1200.95103,152.894172 C1201.53309,153.238011 1202.13191,153.558368 1202.771,153.82673 C1205.63597,155.029327 1208.66197,155.275885 1211.49507,154.710647 C1212.43943,154.524471 1213.36199,154.246046 1214.25101,153.88208 C1215.58285,153.338647 1216.83753,152.604006 1217.97144,151.696607 C1219.37206,150.572842 1220.57642,149.174005 1221.51911,147.55377 L1221.52917,147.558802 C1221.55433,147.511838 1221.57614,147.463198 1221.60298,147.417912 C1221.64659,147.340758 1221.69859,147.268635 1221.7422,147.189804 C1221.82607,147.033819 1221.89317,146.866092 1221.97368,146.706752 C1221.97703,146.700043 1221.98039,146.695012 1221.98374,146.688303 L1221.99549,146.693334 C1222.03742,146.611149 1222.07265,146.525608 1222.1129,146.441745 C1222.12968,146.403168 1222.15316,146.367946 1222.17161,146.329369 C1222.18168,146.30421 1222.19174,146.275696 1222.20013,146.24886 C1222.27058,146.102938 1222.3427,145.958694 1222.40812,145.806063 C1222.53393,145.502478 1222.64799,145.197217 1222.75366,144.890278 L1222.75031,144.8886 C1222.7956,144.757774 1222.83921,144.62527 1222.88114,144.494444 C1222.92643,144.353554 1222.96334,144.212664 1223.00359,144.070096 C1223.08914,143.766512 1223.1663,143.46125 1223.23172,143.155989 C1223.26694,142.993294 1223.30049,142.8306 1223.33068,142.669583 C1223.38436,142.369353 1223.42629,142.067445 1223.4632,141.767216 C1223.48165,141.616262 1223.50345,141.466986 1223.51687,141.316032 C1223.55545,140.893362 1223.57558,140.470692 1223.57726,140.049699 C1223.57726,139.890359 1223.56384,139.734374 1223.56048,139.576711 C1223.5521,139.299963 1223.54036,139.023215 1223.51855,138.748144 C1223.5001,138.550227 1223.47661,138.350633 1223.45313,138.154393 C1223.42294,137.919576 1223.38771,137.68476 1223.34746,137.449943 C1223.31223,137.250349 1223.27701,137.050754 1223.23339,136.85116 C1223.22165,136.797488 1223.21494,136.743815 1223.2032,136.688466 C1223.2032,136.700207 1223.20152,136.711947 1223.20152,136.723688 C1222.17329,132.149794 1219.0349,128.124365 1214.3852,126.172032 C1207.05168,123.092579 1198.66979,126.291118 1195.17413,133.31046 L1195.16071,133.305428 C1195.01478,133.595594 1194.87555,133.889115 1194.74975,134.1927 C1194.68601,134.345331 1194.63233,134.497961 1194.57698,134.650592 C1194.56356,134.677429 1194.55182,134.702587 1194.54008,134.727746 C1194.52498,134.769678 1194.51659,134.809932 1194.49982,134.850187 C1194.46963,134.935727 1194.43272,135.021267 1194.40253,135.108485 L1194.41595,135.113517 L1194.40756,135.136998 C1194.32034,135.390265 1194.23479,135.641854 1194.16266,135.895121 C1194.14757,135.947116 1194.12744,135.995757 1194.11234,136.046074 L1194.12241,136.051106 C1193.76345,137.361048 1193.57726,138.686085 1193.57726,139.997704 C1193.57726,139.996027 1193.57726,139.994349 1193.57726,139.994349 C1193.57726,139.997704 1193.57726,139.999381 1193.57726,140.002736 C1193.57726,140.656868 1193.63429,141.305968 1193.71984,141.950037" id="Fill-7" fill="#000000" opacity="0.299827939"></path>
                    <path d="M1294.79318,135.001072 C1288.95821,129.586639 1279.98249,129.712517 1274.28181,135.105131 L1274.27174,135.096739 C1274.03673,135.318285 1273.80508,135.548222 1273.58014,135.789907 C1273.46767,135.909072 1273.36695,136.03495 1273.26119,136.15915 C1273.24105,136.17929 1273.21923,136.199431 1273.19908,136.22125 C1273.17223,136.253139 1273.14873,136.290063 1273.12019,136.321952 C1273.06144,136.392444 1272.99765,136.459579 1272.93889,136.53007 L1272.95065,136.54014 C1272.94393,136.546854 1272.93889,136.553567 1272.93554,136.560281 C1272.76599,136.766721 1272.59813,136.974839 1272.44202,137.187993 C1272.4118,137.229952 1272.37487,137.271911 1272.34465,137.313871 L1272.35137,137.320584 C1271.56576,138.426632 1270.93459,139.608207 1270.48304,140.840134 L1270.48304,140.838455 C1270.48304,140.840134 1270.48304,140.841812 1270.48136,140.845169 C1270.25642,141.46281 1270.08688,142.0922 1269.94587,142.726626 C1269.9123,142.874322 1269.88208,143.023698 1269.85354,143.174751 C1269.73436,143.800785 1269.64203,144.430175 1269.60175,145.062922 C1269.60175,145.072992 1269.60007,145.084741 1269.59839,145.096489 C1269.55978,145.737628 1269.57825,146.382123 1269.62021,147.02494 C1269.63196,147.179351 1269.64539,147.333761 1269.6605,147.486493 C1269.72261,148.11924 1269.81158,148.74863 1269.95594,149.371307 C1269.95762,149.37802 1269.95762,149.38809 1269.9593,149.398161 C1270.10534,150.024194 1270.3051,150.640157 1270.53172,151.247728 C1270.58711,151.397104 1270.64586,151.543122 1270.7063,151.690819 C1270.9497,152.289998 1271.22164,152.877429 1271.54562,153.444719 C1271.5473,153.451433 1271.55065,153.456468 1271.55401,153.461503 C1271.87967,154.030472 1272.26072,154.574265 1272.66695,155.106309 C1272.76767,155.237222 1272.87175,155.366457 1272.9775,155.495692 C1273.40556,156.017666 1273.85879,156.526213 1274.3691,156.997836 C1279.95563,162.184011 1288.43111,162.289748 1294.14355,157.548343 L1294.15194,157.555056 C1294.1939,157.521489 1294.22916,157.484565 1294.26944,157.449319 C1294.47256,157.276446 1294.66728,157.093504 1294.86201,156.910561 C1294.86872,156.903847 1294.87376,156.900491 1294.88047,156.893777 L1294.88886,156.903847 C1294.95601,156.840069 1295.0198,156.771256 1295.08527,156.707478 C1295.11548,156.677267 1295.14905,156.650413 1295.17759,156.621881 C1295.19773,156.600062 1295.2162,156.578243 1295.23466,156.558102 C1295.35049,156.440616 1295.468,156.331522 1295.58047,156.210679 C1295.8054,155.968993 1296.01691,155.720594 1296.22171,155.468838 L1296.21164,155.458768 C1296.4584,155.154982 1296.69173,154.844483 1296.91331,154.52727 C1296.99892,154.401392 1297.08621,154.273836 1297.17014,154.14628 C1297.54952,153.563884 1297.89196,152.964705 1298.18069,152.345385 C1298.2109,152.279928 1298.2344,152.212793 1298.26294,152.147337 C1298.53152,151.551514 1298.75143,150.943943 1298.93776,150.32798 C1298.96797,150.227277 1299.00155,150.13161 1299.0284,150.030908 C1299.21473,149.366272 1299.35238,148.693244 1299.44471,148.015181 C1299.44806,147.981613 1299.45982,147.951403 1299.46317,147.916157 C1299.45982,147.927905 1299.45478,147.937976 1299.44974,147.948046 C1300.05741,143.297273 1298.49124,138.435024 1294.79318,135.001072" id="Fill-9" fill="#000000" opacity="0.299827939"></path>
                    <path d="M1249.09027,186.412019 C1241.34686,188.259183 1236.46777,195.793802 1237.79415,203.523036 L1237.78072,203.526391 C1237.83613,203.846835 1237.89825,204.167278 1237.9738,204.486044 C1238.01242,204.647105 1238.06111,204.801455 1238.10644,204.95916 C1238.11148,204.986003 1238.11652,205.014525 1238.12155,205.041368 C1238.13331,205.083311 1238.1501,205.120221 1238.16185,205.162163 C1238.18703,205.251082 1238.20886,205.341679 1238.23572,205.430598 L1238.24916,205.427242 C1238.25083,205.433953 1238.25419,205.440664 1238.25587,205.449053 C1238.33478,205.704065 1238.41537,205.959078 1238.50772,206.209058 C1238.52619,206.257711 1238.53794,206.309721 1238.55641,206.360052 L1238.56648,206.356697 C1239.0517,207.626727 1239.683,208.806161 1240.45868,209.864799 L1240.457,209.863121 C1240.45868,209.864799 1240.46036,209.864799 1240.46204,209.866477 C1240.84988,210.396635 1241.28138,210.886528 1241.73134,211.356288 C1241.83712,211.467017 1241.94289,211.574391 1242.05203,211.681765 C1242.50703,212.128037 1242.9805,212.554177 1243.48587,212.940051 C1243.49426,212.943406 1243.50098,212.951795 1243.50937,212.958506 C1244.02314,213.347736 1244.5688,213.691667 1245.12958,214.010433 C1245.2639,214.087608 1245.39822,214.161428 1245.53421,214.233569 C1246.09667,214.53388 1246.67255,214.810703 1247.27195,215.037195 C1247.27698,215.037195 1247.2837,215.04055 1247.29042,215.043906 C1247.89317,215.270397 1248.51607,215.446557 1249.14736,215.595874 C1249.30182,215.631106 1249.45797,215.666338 1249.61411,215.696537 C1250.24708,215.824043 1250.88845,215.926384 1251.53989,215.971682 C1251.54493,215.971682 1251.55165,215.97336 1251.55836,215.97336 C1252.21316,216.016981 1252.87635,216.003559 1253.54291,215.958261 C1253.70912,215.946517 1253.87534,215.934773 1254.04156,215.917995 C1254.71315,215.850887 1255.38809,215.755257 1256.06304,215.594196 C1263.48074,213.824207 1268.27084,206.834845 1267.49516,199.454576 L1267.50523,199.451221 C1267.50019,199.399212 1267.48844,199.34888 1267.4834,199.296871 C1267.4515,199.031792 1267.40785,198.768391 1267.36252,198.503312 C1267.36084,198.496601 1267.36084,198.488213 1267.35916,198.481502 L1267.37259,198.478146 C1267.3558,198.38755 1267.33398,198.296953 1267.31719,198.204679 C1267.30879,198.164413 1267.30711,198.122471 1267.29872,198.080528 C1267.29032,198.053684 1267.28193,198.026841 1267.27521,197.99832 C1267.24499,197.840614 1267.21645,197.679554 1267.17783,197.518493 C1267.10228,197.199727 1267.01329,196.884317 1266.91759,196.575617 L1266.90248,196.578973 C1266.78831,196.203164 1266.65903,195.835745 1266.51632,195.476714 C1266.45923,195.334108 1266.4055,195.19318 1266.34338,195.05393 C1266.06803,194.416398 1265.7591,193.797321 1265.40484,193.215154 C1265.36622,193.153078 1265.32257,193.092681 1265.28395,193.030605 C1264.93808,192.481992 1264.55696,191.9619 1264.14729,191.466975 C1264.08013,191.386444 1264.01801,191.302558 1263.94917,191.222028 C1263.49921,190.701936 1263.01566,190.213721 1262.5019,189.760738 C1262.47671,189.738928 1262.45656,189.712084 1262.43138,189.690274 C1262.4381,189.698663 1262.44481,189.708729 1262.45153,189.718795 C1258.91561,186.635155 1254.00126,185.240974 1249.09027,186.412019" id="Fill-11" fill="#000000" opacity="0.299827939"></path>
                    <path d="M1326.57726,55.6946902 L1319.78373,38.8934735 C1317.49794,33.2413424 1311.07922,30.5190089 1305.44708,32.8146074 C1299.81494,35.1068324 1297.10224,41.5483389 1299.38804,47.20047 L1306.18156,64 L1326.57726,55.6946902 Z" id="Fill-13" fill="#4675AB"></path>
                    <path d="M1305.57726,63.4173652 L1312.23885,80.0127715 C1314.54056,85.7411612 1320.99752,88.5002244 1326.6647,86.1753632 C1332.33187,83.850502 1335.06145,77.323796 1332.76143,71.5936969 L1326.09984,55 L1305.57726,63.4173652 Z" id="Fill-15" fill="#FF787F"></path>
                    <path d="M1309.74364,62.6166769 L1303.86449,48.2874744 C1301.5449,42.6344066 1304.29771,36.1918325 1310.01312,33.8992276 C1311.50892,33.296976 1313.061,33.04899 1314.57726,33.0979124 C1311.8398,31.7989383 1308.58384,31.5897529 1305.5479,32.809439 C1299.8325,35.1020439 1297.07969,41.546305 1299.40098,47.1976858 L1306.29495,64 L1309.74364,62.6166769 Z" id="Fill-17" fill="#3D699A"></path>
                    <path d="M1322.57726,87 C1320.11744,85.8344629 1318.06557,83.8131718 1316.95978,81.1226809 L1309.08732,62 L1305.57726,63.4034367 L1312.4151,80.0187581 C1314.15798,84.2513179 1318.22701,86.8562333 1322.57726,87" id="Fill-19" fill="#F56E7C"></path>
                    <path d="M1388.57726,33.4115148 L1372.035,25.9593148 C1366.4699,23.4523377 1359.96971,26.0280462 1357.51596,31.715568 C1355.0622,37.3996532 1357.58491,44.0425412 1363.15001,46.5495183 L1379.69227,54 L1388.57726,33.4115148 Z" id="Fill-21" fill="#4675AB"></path>
                    <path d="M1379.57726,54.0091271 L1395.91371,61.0679303 C1401.55291,63.5043613 1408.13964,60.9994631 1410.62606,55.4736576 C1413.11249,49.9478521 1410.55619,43.4935643 1404.917,41.0571333 L1388.58054,34 L1379.57726,54.0091271 Z" id="Fill-23" fill="#FF787F"></path>
                    <path d="M1381.57726,50.6177111 L1367.237,44.3544641 C1361.58159,41.8833777 1359.01887,35.3372853 1361.5132,29.731188 C1362.16628,28.2644568 1363.10486,27.0111299 1364.23149,26 C1361.34566,26.9552383 1358.85646,29.0571014 1357.53151,32.0329059 C1355.03718,37.6373095 1357.6016,44.1834019 1363.25701,46.6544883 L1380.0728,54 L1381.57726,50.6177111 Z" id="Fill-25" fill="#3D699A"></path>
                    <path d="M1407.57726,59.9847089 C1405.06809,60.8660138 1402.25411,60.8200019 1399.64053,59.6095349 L1381.05918,51 L1379.57726,54.5340681 L1395.72016,62.012772 C1399.83251,63.9204963 1404.45174,62.9666342 1407.57726,59.9847089" id="Fill-27" fill="#F56E7C"></path>
                    <path d="M1415.36441,138.486091 L1416.55897,132.425327 L1348.20039,119 L1347.0041,125.060764 C1338.34052,125.665976 1331.08128,131.061007 1329.54864,138.818093 L1314.86718,213.183061 C1312.97565,222.766157 1320.5383,232.321587 1331.75571,234.524558 L1387.86529,245.542871 C1399.08443,247.747571 1409.71236,241.76462 1411.60562,232.181524 L1426.28708,157.816556 C1427.81972,150.057741 1423.15071,142.321405 1415.36441,138.486091" id="Fill-29" fill="#FF787F"></path>
                    <polygon id="Fill-31" fill="#F56E7C" points="1416.82775 136 1348.57726 122.752183 1349.32677 119 1417.57726 132.247817"></polygon>
                    <polygon id="Fill-33" fill="#FBFCF7" points="1425.57726 115.011128 1348.25238 99 1344.57726 117.988872 1421.90213 134"></polygon>
                    <polygon id="Fill-35" fill="#D2D3CE" points="1353.57726 100.655054 1350.27716 100 1346.57726 118.343235 1349.87736 119"></polygon>
                    <polygon id="Fill-37" fill="#D2D3CE" points="1360.57726 102.656765 1357.27716 102 1353.57726 120.344946 1356.87736 121"></polygon>
                    <polygon id="Fill-39" fill="#D2D3CE" points="1367.57726 103.655054 1364.27716 103 1360.57726 121.343235 1363.87736 122"></polygon>
                    <polygon id="Fill-41" fill="#D2D3CE" points="1374.57726 104.656765 1371.27716 104 1367.57726 122.344946 1370.87736 123"></polygon>
                    <polygon id="Fill-43" fill="#D2D3CE" points="1380.57726 106.655054 1377.27888 106 1373.57726 124.343235 1376.87908 125"></polygon>
                    <polygon id="Fill-45" fill="#D2D3CE" points="1387.57726 107.656765 1384.27716 107 1380.57726 125.344946 1383.87736 126"></polygon>
                    <polygon id="Fill-47" fill="#D2D3CE" points="1394.57726 108.655054 1391.27716 108 1387.57726 126.343235 1390.87736 127"></polygon>
                    <polygon id="Fill-49" fill="#D2D3CE" points="1401.57726 110.656765 1398.27888 110 1394.57726 128.344946 1397.87908 129"></polygon>
                    <polygon id="Fill-51" fill="#D2D3CE" points="1408.57726 111.655054 1405.27716 111 1401.57726 129.343235 1404.87736 130"></polygon>
                    <polygon id="Fill-53" fill="#D2D3CE" points="1415.57726 113.656765 1412.27716 113 1408.57726 131.344946 1411.87736 132"></polygon>
                    <polygon id="Fill-55" fill="#D2D3CE" points="1422.57726 114.656765 1419.27716 114 1415.57726 132.343235 1418.87736 133"></polygon>
                    <polygon id="Fill-57" fill="#FBFCF7" points="1415.14527 213 1318.57726 193.938292 1327.01097 151 1423.57726 170.061708"></polygon>
                    <path d="M1390.17327,233.452026 L1334.86034,222.402314 C1323.79843,220.193065 1316.34464,210.610405 1318.20937,201 L1315.86265,213.090174 C1313.99963,222.70058 1321.45342,232.281505 1332.51361,234.492488 L1387.82654,245.5422 C1398.88845,247.751449 1409.3658,241.751448 1411.23053,232.141043 L1413.57726,220.050869 C1411.71253,229.661274 1401.23346,235.661274 1390.17327,233.452026" id="Fill-59" fill="#F56E7C"></path>
                    <polygon id="Fill-61" fill="#3D699A" points="1421.07452 178 1325.57726 159.506248 1327.07999 152 1422.57726 170.493752"></polygon>
                    <polygon id="Fill-63" fill="#3D699A" points="1352.57726 177.858274 1346.54057 176.669356 1347.72781 170.634343 1339.43386 169 1338.24494 175.035013 1332.20993 173.846095 1330.57726 182.141726 1336.61395 183.330644 1335.42503 189.365657 1343.71898 191 1344.9079 184.963313 1350.94291 186.15223"></polygon>
                    <polygon id="Fill-65" fill="#D2D3CE" points="1410.83883 189 1376.57726 182.575596 1377.31743 179 1411.57726 185.424404"></polygon>
                    <polygon id="Fill-67" fill="#D2D3CE" points="1409.83883 198 1375.57726 191.575596 1376.31743 188 1410.57726 194.426071"></polygon>
                    <path d="M1210.40375,136.804713 C1207.19711,144.442411 1198.40736,148.033169 1190.77146,144.826476 C1183.13556,141.619783 1179.54486,132.82989 1182.74982,125.193869 C1185.95647,117.556171 1194.74622,113.96709 1202.38212,117.173783 C1210.01969,120.378799 1213.61039,129.168692 1210.40375,136.804713" id="Fill-69" fill="#FF787F"></path>
                    <path d="M1211.20342,127 C1211.20342,129.008321 1210.8277,131.049708 1210.03098,133.018001 C1206.82399,140.943386 1198.03325,144.669395 1190.3965,141.341917 C1185.75709,139.321414 1182.61383,135.158586 1181.57726,130.430156 C1181.57894,136.507328 1185.0325,142.279946 1190.77222,144.782515 C1198.41065,148.109993 1207.1997,144.382243 1210.4067,136.4586 C1211.66467,133.348661 1211.87266,130.055989 1211.20342,127" id="Fill-71" fill="#F56E7C"></path>
                    <path d="M1182.01616,125.548675 C1181.84748,126.007662 1181.70118,126.46665 1181.57726,126.930913 L1209.70807,139 C1209.94559,138.584977 1210.1659,138.155885 1210.369,137.710966 C1210.43956,137.524557 1210.51357,137.33639 1210.57726,137.148223 L1182.264,125 C1182.17623,125.179374 1182.09705,125.365783 1182.01616,125.548675" id="Fill-73" fill="#F56E7C"></path>
                    <path d="M1182.93242,124.927838 C1182.80202,125.245302 1182.68707,125.56452 1182.57726,125.885492 L1210.80344,138 C1210.951,137.694813 1211.09341,137.387873 1211.22381,137.070408 C1211.35249,136.752944 1211.46916,136.43548 1211.57726,136.114508 L1183.35279,124 C1183.20523,124.303433 1183.06282,124.610373 1182.93242,124.927838" id="Fill-75" fill="#E54C6B"></path>
                    <path d="M1282.57051,147.205952 C1276.93396,153.276903 1267.44241,153.629182 1261.37137,147.992709 C1255.30034,142.356237 1254.94805,132.866496 1260.5846,126.795545 C1266.22116,120.722917 1275.7127,120.370637 1281.78374,126.00711 C1287.8531,131.643583 1288.20706,141.135001 1282.57051,147.205952" id="Fill-77" fill="#FF787F"></path>
                    <path d="M1286.57726,139.019725 C1285.91012,140.823752 1284.87573,142.527924 1283.46902,144.025732 C1277.80848,150.048583 1268.27822,150.398071 1262.18135,144.80792 C1258.47673,141.411225 1256.89649,136.601598 1257.49287,132 C1255.47125,137.460341 1256.80889,143.822695 1261.39123,148.023214 C1267.4881,153.616693 1277.02004,153.267205 1282.68058,147.24269 C1284.901,144.879482 1286.19147,141.992042 1286.57726,139.019725" id="Fill-79" fill="#F56E7C"></path>
                    <path d="M1260.4256,126.412691 C1260.12286,126.771036 1259.84174,127.139571 1259.57726,127.516597 L1281.18831,148 C1281.53763,147.704493 1281.87696,147.390304 1282.20465,147.055736 C1282.32941,146.907982 1282.45916,146.763625 1282.57726,146.615872 L1260.82814,126 C1260.69008,126.132469 1260.55867,126.273429 1260.4256,126.412691" id="Fill-81" fill="#F56E7C"></path>
                    <path d="M1260.23662,126.6993 C1260.00645,126.943123 1259.78839,127.192026 1259.57726,127.446009 L1282.20489,148 C1282.44717,147.774802 1282.68773,147.544524 1282.9179,147.3007 C1283.14807,147.056877 1283.36612,146.80628 1283.57726,146.552297 L1260.94963,126 C1260.70561,126.225198 1260.46679,126.453783 1260.23662,126.6993" id="Fill-83" fill="#E54C6B"></path>
                    <path d="M1255.16427,188.518166 C1257.08625,196.573674 1252.11693,204.664403 1244.06003,206.586455 C1236.0048,208.510183 1227.91435,203.539014 1225.99069,195.483506 C1224.06703,187.427998 1229.0397,179.337269 1237.09493,177.41354 C1245.15016,175.489812 1253.2406,180.460981 1255.16427,188.518166" id="Fill-85" fill="#FF787F"></path>
                    <path d="M1250.44161,180 C1251.58094,181.60252 1252.43627,183.45979 1252.91238,185.513287 C1254.82852,193.782358 1249.87696,202.084133 1241.85157,204.058451 C1236.97686,205.258189 1232.09213,203.843289 1228.57726,200.693331 C1232.0253,205.545644 1238.07442,208.060446 1244.10516,206.574974 C1252.12888,204.602378 1257.08044,196.298882 1255.16597,188.031533 C1254.41255,184.785182 1252.71191,182.032842 1250.44161,180" id="Fill-87" fill="#F56E7C"></path>
                    <path d="M1225.69167,195.657865 C1225.81974,196.116071 1225.96831,196.56231 1226.13395,197 L1255.57726,189.961056 C1255.52944,189.496011 1255.45943,189.029255 1255.36551,188.56421 C1255.31599,188.37443 1255.26647,188.18465 1255.21011,188 L1225.57726,195.083397 C1225.6097,195.273176 1225.65239,195.466375 1225.69167,195.657865" id="Fill-89" fill="#F56E7C"></path>
                    <path d="M1225.77301,195.041682 C1225.84961,195.365669 1225.94153,195.68454 1226.03856,196 L1255.57726,188.935392 C1255.52279,188.609701 1255.4598,188.284009 1255.3832,187.960023 C1255.3049,187.632626 1255.21298,187.31546 1255.11766,187 L1225.57726,194.066313 C1225.63343,194.390299 1225.69641,194.715991 1225.77301,195.041682" id="Fill-91" fill="#E54C6B"></path>
                    <path d="M116.573915,23.5743908 C116.572244,23.5190965 116.575587,23.4655301 116.573915,23.4085078 C116.572244,23.4206035 116.568901,23.4309711 116.56723,23.4430668 C116.393404,18.7586008 114.118623,14.2261941 110.038726,11.4562941 C103.605493,7.0932263 95.0679618,8.71058529 90.5033579,14.9761234 L90.4933294,14.9709396 C90.3044608,15.2301317 90.118935,15.4927797 89.945109,15.7675234 C89.858196,15.9074872 89.7813114,16.0474509 89.6994126,16.1874147 C89.68437,16.209878 89.6676559,16.2340693 89.6509419,16.2582605 C89.6292136,16.2928195 89.614171,16.3325623 89.5924428,16.3688492 C89.5489863,16.4483348 89.4971727,16.5260924 89.4537162,16.605578 L89.4654161,16.6142177 C89.4604018,16.6211295 89.457059,16.6263134 89.4537162,16.6332252 C89.3266895,16.8664981 89.1996628,17.099771 89.0860074,17.3364999 C89.0626077,17.3831544 89.0341939,17.4280811 89.0124656,17.4764636 L89.0208226,17.4833754 C88.4492025,18.7050344 88.0380372,19.9733479 87.8073834,21.2623969 L87.8073834,21.2606689 C87.805712,21.2623969 87.805712,21.2658528 87.805712,21.2675807 C87.6903852,21.9138331 87.6302146,22.5618135 87.598458,23.2115218 C87.5901009,23.3653091 87.5850867,23.5156406 87.5817439,23.6677 C87.5683727,24.3053126 87.5834153,24.9429253 87.6469287,25.5736262 C87.6486001,25.5839939 87.6486001,25.5943616 87.6486001,25.6047293 C87.7154562,26.2457978 87.8357973,26.8764987 87.9828808,27.5037437 C88.0163089,27.6540752 88.0547512,27.8009507 88.0931935,27.9512821 C88.2553197,28.5664315 88.4425169,29.1729411 88.6798563,29.7638992 C88.6831991,29.770811 88.6831991,29.7777228 88.6865419,29.7846346 C88.9255526,30.3790486 89.2163769,30.9527272 89.5306008,31.5125822 C89.6074854,31.650818 89.6860414,31.7855979 89.7679402,31.9221058 C90.0972067,32.4698652 90.4498729,33.005529 90.8510099,33.5100897 C90.8543527,33.5152735 90.8576955,33.5204574 90.8610383,33.5256412 C91.2638466,34.0319299 91.7151256,34.5036596 92.1881329,34.9598377 C92.3051312,35.0721543 92.4254723,35.1844709 92.5474848,35.2933316 C93.0388775,35.7356862 93.5536699,36.1607613 94.1135902,36.5426378 C100.277728,40.724271 108.372336,39.4144867 113.05561,33.7882892 L113.063967,33.795201 C113.097395,33.7554582 113.125809,33.7105316 113.159237,33.6707888 C113.324706,33.4686189 113.478475,33.2560814 113.635587,33.0418159 C113.640601,33.0349041 113.645616,33.0297202 113.648958,33.0228084 L113.660658,33.0297202 C113.714143,32.9571464 113.762614,32.8793888 113.816099,32.805087 C113.839498,32.7688001 113.867912,32.739425 113.892983,32.7031381 C113.906355,32.6789469 113.919726,32.6547556 113.934768,32.6288364 C114.026696,32.4975124 114.121966,32.3679163 114.208879,32.2314084 C114.382705,31.9566648 114.544831,31.6750093 114.6986,31.3933538 L114.695257,31.3916259 C114.763785,31.2706695 114.82897,31.1497132 114.892483,31.025301 C114.959339,30.8957049 115.017838,30.7643809 115.081351,30.6330569 C115.216735,30.3496735 115.343762,30.0645621 115.46076,29.7759948 C115.522602,29.6222075 115.582773,29.4701481 115.6396,29.3146328 C115.744899,29.0277935 115.838497,28.7392263 115.92541,28.4472031 C115.968867,28.3055114 116.017338,28.1620918 116.05578,28.0186721 C116.166093,27.6091485 116.261363,27.197897 116.336576,26.7814616 C116.36499,26.6276743 116.380032,26.472159 116.403432,26.3149157 C116.445217,26.0419 116.483659,25.7671563 116.50873,25.4906847 C116.528787,25.2919707 116.540487,25.0949847 116.552187,24.8962707 C116.565558,24.6595419 116.573915,24.4228131 116.575587,24.1860843 C116.577258,23.9821864 116.578929,23.7782886 116.573915,23.5743908" id="Fill-93" fill="#000000" opacity="0.299827939"></path>
                    <path d="M136.268225,86.8813403 C136.249838,86.7915072 136.224766,86.701674 136.204708,86.6135685 C136.194678,86.5703795 136.191335,86.528918 136.181306,86.485729 C136.172949,86.4598156 136.164591,86.4321746 136.156234,86.4062612 C136.119461,86.2473257 136.087702,86.0883901 136.044243,85.9294546 C135.957324,85.6150386 135.858705,85.3040777 135.7534,84.9982995 L135.750057,85.0000271 C135.706598,84.8687325 135.659796,84.7374379 135.612993,84.6095984 C135.561177,84.469666 135.502674,84.3366439 135.449185,84.2001666 C135.330508,83.9099365 135.206817,83.6231614 135.071424,83.3432967 C135.001221,83.1947265 134.929346,83.0478838 134.852457,82.9010412 C134.71205,82.6315418 134.563286,82.3689526 134.407835,82.1098185 C134.330946,81.9837066 134.259071,81.852412 134.178839,81.7280277 C133.953185,81.3738778 133.714159,81.0283657 133.46009,80.7001293 C133.364814,80.5757449 133.26118,80.4582708 133.162561,80.3373416 C132.990396,80.1265792 132.814887,79.9175444 132.631021,79.7171474 C132.498972,79.5720323 132.361908,79.4320999 132.224845,79.2921675 C132.059365,79.1280493 131.892214,78.9656586 131.721721,78.8084506 C131.572956,78.6737009 131.425863,78.5389512 131.273756,78.4093842 C131.231968,78.374833 131.193524,78.3368267 131.153407,78.3005479 C131.160094,78.3109132 131.165108,78.319551 131.171794,78.3281889 C127.636553,75.3930638 122.835979,74.1958644 118.139039,75.5640922 C110.732583,77.7218152 106.314784,85.4457376 107.897703,93.1143782 L107.884331,93.1178333 C107.94952,93.4357044 108.023067,93.7535755 108.108313,94.0697191 C108.151773,94.2286547 108.203589,94.38068 108.253735,94.5361604 C108.260421,94.5638014 108.267107,94.5914423 108.272121,94.6190833 C108.285493,94.6605448 108.30388,94.6968235 108.315581,94.738285 C108.343996,94.8263906 108.369069,94.9144961 108.397485,95.0026017 L108.410857,94.997419 C108.412528,95.0060568 108.415871,95.0129671 108.419214,95.0216049 C108.506133,95.2721011 108.59138,95.5243249 108.689999,95.7696385 C108.710057,95.8180102 108.723429,95.869837 108.745158,95.9164812 L108.755187,95.9147536 C109.271684,97.1620522 109.928587,98.314335 110.71921,99.3405058 C110.717539,99.3405058 110.717539,99.3405058 110.715867,99.3387783 L110.724225,99.3491436 C110.759327,99.3940602 110.799443,99.4372492 110.836216,99.4821658 C111.066884,99.7758511 111.309253,100.059171 111.561651,100.330398 C111.656927,100.435779 111.757218,100.535978 111.857508,100.637904 C112.066447,100.853849 112.282071,101.061156 112.504382,101.263281 C112.606344,101.354841 112.704963,101.44813 112.808597,101.536235 C113.126183,101.807462 113.450456,102.068324 113.786429,102.31191 C113.824874,102.337823 113.868333,102.363737 113.906778,102.391377 C114.214336,102.607323 114.528579,102.809447 114.849509,102.999479 C114.966515,103.068581 115.085192,103.132501 115.202197,103.198148 C115.466296,103.344991 115.733737,103.483196 116.006193,103.61449 C116.12487,103.669772 116.241876,103.726782 116.360553,103.780336 C116.739986,103.949637 117.126104,104.106845 117.52058,104.241595 C117.548996,104.25196 117.577412,104.25887 117.604156,104.265781 C117.976902,104.391892 118.352992,104.497274 118.735767,104.592289 C118.861131,104.623386 118.989837,104.649299 119.116871,104.67694 C119.417743,104.742587 119.721958,104.797869 120.029515,104.841058 C120.154879,104.861789 120.280242,104.88252 120.405605,104.898068 C120.826825,104.948167 121.251388,104.984446 121.679295,104.996539 L121.711053,104.996539 C122.128931,105.006904 122.548479,104.993083 122.9697,104.96717 C123.100077,104.958532 123.228783,104.944712 123.359161,104.932619 C123.678419,104.90325 123.999349,104.861789 124.318607,104.809962 C124.448985,104.787504 124.577691,104.768501 124.708069,104.744315 C125.144333,104.661392 125.578925,104.562921 126.013517,104.436809 C133.109073,102.368919 137.461682,95.1943609 136.425347,87.8522293 L136.435376,87.8505017 C136.42869,87.7969473 136.413646,87.7451205 136.40696,87.6950213 C136.366844,87.4307045 136.313356,87.1698429 136.259867,86.9072537 C136.258196,86.9003435 136.256524,86.8934333 136.254853,86.8847954 L136.268225,86.8813403 Z" id="Fill-95" fill="#000000" opacity="0.299827939"></path>
                    <path d="M193.626796,104.102339 C193.63682,104.256096 193.651856,104.406398 193.666892,104.558428 C193.732049,105.192459 193.822265,105.821308 193.964273,106.441519 C193.965944,106.448429 193.965944,106.458795 193.969285,106.467433 C194.112963,107.094554 194.308433,107.707855 194.530633,108.310789 C194.582424,108.455908 194.637556,108.597572 194.694359,108.739236 C194.929925,109.324895 195.18888,109.903643 195.494614,110.458205 C195.499626,110.465115 195.502967,110.473753 195.506309,110.478936 C195.817055,111.038681 196.172909,111.569056 196.552153,112.083883 C196.645711,112.209998 196.74094,112.336113 196.837839,112.458773 C197.232119,112.961507 197.648118,113.446964 198.107555,113.896142 C198.110896,113.899597 198.114237,113.90478 198.117579,113.908235 C198.578686,114.359141 199.083231,114.768584 199.607824,115.157295 C199.738136,115.254041 199.87012,115.349059 200.003774,115.440623 C200.546745,115.817241 201.109763,116.1714 201.711207,116.475459 C208.332105,119.821833 216.199328,117.468833 220.157164,111.280545 L220.167188,111.284001 C220.19559,111.242538 220.21898,111.192438 220.24571,111.149247 C220.386047,110.926386 220.513019,110.694887 220.641661,110.463387 L220.655027,110.442656 L220.666721,110.449567 C220.710159,110.368369 220.748584,110.283716 220.792022,110.204246 C220.81207,110.166239 220.83546,110.131687 220.855508,110.095407 C220.867203,110.069493 220.877227,110.041851 220.888921,110.017665 C220.964102,109.872546 221.042624,109.73261 221.112792,109.585763 C221.251459,109.290342 221.376759,108.989739 221.497048,108.690863 L221.493707,108.689135 C221.543827,108.559565 221.595618,108.431722 221.642397,108.302151 C221.692518,108.163943 221.735955,108.025734 221.782734,107.884071 C221.882975,107.58865 221.973192,107.288046 222.055055,106.987443 C222.096822,106.826775 222.138589,106.666108 222.175344,106.507168 C222.245512,106.21002 222.303986,105.911144 222.354106,105.612268 C222.379166,105.463693 222.410909,105.315119 222.430957,105.166545 C222.491102,104.746737 222.534539,104.325201 222.557929,103.905392 C222.567953,103.746452 222.564612,103.58924 222.567953,103.432028 C222.576306,103.153883 222.581318,102.877466 222.572965,102.602777 C222.567953,102.402374 222.554588,102.201972 222.542893,102.003297 C222.526186,101.766615 222.506138,101.533388 222.479407,101.298434 C222.457688,101.096304 222.434299,100.894174 222.404227,100.690316 C222.395873,100.63676 222.392532,100.581477 222.382508,100.527921 C222.382508,100.538287 222.380837,100.55038 222.379166,100.560746 C221.639056,95.9359422 218.830646,91.7378578 214.446787,89.5247935 C207.536862,86.0315726 199.267005,88.7473705 195.506309,95.5575963 L195.492943,95.5524135 C195.33757,95.8340134 195.187209,96.1190685 195.046872,96.4144893 C194.978374,96.5630635 194.91823,96.7133652 194.854744,96.863667 C194.84305,96.8878535 194.828013,96.91204 194.816319,96.9379541 C194.799612,96.9759615 194.787917,97.0156964 194.772881,97.0554314 C194.737797,97.1400841 194.69603,97.2247368 194.662616,97.3093896 L194.674311,97.3145724 C194.67097,97.3214828 194.669299,97.3283933 194.665958,97.3370313 C194.567388,97.5858067 194.470488,97.8311268 194.386954,98.0833574 C194.368577,98.1317304 194.346858,98.1801034 194.330151,98.230204 L194.340175,98.2353868 C193.920835,99.5224538 193.668563,100.83198 193.595053,102.143233 L193.595053,102.139778 L193.595053,102.148416 C193.559969,102.803179 193.580017,103.454487 193.626796,104.102339" id="Fill-97" fill="#000000" opacity="0.299827939"></path>
                    <g id="Group-101" opacity="0.299827939" transform="translate(0.577258, 44.000000)">
                        <mask id="mask-2" fill="white">
                            <use xlink:href="#path-1"></use>
                        </mask>
                        <g id="Clip-100"></g>
                        <path d="M52.6255249,21.418784 L46.5507684,23.198954 L51.4951763,21.749214 L52.6255249,21.418784 Z M33.2015605,27.112214 L33.2310328,27.103564 L32.4526179,27.331924 L33.2015605,27.112214 Z M39.0613427,25.394324 L39.4531506,25.278414 L33.9539704,26.890774 L39.0613427,25.394324 Z M45.2782595,23.572634 L46.0393377,23.349464 L40.2523694,25.046594 L45.2782595,23.572634 Z M-3.00426525,37.724034 L-0.544196931,37.002624 L1.04730604,36.535524 L3.17277733,43.754814 L39.5762407,167.435974 C40.6545793,171.100114 44.5050456,173.196874 48.1769447,172.120814 L97.6938377,157.609574 C101.364003,156.533514 103.466937,152.691184 102.388598,149.027044 L99.3321496,138.647044 L86.9225872,96.481754 L72.6666734,48.048674 L65.9834011,25.345884 L63.8579298,18.126594 L52.8491674,21.353044 L57.7120932,19.927524 L59.1475664,19.507134 L63.4505189,18.245964 L65.4459654,17.661224 L67.9095011,16.938084 L62.9650932,0.136324 L58.9846021,1.304074 L57.4953852,1.741764 L22.7111635,11.936654 L22.064507,12.125224 L16.4127645,13.782564 L15.6343496,14.010924 L10.1143654,15.628474 L9.20419218,15.894894 L3.81596644,17.474384 L2.77576842,17.778864 L-2.48416624,19.320294 L-5.48860485,20.200864 L-7.94867317,20.922274 L-3.00426525,37.724034 Z" id="Fill-99" fill="#000000" mask="url(#mask-2)"></path>
                    </g>
                    <g id="Group-104" opacity="0.299827939" transform="translate(113.577258, 147.000000)">
                        <mask id="mask-4" fill="white">
                            <use xlink:href="#path-3"></use>
                        </mask>
                        <g id="Clip-103"></g>
                        <path d="M83.8829926,11.1235343 L83.8829926,11.1235343 L80.9342417,10.536609 L77.7050721,9.8942806 L74.7545795,9.30735522 L71.5254099,8.66329552 L68.576659,8.07637015 L65.3457477,7.43404179 L62.3969968,6.84711642 L59.1678272,6.20478806 L56.2190764,5.61786269 L52.988165,4.97553433 L51.9797027,4.77469851 L46.8085028,3.74454925 L43.8597519,3.15762388 L40.6305823,2.51529552 L37.6818315,1.92837015 L34.4526619,1.28604179 L31.5021692,0.699116418 L29.0898716,0.217802985 L25.7823241,16.6378627 L30.2498645,17.5260418 L29.210051,22.7789373 C21.5150827,23.3139224 15.0654521,28.0906985 13.7051601,34.9606687 L11.3956246,46.6108776 L10.0440412,53.4358328 L3.89224666,84.4961313 L0.663077058,100.796728 C-1.01769353,109.28031 5.70016362,117.741385 15.6663494,119.690878 L65.505987,129.446997 C75.4721728,131.398221 84.9140975,126.10031 86.5948681,117.616728 L88.7093297,106.944728 L89.8240376,101.3144 L97.3291573,63.4308776 L99.6352094,51.7789373 C100.997243,44.9106985 96.8501812,38.0597731 89.9337667,34.664609 L90.3291397,32.6666388 L90.9352621,29.6038925 L95.3505507,30.4834149 L98.6580982,14.0633552 L96.2405753,13.5837731 L93.2918244,12.9968478 L83.8829926,11.1235343 Z" id="Fill-102" fill="#000000" mask="url(#mask-4)"></path>
                    </g>
                    <path d="M102.116262,23.2289106 C97.5712296,30.1544281 88.2721373,32.0840373 81.3483473,27.5390045 C74.4228298,22.9939716 72.4932206,13.6948794 77.0382535,6.77108937 C81.5832863,-0.154428147 90.880651,-2.08403729 97.8061686,2.46099553 C104.731686,7.00430086 106.661295,16.3033931 102.116262,23.2289106" id="Fill-105" fill="#FBFCF7"></path>
                    <path d="M104.565146,15.0579751 C104.212668,16.8841589 103.483524,18.6722627 102.355251,20.3212918 C97.809331,26.9571438 88.5084228,28.8081624 81.581553,24.4521428 C77.3742872,21.8047557 75.0140717,17.4768822 74.827466,13 C73.7596672,18.5199428 76.1423446,24.3677045 81.3482959,27.6425836 C88.2751658,31.9969476 97.5743461,30.1475846 102.120266,23.510077 C103.903387,20.9057368 104.686094,17.9503986 104.565146,15.0579751" id="Fill-107" fill="#F0F2FF"></path>
                    <path d="M77.2385675,7.46982055 C76.9968356,7.86709529 76.7775501,8.27646099 76.5772579,8.68755398 L101.423851,25 C101.724289,24.6528164 102.009188,24.28836 102.280273,23.9100854 C102.380419,23.7459937 102.484018,23.5836292 102.577258,23.4160829 L77.5700857,7 C77.4561263,7.15200077 77.3473469,7.31091066 77.2385675,7.46982055" id="Fill-109" fill="#F0F2FF"></path>
                    <path d="M77.0833155,6.79571333 C76.904302,7.06956272 76.7373374,7.34857908 76.5772579,7.62931777 L101.506619,24 C101.701124,23.7433738 101.892187,23.4798584 102.0712,23.2042867 C102.251935,22.9304373 102.417178,22.6514209 102.577258,22.3706822 L77.6478968,6 C77.4533917,6.25834848 77.2623291,6.52186394 77.0833155,6.79571333" id="Fill-111" fill="#D2D3CE"></path>
                    <path d="M126.010788,77.9302309 C128.257991,85.9012458 123.618493,94.1848835 115.647055,96.4336942 C107.675616,98.6807778 99.3898115,94.039799 97.1443358,86.068784 C94.8954057,78.097769 99.536631,69.8141313 107.508069,67.5670478 C115.479508,65.3182371 123.763585,69.9592159 126.010788,77.9302309" id="Fill-113" fill="#FBFCF7"></path>
                    <path d="M120.112305,71 C121.284585,72.4752436 122.189827,74.2028094 122.733979,76.1322329 C124.917308,83.8936627 120.406215,91.9612435 112.655398,94.1513999 C107.946125,95.4802966 103.127686,94.3313897 99.5772579,91.4851956 C103.126007,95.9479337 109.123443,98.0926721 114.947893,96.4492137 C122.70039,94.2590573 127.211483,86.1914766 125.026475,78.4283646 C124.169938,75.381995 122.4048,72.8385875 120.112305,71" id="Fill-115" fill="#F0F2FF"></path>
                    <path d="M96.7125958,86.6995671 C96.8547863,87.1445887 97.0175344,87.5774892 97.1957007,88 L125.577258,79.9134199 C125.510446,79.4580087 125.424789,79.0025974 125.316861,78.5471861 C125.258614,78.365368 125.203794,78.1800866 125.142121,78 L96.5772579,86.1385281 C96.6166601,86.3255411 96.6680542,86.5125541 96.7125958,86.6995671" id="Fill-117" fill="#F0F2FF"></path>
                    <path d="M96.8061019,86.0690846 C96.8949071,86.3868739 96.9956667,86.6943005 97.1015498,87 L125.577258,78.8825561 C125.510654,78.5647668 125.435511,78.2487047 125.346706,77.9309154 C125.259609,77.6148532 125.158849,77.3056995 125.051258,77 L96.5772579,85.1174439 C96.6438618,85.4352332 96.7172968,85.7512953 96.8061019,86.0690846" id="Fill-119" fill="#D2D3CE"></path>
                    <path d="M211.051482,100.584552 C207.415504,108.025857 198.435243,111.110854 190.994011,107.473114 C183.552778,103.838828 180.466084,94.8584792 184.103789,87.4154475 C187.739767,79.9741432 196.720028,76.8891457 204.16126,80.5268864 C211.602492,84.1611724 214.68746,93.1415208 211.051482,100.584552" id="Fill-121" fill="#FBFCF7"></path>
                    <path d="M212.368879,92 C212.260043,93.8806794 211.771146,95.7714429 210.867636,97.5697691 C207.231139,104.810133 198.249596,107.811825 190.807302,104.275677 C186.284571,102.124408 183.375373,98.0554852 182.60143,93.5697539 C182.268012,99.2588512 185.400064,104.855511 190.993878,107.514345 C198.436172,111.053854 207.417715,108.052162 211.054212,100.811798 C212.48117,97.9697706 212.869869,94.8991707 212.368879,92" id="Fill-123" fill="#F0F2FF"></path>
                    <path d="M184.067952,87.5128503 C183.884153,87.9437144 183.720588,88.3798116 183.577258,88.8176532 L209.654887,102 C209.902764,101.61449 210.133778,101.213281 210.349616,100.798116 C210.425497,100.621933 210.506436,100.44575 210.577258,100.267822 L184.332691,87 C184.239948,87.1692057 184.155637,87.3419002 184.067952,87.5128503" id="Fill-125" fill="#F0F2FF"></path>
                    <path d="M183.963909,86.8680274 C183.822697,87.1672272 183.696615,87.4681665 183.577258,87.7691059 L209.741756,101 C209.898097,100.716456 210.051076,100.427693 210.190607,100.130233 C210.331819,99.8310333 210.4579,99.5300939 210.577258,99.2291546 L184.41276,86 C184.256419,86.283544 184.103439,86.5705671 183.963909,86.8680274" id="Fill-127" fill="#D2D3CE"></path>
                    <g id="Group-131" transform="translate(0.577258, 55.000000)">
                        <mask id="mask-6" fill="white">
                            <use xlink:href="#path-5"></use>
                        </mask>
                        <g id="Clip-130"></g>
                        <path d="M-9.97651887,18.6275259 L28.1816698,148.950533 C29.2496321,152.598509 33.0630472,154.686019 36.6996132,153.614706 L85.7400283,139.165758 C89.3748774,138.094444 91.4575755,134.270786 90.3896132,130.621088 L52.2297075,0.298081184 L-9.97651887,18.6275259 Z" id="Fill-129" fill="#FF787F" mask="url(#mask-6)"></path>
                    </g>
                    <g id="Group-134" transform="translate(0.577258, 85.000000)">
                        <mask id="mask-8" fill="white">
                            <use xlink:href="#path-7"></use>
                        </mask>
                        <g id="Clip-133"></g>
                        <polygon id="Fill-132" fill="#FBFCF7" mask="url(#mask-8)" points="75.5218909 48.1948179 12.9428 66.4772282 -1.26229091 18.3815359 61.3185273 0.099125641"></polygon>
                    </g>
                    <g id="Group-137" transform="translate(0.577258, 36.000000)">
                        <mask id="mask-10" fill="white">
                            <use xlink:href="#path-9"></use>
                        </mask>
                        <g id="Clip-136"></g>
                        <polygon id="Fill-135" fill="#FBFCF7" mask="url(#mask-10)" points="51.6530545 0.632241762 -18.9993091 21.5416411 -14.0731273 38.443188 56.5809636 17.5337887"></polygon>
                    </g>
                    <g id="Group-140" transform="translate(0.577258, 52.000000)">
                        <mask id="mask-12" fill="white">
                            <use xlink:href="#path-11"></use>
                        </mask>
                        <g id="Clip-139"></g>
                        <polygon id="Fill-138" fill="#D2D3CE" mask="url(#mask-12)" points="-0.968333333 0.548236364 -3.85833333 1.42914545 0.896666667 18.2044182 3.78666667 17.3235091"></polygon>
                    </g>
                    <polygon id="Fill-141" fill="#D2D3CE" points="6.60145675 51 3.57725793 51.8465904 8.55305911 68 11.5772579 67.1517464"></polygon>
                    <polygon id="Fill-143" fill="#D2D3CE" points="12.6014568 49 9.57725793 49.8482536 14.5530591 66 17.5772579 65.1534096"></polygon>
                    <polygon id="Fill-145" fill="#D2D3CE" points="18.6014568 47 15.5772579 47.8481706 20.5530591 64 23.5772579 63.1518294"></polygon>
                    <polygon id="Fill-147" fill="#D2D3CE" points="24.6014568 46 21.5772579 46.8465904 26.5530591 63 29.5772579 62.1517464"></polygon>
                    <polygon id="Fill-149" fill="#D2D3CE" points="31.6014568 44 28.5772579 44.8482536 33.5530591 61 36.5772579 60.1534096"></polygon>
                    <polygon id="Fill-151" fill="#D2D3CE" points="37.6021162 42 34.5772579 42.8481706 39.5523997 59 42.5772579 58.1518294"></polygon>
                    <polygon id="Fill-153" fill="#D2D3CE" points="44.6014568 40 41.5772579 40.8465904 46.5530591 57 49.5772579 56.1517464"></polygon>
                    <polygon id="Fill-155" fill="#D2D3CE" points="50.6014568 38 47.5772579 38.8465904 52.5530591 55 55.5772579 54.1534096"></polygon>
                    <g id="Group-159" transform="translate(1.577258, 55.000000)">
                        <mask id="mask-14" fill="white">
                            <use xlink:href="#path-13"></use>
                        </mask>
                        <g id="Clip-158"></g>
                        <polygon id="Fill-157" fill="#F56E7C" mask="url(#mask-14)" points="54.390875 7.32696875 52.2836875 0.28503125 -9.986625 18.2434062 -7.8794375 25.2853437"></polygon>
                    </g>
                    <polygon id="Fill-160" fill="#D2D3CE" points="66.5772579 120.905968 49.4216185 126 48.5772579 123.092314 65.7328974 118"></polygon>
                    <polygon id="Fill-162" fill="#D2D3CE" points="65.5772579 114.905968 48.4216185 120 47.5772579 117.092314 64.7328974 112"></polygon>
                    <polygon id="Fill-164" fill="#D2D3CE" points="63.5772579 108.905968 46.4216185 114 45.5772579 111.092314 62.7328974 106"></polygon>
                    <path d="M23.2717301,111.386982 C24.4379975,115.359686 22.1630358,119.526502 18.1904887,120.69446 C14.2179416,121.860774 10.0496458,119.585722 8.88337833,115.613018 C7.71546594,111.638669 9.99207264,107.473498 13.9646197,106.30554 C17.9371668,105.139226 22.1054626,107.414278 23.2717301,111.386982" id="Fill-166" fill="#4675AB"></path>
                    <path d="M83.5622246,183.643718 L34.1568604,198.261897 C30.4932318,199.345629 26.651438,197.232178 25.5772579,193.541915 L28.6250925,203.99766 C29.7010024,207.687923 33.5427961,209.799631 37.2064248,208.7159 L86.6100592,194.099462 C90.2736879,193.015731 92.3701553,189.146007 91.2959752,185.455745 L88.2464108,175 C89.3223207,178.690263 87.2258533,182.559986 83.5622246,183.643718" id="Fill-168" fill="#F56E7C"></path>
                    <g id="Group-172" transform="translate(101.577258, 155.000000)">
                        <mask id="mask-16" fill="white">
                            <use xlink:href="#path-15"></use>
                        </mask>
                        <g id="Clip-171"></g>
                        <path d="M89.9333163,17.785471 L90.9957723,12.4371968 L30.2720567,0.589535484 L29.2096006,5.93953548 C21.5146323,6.47108387 15.0650018,11.2325839 13.702968,18.0805839 L0.662626671,83.7061 C-1.01814391,92.1642774 5.69971323,100.596568 15.665899,102.539826 L65.5055366,112.264745 C75.4717224,114.209729 84.9136471,108.930487 86.5944177,100.47231 L99.634759,34.8467935 C100.996793,27.9987935 96.8497308,21.1697774 89.9333163,17.785471" id="Fill-170" fill="#4675AB" mask="url(#mask-16)"></path>
                    </g>
                    <polygon id="Fill-173" fill="#3D699A" points="191.914421 171 131.577258 159.312904 132.240094 156 192.577258 167.688798"></polygon>
                    <polygon id="Fill-175" fill="#FBFCF7" points="199.577258 152.724828 130.844979 139 127.577258 155.275172 196.311257 169"></polygon>
                    <polygon id="Fill-177" fill="#D2D3CE" points="135.577258 139.586744 132.749307 139 129.577258 155.413256 132.405209 156"></polygon>
                    <polygon id="Fill-179" fill="#D2D3CE" points="142.577258 140.586744 139.749307 140 136.577258 156.414987 139.406879 157"></polygon>
                    <polygon id="Fill-181" fill="#D2D3CE" points="148.577258 142.586744 145.749307 142 142.577258 158.414987 145.405209 159"></polygon>
                    <polygon id="Fill-183" fill="#D2D3CE" points="154.577258 143.588475 151.749307 143 148.577258 159.414987 151.406879 160"></polygon>
                    <polygon id="Fill-185" fill="#D2D3CE" points="160.577258 144.586744 157.749307 144 154.577258 160.414987 157.405209 161"></polygon>
                    <polygon id="Fill-187" fill="#D2D3CE" points="167.577258 145.586744 164.749307 145 161.577258 161.414987 164.406879 162"></polygon>
                    <polygon id="Fill-189" fill="#D2D3CE" points="173.577258 146.586744 170.749307 146 167.577258 162.414987 170.405209 163"></polygon>
                    <polygon id="Fill-191" fill="#D2D3CE" points="179.577258 148.586744 176.749307 148 173.577258 164.413256 176.406879 165"></polygon>
                    <polygon id="Fill-193" fill="#D2D3CE" points="185.577258 149.586744 182.748519 149 179.577258 165.414987 182.405996 166"></polygon>
                    <polygon id="Fill-195" fill="#D2D3CE" points="191.577258 150.586744 188.749307 150 185.577258 166.414987 188.406879 167"></polygon>
                    <polygon id="Fill-197" fill="#D2D3CE" points="197.577258 151.588475 194.749307 151 191.577258 167.414987 194.405209 168"></polygon>
                    <polygon id="Fill-199" fill="#FBFCF7" points="191.187555 240 106.577258 223.090581 113.966961 185 198.577258 201.909419"></polygon>
                    <g id="Group-203" transform="translate(102.577258, 228.000000)">
                        <mask id="mask-18" fill="white">
                            <use xlink:href="#path-17"></use>
                        </mask>
                        <g id="Clip-202"></g>
                        <path d="M66.4477496,29.549975 L17.4657514,19.690475 C7.67106348,17.718225 1.06880707,9.169475 2.720655,0.592725 L0.642578957,11.379725 C-1.00926897,19.956475 5.59298744,28.506975 15.3876753,30.477475 L64.3696736,40.338725 C74.1643615,42.310975 83.4438097,36.955975 85.0956576,28.380975 L87.1737337,17.592225 C85.5218858,26.167225 76.2424375,31.522225 66.4477496,29.549975" id="Fill-201" fill="#3D699A" mask="url(#mask-18)"></path>
                    </g>
                    <polygon id="Fill-204" fill="#FF787F" points="197.245548 208 112.577258 191.638793 113.908968 185 198.577258 201.359523"></polygon>
                    <polygon id="Fill-206" fill="#FF787F" points="136.577258 208.053714 131.08875 206.97254 132.169924 201.485754 124.630972 200 123.549798 205.488508 118.063012 204.407334 116.577258 211.948007 122.065766 213.029181 120.984592 218.515968 128.525265 220 129.604718 214.513213 135.093226 215.594388"></polygon>
                    <polygon id="Fill-208" fill="#D2D3CE" points="186.942858 218 157.577258 212.216588 158.209962 209 187.577258 214.783412"></polygon>
                    <polygon id="Fill-210" fill="#D2D3CE" points="185.944518 226 156.577258 220.216588 157.209998 217 186.577258 222.783412"></polygon>
                </g>
            </g>
        </g>
    </g>
</svg>