<?xml version="1.0" encoding="utf-8"?>
<!-- Generator: Adobe Illustrator 24.1.2, SVG Export Plug-In . SVG Version: 6.00 Build 0)  -->
<svg version="1.1" id="Layer_1" xmlns="http://www.w3.org/2000/svg" xmlns:xlink="http://www.w3.org/1999/xlink" x="0px" y="0px"
	 viewBox="0 0 1442 809" style="enable-background:new 0 0 1442 809;" xml:space="preserve">
<style type="text/css">
	.st0{fill:none;}
	.st1{opacity:0.2998;fill-rule:evenodd;clip-rule:evenodd;enable-background:new    ;}
	.st2{fill-rule:evenodd;clip-rule:evenodd;fill:#4675AB;}
	.st3{fill-rule:evenodd;clip-rule:evenodd;fill:#FF787F;}
	.st4{fill-rule:evenodd;clip-rule:evenodd;fill:#3D699A;}
	.st5{fill-rule:evenodd;clip-rule:evenodd;fill:#F56E7C;}
	.st6{fill-rule:evenodd;clip-rule:evenodd;fill:#FBFCF7;}
	.st7{fill-rule:evenodd;clip-rule:evenodd;fill:#D2D3CE;}
	.st8{fill-rule:evenodd;clip-rule:evenodd;fill:#F0F2FF;}
	.st9{opacity:0.2998;}
	.st10{filter:url(#Adobe_OpacityMaskFilter);}
	.st11{fill-rule:evenodd;clip-rule:evenodd;fill:#FFFFFF;}
	.st12{mask:url(#mask-2_1_);fill-rule:evenodd;clip-rule:evenodd;}
	.st13{filter:url(#Adobe_OpacityMaskFilter_1_);}
	.st14{mask:url(#mask-4_1_);fill-rule:evenodd;clip-rule:evenodd;}
	.st15{filter:url(#Adobe_OpacityMaskFilter_2_);}
	.st16{mask:url(#mask-6_1_);fill-rule:evenodd;clip-rule:evenodd;fill:#FF787F;}
	.st17{filter:url(#Adobe_OpacityMaskFilter_3_);}
	.st18{mask:url(#mask-8_1_);fill-rule:evenodd;clip-rule:evenodd;fill:#FBFCF7;}
	.st19{filter:url(#Adobe_OpacityMaskFilter_4_);}
	.st20{mask:url(#mask-10_1_);fill-rule:evenodd;clip-rule:evenodd;fill:#FBFCF7;}
	.st21{filter:url(#Adobe_OpacityMaskFilter_5_);}
	.st22{mask:url(#mask-12_1_);fill-rule:evenodd;clip-rule:evenodd;fill:#D2D3CE;}
	.st23{filter:url(#Adobe_OpacityMaskFilter_6_);}
	.st24{mask:url(#mask-14_1_);fill-rule:evenodd;clip-rule:evenodd;fill:#F56E7C;}
	.st25{filter:url(#Adobe_OpacityMaskFilter_7_);}
	.st26{mask:url(#mask-16_1_);fill-rule:evenodd;clip-rule:evenodd;fill:#4675AB;}
	.st27{filter:url(#Adobe_OpacityMaskFilter_8_);}
	.st28{mask:url(#mask-18_1_);fill-rule:evenodd;clip-rule:evenodd;fill:#3D699A;}
</style>
<g id="Page-1">
	<g id="AB2D-Overview-page" transform="translate(1.000000, 3.000000)">
		<g id="Group-2" transform="translate(-0.577258, -3.000000)">
			<polygon id="Fill-3" class="st0" points="0.6,809 1440.6,809 1440.6,0 0.6,0 			"/>
			<g id="Group-212" transform="translate(0.000000, 53.000000)">
				<path id="Fill-1" class="st1" d="M1346.7,81.3l-6.9-16.9l-7.1-17.3c-1.3-3.1-3.8-5.4-6.8-6.4c0,0,0,0,0,0
					c-0.4-0.1-0.7-0.2-1.1-0.3c0,0,0,0-0.1,0c-0.3-0.1-0.7-0.2-1.1-0.2c0,0-0.1,0-0.1,0c-0.3,0-0.7-0.1-1-0.1c-0.1,0-0.1,0-0.2,0
					c-0.3,0-0.6,0-0.9,0c-0.1,0-0.2,0-0.3,0c-0.3,0-0.6,0.1-0.9,0.1c-0.1,0-0.2,0-0.3,0c-0.3,0.1-0.6,0.1-0.9,0.2
					c-0.1,0-0.2,0-0.3,0.1c-0.4,0.1-0.8,0.2-1.2,0.4c-5.9,2.4-8.7,9-6.3,14.8l7.1,17.3l6.9,16.9c0.2,0.5,0.4,0.9,0.7,1.4
					c0.1,0.1,0.1,0.2,0.2,0.3c0.3,0.4,0.5,0.8,0.8,1.2c0,0,0,0,0,0.1c0.3,0.4,0.7,0.7,1,1.1c0.1,0.1,0.2,0.1,0.2,0.2
					c0.4,0.3,0.7,0.6,1.1,0.9c0,0,0,0,0,0c0.4,0.3,0.9,0.5,1.3,0.8c0.1,0,0.1,0.1,0.2,0.1c0.9,0.4,1.9,0.8,2.9,0.9c0,0,0.1,0,0.1,0
					c0.5,0.1,1,0.1,1.6,0.2c1.6,0.1,3.2-0.2,4.7-0.8C1346.3,93.8,1349.1,87.2,1346.7,81.3"/>
				<path id="Fill-3_1_" class="st1" d="M1423.6,64.2c2.5-5.8-0.1-12.6-5.8-15.2l-16.5-7.4l-16.9-7.6c-2.7-1.2-5.5-1.2-8.1-0.4l0,0
					c-0.4,0.1-0.7,0.3-1.1,0.4c0,0,0,0,0,0c-0.3,0.2-0.7,0.3-1,0.5c0,0,0,0,0,0c-0.3,0.2-0.6,0.4-0.9,0.6c0,0-0.1,0-0.1,0.1
					c-0.3,0.2-0.5,0.4-0.8,0.6c0,0-0.1,0.1-0.1,0.1c-0.2,0.2-0.4,0.4-0.7,0.7c-0.1,0.1-0.1,0.1-0.2,0.2c-0.2,0.2-0.4,0.5-0.5,0.7
					c-0.1,0.1-0.1,0.2-0.2,0.2c-0.2,0.2-0.3,0.5-0.5,0.7c-0.1,0.1-0.1,0.2-0.2,0.3c-0.2,0.3-0.4,0.7-0.5,1.1
					c-2.5,5.8,0.1,12.6,5.8,15.2l16.9,7.6l16.5,7.4c0.5,0.2,0.9,0.4,1.4,0.5c0.1,0,0.2,0.1,0.4,0.1c0.5,0.1,0.9,0.2,1.4,0.3
					c0,0,0,0,0.1,0c0.5,0.1,1,0.1,1.5,0.1c0.1,0,0.2,0,0.3,0c0.5,0,0.9-0.1,1.4-0.1c0,0,0,0,0,0c0.5-0.1,1-0.2,1.5-0.4
					c0.1,0,0.1,0,0.2-0.1c1-0.3,1.9-0.8,2.7-1.4c0,0,0.1,0,0.1-0.1c0.4-0.3,0.8-0.6,1.2-1h0C1422,67,1423,65.7,1423.6,64.2"/>
				<path id="Fill-5" class="st1" d="M1428.4,147.8l0.4-2.3l0.7-3.5l5,1l3.7-18.5l-30.5-6.1l-3.3-0.7l-17.5-3.5l-1.1-0.2l-19.7-3.9
					l-3.3-0.7l-2.7-0.5l-3.7,18.5l5,1l-1.2,5.9c-8.7,0.6-15.9,6-17.5,13.7l-3,15.1l-1.1,5.7l-6.9,35h0l-3.6,18.4
					c-1.9,9.6,5.7,19.1,16.9,21.3l56.1,11c11.2,2.2,21.8-3.8,23.7-13.3l2.4-12l1.3-6.3l6.9-35l4.1-20.8
					C1440.8,159.3,1436.2,151.6,1428.4,147.8"/>
				<path id="Fill-7" class="st1" d="M1193.7,142c0,0.2,0,0.3,0.1,0.5c0.1,0.6,0.2,1.3,0.4,1.9c0,0,0,0,0,0c0.2,0.6,0.4,1.2,0.7,1.8
					c0.1,0.1,0.1,0.3,0.2,0.4c0.3,0.6,0.6,1.1,0.9,1.7c0,0,0,0,0,0c0.4,0.5,0.7,1,1.2,1.5c0.1,0.1,0.2,0.2,0.3,0.4
					c0.4,0.5,0.9,0.9,1.4,1.4c0,0,0,0,0,0c0.5,0.4,1,0.8,1.6,1.2c0.1,0.1,0.3,0.2,0.4,0.3c0.6,0.3,1.2,0.7,1.8,0.9
					c2.9,1.2,5.9,1.4,8.7,0.9c0.9-0.2,1.9-0.5,2.8-0.8c1.3-0.5,2.6-1.3,3.7-2.2c1.4-1.1,2.6-2.5,3.5-4.1l0,0c0,0,0-0.1,0.1-0.1
					c0-0.1,0.1-0.1,0.1-0.2c0.1-0.2,0.2-0.3,0.2-0.5c0,0,0,0,0,0l0,0c0-0.1,0.1-0.2,0.1-0.3c0,0,0-0.1,0.1-0.1c0,0,0-0.1,0-0.1
					c0.1-0.1,0.1-0.3,0.2-0.4c0.1-0.3,0.2-0.6,0.3-0.9l0,0c0-0.1,0.1-0.3,0.1-0.4c0-0.1,0.1-0.3,0.1-0.4c0.1-0.3,0.2-0.6,0.2-0.9
					c0-0.2,0.1-0.3,0.1-0.5c0.1-0.3,0.1-0.6,0.1-0.9c0-0.2,0-0.3,0.1-0.5c0-0.4,0.1-0.8,0.1-1.3c0-0.2,0-0.3,0-0.5
					c0-0.3,0-0.6,0-0.8c0-0.2,0-0.4-0.1-0.6c0-0.2-0.1-0.5-0.1-0.7c0-0.2-0.1-0.4-0.1-0.6c0-0.1,0-0.1,0-0.2c0,0,0,0,0,0
					c-1-4.6-4.2-8.6-8.8-10.6c-7.3-3.1-15.7,0.1-19.2,7.1l0,0c-0.1,0.3-0.3,0.6-0.4,0.9c-0.1,0.2-0.1,0.3-0.2,0.5c0,0,0,0.1,0,0.1
					c0,0,0,0.1,0,0.1c0,0.1-0.1,0.2-0.1,0.3l0,0l0,0c-0.1,0.3-0.2,0.5-0.2,0.8c0,0.1,0,0.1-0.1,0.2l0,0c-0.4,1.3-0.5,2.6-0.5,3.9
					c0,0,0,0,0,0c0,0,0,0,0,0C1193.6,140.7,1193.6,141.3,1193.7,142"/>
				<path id="Fill-9" class="st1" d="M1294.8,135c-5.8-5.4-14.8-5.3-20.5,0.1l0,0c-0.2,0.2-0.5,0.5-0.7,0.7
					c-0.1,0.1-0.2,0.2-0.3,0.4c0,0,0,0-0.1,0.1c0,0-0.1,0.1-0.1,0.1c-0.1,0.1-0.1,0.1-0.2,0.2l0,0c0,0,0,0,0,0
					c-0.2,0.2-0.3,0.4-0.5,0.6c0,0-0.1,0.1-0.1,0.1l0,0c-0.8,1.1-1.4,2.3-1.9,3.5v0c0,0,0,0,0,0c-0.2,0.6-0.4,1.2-0.5,1.9
					c0,0.1-0.1,0.3-0.1,0.4c-0.1,0.6-0.2,1.3-0.3,1.9c0,0,0,0,0,0c0,0.6,0,1.3,0,1.9c0,0.2,0,0.3,0,0.5c0.1,0.6,0.2,1.3,0.3,1.9
					c0,0,0,0,0,0c0.1,0.6,0.3,1.2,0.6,1.8c0.1,0.1,0.1,0.3,0.2,0.4c0.2,0.6,0.5,1.2,0.8,1.8c0,0,0,0,0,0c0.3,0.6,0.7,1.1,1.1,1.6
					c0.1,0.1,0.2,0.3,0.3,0.4c0.4,0.5,0.9,1,1.4,1.5c5.6,5.2,14.1,5.3,19.8,0.6l0,0c0,0,0.1-0.1,0.1-0.1c0.2-0.2,0.4-0.4,0.6-0.5
					c0,0,0,0,0,0l0,0c0.1-0.1,0.1-0.1,0.2-0.2c0,0,0.1-0.1,0.1-0.1c0,0,0,0,0.1-0.1c0.1-0.1,0.2-0.2,0.3-0.3
					c0.2-0.2,0.4-0.5,0.6-0.7l0,0c0.2-0.3,0.5-0.6,0.7-0.9c0.1-0.1,0.2-0.3,0.3-0.4c0.4-0.6,0.7-1.2,1-1.8c0-0.1,0.1-0.1,0.1-0.2
					c0.3-0.6,0.5-1.2,0.7-1.8c0-0.1,0.1-0.2,0.1-0.3c0.2-0.7,0.3-1.3,0.4-2c0,0,0-0.1,0-0.1c0,0,0,0,0,0
					C1300.1,143.3,1298.5,138.4,1294.8,135"/>
				<path id="Fill-11" class="st1" d="M1249.1,186.4c-7.7,1.8-12.6,9.4-11.3,17.1l0,0c0.1,0.3,0.1,0.6,0.2,1c0,0.2,0.1,0.3,0.1,0.5
					c0,0,0,0.1,0,0.1c0,0,0,0.1,0,0.1c0,0.1,0,0.2,0.1,0.3l0,0c0,0,0,0,0,0c0.1,0.3,0.2,0.5,0.3,0.8c0,0,0,0.1,0,0.2l0,0
					c0.5,1.3,1.1,2.4,1.9,3.5l0,0c0,0,0,0,0,0c0.4,0.5,0.8,1,1.3,1.5c0.1,0.1,0.2,0.2,0.3,0.3c0.5,0.4,0.9,0.9,1.4,1.3c0,0,0,0,0,0
					c0.5,0.4,1.1,0.7,1.6,1.1c0.1,0.1,0.3,0.2,0.4,0.2c0.6,0.3,1.1,0.6,1.7,0.8c0,0,0,0,0,0c0.6,0.2,1.2,0.4,1.9,0.6
					c0.2,0,0.3,0.1,0.5,0.1c0.6,0.1,1.3,0.2,1.9,0.3c0,0,0,0,0,0c0.7,0,1.3,0,2,0c0.2,0,0.3,0,0.5,0c0.7-0.1,1.3-0.2,2-0.3
					c7.4-1.8,12.2-8.8,11.4-16.1l0,0c0-0.1,0-0.1,0-0.2c0-0.3-0.1-0.5-0.1-0.8c0,0,0,0,0,0l0,0c0-0.1,0-0.2-0.1-0.3c0,0,0-0.1,0-0.1
					c0,0,0-0.1,0-0.1c0-0.2-0.1-0.3-0.1-0.5c-0.1-0.3-0.2-0.6-0.3-0.9l0,0c-0.1-0.4-0.2-0.7-0.4-1.1c-0.1-0.1-0.1-0.3-0.2-0.4
					c-0.3-0.6-0.6-1.3-0.9-1.8c0-0.1-0.1-0.1-0.1-0.2c-0.3-0.5-0.7-1.1-1.1-1.6c-0.1-0.1-0.1-0.2-0.2-0.2c-0.4-0.5-0.9-1-1.4-1.5
					c0,0,0,0-0.1-0.1c0,0,0,0,0,0C1258.9,186.6,1254,185.2,1249.1,186.4"/>
				<path id="Fill-13" class="st2" d="M1326.6,55.7l-6.8-16.8c-2.3-5.7-8.7-8.4-14.3-6.1c-5.6,2.3-8.3,8.7-6.1,14.4l6.8,16.8
					L1326.6,55.7z"/>
				<path id="Fill-15" class="st3" d="M1305.6,63.4l6.7,16.6c2.3,5.7,8.8,8.5,14.4,6.2c5.7-2.3,8.4-8.9,6.1-14.6l-6.7-16.6
					L1305.6,63.4z"/>
				<path id="Fill-17" class="st4" d="M1309.7,62.6l-5.9-14.3c-2.3-5.7,0.4-12.1,6.1-14.4c1.5-0.6,3-0.9,4.6-0.8
					c-2.7-1.3-6-1.5-9-0.3c-5.7,2.3-8.5,8.7-6.1,14.4l6.9,16.8L1309.7,62.6z"/>
				<path id="Fill-19" class="st5" d="M1322.6,87c-2.5-1.2-4.5-3.2-5.6-5.9l-7.9-19.1l-3.5,1.4l6.8,16.6
					C1314.2,84.3,1318.2,86.9,1322.6,87"/>
				<path id="Fill-21" class="st2" d="M1388.6,33.4L1372,26c-5.6-2.5-12.1,0.1-14.5,5.8c-2.5,5.7,0.1,12.3,5.6,14.8l16.5,7.5
					L1388.6,33.4z"/>
				<path id="Fill-23" class="st3" d="M1379.6,54l16.3,7.1c5.6,2.4,12.2-0.1,14.7-5.6s-0.1-12-5.7-14.4l-16.3-7.1L1379.6,54z"/>
				<path id="Fill-25" class="st4" d="M1381.6,50.6l-14.3-6.3c-5.7-2.5-8.2-9-5.7-14.6c0.7-1.5,1.6-2.7,2.7-3.7
					c-2.9,1-5.4,3.1-6.7,6c-2.5,5.6,0.1,12.2,5.7,14.6l16.8,7.3L1381.6,50.6z"/>
				<path id="Fill-27" class="st5" d="M1407.6,60c-2.5,0.9-5.3,0.8-7.9-0.4l-18.6-8.6l-1.5,3.5l16.1,7.5
					C1399.8,63.9,1404.5,63,1407.6,60"/>
				<path id="Fill-29" class="st3" d="M1415.4,138.5l1.2-6.1l-68.4-13.4l-1.2,6.1c-8.7,0.6-15.9,6-17.5,13.8l-14.7,74.4
					c-1.9,9.6,5.7,19.1,16.9,21.3l56.1,11c11.2,2.2,21.8-3.8,23.7-13.4l14.7-74.4C1427.8,150.1,1423.2,142.3,1415.4,138.5"/>
				<polygon id="Fill-31" class="st5" points="1416.8,136 1348.6,122.8 1349.3,119 1417.6,132.2 				"/>
				<polygon id="Fill-33" class="st6" points="1425.6,115 1348.3,99 1344.6,118 1421.9,134 				"/>
				<polygon id="Fill-35" class="st7" points="1353.6,100.7 1350.3,100 1346.6,118.3 1349.9,119 				"/>
				<polygon id="Fill-37" class="st7" points="1360.6,102.7 1357.3,102 1353.6,120.3 1356.9,121 				"/>
				<polygon id="Fill-39" class="st7" points="1367.6,103.7 1364.3,103 1360.6,121.3 1363.9,122 				"/>
				<polygon id="Fill-41" class="st7" points="1374.6,104.7 1371.3,104 1367.6,122.3 1370.9,123 				"/>
				<polygon id="Fill-43" class="st7" points="1380.6,106.7 1377.3,106 1373.6,124.3 1376.9,125 				"/>
				<polygon id="Fill-45" class="st7" points="1387.6,107.7 1384.3,107 1380.6,125.3 1383.9,126 				"/>
				<polygon id="Fill-47" class="st7" points="1394.6,108.7 1391.3,108 1387.6,126.3 1390.9,127 				"/>
				<polygon id="Fill-49" class="st7" points="1401.6,110.7 1398.3,110 1394.6,128.3 1397.9,129 				"/>
				<polygon id="Fill-51" class="st7" points="1408.6,111.7 1405.3,111 1401.6,129.3 1404.9,130 				"/>
				<polygon id="Fill-53" class="st7" points="1415.6,113.7 1412.3,113 1408.6,131.3 1411.9,132 				"/>
				<polygon id="Fill-55" class="st7" points="1422.6,114.7 1419.3,114 1415.6,132.3 1418.9,133 				"/>
				<polygon id="Fill-57" class="st6" points="1415.1,213 1318.6,193.9 1327,151 1423.6,170.1 				"/>
				<path id="Fill-59" class="st5" d="M1390.2,233.5l-55.3-11c-11.1-2.2-18.5-11.8-16.7-21.4l-2.3,12.1c-1.9,9.6,5.6,19.2,16.7,21.4
					l55.3,11c11.1,2.2,21.5-3.8,23.4-13.4l2.3-12.1C1411.7,229.7,1401.2,235.7,1390.2,233.5"/>
				<polygon id="Fill-61" class="st4" points="1421.1,178 1325.6,159.5 1327.1,152 1422.6,170.5 				"/>
				<polygon id="Fill-63" class="st4" points="1352.6,177.9 1346.5,176.7 1347.7,170.6 1339.4,169 1338.2,175 1332.2,173.8 
					1330.6,182.1 1336.6,183.3 1335.4,189.4 1343.7,191 1344.9,185 1350.9,186.2 				"/>
				<polygon id="Fill-65" class="st7" points="1410.8,189 1376.6,182.6 1377.3,179 1411.6,185.4 				"/>
				<polygon id="Fill-67" class="st7" points="1409.8,198 1375.6,191.6 1376.3,188 1410.6,194.4 				"/>
				<path id="Fill-69" class="st6" d="M1210.4,136.8c-3.2,7.6-12,11.2-19.6,8s-11.2-12-8-19.6c3.2-7.6,12-11.2,19.6-8
					C1210,120.4,1213.6,129.2,1210.4,136.8"/>
				<path id="Fill-71" class="st8" d="M1211.2,127c0,2-0.4,4-1.2,6c-3.2,7.9-12,11.7-19.6,8.3c-4.6-2-7.8-6.2-8.8-10.9
					c0,6.1,3.5,11.8,9.2,14.4c7.6,3.3,16.4-0.4,19.6-8.3C1211.7,133.3,1211.9,130.1,1211.2,127"/>
				<path id="Fill-73" class="st8" d="M1182,125.5c-0.2,0.5-0.3,0.9-0.4,1.4l28.1,12.1c0.2-0.4,0.5-0.8,0.7-1.3
					c0.1-0.2,0.1-0.4,0.2-0.6l-28.3-12.1C1182.2,125.2,1182.1,125.4,1182,125.5"/>
				<path id="Fill-75" class="st7" d="M1182.9,124.9c-0.1,0.3-0.2,0.6-0.4,1l28.2,12.1c0.1-0.3,0.3-0.6,0.4-0.9
					c0.1-0.3,0.2-0.6,0.4-1l-28.2-12.1C1183.2,124.3,1183.1,124.6,1182.9,124.9"/>
				<path id="Fill-77" class="st6" d="M1282.6,147.2c-5.6,6.1-15.1,6.4-21.2,0.8s-6.4-15.1-0.8-21.2c5.6-6.1,15.1-6.4,21.2-0.8
					C1287.9,131.6,1288.2,141.1,1282.6,147.2"/>
				<path id="Fill-79" class="st8" d="M1286.6,139c-0.7,1.8-1.7,3.5-3.1,5c-5.7,6-15.2,6.4-21.3,0.8c-3.7-3.4-5.3-8.2-4.7-12.8
					c-2,5.5-0.7,11.8,3.9,16c6.1,5.6,15.6,5.2,21.3-0.8C1284.9,144.9,1286.2,142,1286.6,139"/>
				<path id="Fill-81" class="st8" d="M1260.4,126.4c-0.3,0.4-0.6,0.7-0.8,1.1l21.6,20.5c0.3-0.3,0.7-0.6,1-0.9
					c0.1-0.1,0.3-0.3,0.4-0.4l-21.7-20.6C1260.7,126.1,1260.6,126.3,1260.4,126.4"/>
				<path id="Fill-83" class="st7" d="M1260.2,126.7c-0.2,0.2-0.4,0.5-0.7,0.7l22.6,20.6c0.2-0.2,0.5-0.5,0.7-0.7
					c0.2-0.2,0.4-0.5,0.7-0.7l-22.6-20.6C1260.7,126.2,1260.5,126.5,1260.2,126.7"/>
				<path id="Fill-85" class="st6" d="M1255.2,188.5c1.9,8.1-3,16.1-11.1,18.1c-8.1,1.9-16.1-3-18.1-11.1c-1.9-8.1,3-16.1,11.1-18.1
					C1245.2,175.5,1253.2,180.5,1255.2,188.5"/>
				<path id="Fill-87" class="st8" d="M1250.4,180c1.1,1.6,2,3.5,2.5,5.5c1.9,8.3-3,16.6-11.1,18.5c-4.9,1.2-9.8-0.2-13.3-3.4
					c3.4,4.9,9.5,7.4,15.5,5.9c8-2,13-10.3,11.1-18.5C1254.4,184.8,1252.7,182,1250.4,180"/>
				<path id="Fill-89" class="st8" d="M1225.7,195.7c0.1,0.5,0.3,0.9,0.4,1.3l29.4-7c0-0.5-0.1-0.9-0.2-1.4c0-0.2-0.1-0.4-0.2-0.6
					l-29.6,7.1C1225.6,195.3,1225.7,195.5,1225.7,195.7"/>
				<path id="Fill-91" class="st7" d="M1225.8,195c0.1,0.3,0.2,0.6,0.3,1l29.5-7.1c-0.1-0.3-0.1-0.7-0.2-1c-0.1-0.3-0.2-0.6-0.3-1
					l-29.5,7.1C1225.6,194.4,1225.7,194.7,1225.8,195"/>
				<path id="Fill-93" class="st1" d="M116.6,23.6c0-0.1,0-0.1,0-0.2c0,0,0,0,0,0c-0.2-4.7-2.4-9.2-6.5-12c-6.4-4.4-15-2.7-19.5,3.5
					l0,0c-0.2,0.3-0.4,0.5-0.5,0.8c-0.1,0.1-0.2,0.3-0.2,0.4c0,0,0,0,0,0.1c0,0,0,0.1-0.1,0.1c0,0.1-0.1,0.2-0.1,0.2l0,0
					c0,0,0,0,0,0c-0.1,0.2-0.3,0.5-0.4,0.7c0,0-0.1,0.1-0.1,0.1l0,0c-0.6,1.2-1,2.5-1.2,3.8v0c0,0,0,0,0,0c-0.1,0.6-0.2,1.3-0.2,1.9
					c0,0.2,0,0.3,0,0.5c0,0.6,0,1.3,0.1,1.9c0,0,0,0,0,0c0.1,0.6,0.2,1.3,0.3,1.9c0,0.2,0.1,0.3,0.1,0.4c0.2,0.6,0.3,1.2,0.6,1.8
					c0,0,0,0,0,0c0.2,0.6,0.5,1.2,0.8,1.7c0.1,0.1,0.2,0.3,0.2,0.4c0.3,0.5,0.7,1.1,1.1,1.6c0,0,0,0,0,0c0.4,0.5,0.9,1,1.3,1.4
					c0.1,0.1,0.2,0.2,0.4,0.3c0.5,0.4,1,0.9,1.6,1.2c6.2,4.2,14.3,2.9,18.9-2.8l0,0c0,0,0.1-0.1,0.1-0.1c0.2-0.2,0.3-0.4,0.5-0.6
					c0,0,0,0,0,0l0,0c0.1-0.1,0.1-0.2,0.2-0.2c0,0,0.1-0.1,0.1-0.1c0,0,0,0,0-0.1c0.1-0.1,0.2-0.3,0.3-0.4c0.2-0.3,0.3-0.6,0.5-0.8
					l0,0c0.1-0.1,0.1-0.2,0.2-0.4c0.1-0.1,0.1-0.3,0.2-0.4c0.1-0.3,0.3-0.6,0.4-0.9c0.1-0.2,0.1-0.3,0.2-0.5
					c0.1-0.3,0.2-0.6,0.3-0.9c0-0.1,0.1-0.3,0.1-0.4c0.1-0.4,0.2-0.8,0.3-1.2c0-0.2,0-0.3,0.1-0.5c0-0.3,0.1-0.5,0.1-0.8
					c0-0.2,0-0.4,0-0.6c0-0.2,0-0.5,0-0.7C116.6,24,116.6,23.8,116.6,23.6"/>
				<path id="Fill-95" class="st1" d="M136.3,86.9c0-0.1,0-0.2-0.1-0.3c0,0,0-0.1,0-0.1c0,0,0-0.1,0-0.1c0-0.2-0.1-0.3-0.1-0.5
					c-0.1-0.3-0.2-0.6-0.3-0.9l0,0c0-0.1-0.1-0.3-0.1-0.4c-0.1-0.1-0.1-0.3-0.2-0.4c-0.1-0.3-0.2-0.6-0.4-0.9
					c-0.1-0.1-0.1-0.3-0.2-0.4c-0.1-0.3-0.3-0.5-0.4-0.8c-0.1-0.1-0.1-0.3-0.2-0.4c-0.2-0.4-0.5-0.7-0.7-1c-0.1-0.1-0.2-0.2-0.3-0.4
					c-0.2-0.2-0.3-0.4-0.5-0.6c-0.1-0.1-0.3-0.3-0.4-0.4c-0.2-0.2-0.3-0.3-0.5-0.5c-0.1-0.1-0.3-0.3-0.4-0.4c0,0-0.1-0.1-0.1-0.1
					c0,0,0,0,0,0c-3.5-2.9-8.3-4.1-13-2.8c-7.4,2.2-11.8,9.9-10.2,17.6l0,0c0.1,0.3,0.1,0.6,0.2,1c0,0.2,0.1,0.3,0.1,0.5
					c0,0,0,0.1,0,0.1c0,0,0,0.1,0,0.1c0,0.1,0.1,0.2,0.1,0.3l0,0c0,0,0,0,0,0c0.1,0.3,0.2,0.5,0.3,0.7c0,0,0,0.1,0.1,0.1l0,0
					c0.5,1.2,1.2,2.4,2,3.4c0,0,0,0,0,0l0,0c0,0,0.1,0.1,0.1,0.1c0.2,0.3,0.5,0.6,0.7,0.8c0.1,0.1,0.2,0.2,0.3,0.3
					c0.2,0.2,0.4,0.4,0.6,0.6c0.1,0.1,0.2,0.2,0.3,0.3c0.3,0.3,0.6,0.5,1,0.8c0,0,0.1,0.1,0.1,0.1c0.3,0.2,0.6,0.4,0.9,0.6
					c0.1,0.1,0.2,0.1,0.4,0.2c0.3,0.1,0.5,0.3,0.8,0.4c0.1,0.1,0.2,0.1,0.4,0.2c0.4,0.2,0.8,0.3,1.2,0.5c0,0,0.1,0,0.1,0
					c0.4,0.1,0.7,0.2,1.1,0.3c0.1,0,0.3,0.1,0.4,0.1c0.3,0.1,0.6,0.1,0.9,0.2c0.1,0,0.3,0,0.4,0.1c0.4,0.1,0.8,0.1,1.3,0.1h0
					c0.4,0,0.8,0,1.3,0c0.1,0,0.3,0,0.4,0c0.3,0,0.6-0.1,1-0.1c0.1,0,0.3,0,0.4-0.1c0.4-0.1,0.9-0.2,1.3-0.3
					c7.1-2.1,11.4-9.2,10.4-16.6l0,0c0-0.1,0-0.1,0-0.2C136.4,87.4,136.3,87.2,136.3,86.9C136.3,86.9,136.3,86.9,136.3,86.9
					L136.3,86.9z"/>
				<path id="Fill-97" class="st1" d="M193.6,104.1c0,0.2,0,0.3,0,0.5c0.1,0.6,0.2,1.3,0.3,1.9c0,0,0,0,0,0c0.1,0.6,0.3,1.2,0.6,1.8
					c0.1,0.1,0.1,0.3,0.2,0.4c0.2,0.6,0.5,1.2,0.8,1.7c0,0,0,0,0,0c0.3,0.6,0.7,1.1,1,1.6c0.1,0.1,0.2,0.3,0.3,0.4
					c0.4,0.5,0.8,1,1.3,1.4c0,0,0,0,0,0c0.5,0.5,1,0.9,1.5,1.2c0.1,0.1,0.3,0.2,0.4,0.3c0.5,0.4,1.1,0.7,1.7,1
					c6.6,3.3,14.5,1,18.4-5.2l0,0c0,0,0.1-0.1,0.1-0.1c0.1-0.2,0.3-0.5,0.4-0.7l0,0l0,0c0-0.1,0.1-0.2,0.1-0.2c0,0,0-0.1,0.1-0.1
					c0,0,0-0.1,0-0.1c0.1-0.1,0.2-0.3,0.2-0.4c0.1-0.3,0.3-0.6,0.4-0.9l0,0c0.1-0.1,0.1-0.3,0.1-0.4c0.1-0.1,0.1-0.3,0.1-0.4
					c0.1-0.3,0.2-0.6,0.3-0.9c0-0.2,0.1-0.3,0.1-0.5c0.1-0.3,0.1-0.6,0.2-0.9c0-0.1,0.1-0.3,0.1-0.4c0.1-0.4,0.1-0.8,0.1-1.3
					c0-0.2,0-0.3,0-0.5c0-0.3,0-0.6,0-0.8c0-0.2,0-0.4,0-0.6c0-0.2,0-0.5-0.1-0.7c0-0.2,0-0.4-0.1-0.6c0-0.1,0-0.1,0-0.2
					c0,0,0,0,0,0c-0.7-4.6-3.5-8.8-7.9-11c-6.9-3.5-15.2-0.8-18.9,6l0,0c-0.2,0.3-0.3,0.6-0.4,0.9c-0.1,0.1-0.1,0.3-0.2,0.4
					c0,0,0,0,0,0.1c0,0,0,0.1,0,0.1c0,0.1-0.1,0.2-0.1,0.3l0,0c0,0,0,0,0,0c-0.1,0.2-0.2,0.5-0.3,0.7c0,0,0,0.1-0.1,0.1l0,0
					c-0.4,1.3-0.7,2.6-0.7,3.9v0v0C193.6,102.8,193.6,103.5,193.6,104.1"/>
				<g id="Group-101" transform="translate(0.577258, 44.000000)" class="st9">
					<g id="Clip-100">
					</g>
					<defs>
						<filter id="Adobe_OpacityMaskFilter" filterUnits="userSpaceOnUse" x="-7.9" y="0.1" width="110.6" height="172.3">
							<feColorMatrix  type="matrix" values="1 0 0 0 0  0 1 0 0 0  0 0 1 0 0  0 0 0 1 0"/>
						</filter>
					</defs>
					<mask maskUnits="userSpaceOnUse" x="-7.9" y="0.1" width="110.6" height="172.3" id="mask-2_1_">
						<g class="st10">
							<polygon id="path-1_1_" class="st11" points="0.6,0.1 102.7,0.1 102.7,172.4 0.6,172.4 							"/>
						</g>
					</mask>
					<path id="Fill-99" class="st12" d="M52.6,21.4l-6.1,1.8l4.9-1.4L52.6,21.4z M33.2,27.1L33.2,27.1l-0.7,0.2L33.2,27.1z
						 M39.1,25.4l0.4-0.1L34,26.9L39.1,25.4z M45.3,23.6l0.8-0.2L40.3,25L45.3,23.6z M-3,37.7l2.5-0.7L1,36.5l2.1,7.2l36.4,123.7
						c1.1,3.7,4.9,5.8,8.6,4.7l49.5-14.5c3.7-1.1,5.8-4.9,4.7-8.6l-3.1-10.4L86.9,96.5L72.7,48L66,25.3l-2.1-7.2l-11,3.2l4.9-1.4
						l1.4-0.4l4.3-1.3l2-0.6l2.5-0.7L63,0.1l-4,1.2l-1.5,0.4L22.7,11.9l-0.6,0.2l-5.7,1.7L15.6,14l-5.5,1.6l-0.9,0.3l-5.4,1.6
						l-1,0.3l-5.3,1.5l-3,0.9l-2.5,0.7L-3,37.7z"/>
				</g>
				<g id="Group-104" transform="translate(113.577258, 147.000000)" class="st9">
					<g id="Clip-103">
					</g>
					<defs>
						<filter id="Adobe_OpacityMaskFilter_1_" filterUnits="userSpaceOnUse" x="0.4" y="0.2" width="99.5" height="129.6">
							<feColorMatrix  type="matrix" values="1 0 0 0 0  0 1 0 0 0  0 0 1 0 0  0 0 0 1 0"/>
						</filter>
					</defs>
					<mask maskUnits="userSpaceOnUse" x="0.4" y="0.2" width="99.5" height="129.6" id="mask-4_1_">
						<g class="st13">
							<polygon id="path-3_1_" class="st11" points="0.4,0.2 99.9,0.2 99.9,115.3 0.4,115.3 							"/>
						</g>
					</mask>
					<path id="Fill-102" class="st14" d="M83.9,11.1L83.9,11.1l-2.9-0.6l-3.2-0.6l-3-0.6l-3.2-0.6l-2.9-0.6l-3.2-0.6l-2.9-0.6
						l-3.2-0.6l-2.9-0.6L53,5l-1-0.2l-5.2-1l-2.9-0.6l-3.2-0.6l-2.9-0.6l-3.2-0.6l-3-0.6l-2.4-0.5l-3.3,16.4l4.5,0.9l-1,5.3
						c-7.7,0.5-14.1,5.3-15.5,12.2l-2.3,11.7L10,53.4L3.9,84.5l-3.2,16.3c-1.7,8.5,5,16.9,15,18.9l49.8,9.8c10,2,19.4-3.3,21.1-11.8
						l2.1-10.7l1.1-5.6l7.5-37.9l2.3-11.7c1.4-6.9-2.8-13.7-9.7-17.1l0.4-2l0.6-3.1l4.4,0.9l3.3-16.4l-2.4-0.5L93.3,13L83.9,11.1z"
						/>
				</g>
				<path id="Fill-105" class="st6" d="M102.1,23.2c-4.5,6.9-13.8,8.9-20.8,4.3C74.4,23,72.5,13.7,77,6.8c4.5-6.9,13.8-8.9,20.8-4.3
					C104.7,7,106.7,16.3,102.1,23.2"/>
				<path id="Fill-107" class="st8" d="M104.6,15.1c-0.4,1.8-1.1,3.6-2.2,5.3c-4.5,6.6-13.8,8.5-20.8,4.1c-4.2-2.6-6.6-7-6.8-11.5
					c-1.1,5.5,1.3,11.4,6.5,14.6c6.9,4.4,16.2,2.5,20.8-4.1C103.9,20.9,104.7,18,104.6,15.1"/>
				<path id="Fill-109" class="st8" d="M77.2,7.5c-0.2,0.4-0.5,0.8-0.7,1.2L101.4,25c0.3-0.3,0.6-0.7,0.9-1.1
					c0.1-0.2,0.2-0.3,0.3-0.5L77.6,7C77.5,7.2,77.3,7.3,77.2,7.5"/>
				<path id="Fill-111" class="st7" d="M77.1,6.8c-0.2,0.3-0.3,0.6-0.5,0.8L101.5,24c0.2-0.3,0.4-0.5,0.6-0.8
					c0.2-0.3,0.3-0.6,0.5-0.8L77.6,6C77.5,6.3,77.3,6.5,77.1,6.8"/>
				<path id="Fill-113" class="st6" d="M126,77.9c2.2,8-2.4,16.3-10.4,18.5c-8,2.2-16.3-2.4-18.5-10.4c-2.2-8,2.4-16.3,10.4-18.5
					C115.5,65.3,123.8,70,126,77.9"/>
				<path id="Fill-115" class="st8" d="M120.1,71c1.2,1.5,2.1,3.2,2.6,5.1c2.2,7.8-2.3,15.8-10.1,18c-4.7,1.3-9.5,0.2-13.1-2.7
					c3.5,4.5,9.5,6.6,15.4,5c7.8-2.2,12.3-10.3,10.1-18C124.2,75.4,122.4,72.8,120.1,71"/>
				<path id="Fill-117" class="st8" d="M96.7,86.7c0.1,0.4,0.3,0.9,0.5,1.3l28.4-8.1c-0.1-0.5-0.2-0.9-0.3-1.4
					c-0.1-0.2-0.1-0.4-0.2-0.5l-28.6,8.1C96.6,86.3,96.7,86.5,96.7,86.7"/>
				<path id="Fill-119" class="st7" d="M96.8,86.1c0.1,0.3,0.2,0.6,0.3,0.9l28.5-8.1c-0.1-0.3-0.1-0.6-0.2-1
					c-0.1-0.3-0.2-0.6-0.3-0.9l-28.5,8.1C96.6,85.4,96.7,85.8,96.8,86.1"/>
				<path id="Fill-121" class="st6" d="M211.1,100.6c-3.6,7.4-12.6,10.5-20.1,6.9c-7.4-3.6-10.5-12.6-6.9-20.1
					c3.6-7.4,12.6-10.5,20.1-6.9C211.6,84.2,214.7,93.1,211.1,100.6"/>
				<path id="Fill-123" class="st8" d="M212.4,92c-0.1,1.9-0.6,3.8-1.5,5.6c-3.6,7.2-12.6,10.2-20.1,6.7c-4.5-2.2-7.4-6.2-8.2-10.7
					c-0.3,5.7,2.8,11.3,8.4,13.9c7.4,3.5,16.4,0.5,20.1-6.7C212.5,98,212.9,94.9,212.4,92"/>
				<path id="Fill-125" class="st8" d="M184.1,87.5c-0.2,0.4-0.3,0.9-0.5,1.3l26.1,13.2c0.2-0.4,0.5-0.8,0.7-1.2
					c0.1-0.2,0.2-0.4,0.2-0.5L184.3,87C184.2,87.2,184.2,87.3,184.1,87.5"/>
				<path id="Fill-127" class="st7" d="M184,86.9c-0.1,0.3-0.3,0.6-0.4,0.9l26.2,13.2c0.2-0.3,0.3-0.6,0.4-0.9
					c0.1-0.3,0.3-0.6,0.4-0.9L184.4,86C184.3,86.3,184.1,86.6,184,86.9"/>
				<g id="Group-131" transform="translate(0.577258, 55.000000)">
					<g id="Clip-130">
					</g>
					<defs>
						<filter id="Adobe_OpacityMaskFilter_2_" filterUnits="userSpaceOnUse" x="-10" y="0.3" width="100.6" height="153.6">
							<feColorMatrix  type="matrix" values="1 0 0 0 0  0 1 0 0 0  0 0 1 0 0  0 0 0 1 0"/>
						</filter>
					</defs>
					<mask maskUnits="userSpaceOnUse" x="-10" y="0.3" width="100.6" height="153.6" id="mask-6_1_">
						<g class="st15">
							<polygon id="path-5_1_" class="st11" points="0.6,0.3 90.7,0.3 90.7,153.9 0.6,153.9 							"/>
						</g>
					</mask>
					<path id="Fill-129" class="st16" d="M-10,18.6L28.2,149c1.1,3.6,4.9,5.7,8.5,4.7l49-14.4c3.6-1.1,5.7-4.9,4.6-8.5L52.2,0.3
						L-10,18.6z"/>
				</g>
				<g id="Group-134" transform="translate(0.577258, 85.000000)">
					<g id="Clip-133">
					</g>
					<defs>
						<filter id="Adobe_OpacityMaskFilter_3_" filterUnits="userSpaceOnUse" x="-1.3" y="0.1" width="76.8" height="66.4">
							<feColorMatrix  type="matrix" values="1 0 0 0 0  0 1 0 0 0  0 0 1 0 0  0 0 0 1 0"/>
						</filter>
					</defs>
					<mask maskUnits="userSpaceOnUse" x="-1.3" y="0.1" width="76.8" height="66.4" id="mask-8_1_">
						<g class="st17">
							<polygon id="path-7_1_" class="st11" points="0.6,0.1 75.5,0.1 75.5,66.5 0.6,66.5 							"/>
						</g>
					</mask>
					<polygon id="Fill-132" class="st18" points="75.5,48.2 12.9,66.5 -1.3,18.4 61.3,0.1 					"/>
				</g>
				<g id="Group-137" transform="translate(0.577258, 36.000000)">
					<g id="Clip-136">
					</g>
					<defs>
						<filter id="Adobe_OpacityMaskFilter_4_" filterUnits="userSpaceOnUse" x="-19" y="0.6" width="75.6" height="37.8">
							<feColorMatrix  type="matrix" values="1 0 0 0 0  0 1 0 0 0  0 0 1 0 0  0 0 0 1 0"/>
						</filter>
					</defs>
					<mask maskUnits="userSpaceOnUse" x="-19" y="0.6" width="75.6" height="37.8" id="mask-10_1_">
						<g class="st19">
							<polygon id="path-9_1_" class="st11" points="0.6,0.6 56.6,0.6 56.6,38.4 0.6,38.4 							"/>
						</g>
					</mask>
					<polygon id="Fill-135" class="st20" points="51.7,0.6 -19,21.5 -14.1,38.4 56.6,17.5 					"/>
				</g>
				<g id="Group-140" transform="translate(0.577258, 52.000000)">
					<g id="Clip-139">
					</g>
					<defs>
						<filter id="Adobe_OpacityMaskFilter_5_" filterUnits="userSpaceOnUse" x="-3.9" y="0.5" width="7.6" height="17.7">
							<feColorMatrix  type="matrix" values="1 0 0 0 0  0 1 0 0 0  0 0 1 0 0  0 0 0 1 0"/>
						</filter>
					</defs>
					<mask maskUnits="userSpaceOnUse" x="-3.9" y="0.5" width="7.6" height="17.7" id="mask-12_1_">
						<g class="st21">
							<polygon id="path-11_1_" class="st11" points="0.5,0.5 3.8,0.5 3.8,18.2 0.5,18.2 							"/>
						</g>
					</mask>
					<polygon id="Fill-138" class="st22" points="-1,0.5 -3.9,1.4 0.9,18.2 3.8,17.3 					"/>
				</g>
				<polygon id="Fill-141" class="st7" points="6.6,51 3.6,51.8 8.6,68 11.6,67.2 				"/>
				<polygon id="Fill-143" class="st7" points="12.6,49 9.6,49.8 14.6,66 17.6,65.2 				"/>
				<polygon id="Fill-145" class="st7" points="18.6,47 15.6,47.8 20.6,64 23.6,63.2 				"/>
				<polygon id="Fill-147" class="st7" points="24.6,46 21.6,46.8 26.6,63 29.6,62.2 				"/>
				<polygon id="Fill-149" class="st7" points="31.6,44 28.6,44.8 33.6,61 36.6,60.2 				"/>
				<polygon id="Fill-151" class="st7" points="37.6,42 34.6,42.8 39.6,59 42.6,58.2 				"/>
				<polygon id="Fill-153" class="st7" points="44.6,40 41.6,40.8 46.6,57 49.6,56.2 				"/>
				<polygon id="Fill-155" class="st7" points="50.6,38 47.6,38.8 52.6,55 55.6,54.2 				"/>
				<g id="Group-159" transform="translate(1.577258, 55.000000)">
					<g id="Clip-158">
					</g>
					<defs>
						<filter id="Adobe_OpacityMaskFilter_6_" filterUnits="userSpaceOnUse" x="-10" y="0.3" width="64.4" height="25">
							<feColorMatrix  type="matrix" values="1 0 0 0 0  0 1 0 0 0  0 0 1 0 0  0 0 0 1 0"/>
						</filter>
					</defs>
					<mask maskUnits="userSpaceOnUse" x="-10" y="0.3" width="64.4" height="25" id="mask-14_1_">
						<g class="st23">
							<polygon id="path-13_1_" class="st11" points="0.6,0.3 54.4,0.3 54.4,25.3 0.6,25.3 							"/>
						</g>
					</mask>
					<polygon id="Fill-157" class="st24" points="54.4,7.3 52.3,0.3 -10,18.2 -7.9,25.3 					"/>
				</g>
				<polygon id="Fill-160" class="st7" points="66.6,120.9 49.4,126 48.6,123.1 65.7,118 				"/>
				<polygon id="Fill-162" class="st7" points="65.6,114.9 48.4,120 47.6,117.1 64.7,112 				"/>
				<polygon id="Fill-164" class="st7" points="63.6,108.9 46.4,114 45.6,111.1 62.7,106 				"/>
				<path id="Fill-166" class="st2" d="M23.3,111.4c1.2,4-1.1,8.1-5.1,9.3c-4,1.2-8.1-1.1-9.3-5.1c-1.2-4,1.1-8.1,5.1-9.3
					C17.9,105.1,22.1,107.4,23.3,111.4"/>
				<path id="Fill-168" class="st5" d="M83.6,183.6l-49.4,14.6c-3.7,1.1-7.5-1-8.6-4.7l3,10.5c1.1,3.7,4.9,5.8,8.6,4.7l49.4-14.6
					c3.7-1.1,5.8-5,4.7-8.6l-3-10.5C89.3,178.7,87.2,182.6,83.6,183.6"/>
				<g id="Group-172" transform="translate(101.577258, 155.000000)">
					<g id="Clip-171">
					</g>
					<defs>
						<filter id="Adobe_OpacityMaskFilter_7_" filterUnits="userSpaceOnUse" x="0.4" y="0.6" width="99.5" height="112.1">
							<feColorMatrix  type="matrix" values="1 0 0 0 0  0 1 0 0 0  0 0 1 0 0  0 0 0 1 0"/>
						</filter>
					</defs>
					<mask maskUnits="userSpaceOnUse" x="0.4" y="0.6" width="99.5" height="112.1" id="mask-16_1_">
						<g class="st25">
							<polygon id="path-15_1_" class="st11" points="0.4,0.6 99.9,0.6 99.9,106.3 0.4,106.3 							"/>
						</g>
					</mask>
					<path id="Fill-170" class="st26" d="M89.9,17.8l1.1-5.3L30.3,0.6l-1.1,5.4c-7.7,0.5-14.1,5.3-15.5,12.1l-13,65.6
						c-1.7,8.5,5,16.9,15,18.8l49.8,9.7c10,1.9,19.4-3.3,21.1-11.8l13-65.6C101,28,96.8,21.2,89.9,17.8"/>
				</g>
				<polygon id="Fill-173" class="st4" points="191.9,171 131.6,159.3 132.2,156 192.6,167.7 				"/>
				<polygon id="Fill-175" class="st6" points="199.6,152.7 130.8,139 127.6,155.3 196.3,169 				"/>
				<polygon id="Fill-177" class="st7" points="135.6,139.6 132.7,139 129.6,155.4 132.4,156 				"/>
				<polygon id="Fill-179" class="st7" points="142.6,140.6 139.7,140 136.6,156.4 139.4,157 				"/>
				<polygon id="Fill-181" class="st7" points="148.6,142.6 145.7,142 142.6,158.4 145.4,159 				"/>
				<polygon id="Fill-183" class="st7" points="154.6,143.6 151.7,143 148.6,159.4 151.4,160 				"/>
				<polygon id="Fill-185" class="st7" points="160.6,144.6 157.7,144 154.6,160.4 157.4,161 				"/>
				<polygon id="Fill-187" class="st7" points="167.6,145.6 164.7,145 161.6,161.4 164.4,162 				"/>
				<polygon id="Fill-189" class="st7" points="173.6,146.6 170.7,146 167.6,162.4 170.4,163 				"/>
				<polygon id="Fill-191" class="st7" points="179.6,148.6 176.7,148 173.6,164.4 176.4,165 				"/>
				<polygon id="Fill-193" class="st7" points="185.6,149.6 182.7,149 179.6,165.4 182.4,166 				"/>
				<polygon id="Fill-195" class="st7" points="191.6,150.6 188.7,150 185.6,166.4 188.4,167 				"/>
				<polygon id="Fill-197" class="st7" points="197.6,151.6 194.7,151 191.6,167.4 194.4,168 				"/>
				<polygon id="Fill-199" class="st6" points="191.2,240 106.6,223.1 114,185 198.6,201.9 				"/>
				<g id="Group-203" transform="translate(102.577258, 228.000000)">
					<g id="Clip-202">
					</g>
					<defs>
						<filter id="Adobe_OpacityMaskFilter_8_" filterUnits="userSpaceOnUse" x="0.4" y="0.6" width="86.8" height="40.2">
							<feColorMatrix  type="matrix" values="1 0 0 0 0  0 1 0 0 0  0 0 1 0 0  0 0 0 1 0"/>
						</filter>
					</defs>
					<mask maskUnits="userSpaceOnUse" x="0.4" y="0.6" width="86.8" height="40.2" id="mask-18_1_">
						<g class="st27">
							<polygon id="path-17_1_" class="st11" points="0.4,0.6 87.2,0.6 87.2,34.2 0.4,34.2 							"/>
						</g>
					</mask>
					<path id="Fill-201" class="st28" d="M66.4,29.5l-49-9.9C7.7,17.7,1.1,9.2,2.7,0.6L0.6,11.4C-1,20,5.6,28.5,15.4,30.5l49,9.9
						c9.8,2,19.1-3.4,20.7-12l2.1-10.8C85.5,26.2,76.2,31.5,66.4,29.5"/>
				</g>
				<polygon id="Fill-204" class="st3" points="197.2,208 112.6,191.6 113.9,185 198.6,201.4 				"/>
				<polygon id="Fill-206" class="st3" points="136.6,208.1 131.1,207 132.2,201.5 124.6,200 123.5,205.5 118.1,204.4 116.6,211.9 
					122.1,213 121,218.5 128.5,220 129.6,214.5 135.1,215.6 				"/>
				<polygon id="Fill-208" class="st7" points="186.9,218 157.6,212.2 158.2,209 187.6,214.8 				"/>
				<polygon id="Fill-210" class="st7" points="185.9,226 156.6,220.2 157.2,217 186.6,222.8 				"/>
			</g>
		</g>
	</g>
</g>
</svg>
